<svg xmlns="http://www.w3.org/2000/svg" viewBox="0 0 500 500"><g id="freepik--background-complete--inject-29"><rect y="382.4" width="500" height="0.25" style="fill:#ebebeb"></rect><rect x="416.78" y="398.49" width="33.12" height="0.25" style="fill:#ebebeb"></rect><rect x="322.53" y="401.21" width="8.69" height="0.25" style="fill:#ebebeb"></rect><rect x="396.59" y="389.21" width="19.19" height="0.25" style="fill:#ebebeb"></rect><rect x="52.46" y="390.89" width="43.19" height="0.25" style="fill:#ebebeb"></rect><rect x="104.56" y="390.89" width="6.33" height="0.25" style="fill:#ebebeb"></rect><rect x="131.47" y="395.11" width="93.68" height="0.25" style="fill:#ebebeb"></rect><path d="M237,337.8H43.91a5.71,5.71,0,0,1-5.7-5.71V60.66A5.71,5.71,0,0,1,43.91,55H237a5.71,5.71,0,0,1,5.71,5.71V332.09A5.71,5.71,0,0,1,237,337.8ZM43.91,55.2a5.46,5.46,0,0,0-5.45,5.46V332.09a5.46,5.46,0,0,0,5.45,5.46H237a5.47,5.47,0,0,0,5.46-5.46V60.66A5.47,5.47,0,0,0,237,55.2Z" style="fill:#ebebeb"></path><path d="M453.31,337.8H260.21a5.72,5.72,0,0,1-5.71-5.71V60.66A5.72,5.72,0,0,1,260.21,55h193.1A5.71,5.71,0,0,1,459,60.66V332.09A5.71,5.71,0,0,1,453.31,337.8ZM260.21,55.2a5.47,5.47,0,0,0-5.46,5.46V332.09a5.47,5.47,0,0,0,5.46,5.46h193.1a5.47,5.47,0,0,0,5.46-5.46V60.66a5.47,5.47,0,0,0-5.46-5.46Z" style="fill:#ebebeb"></path><path d="M435.36,380.93l-.47-69-10.25-8.65-4.74-22.82-6.14-7.16-3.3-16-5.6,7.28-3.17,43.67-3.17-5-2.52-17-5.06,5.44-6.33,1.59-3.69,36.08-94,11.21-19.59-16.75-8-32.65-8.25-8.52L248.65,267l-7.89,2.73v16.61l-6.71,3.86-2.87,33.71-8.42,11.65-2.39-20.83s-6.45-5.16-7.88-6.4-9.56-23.9-8.33-25.59-1.76-16.39-1.76-16.39l-8.13,4.87v24.34l-8.49,2.15-1.27,10.62-21.64,3.5-3.48-16.27h-9.65l-3,9.27-8.78-.06-13.89,10-11.43-22.42L101,297.69l-8.37-19.42-8.79,11.38-3.26,36.93-4.51.52-2.09-8-8.46,8v53.83Z" style="fill:#f5f5f5"></path><path d="M319.57,98.2H300.06a3.12,3.12,0,0,1,.09-6.23,3.24,3.24,0,0,1,.89.13,7.48,7.48,0,0,1-.07-1,6.6,6.6,0,0,1,6.6-6.59,7,7,0,0,1,1.22.11,5.76,5.76,0,0,1,10.69,2.92h.09a5.32,5.32,0,1,1,0,10.63Z" style="fill:#f5f5f5"></path><path d="M91.38,143.93H71.87a3.12,3.12,0,0,1,.09-6.23,2.91,2.91,0,0,1,.89.14,7.61,7.61,0,0,1-.07-1,6.61,6.61,0,0,1,6.6-6.6,6.06,6.06,0,0,1,1.21.12,5.77,5.77,0,0,1,10.7,2.91h.09a5.32,5.32,0,1,1,0,10.63Z" style="fill:#f5f5f5"></path><path d="M73,362.18l16.52-3.3,3.73-45.17,11.27-7.81,3.93-38.74,10.13-11.4,4.71,8.88L131,278.69l2.57,13.77,4.36,12.29,9.42,14.73,8.46-7.55s4.61-7.48,6.81-8.45,11.23-1.81,11.23-1.81l12.54,12v9.36l12.83,6.84,7.89,7.94,4.72,5.82,8.77,4.56c19.27-13.3,65.31-56.75,80.89-95.51L315,233.85l16.75-5.17L348.56,246s21.77,77.24,105.75,139H55Z" style="fill:#ebebeb"></path><path d="M366.35,230.38h19.17a13,13,0,0,1-.08-1.4,12.62,12.62,0,0,1,12.62-12.62l.46,0a11.17,11.17,0,0,1,21.63,3.9v0a10.66,10.66,0,0,1,10.14,10.08h.5a5.61,5.61,0,1,1,0,11.22H366.35a5.61,5.61,0,0,1,0-11.22Z" style="fill:#f5f5f5"></path><path d="M124.75,95.33H137a8.69,8.69,0,0,1-.05-.89,8.05,8.05,0,0,1,8.05-8l.29,0a7.12,7.12,0,0,1,13.79,2.48v0a6.79,6.79,0,0,1,6.46,6.42h.32a3.58,3.58,0,0,1,0,7.16H124.75a3.58,3.58,0,0,1,0-7.16Z" style="fill:#f5f5f5"></path><path d="M200.36,138.27a23.33,23.33,0,0,1,39.8.33,12.5,12.5,0,0,1,15.89,12.05h6.6a6.26,6.26,0,0,1,0,12.51H239.87a23.33,23.33,0,0,1-36.4,3.82c-.4,0-.79.06-1.2.06a14.45,14.45,0,0,1-1.91-28.78Z" style="fill:#f5f5f5"></path><path d="M380.46,108.37a12.13,12.13,0,0,1,20.7.17,6.8,6.8,0,0,1,1.76-.24,6.51,6.51,0,0,1,6.51,6.51h3.43a3.25,3.25,0,0,1,0,6.5H401a12.12,12.12,0,0,1-18.93,2c-.21,0-.41,0-.62,0a7.52,7.52,0,0,1-1-15Z" style="fill:#f5f5f5"></path></g><g id="freepik--Shadow--inject-29"><ellipse id="freepik--path--inject-29" cx="250" cy="416.24" rx="193.89" ry="11.32" style="fill:#f5f5f5"></ellipse></g><g id="freepik--Truck--inject-29"><rect x="351.96" y="270.5" width="10.63" height="15.33" rx="2.52" transform="translate(714.55 556.33) rotate(180)" style="fill:#263238"></rect><rect x="351.96" y="270.5" width="10.63" height="15.33" rx="2.52" transform="translate(714.55 556.33) rotate(180)" style="fill:#fff;opacity:0.4"></rect><path d="M352.35,277.38a9.23,9.23,0,0,1-2.72,1.94,1.63,1.63,0,0,0-1.05,1.39l-.27,3.77a1.63,1.63,0,0,0,1.62,1.74h2.48a1.63,1.63,0,0,0,.75-.18l2.58-1.34a1.61,1.61,0,0,0,.87-1.44v-4.73a1.62,1.62,0,0,0-1.62-1.62h-1.5A1.63,1.63,0,0,0,352.35,277.38Z" style="fill:#263238"></path><path d="M352.35,277.38a9.23,9.23,0,0,1-2.72,1.94,1.63,1.63,0,0,0-1.05,1.39l-.27,3.77a1.63,1.63,0,0,0,1.62,1.74h2.48a1.63,1.63,0,0,0,.75-.18l2.58-1.34a1.61,1.61,0,0,0,.87-1.44v-4.73a1.62,1.62,0,0,0-1.62-1.62h-1.5A1.63,1.63,0,0,0,352.35,277.38Z" style="fill:#fff;opacity:0.30000000000000004"></path><path d="M153.12,305.77a2.82,2.82,0,0,1-.81-.11,3,3,0,0,1-2.08-3.7l15.06-53.63a10.33,10.33,0,0,1,9.92-7.52h53.15a3,3,0,0,1,0,6H175.21a4.33,4.33,0,0,0-4.15,3.14L156,303.58A3,3,0,0,1,153.12,305.77Z" style="fill:#263238"></path><path d="M112.17,303.22a3,3,0,0,1-2.26-5l33.83-38.82a12.26,12.26,0,0,1,9.24-4.2h12.64a3,3,0,0,1,0,6H153a6.23,6.23,0,0,0-4.71,2.14l-33.84,38.82A3,3,0,0,1,112.17,303.22Z" style="fill:#263238"></path><path d="M374.32,349.83h12.2c13.55,0,24.53,15.18,24.53,33.9s-11,33.91-24.53,33.91h-12.2c-13.55,0-24.53-15.18-24.53-33.91S360.77,349.83,374.32,349.83Z"></path><path d="M204.31,349.83h12.2c13.55,0,24.53,15.18,24.53,33.9s-11,33.91-24.53,33.91h-12.2c-13.55,0-24.53-15.18-24.53-33.91S190.76,349.83,204.31,349.83Z"></path><path d="M77.76,368.51H90.3l12.2,14.83h56.68a14.12,14.12,0,0,0,12.37,6.77c8.82,0,10.76-5.86,10.76-5.86h32.88l4,5.86h58.53l9.06-6.38h48.76s2.53,6.38,11.56,6.38a15.42,15.42,0,0,0,13-6.77h13.52A14.91,14.91,0,0,0,387.49,374l15.27-37.94h-325Z" style="fill:#263238"></path><path d="M279.17,349.83h12.2c13.55,0,24.53,15.18,24.53,33.9s-11,33.91-24.53,33.91h-12.2c-13.55,0-24.53-15.18-24.53-33.91S265.62,349.83,279.17,349.83Z"></path><path d="M275.33,352.23c11.32,0,20.5,14.11,20.5,31.5s-9.18,31.5-20.5,31.5-20.49-14.1-20.49-31.5S264,352.23,275.33,352.23Z" style="fill:#fff;opacity:0.2"></path><path d="M273.56,366.71c6.12,0,11.08,7.62,11.08,17s-5,17-11.08,17-11.08-7.62-11.08-17S267.44,366.71,273.56,366.71Z" style="fill:#fff;opacity:0.2"></path><path d="M277.73,375.22c3.06,0,5.54,3.81,5.54,8.51s-2.48,8.52-5.54,8.52-5.54-3.82-5.54-8.52S274.67,375.22,277.73,375.22Z" style="fill:#fff;isolation:isolate;opacity:0.7000000000000001"></path><path d="M109.16,349.83h12.2c13.55,0,24.53,15.18,24.53,33.9s-11,33.91-24.53,33.91h-12.2c-13.55,0-24.53-15.18-24.53-33.91S95.61,349.83,109.16,349.83Z"></path><path d="M105.32,352.23c11.32,0,20.5,14.11,20.5,31.5s-9.18,31.5-20.5,31.5-20.49-14.1-20.49-31.5S94,352.23,105.32,352.23Z" style="fill:#fff;opacity:0.2"></path><path d="M103.55,366.71c6.12,0,11.08,7.62,11.08,17s-5,17-11.08,17-11.08-7.62-11.08-17S97.43,366.71,103.55,366.71Z" style="fill:#fff;opacity:0.2"></path><path d="M107.78,375.22c2.92,0,5.28,3.64,5.28,8.12s-2.36,8.12-5.28,8.12-5.28-3.64-5.28-8.12S104.86,375.22,107.78,375.22Z" style="fill:#fff;isolation:isolate;opacity:0.7000000000000001"></path><path d="M421.32,312.1v62H309.57L301.74,352a13.88,13.88,0,0,0-13.09-9.26h-17A13.89,13.89,0,0,0,258.31,353l-5.84,21.16H138.17l-6.86-21.66a13.89,13.89,0,0,0-13.24-9.7H101.65a13.94,13.94,0,0,0-9.19,3.47,14.08,14.08,0,0,0-4.28,7L82.9,374.13H71.7V295a4.58,4.58,0,0,1,4.59-4.59h90.49s3.49-22.7,11.53-42.71a6.08,6.08,0,0,1,4.3-3.67c5.07-1.13,17.53-2.9,45.77-2.9,77.1,0,92.89,4.76,92.89,4.76,22.58,16.17,43.28,41.94,43.28,41.94q2.76.51,5.35,1.06a213.5,213.5,0,0,1,29.32,8A100.56,100.56,0,0,1,416.9,305l.53.32.18.11A7.9,7.9,0,0,1,421.32,312.1Z" style="fill:#407BFF"></path><path d="M428.37,340.53v33.35a6.65,6.65,0,0,1-6.65,6.64H316.58c-3.67,0-5.95-3-7-6.39L301.74,352a13.87,13.87,0,0,0-5.91-7.26c0-3.66,16.13-10.89,19.8-10.89h26.85l4.19,9.11a7.26,7.26,0,0,0,6.58,4.21h46a6.59,6.59,0,0,0,6.54-6l.62-7.31h15.29A6.65,6.65,0,0,1,428.37,340.53Z" style="fill:#263238"></path><path d="M359.43,288.37h-9.81l-19.69-2.54h-34.1l-11,2.54H255.82s-4.46-26.32-12.26-42.15c0,0,45-1.51,77.35,3.06C320.91,249.28,337.15,259.27,359.43,288.37Z" style="fill:#263238"></path><path d="M246.5,288.37H200.74a4.73,4.73,0,0,1-3.51-1.55L194,283.26a4.69,4.69,0,0,0-3.49-1.55H172.3c2.87-16.82,7.34-26.39,9.32-32.42a4.63,4.63,0,0,1,4-3.19c2.6-.19,5.22-.35,7.8-.47l3.22-.14c21.37-.8,40.71.5,40.71.5,2.64,4.71,5.62,20.65,7.44,31.59h0C245.85,283.79,246.5,288.37,246.5,288.37Z" style="fill:#263238"></path><path d="M428.37,340.53v33.35a6.65,6.65,0,0,1-6.65,6.64H316.58c-3.67,0-5.95-3-7-6.39L301.74,352a13.87,13.87,0,0,0-5.91-7.26c0-3.66,16.13-10.89,19.8-10.89h26.85l4.19,9.11a7.26,7.26,0,0,0,6.58,4.21h46a6.59,6.59,0,0,0,6.54-6l.62-7.31h15.29A6.65,6.65,0,0,1,428.37,340.53Z" style="fill:#fff;opacity:0.2"></path><path d="M319.15,334.76l-8,.07a2.2,2.2,0,0,1-2.2-2.19V316.38a3.53,3.53,0,0,1,3.52-3.52H321a3.53,3.53,0,0,0-3.52,3.52v16.26A2.2,2.2,0,0,0,319.15,334.76Z" style="fill:#407BFF"></path><path d="M317.51,332.63V316.38a3.52,3.52,0,0,1,3.52-3.52h9.62a3.53,3.53,0,0,1,3.22,2.09l7.71,17.15a1.81,1.81,0,0,1-1.65,2.55l-20.22.18A2.2,2.2,0,0,1,317.51,332.63Z" style="fill:#407BFF"></path><path d="M418.47,312.86H410.7a2.74,2.74,0,0,0-2.73,2.49l-1.56,17.17a2,2,0,0,0,1.94,2.13h12.48V316.36a3.44,3.44,0,0,0-1.38-2.76Z" style="fill:#407BFF"></path><path d="M317.51,332.63V316.38a3.52,3.52,0,0,1,3.52-3.52h9.62a3.53,3.53,0,0,1,3.22,2.09l7.71,17.15a1.81,1.81,0,0,1-1.65,2.55l-20.22.18A2.2,2.2,0,0,1,317.51,332.63Z" style="fill:#fff;opacity:0.7000000000000001"></path><path d="M418.47,312.86H410.7a2.74,2.74,0,0,0-2.73,2.49l-1.56,17.17a2,2,0,0,0,1.94,2.13h12.48V316.36a3.44,3.44,0,0,0-1.38-2.76Z" style="fill:#fff;opacity:0.7000000000000001"></path><path d="M336.51,326.36c0,3.26-2.13,5.9-4.77,5.9s-4.77-2.64-4.77-5.9,2.13-5.89,4.77-5.89S336.51,323.11,336.51,326.36Z" style="fill:#fff"></path><ellipse cx="323.53" cy="319.34" rx="2.82" ry="3.39" style="fill:#fff"></ellipse><ellipse cx="412.62" cy="326.36" rx="4.77" ry="5.9" style="fill:#fff"></ellipse><path d="M420.55,319.34a2.87,2.87,0,1,1-2.82-3.39A3.13,3.13,0,0,1,420.55,319.34Z" style="fill:#fff"></path><path d="M319.15,334.76l-8,.07a2.2,2.2,0,0,1-2.2-2.19V316.38a3.53,3.53,0,0,1,3.52-3.52H321a3.53,3.53,0,0,0-3.52,3.52v16.26A2.21,2.21,0,0,0,319.15,334.76Z" style="fill:#fff;opacity:0.2"></path><path d="M423.68,316.36v18.28h-2.85V316.36a3.48,3.48,0,0,0-1.38-2.76l-1-.74h2.85l1,.74A3.45,3.45,0,0,1,423.68,316.36Z" style="fill:#407BFF"></path><path d="M423.68,316.36v18.28h-2.85V316.36a3.48,3.48,0,0,0-1.38-2.76l-1-.74h2.85l1,.74A3.42,3.42,0,0,1,423.68,316.36Z" style="fill:#fff;opacity:0.2"></path><path d="M312.47,312.86H321a3.53,3.53,0,0,0-3.52,3.52v7.37H309v-7.37A3.53,3.53,0,0,1,312.47,312.86Z" style="opacity:0.4"></path><path d="M423.68,316.36v7.39h-2.85v-7.39a3.48,3.48,0,0,0-1.38-2.76l-1-.74h2.85l1,.74A3.42,3.42,0,0,1,423.68,316.36Z" style="opacity:0.4"></path><path d="M404.25,314.42,402,340.87a2.77,2.77,0,0,1-2.76,2.53h-46a3.42,3.42,0,0,1-3.12-2l-12.58-27.32a.91.91,0,0,1-.09-.31,1,1,0,0,1,1-1.13h64.15A1.64,1.64,0,0,1,404.25,314.42Z" style="opacity:0.4"></path><path d="M401.81,315.55,399.57,342a2.58,2.58,0,0,1-.52,1.41h-45.8a3.42,3.42,0,0,1-3.12-2l-12.58-27.32a.91.91,0,0,1-.09-.31h62.71A1.65,1.65,0,0,1,401.81,315.55Z" style="fill:#263238"></path><path d="M401.81,315.55l-.94,11.17-.16,1.87L399.57,342a2.58,2.58,0,0,1-.52,1.41h-45.8a3.42,3.42,0,0,1-3.12-2l-5.91-12.81-.85-1.87-5.82-12.64a.91.91,0,0,1-.09-.31h62.71A1.65,1.65,0,0,1,401.81,315.55Z" style="fill:#fff;opacity:0.2"></path><polygon points="346.09 315.11 347.22 313.77 341.66 313.77 342.79 315.11 346.09 315.11" style="fill:#263238"></polygon><polygon points="357.47 315.11 358.6 313.77 353.04 313.77 354.17 315.11 357.47 315.11" style="fill:#263238"></polygon><polygon points="368.85 315.11 369.98 313.77 364.42 313.77 365.55 315.11 368.85 315.11" style="fill:#263238"></polygon><polygon points="380.23 315.11 381.36 313.77 375.8 313.77 376.93 315.11 380.23 315.11" style="fill:#263238"></polygon><polygon points="391.62 315.11 392.74 313.77 387.19 313.77 388.31 315.11 391.62 315.11" style="fill:#263238"></polygon><path d="M401.78,315.11a1.63,1.63,0,0,0-1.61-1.34h-1.6l1.13,1.34Z" style="fill:#263238"></path><path d="M342.05,315.59l-1.54-1.82h-3.05a.91.91,0,0,0,.09.31l1.59,3.46h1.26Z" style="fill:#263238"></path><polygon points="348.48 317.55 351.78 317.55 353.43 315.59 351.89 313.77 348.36 313.77 346.83 315.59 348.48 317.55" style="fill:#263238"></polygon><polygon points="359.86 317.55 363.16 317.55 364.81 315.59 363.28 313.77 359.74 313.77 358.21 315.59 359.86 317.55" style="fill:#263238"></polygon><polygon points="371.24 317.55 374.54 317.55 376.19 315.59 374.66 313.77 371.13 313.77 369.59 315.59 371.24 317.55" style="fill:#263238"></polygon><polygon points="382.62 317.55 385.92 317.55 387.57 315.59 386.04 313.77 382.51 313.77 380.97 315.59 382.62 317.55" style="fill:#263238"></polygon><polygon points="394.01 317.55 397.31 317.55 398.96 315.59 397.42 313.77 393.89 313.77 392.36 315.59 394.01 317.55" style="fill:#263238"></polygon><polygon points="346.09 316.07 342.79 316.07 341.13 318.02 342.79 319.98 346.09 319.98 347.74 318.02 346.09 316.07" style="fill:#263238"></polygon><polygon points="357.47 319.98 359.12 318.02 357.47 316.07 354.17 316.07 352.52 318.02 354.17 319.98 357.47 319.98" style="fill:#263238"></polygon><polygon points="368.85 319.98 370.5 318.02 368.85 316.07 365.55 316.07 363.9 318.02 365.55 319.98 368.85 319.98" style="fill:#263238"></polygon><polygon points="380.23 319.98 381.88 318.02 380.23 316.07 376.93 316.07 375.28 318.02 376.93 319.98 380.23 319.98" style="fill:#263238"></polygon><polygon points="391.62 319.98 393.27 318.02 391.62 316.07 388.31 316.07 386.66 318.02 388.31 319.98 391.62 319.98" style="fill:#263238"></polygon><polygon points="398.05 318.02 399.7 319.98 401.44 319.98 401.76 316.07 399.7 316.07 398.05 318.02" style="fill:#263238"></polygon><polygon points="340.4 318.51 339.58 318.51 341.04 321.66 342.05 320.46 340.4 318.51" style="fill:#263238"></polygon><polygon points="351.78 322.42 353.43 320.46 351.78 318.51 348.48 318.51 346.83 320.46 348.48 322.42 351.78 322.42" style="fill:#263238"></polygon><polygon points="359.86 322.42 363.16 322.42 364.81 320.46 363.16 318.51 359.86 318.51 358.21 320.46 359.86 322.42" style="fill:#263238"></polygon><polygon points="371.24 322.42 374.54 322.42 376.19 320.46 374.54 318.51 371.24 318.51 369.59 320.46 371.24 322.42" style="fill:#263238"></polygon><polygon points="382.62 322.42 385.92 322.42 387.57 320.46 385.92 318.51 382.62 318.51 380.97 320.46 382.62 322.42" style="fill:#263238"></polygon><polygon points="394.01 322.42 397.31 322.42 398.96 320.46 397.31 318.51 394.01 318.51 392.36 320.46 394.01 322.42" style="fill:#263238"></polygon><polygon points="346.09 324.85 347.74 322.9 346.09 320.94 342.79 320.94 341.44 322.54 342.17 324.12 342.79 324.85 346.09 324.85" style="fill:#263238"></polygon><polygon points="354.17 320.94 352.52 322.9 354.17 324.85 357.47 324.85 359.12 322.9 357.47 320.94 354.17 320.94" style="fill:#263238"></polygon><polygon points="365.55 320.94 363.9 322.9 365.55 324.85 368.85 324.85 370.5 322.9 368.85 320.94 365.55 320.94" style="fill:#263238"></polygon><polygon points="376.93 320.94 375.28 322.9 376.93 324.85 380.23 324.85 381.88 322.9 380.23 320.94 376.93 320.94" style="fill:#263238"></polygon><polygon points="391.62 320.94 388.31 320.94 386.66 322.9 388.31 324.85 391.62 324.85 393.27 322.9 391.62 320.94" style="fill:#263238"></polygon><polygon points="398.05 322.9 399.7 324.85 401.02 324.85 401.35 320.94 399.7 320.94 398.05 322.9" style="fill:#263238"></polygon><polygon points="351.78 327.29 353.43 325.33 351.78 323.38 348.48 323.38 346.83 325.33 348.48 327.29 351.78 327.29" style="fill:#263238"></polygon><polygon points="359.86 323.38 358.21 325.33 359.86 327.29 363.16 327.29 364.81 325.33 363.16 323.38 359.86 323.38" style="fill:#263238"></polygon><polygon points="371.24 323.38 369.59 325.33 371.24 327.29 374.54 327.29 376.19 325.33 374.54 323.38 371.24 323.38" style="fill:#263238"></polygon><polygon points="382.62 323.38 380.97 325.33 382.62 327.29 385.92 327.29 387.57 325.33 385.92 323.38 382.62 323.38" style="fill:#263238"></polygon><polygon points="394.01 323.38 392.36 325.33 394.01 327.29 397.31 327.29 398.96 325.33 397.31 323.38 394.01 323.38" style="fill:#263238"></polygon><polygon points="347.74 327.77 346.09 325.82 342.95 325.82 344.75 329.73 346.09 329.73 347.74 327.77" style="fill:#263238"></polygon><polygon points="354.17 329.73 357.47 329.73 359.12 327.77 357.47 325.82 354.17 325.82 352.52 327.77 354.17 329.73" style="fill:#263238"></polygon><polygon points="365.55 325.82 363.9 327.77 365.55 329.73 368.85 329.73 370.5 327.77 368.85 325.82 365.55 325.82" style="fill:#263238"></polygon><polygon points="380.23 329.73 381.88 327.77 380.23 325.82 376.93 325.82 375.28 327.77 376.93 329.73 380.23 329.73" style="fill:#263238"></polygon><polygon points="391.62 329.73 393.27 327.77 391.62 325.82 388.31 325.82 386.66 327.77 388.31 329.73 391.62 329.73" style="fill:#263238"></polygon><polygon points="398.05 327.77 399.7 329.73 400.61 329.73 400.94 325.82 399.7 325.82 398.05 327.77" style="fill:#263238"></polygon><polygon points="351.78 328.25 348.48 328.25 346.83 330.21 348.48 332.16 351.78 332.16 353.43 330.21 351.78 328.25" style="fill:#263238"></polygon><polygon points="363.16 332.16 364.81 330.21 363.16 328.25 359.86 328.25 358.21 330.21 359.86 332.16 363.16 332.16" style="fill:#263238"></polygon><polygon points="374.54 332.16 376.19 330.21 374.54 328.25 371.24 328.25 369.59 330.21 371.24 332.16 374.54 332.16" style="fill:#263238"></polygon><polygon points="385.92 332.16 387.57 330.21 385.92 328.25 382.62 328.25 380.97 330.21 382.62 332.16 385.92 332.16" style="fill:#263238"></polygon><polygon points="394.01 328.25 392.36 330.21 394.01 332.16 397.31 332.16 398.96 330.21 397.31 328.25 394.01 328.25" style="fill:#263238"></polygon><polygon points="346.09 330.69 345.19 330.69 346.67 333.9 347.74 332.64 346.09 330.69" style="fill:#263238"></polygon><polygon points="357.47 334.6 359.12 332.64 357.47 330.69 354.17 330.69 352.52 332.64 354.17 334.6 357.47 334.6" style="fill:#263238"></polygon><polygon points="368.85 334.6 370.5 332.64 368.85 330.69 365.55 330.69 363.9 332.64 365.55 334.6 368.85 334.6" style="fill:#263238"></polygon><polygon points="380.23 334.6 381.88 332.64 380.23 330.69 376.93 330.69 375.28 332.64 376.93 334.6 380.23 334.6" style="fill:#263238"></polygon><polygon points="391.62 334.6 393.27 332.64 391.62 330.69 388.31 330.69 386.66 332.64 388.31 334.6 391.62 334.6" style="fill:#263238"></polygon><polygon points="398.05 332.64 399.7 334.6 400.2 334.6 400.53 330.69 399.7 330.69 398.05 332.64" style="fill:#263238"></polygon><polygon points="351.78 337.04 353.43 335.08 351.78 333.13 348.48 333.13 347.08 334.78 347.68 336.09 348.48 337.04 351.78 337.04" style="fill:#263238"></polygon><polygon points="359.86 337.04 363.16 337.04 364.81 335.08 363.16 333.13 359.86 333.13 358.21 335.08 359.86 337.04" style="fill:#263238"></polygon><polygon points="374.54 337.04 376.19 335.08 374.54 333.13 371.24 333.13 369.59 335.08 371.24 337.04 374.54 337.04" style="fill:#263238"></polygon><polygon points="385.92 337.04 387.57 335.08 385.92 333.13 382.62 333.13 380.97 335.08 382.62 337.04 385.92 337.04" style="fill:#263238"></polygon><polygon points="394.01 333.13 392.36 335.08 394.01 337.04 397.31 337.04 398.96 335.08 397.31 333.13 394.01 333.13" style="fill:#263238"></polygon><polygon points="357.47 335.56 354.17 335.56 352.52 337.52 354.17 339.47 357.47 339.47 359.12 337.52 357.47 335.56" style="fill:#263238"></polygon><polygon points="368.85 335.56 365.55 335.56 363.9 337.52 365.55 339.47 368.85 339.47 370.5 337.52 368.85 335.56" style="fill:#263238"></polygon><polygon points="380.23 335.56 376.93 335.56 375.28 337.52 376.93 339.47 380.23 339.47 381.88 337.52 380.23 335.56" style="fill:#263238"></polygon><polygon points="391.62 335.56 388.31 335.56 386.66 337.52 388.31 339.47 391.62 339.47 393.27 337.52 391.62 335.56" style="fill:#263238"></polygon><polygon points="398.05 337.52 399.7 339.47 399.79 339.47 400.12 335.56 399.7 335.56 398.05 337.52" style="fill:#263238"></polygon><path d="M353.43,340,351.78,338h-3.22l1.57,3.4a3.2,3.2,0,0,0,.29.51h1.36Z" style="fill:#263238"></path><polygon points="359.86 338 358.21 339.95 359.86 341.91 363.16 341.91 364.81 339.95 363.16 338 359.86 338" style="fill:#263238"></polygon><polygon points="371.24 338 369.59 339.95 371.24 341.91 374.54 341.91 376.19 339.95 374.54 338 371.24 338" style="fill:#263238"></polygon><polygon points="382.62 338 380.97 339.95 382.62 341.91 385.92 341.91 387.57 339.95 385.92 338 382.62 338" style="fill:#263238"></polygon><polygon points="397.31 338 394.01 338 392.36 339.95 394.01 341.91 397.31 341.91 398.96 339.95 397.31 338" style="fill:#263238"></polygon><polygon points="357.47 340.44 354.17 340.44 352.52 342.39 353.37 343.4 358.27 343.4 359.12 342.39 357.47 340.44" style="fill:#263238"></polygon><polygon points="368.85 340.44 365.55 340.44 363.9 342.39 364.75 343.4 369.65 343.4 370.5 342.39 368.85 340.44" style="fill:#263238"></polygon><polygon points="380.23 340.44 376.93 340.44 375.28 342.39 376.13 343.4 381.03 343.4 381.88 342.39 380.23 340.44" style="fill:#263238"></polygon><polygon points="391.62 340.44 388.31 340.44 386.66 342.39 387.52 343.4 392.41 343.4 393.27 342.39 391.62 340.44" style="fill:#263238"></polygon><path d="M399.7,340.43l-1.65,2,.85,1h.15a2.58,2.58,0,0,0,.52-1.41l.14-1.56Z" style="fill:#263238"></path><path d="M351.42,342.87a3.45,3.45,0,0,0,.61.3l-.25-.3Z" style="fill:#263238"></path><polygon points="359.86 342.87 359.41 343.4 363.61 343.4 363.16 342.87 359.86 342.87" style="fill:#263238"></polygon><polygon points="371.24 342.87 370.79 343.4 374.99 343.4 374.54 342.87 371.24 342.87" style="fill:#263238"></polygon><polygon points="382.62 342.87 382.18 343.4 386.37 343.4 385.92 342.87 382.62 342.87" style="fill:#263238"></polygon><polygon points="394.01 342.87 393.56 343.4 397.75 343.4 397.31 342.87 394.01 342.87" style="fill:#263238"></polygon><polygon points="400.87 326.72 400.71 328.59 344.22 328.59 343.37 326.72 400.87 326.72" style="fill:#263238"></polygon><polygon points="400.87 326.72 400.71 328.59 344.22 328.59 343.37 326.72 400.87 326.72" style="fill:#fff;opacity:0.2"></polygon><polygon points="391.77 324.47 354.8 324.47 352.01 327.77 354.8 331.07 391.77 331.07 394.56 327.77 391.77 324.47" style="fill:#263238"></polygon><polygon points="391.77 324.47 354.8 324.47 352.01 327.77 354.8 331.07 391.77 331.07 394.56 327.77 391.77 324.47" style="fill:#fff;opacity:0.2"></polygon><rect x="357.26" y="358.18" width="39.54" height="18.58" style="fill:#fff;opacity:0.2"></rect><path d="M337.32,371.74h-9.13a2.9,2.9,0,0,1-2.9-2.9V351.29a2.9,2.9,0,0,1,2.9-2.9h9.55a2.92,2.92,0,0,1,2.63,1.66l2.58,5.49a3,3,0,0,1,.19,1.94l-3,12.06A2.89,2.89,0,0,1,337.32,371.74Z" style="fill:#263238"></path><path d="M336.51,359.27c0,3-2,5.44-4.4,5.44s-4.4-2.44-4.4-5.44,2-5.45,4.4-5.45S336.51,356.26,336.51,359.27Z" style="fill:#fff;opacity:0.4"></path><path d="M412.07,371.74h9.13a2.9,2.9,0,0,0,2.9-2.9V351.29a2.9,2.9,0,0,0-2.9-2.9h-9.55a2.92,2.92,0,0,0-2.63,1.66l-2.58,5.49a3,3,0,0,0-.19,1.94l3,12.06A2.89,2.89,0,0,0,412.07,371.74Z" style="fill:#263238"></path><path d="M417.39,359.27c0,3-2,5.44-4.4,5.44s-4.4-2.44-4.4-5.44,2-5.45,4.4-5.45S417.39,356.26,417.39,359.27Z" style="fill:#fff;opacity:0.4"></path><path d="M92.46,346.24a14.08,14.08,0,0,0-4.28,7L82.9,374.13h-.15a4.46,4.46,0,0,1-4.06,2.58H70.35a4.48,4.48,0,0,1-4.48-4.48V337.56a4.93,4.93,0,0,1,3-4.54h0l1.51.06H81.78a5.3,5.3,0,0,1,4.58,2.64Z" style="fill:#263238"></path><path d="M92.46,346.24a14.08,14.08,0,0,0-4.28,7L82.9,374.13h-.15a4.46,4.46,0,0,1-4.06,2.58H70.35a4.48,4.48,0,0,1-4.48-4.48V337.56a4.93,4.93,0,0,1,3-4.54h0l1.51.06H81.78a5.3,5.3,0,0,1,4.58,2.64Z" style="fill:#fff;opacity:0.2"></path><path d="M79.17,306v27H68.84V307.48A3.45,3.45,0,0,1,72.29,304h4.92A2,2,0,0,1,79.17,306Z" style="fill:#407BFF"></path><path d="M79.17,306v27H68.84V307.48A3.45,3.45,0,0,1,72.29,304h4.92A2,2,0,0,1,79.17,306Z" style="fill:#fff;opacity:0.2"></path><path d="M79.17,306v8.32H68.84v-6.83A3.45,3.45,0,0,1,72.29,304h4.92A2,2,0,0,1,79.17,306Z" style="opacity:0.4"></path><rect x="68.84" y="314.31" width="10.33" height="9.54" style="fill:#fff;opacity:0.7000000000000001"></rect><path d="M245.58,367.21H172.82a6.9,6.9,0,0,1-5.46-2.69l-1.48-1.91a6.85,6.85,0,0,1-1.39-3.48c-4-38.16.15-66.66.19-66.94a.51.51,0,0,1,.57-.42.49.49,0,0,1,.42.57c0,.28-4.18,28.66-.19,66.68a5.87,5.87,0,0,0,1.2,3l1.47,1.91a5.93,5.93,0,0,0,4.67,2.3h72.76a3.63,3.63,0,0,0,3.47-2.61L255.57,341a15.71,15.71,0,0,1,15-11.3h23.47a11,11,0,0,1,5.73,1.62l4.63,2.84a.5.5,0,0,1-.52.86l-4.63-2.85a10,10,0,0,0-5.21-1.47H270.59a14.71,14.71,0,0,0-14.06,10.58L250,363.88A4.64,4.64,0,0,1,245.58,367.21Z" style="opacity:0.2"></path><path d="M246.51,361.38a.5.5,0,0,1-.5-.45c-3.76-34.6,0-69.16,0-69.51a.51.51,0,0,1,.55-.44.5.5,0,0,1,.45.55c0,.35-3.75,34.81,0,69.29a.5.5,0,0,1-.44.55Z" style="opacity:0.2"></path><path d="M196.67,245.49a250.47,250.47,0,0,0-6.58,36.22h-4.26a257.57,257.57,0,0,1,7.62-36.08Z" style="fill:#fff;opacity:0.2"></path><path d="M187.73,280.7h0a.5.5,0,0,1-.45-.55c1.68-16,6.55-34.12,6.6-34.3a.5.5,0,0,1,.61-.35.49.49,0,0,1,.35.61c0,.18-4.89,18.2-6.56,34.14A.51.51,0,0,1,187.73,280.7Z" style="opacity:0.2"></path><path d="M185.86,361.38a.5.5,0,0,1-.5-.48,500.79,500.79,0,0,1,1.87-77.37.5.5,0,0,1,.56-.44.49.49,0,0,1,.43.56,500.89,500.89,0,0,0-1.86,77.2.51.51,0,0,1-.48.53Z" style="opacity:0.2"></path><path d="M417.61,305.28H401.35c-2.68-2.5-8.35-3.76-14.17-3.76H339.75c-5.85,0-7.63,3.76-7.63,3.76H309c-7.05-5.76-50.37-13.8-50.37-13.8,7-2.52,28.34-1.75,28.34-1.75A222.26,222.26,0,0,1,310,294c-6.77-3.52-20.31-5.63-20.31-5.63l6.15-2.54h34.1L353,289.48h12.88l4-.62a213.5,213.5,0,0,1,29.32,8L416.9,305Z" style="fill:#fff;opacity:0.2"></path><path d="M202.27,302.77H193.9a2.88,2.88,0,0,1-2.88-2.88h0A2.88,2.88,0,0,1,193.9,297h8.37a2.88,2.88,0,0,1,2.89,2.88h0A2.88,2.88,0,0,1,202.27,302.77Z" style="fill:#fff;opacity:0.2"></path><path d="M246.5,288.37H236.44l.65-9.34a1.56,1.56,0,0,1,1.56-1.45h6.18C245.85,283.79,246.5,288.37,246.5,288.37Z" style="fill:#fff;opacity:0.2"></path><rect x="228.92" y="270.5" width="10.63" height="15.33" rx="2.52" style="fill:#263238"></rect><rect x="228.92" y="270.5" width="10.63" height="15.33" rx="2.52" style="fill:#fff;opacity:0.4"></rect><path d="M239.16,277.38a9.23,9.23,0,0,0,2.72,1.94,1.6,1.6,0,0,1,1,1.39l.27,3.77a1.62,1.62,0,0,1-1.61,1.74H239.1a1.63,1.63,0,0,1-.75-.18l-2.58-1.34a1.62,1.62,0,0,1-.88-1.44v-4.73a1.63,1.63,0,0,1,1.63-1.62H238A1.65,1.65,0,0,1,239.16,277.38Z" style="fill:#263238"></path><path d="M239.16,277.38a9.23,9.23,0,0,0,2.72,1.94,1.6,1.6,0,0,1,1,1.39l.27,3.77a1.62,1.62,0,0,1-1.61,1.74H239.1a1.63,1.63,0,0,1-.75-.18l-2.58-1.34a1.62,1.62,0,0,1-.88-1.44v-4.73a1.63,1.63,0,0,1,1.63-1.62H238A1.65,1.65,0,0,1,239.16,277.38Z" style="fill:#fff;opacity:0.30000000000000004"></path><path d="M285.91,247.72s18.69,13,28.91,25.57a57.06,57.06,0,0,0-8.06-15.06s13.92,9.71,22.87,24.74l20.7,2.86h5.49s-21.62-25.13-35.05-35.6C320.77,250.23,304.16,248.35,285.91,247.72Z" style="fill:#fff;opacity:0.2"></path></g></svg>
