<svg xmlns="http://www.w3.org/2000/svg" viewBox="0 0 750 500"><g id="freepik--background-complete--inject-234"><rect x="426.28" y="193.38" width="48.65" height="12.87" style="fill:#ebebeb"></rect><rect x="506.81" y="55.13" width="48.65" height="12.87" style="fill:#ebebeb"></rect><path d="M454.36,219.81a2.07,2.07,0,0,1,0-.23l0-.66c0-.61,0-1.45,0-2.54,0-2.22-.05-5.41-.09-9.44l.15.15-48.65.1.25-.25h0v6.52c0,2.15,0,4.26,0,6.33l-.24-.24,34.67.11,10.24.07,2.76,0h.73l.25,0s-.07,0-.22,0h-.7l-2.71,0-10.18.07-34.84.11h-.24v-.24q0-3.1,0-6.33V207h0l.25-.25,48.65.1h.16v.15c0,4.07-.06,7.29-.08,9.53,0,1.07,0,1.9,0,2.5,0,.26,0,.47,0,.64S454.37,219.82,454.36,219.81Z" style="fill:#e0e0e0"></path><rect x="124.9" y="192.92" width="48.65" height="12.87" style="fill:#ebebeb"></rect><path d="M153,219.35a1.35,1.35,0,0,1,0-.24l0-.66c0-.6,0-1.45,0-2.53,0-2.22,0-5.42-.09-9.45l.16.16-48.65.09c.11-.11-.25.25.24-.25h0v12.87l-.25-.25,34.67.11,10.24.07,2.77,0,.72,0,.26,0h-.23l-.69,0-2.72,0-10.18.07-34.84.11h-.24V206.48h0c.5-.49.14-.13.26-.24l48.65.09h.15v.15c0,4.07-.07,7.3-.09,9.54,0,1.07,0,1.9,0,2.5,0,.26,0,.47,0,.63A1.66,1.66,0,0,1,153,219.35Z" style="fill:#e0e0e0"></path><rect x="231.46" y="47.44" width="48.65" height="12.87" style="fill:#ebebeb"></rect><path d="M259.54,73.87s0-.09,0-.24l0-.66c0-.6,0-1.45,0-2.53,0-2.22,0-5.42-.08-9.44l.15.15-48.65.09.25-.24h0v6.52c0,2.14,0,4.26,0,6.33l-.24-.25,34.67.11,10.23.07,2.77,0h.73a1.27,1.27,0,0,1,.25,0h-.22l-.7,0-2.71,0L245.73,74l-34.84.11h-.24v-.24c0-2.07,0-4.19,0-6.33V61h0l.25-.25,48.65.1h.15V61c0,4.06-.06,7.29-.08,9.53,0,1.07,0,1.9,0,2.5,0,.26,0,.47,0,.63A.85.85,0,0,1,259.54,73.87Z" style="fill:#e0e0e0"></path><path d="M701.92,138.94a1.35,1.35,0,0,1,0-.24V138c0-.6,0-1.45,0-2.53,0-2.22-.05-5.42-.08-9.44l.15.15-48.65.09.24-.24h0v12.87l-.25-.25,34.67.11,10.24.07,2.77,0,.72,0,.26,0h-.23l-.69,0-2.72,0-10.18.07-34.84.11H653V126.07h0l.25-.25,48.65.09h.15v.16c0,4.06-.07,7.29-.09,9.53,0,1.07,0,1.9,0,2.5,0,.26,0,.47,0,.63A1.66,1.66,0,0,1,701.92,138.94Z" style="fill:#e0e0e0"></path><path d="M708.51,126.06s0-.08,0-.24,0-.41,0-.68c0-.64,0-1.5,0-2.58,0-2.26-.06-5.45-.1-9.37l.18.18-29.23.07c-.22.22.3-.3.25-.24h0v6.6q0,3.24,0,6.24l-.24-.23,20.91.11,6.09.07,1.65,0,.58,0a3.28,3.28,0,0,1-.53,0l-1.59,0-6,.07-21.07.11H679v-6.48c0-1.07,0-2.17,0-3.27v-3.33h0l.25-.25,29.23.07h.18v.17c0,4-.07,7.19-.1,9.48,0,1.07,0,1.91,0,2.54A6.36,6.36,0,0,1,708.51,126.06Z" style="fill:#e0e0e0"></path><path d="M406.19,440.7a1.17,1.17,0,0,1,0-.23v-.67c0-.6,0-1.45,0-2.53,0-2.22-.05-5.41-.08-9.44l.15.15-48.65.1c.11-.11-.25.24.24-.25h0V440.7l-.24-.24,34.67.11,10.23.07,2.77,0h.72l.26,0H406l-.69,0-2.72,0-10.17.07-34.84.11h-.25V427.85h0c.49-.5.14-.14.25-.25l48.65.1h.15v.15c0,4.06-.06,7.29-.08,9.53,0,1.07,0,1.9,0,2.5l0,.63A1.48,1.48,0,0,1,406.19,440.7Z" style="fill:#e0e0e0"></path><path d="M412.79,427.83a.77.77,0,0,1,0-.25c0-.18,0-.41,0-.68,0-.63,0-1.49-.05-2.58,0-2.26-.05-5.44-.09-9.36l.18.18-29.23.06.24-.24h0v6.61c0,2.15,0,4.24,0,6.24l-.24-.24,20.91.11,6.1.07,1.64,0,.59,0a3.43,3.43,0,0,1-.53,0l-1.6,0-6,.06-21.07.11h-.23v-.24c0-2,0-4.09,0-6.24V415h0l.25-.25,29.23.07H413V415c0,4-.07,7.19-.09,9.47,0,1.07,0,1.92-.05,2.54S412.8,427.84,412.79,427.83Z" style="fill:#e0e0e0"></path><rect x="23.47" y="453.99" width="711.71" height="16.69" style="fill:#f5f5f5"></rect><path d="M169,322.44a6.68,6.68,0,0,1,6.52,5.56c1.24,7,3,19.44,1.78,27.2-1.79,11.31-1.92,15.57-9.74,16.91S50.73,397.35,50.73,397.35,41,399.79,33.94,386.52s-28-66.2-25.1-77.06,23.84-18.55,33.41-19.91,26.49-7.86,55.57,15.82L126,326.25A216.45,216.45,0,0,1,169,322.44Z" style="fill:#f5f5f5"></path><path d="M84.24,295.87l35,56.37,40.42-8.73s-1.24-21.21,5-21c0,0-30.68,1.46-38.64,3.75Z" style="fill:#e0e0e0"></path><path d="M90.24,389.3s-5.62-4.8-9.9-14.8-14.13-31.14-3.78-33c0,0-29.6,7.37-36.71,3.83s-31.2-32.65-31.2-32.65,1,12.69,7.5,30.34S30,381.15,34,387s7.7,12.81,16.79,10.82S90.24,389.3,90.24,389.3Z" style="fill:#ebebeb"></path><path d="M166.28,372.41s-.71,6.45-13.42,9.19L66.12,400.33s-11.06,2.14-15.39-3Z" style="fill:#e0e0e0"></path><polygon points="150.86 379.93 195.35 430.3 192.89 430.83 143.95 381.42 150.86 379.93" style="fill:#e0e0e0"></polygon><path d="M125.9,384.27c.16.78,20.62,56.58,20.62,56.58l-2.23.48-26.87-54.17Z" style="fill:#e0e0e0"></path><path d="M102.7,390.33c.66,2,2.79,59.38,2.79,59.38l-3.12.67L94,392.21Z" style="fill:#e0e0e0"></path><polygon points="76.84 395.92 53.09 461.02 49.97 461.7 68.14 397.8 76.84 395.92" style="fill:#e0e0e0"></polygon><path d="M80.34,374.5a1.15,1.15,0,0,0-.12-.31l-.42-.87c-.37-.8-.89-1.93-1.56-3.35a93.78,93.78,0,0,1-4.77-12.74A29.79,29.79,0,0,1,72.13,348a7.47,7.47,0,0,1,1.64-4.7c1.13-1.34,3-1.72,4.88-1.82a11.15,11.15,0,0,1,5.5,1.31,17.26,17.26,0,0,1,4.67,3.73,35.13,35.13,0,0,1,6.47,10.91l.1.25.25-.06.88-.19,44.68-9.74,13.52-3,3.67-.86,1-.23.32-.1a1.16,1.16,0,0,0-.33,0l-1,.18-3.69.73L141.1,347.3l-44.7,9.56-.88.19.35.2a35.66,35.66,0,0,0-6.61-11.11,17.51,17.51,0,0,0-4.85-3.84A11.52,11.52,0,0,0,78.63,341a10,10,0,0,0-1.45.14l-.71.13-.69.21a5.82,5.82,0,0,0-1.32.6c-.2.13-.38.29-.57.44a2.37,2.37,0,0,0-.51.49,8,8,0,0,0-1.75,5,30,30,0,0,0,1.43,9.36,87,87,0,0,0,5,12.71c.69,1.46,1.27,2.57,1.67,3.32l.46.84A1.53,1.53,0,0,0,80.34,374.5Z" style="fill:#e0e0e0"></path><polygon points="386.68 46.19 419.05 80.17 392.38 101.51 360.24 67.35 386.68 46.19" style="fill:#ebebeb"></polygon><polygon points="386.39 51.17 413.62 79.53 393.82 95.81 366.3 66.97 386.39 51.17" style="fill:#fafafa"></polygon><polygon points="387.93 63.35 399.86 76.18 392.94 81.72 380.81 69.06 387.93 63.35" style="fill:#f5f5f5"></polygon><polygon points="360.24 67.35 358.71 69.91 391.55 105.09 392.38 101.51 360.24 67.35" style="fill:#e0e0e0"></polygon><polygon points="392.38 101.51 391.55 105.09 418.44 83.1 419.05 80.17 392.38 101.51" style="fill:#e0e0e0"></polygon><path d="M89.7,105.16a1.35,1.35,0,0,1,0-.24c0-.17,0-.39,0-.66,0-.6,0-1.45,0-2.53,0-2.22,0-5.42-.08-9.44l.15.15-48.65.09.24-.24h0v12.85l-.25-.24,34.68.11,10.23.06,2.77,0h.72l.26,0h-.23l-.69,0-2.72,0-10.18.07L41,105.4H40.8V92.31h0c.49-.5.13-.14.25-.25l48.65.1h.15v.15c0,4.06-.07,7.29-.09,9.53,0,1.07,0,1.9,0,2.5,0,.26,0,.47,0,.63A1.66,1.66,0,0,1,89.7,105.16Z" style="fill:#e0e0e0"></path><path d="M96.29,92.29s0-.09,0-.25,0-.41,0-.68c0-.63,0-1.49-.05-2.58,0-2.26-.06-5.44-.1-9.36l.18.17-29.23.07c-.22.23.3-.3.25-.24h0v6.61c0,2.15,0,4.24,0,6.24l-.24-.24L88,92.16l6.09.07,1.65,0,.58,0a3.28,3.28,0,0,1-.53,0l-1.59,0-6,.06-21.07.11h-.24V86.05c0-1.08,0-2.17,0-3.28V79.44h0l.25-.25,29.23.07h.18v.18c0,4-.07,7.18-.09,9.47,0,1.07,0,1.91,0,2.54A5,5,0,0,1,96.29,92.29Z" style="fill:#e0e0e0"></path></g><g id="freepik--Floor--inject-234"><path d="M729,470.69c0,.14-158.52.26-354,.26S21,470.83,21,470.69s158.49-.26,354.06-.26S729,470.54,729,470.69Z" style="fill:#263238"></path></g><g id="freepik--Sofa--inject-234"><polygon points="545.48 424.44 537.29 446.26 528.41 444.01 523.23 417.53 545.48 424.44" style="fill:#263238"></polygon><path d="M178.79,353.87l11.7-75.79,21-27.27a13,13,0,0,1,12.5-4.89l15.49,2.66-3.91,20.22-22.6,92.12Z" style="fill:#FF725E"></path><path d="M245.66,216.47,235.54,268.8l299,61,10.41-49.29a11.2,11.2,0,0,0-8.73-13.3l-281-57.11A8.11,8.11,0,0,0,245.66,216.47Z" style="fill:#FF725E"></path><path d="M539.4,306.58l26.93,7.6a11.4,11.4,0,0,1,5.94,4l28.33,37.32a12.56,12.56,0,0,1,1.73,12.11L573.67,432.9l-24-4.91-17.3-98.68Z" style="fill:#FF725E"></path><polygon points="534.51 329.75 565.61 387.56 559.5 404.19 209.48 328.88 212.65 309.27 235.54 268.8 534.51 329.75" style="fill:#FF725E"></polygon><polygon points="209.48 328.88 204.91 359.26 549.62 427.99 559.5 404.19 209.48 328.88" style="fill:#FF725E"></polygon><path d="M384.08,365.68a1.56,1.56,0,0,1,.06-.35c.05-.25.13-.58.22-1,.21-.91.5-2.2.88-3.84.8-3.36,1.95-8.17,3.36-14.1v.06c-1-11.49-2.31-27.17-3.78-44.44-.07-.94-.15-1.88-.22-2.74v-.09l11.14-42.27c1.44-5.35,2.6-9.68,3.41-12.7.4-1.47.72-2.62,1-3.44l.26-.89a1.61,1.61,0,0,1,.1-.3,1.43,1.43,0,0,1,0,.31c-.06.23-.13.53-.21.91-.21.82-.49,2-.86,3.46-.77,3-1.88,7.37-3.25,12.74-2.8,10.8-6.67,25.71-11,42.31v-.09c.08.87.15,1.8.23,2.74,1.41,17.28,2.69,33,3.63,44.46v.06c-1.48,5.91-2.69,10.71-3.53,14.06-.42,1.63-.75,2.91-1,3.82-.11.41-.2.73-.27,1A1.4,1.4,0,0,1,384.08,365.68Z" style="fill:#263238"></path><polygon points="212.22 311.92 215.33 284.16 239.45 248.58 235.54 268.8 212.22 311.92" style="opacity:0.30000000000000004"></polygon><path d="M539.6,307.83s.08.07.21.21l.59.67c.52.62,1.27,1.49,2.22,2.6l8.16,9.71,27.37,32.84.1.11,0,.15c-1.1,2.86-2.26,5.88-3.43,8.94-6.9,17.94-13.15,34.17-17.69,45.95-2.27,5.85-4.12,10.59-5.41,13.91-.64,1.61-1.15,2.88-1.5,3.77l-.4,1c-.09.22-.15.33-.15.33a1.41,1.41,0,0,1,.1-.35c.09-.24.2-.57.35-1,.34-.9.81-2.18,1.41-3.81,1.25-3.32,3-8.08,5.26-14,4.5-11.8,10.7-28.05,17.54-46,1.18-3.07,2.34-6.08,3.43-8.95l0,.26-27.25-32.95-8-9.81-2.15-2.66-.54-.69Z" style="fill:#263238"></path><path d="M603.82,361.85a4.52,4.52,0,0,1-1-.26l-2.79-.85c-2.35-.72-5.59-1.7-9.2-2.71s-6.9-1.83-9.29-2.42l-2.82-.71a4.06,4.06,0,0,1-1-.32,4.42,4.42,0,0,1,1.07.13c.68.11,1.66.29,2.86.54,2.41.5,5.73,1.28,9.35,2.28s6.86,2.05,9.18,2.86c1.16.41,2.09.76,2.73,1A4.23,4.23,0,0,1,603.82,361.85Z" style="fill:#263238"></path><path d="M215,285a4.17,4.17,0,0,1-1-.2l-2.69-.71-8.87-2.34-8.89-2.22-2.7-.67a3.69,3.69,0,0,1-1-.32,4.25,4.25,0,0,1,1,.12c.65.1,1.59.28,2.74.51,2.3.47,5.47,1.19,8.94,2.08s6.6,1.79,8.84,2.49c1.12.35,2,.65,2.64.87A3.76,3.76,0,0,1,215,285Z" style="fill:#263238"></path><path d="M212.22,311.92s.12-.26.38-.76l1.17-2.21,4.55-8.52c4-7.42,9.8-18.21,17.07-31.71l.06-.11.12,0,138.16,28.08,160.8,32.92-.15.1c1.75-8.16,3.11-14.48,4-18.78.47-2.12.82-3.75,1.06-4.86s.39-1.64.39-1.64-.1.56-.32,1.66-.56,2.74-1,4.87c-.89,4.3-2.21,10.63-3.91,18.8l0,.13-.13,0L373.62,297.22,235.5,269l.19-.08c-7.32,13.47-13.17,24.23-17.2,31.63L213.86,309c-.53.95-.94,1.68-1.21,2.18Z" style="fill:#263238"></path><path d="M204.91,359.26s0-.27.1-.8.2-1.34.35-2.39c.31-2.11.78-5.21,1.39-9.26,1.23-8.1,3-19.94,5.32-34.92l0-.16.16,0,184.1,35.89,171.06,33.54-.18.26L543.15,343.5l-6.44-10.2-1.65-2.64c-.37-.59-.55-.9-.55-.9l.59.87c.38.6.95,1.48,1.69,2.62l6.52,10.15,24.21,37.86.22.35-.4-.08L396.25,348.16,212.19,312.07l.19-.13c-2.35,15-4.2,26.8-5.47,34.9-.64,4-1.13,7.14-1.47,9.25l-.39,2.37C205,359,204.91,359.26,204.91,359.26Z" style="fill:#263238"></path><path d="M559.29,401.07c0,.14-78.27-14.58-174.74-32.89s-174.69-33.26-174.66-33.4,78.25,14.58,174.75,32.89S559.32,400.93,559.29,401.07Z" style="fill:#263238"></path><path d="M239.84,246.55s5,7.88,21.12,7.66,34.74-2.37,34.74-2.37L297,240.57,284.72,219.8l-34.45,2.35-7.35,9.2-3.08,15.2" style="opacity:0.30000000000000004"></path><path d="M231.85,195.49s4.21,41,11.19,51c0,0,46.79,5.71,57.75-4.37,0,0-.84-39.7-11.81-50.76C289,191.36,236.29,183.82,231.85,195.49Z" style="fill:#455a64"></path><path d="M285.11,206.71a9.7,9.7,0,0,1-1.39.92c-.92.56-2.22,1.39-3.81,2.44a97.08,97.08,0,0,0-22,20c-1.2,1.48-2.15,2.71-2.79,3.56a9.69,9.69,0,0,1-1,1.3,10.85,10.85,0,0,1,.88-1.41c.59-.9,1.49-2.16,2.66-3.68a86.52,86.52,0,0,1,22-20.09c1.62-1,3-1.8,3.91-2.3A10.43,10.43,0,0,1,285.11,206.71Z" style="fill:#263238"></path><path d="M498.45,282.16c0,.14-17.49,2-39.1,4.24s-39.14,3.87-39.15,3.73,17.49-2,39.1-4.24S498.44,282,498.45,282.16Z" style="fill:#263238"></path><polygon points="191.03 356.39 187.77 378.54 196.28 380.78 212.94 360.92 191.03 356.39" style="fill:#263238"></polygon></g><g id="freepik--picture-1--inject-234"><polygon points="196.19 61.88 126.12 47.68 120.27 48.64 192.32 162.51 195.92 159.96 196.19 61.88" style="fill:#263238"></polygon><polygon points="192.32 162.51 118.5 147.53 120.27 48.62 192.79 63.34 192.32 162.51" style="fill:#455a64"></polygon><path d="M192.79,63.33a1.2,1.2,0,0,1-.2.23l-.63.62-2.46,2.34,0,0h-.05c-6.31-1.21-18.7-3.68-32.94-6.57s-26.63-5.45-32.93-6.79h0l0,0-2.4-3.34-.61-.86a1.68,1.68,0,0,1-.19-.31,1.69,1.69,0,0,1,.23.28l.65.83L123.62,53l-.07,0c6.31,1.21,18.71,3.68,32.94,6.57s26.62,5.45,32.93,6.8h-.07l2.53-2.26.67-.57Z" style="fill:#263238"></path><path d="M118.5,147.53l.21-.22.65-.62,2.54-2.33,0,0h0c6.41,1.24,19,3.75,33.48,6.68s27.07,5.54,33.48,6.91H189l0,0,2.47,3.35.63.87a1.5,1.5,0,0,1,.2.31,3.52,3.52,0,0,1-.24-.28l-.67-.84-2.55-3.29.08.05c-6.42-1.24-19-3.75-33.49-6.68s-27.07-5.54-33.48-6.91l.08,0-2.61,2.25-.69.56C118.59,147.48,118.51,147.54,118.5,147.53Z" style="fill:#263238"></path><polygon points="188.94 158.04 121.97 144.45 123.55 53.07 189.42 66.43 188.94 158.04" style="fill:#fff"></polygon><path d="M132.86,119.84c2-1.57,4.95-1.53,7.68-.9s5.44,1.78,8.18,2.3c4.38.83,8.75,0,13.06,1.68,1.37.53,2.77,1.31,4.14,1.28,1.2,0,2.21-.67,3.39-.8,3-.33,6.44,2.85,9.37,2.14L178.53,146l-45.93-9.32Z" style="fill:#FF725E"></path><path d="M133.77,120.85c-.12,0,0-12.13.2-27s.51-27,.62-27,0,12.13-.2,27.05S133.89,120.87,133.77,120.85Z" style="fill:#263238"></path><path d="M135.86,121.27c-.12,0,0-12.13.19-27s.49-27,.61-27,0,12.13-.19,27.05S136,121.3,135.86,121.27Z" style="fill:#263238"></path><path d="M137.94,121.7c-.11,0,0-12.14.18-27s.49-27,.6-27,0,12.13-.18,27.05S138.06,121.72,137.94,121.7Z" style="fill:#263238"></path><path d="M140,122.12c-.12,0,0-12.13.17-27.05s.47-27,.59-27,0,12.13-.17,27.05S140.14,122.14,140,122.12Z" style="fill:#263238"></path><path d="M142.11,122.54c-.11,0,0-12.13.16-27.05s.47-27,.58-27,.05,12.13-.16,27.05S142.23,122.57,142.11,122.54Z" style="fill:#263238"></path><path d="M144.2,123c-.12,0,0-12.14.15-27s.45-27,.57-27S145,81.08,144.77,96,144.32,123,144.2,123Z" style="fill:#263238"></path><path d="M146.28,123.39c-.11,0-.05-12.14.14-27s.45-27,.56-27,.06,12.13-.14,27.05S146.4,123.41,146.28,123.39Z" style="fill:#263238"></path><path d="M148.37,123.81c-.12,0-.06-12.14.13-27s.43-27,.55-27,.06,12.13-.13,27.05S148.49,123.84,148.37,123.81Z" style="fill:#263238"></path><path d="M150.45,124.24c-.11,0-.06-12.14.12-27.06s.43-27,.54-27,.07,12.13-.12,27.05S150.57,124.26,150.45,124.24Z" style="fill:#263238"></path><path d="M152.54,124.66c-.12,0-.07-12.14.11-27.06s.41-27,.53-27,.06,12.14-.11,27.07S152.66,124.68,152.54,124.66Z" style="fill:#263238"></path><path d="M154.62,125.08c-.11,0-.07-12.14.1-27.06s.41-27,.52-27,.07,12.14-.1,27.07S154.74,125.11,154.62,125.08Z" style="fill:#263238"></path><path d="M156.71,125.5c-.12,0-.08-12.14.09-27.06s.39-27,.51-27,.07,12.14-.09,27.07S156.83,125.53,156.71,125.5Z" style="fill:#263238"></path><path d="M158.79,125.93c-.11,0-.08-12.15.08-27.07s.38-27,.5-27S159.45,84,159.29,99,158.91,126,158.79,125.93Z" style="fill:#263238"></path><path d="M160.88,126.35c-.12,0-.09-12.14.07-27.07s.37-27,.49-27,.08,12.14-.07,27.07S161,126.37,160.88,126.35Z" style="fill:#263238"></path><path d="M163,126.77c-.11,0-.09-12.14.06-27.07s.36-27,.48-27,.09,12.14-.06,27.07S163.08,126.8,163,126.77Z" style="fill:#263238"></path><path d="M165.05,127.2c-.12,0-.1-12.15,0-27.07s.35-27,.47-27,.09,12.14,0,27.07S165.17,127.22,165.05,127.2Z" style="fill:#263238"></path><path d="M167.13,127.62c-.11,0-.1-12.15,0-27.07s.34-27,.46-27,.1,12.14,0,27.07S167.25,127.64,167.13,127.62Z" style="fill:#263238"></path><path d="M169.22,128c-.12,0-.11-12.14,0-27.07s.34-27,.46-27,.1,12.14,0,27.07S169.34,128.07,169.22,128Z" style="fill:#263238"></path><path d="M171.3,128.47c-.11,0-.11-12.15,0-27.08s.32-27,.44-27,.11,12.14,0,27.07S171.42,128.49,171.3,128.47Z" style="fill:#263238"></path><path d="M173.39,128.89c-.12,0-.12-12.15,0-27.08s.32-27,.44-27,.11,12.15,0,27.09S173.51,128.91,173.39,128.89Z" style="fill:#263238"></path><path d="M175.47,129.31c-.11,0-.12-12.15,0-27.08s.3-27,.42-27,.12,12.15,0,27.09S175.59,129.34,175.47,129.31Z" style="fill:#263238"></path><path d="M177.56,129.74c-.12,0-.13-12.16,0-27.09s.3-27,.41-27,.13,12.15,0,27.09S177.68,129.76,177.56,129.74Z" style="fill:#263238"></path><polygon points="126.48 47.76 120.27 48.62 192.79 63.34 196.19 61.88 126.48 47.76" style="fill:#fff;opacity:0.2"></polygon></g><g id="freepik--picture-2--inject-234"><polygon points="641.36 83.78 626 139.7 586.41 125.06 602.11 69.26 641.36 83.78" style="fill:#455a64"></polygon><polygon points="635.9 86.65 623.21 133.55 593.36 122.95 606.37 75.43 635.9 86.65" style="fill:#fafafa"></polygon><polygon points="623.98 96.03 618 116.84 607.73 113.04 613.4 92.12 623.98 96.03" style="fill:#FF725E"></polygon><polygon points="602.11 69.26 598.42 69.26 582.08 126.46 586.41 125.06 602.11 69.26" style="fill:#263238"></polygon><polygon points="586.41 125.06 582.08 126.46 622.5 140.93 626 139.7 586.41 125.06" style="fill:#263238"></polygon></g><g id="freepik--picture-3--inject-234"><polygon points="676.78 176.88 661.83 192.71 666.98 194.61 674.24 185.89 676.78 176.88" style="fill:#455a64"></polygon><polygon points="707.64 168.96 697.49 205.9 671.34 196.23 681.71 159.36 707.64 168.96" style="fill:#455a64"></polygon><polygon points="704.03 170.85 695.65 201.84 675.92 194.84 684.52 163.44 704.03 170.85" style="fill:#fafafa"></polygon><polygon points="698.33 173.46 692.24 194.66 681.77 190.79 687.55 169.47 698.33 173.46" style="fill:#263238"></polygon><polygon points="681.71 159.36 679.27 159.36 668.48 197.15 671.34 196.23 681.71 159.36" style="fill:#263238"></polygon><polygon points="671.34 196.23 668.48 197.15 695.18 206.71 697.49 205.9 671.34 196.23" style="fill:#263238"></polygon></g><g id="freepik--Plant--inject-234"><path d="M103.65,279.56S90.36,248,85.8,228.83,75.23,188.3,75.23,188.3l2.2-.57S85.79,226,93.34,248.39s14.13,30.17,14.13,30.17l-3.82,1" style="fill:#263238"></path><path d="M84.24,146.58a5.9,5.9,0,0,0-2.76-2.41c-1.62-.53-3.36.32-4.77,1.27-6,4.08-8.69,18-9.69,25.19L83.56,198C95.63,179.15,93.35,159.07,84.24,146.58Z" style="fill:#455a64"></path><path d="M81.28,145.5a2.19,2.19,0,0,1,0,.42l-.15,1.2c-.14,1-.33,2.53-.54,4.39-.42,3.71-.85,8.85-1,14.55s.17,10.85.47,14.58c.15,1.86.29,3.36.4,4.4l.11,1.2a1.9,1.9,0,0,1,0,.42,2.39,2.39,0,0,1-.09-.41c0-.31-.1-.71-.18-1.19-.15-1-.33-2.54-.51-4.4a131,131,0,0,1-.58-14.61,129.34,129.34,0,0,1,1.06-14.57c.24-1.86.47-3.36.66-4.39.09-.48.16-.87.22-1.18A1.82,1.82,0,0,1,81.28,145.5Z" style="fill:#263238"></path><path d="M81.49,206.18C72,203.77,64.94,196.44,62,187.13c-2-6.51-1.69-13.5-1-20.28a2.48,2.48,0,0,1,.57-1.64A2.43,2.43,0,0,1,64,165c6.89,1.86,12.22,7.43,15.88,13.56a34.35,34.35,0,0,1,4.9,13.27,23.33,23.33,0,0,1-3.24,14.38" style="fill:#455a64"></path><path d="M81.49,206.18a1.49,1.49,0,0,1-.13-.39c-.09-.29-.19-.67-.32-1.13-.26-1-.67-2.41-1.21-4.15a119.71,119.71,0,0,0-5.1-13.33c-2.3-5.08-4.65-9.55-6.37-12.78l-2-3.83-.54-1a1.82,1.82,0,0,1-.17-.38,1.81,1.81,0,0,1,.24.34l.6,1c.52.88,1.26,2.17,2.15,3.77,1.77,3.2,4.16,7.66,6.47,12.76a103.21,103.21,0,0,1,5,13.4c.51,1.76.88,3.19,1.1,4.19.1.47.19.85.25,1.16A1.35,1.35,0,0,1,81.49,206.18Z" style="fill:#263238"></path><g style="opacity:0.30000000000000004"><path d="M81.49,206.18C72,203.77,64.94,196.44,62,187.13c-2-6.51-1.69-13.5-1-20.28a2.48,2.48,0,0,1,.57-1.64A2.43,2.43,0,0,1,64,165c6.89,1.86,12.22,7.43,15.88,13.56a34.35,34.35,0,0,1,4.9,13.27,23.33,23.33,0,0,1-3.24,14.38"></path></g><path d="M103.86,253.93c8.59-.33,16.78,3.66,25.35,4.41,5.67.5,11.71-.37,16.8,2.18-1.65-2.25-4.44-3.31-7.1-4.15a105.08,105.08,0,0,0-23.11-4.47c-4-.31-8.3-.34-11.79,1.69" style="fill:#455a64"></path><path d="M94,264.23c-10.22,2.48-23.2-3.4-33.47-1.28,9.72-6.19,25.63-7.34,33.47,1.28" style="fill:#455a64"></path><path d="M91.61,238.76a34.26,34.26,0,0,1,16-5.34,101.85,101.85,0,0,1,17,.19c-1.44-3.4-5-5.31-8.29-7a43.28,43.28,0,0,0-7.66-3.25,14.74,14.74,0,0,0-8.22-.17,12.52,12.52,0,0,0-7.34,6.45,14.54,14.54,0,0,0-1.5,9.08" style="fill:#455a64"></path><path d="M67.79,233c-7.84-3.8-17.41-.75-25.79,1.64a205.94,205.94,0,0,1,44.24,13.82C85,242.37,77.68,237.76,67.79,233Z" style="fill:#455a64"></path><g style="opacity:0.30000000000000004"><path d="M67.79,233c-7.84-3.8-17.41-.75-25.79,1.64a205.94,205.94,0,0,1,44.24,13.82C85,242.37,77.68,237.76,67.79,233Z"></path></g><path d="M89.61,219.21A73.52,73.52,0,0,1,98,210.92c3-2.41,5.48-5.67,8.29-8.28,3.63-3.39,6.46-7.52,9.6-11.37s6.74-7.51,11.29-9.49a26.09,26.09,0,0,0-11.55,3.72,79,79,0,0,0-9.92,7.16c-4.42,3.56-8.91,7.19-12,11.91s-5.9,9.29-4,14.64" style="fill:#455a64"></path><path d="M128.23,255.33a1.52,1.52,0,0,1-.36-.06l-1-.23c-.87-.21-2.13-.53-3.7-.86-.78-.19-1.64-.37-2.57-.54s-1.91-.36-3-.53a40.68,40.68,0,0,0-6.84-.55,13.92,13.92,0,0,0-6.58,1.53,18.74,18.74,0,0,0-2.55,1.55,15.22,15.22,0,0,0-1.94,1.73,14.83,14.83,0,0,0-2.2,3.05c-.43.78-.62,1.24-.65,1.23a2,2,0,0,1,.11-.35,10,10,0,0,1,.41-.95,13.26,13.26,0,0,1,2.14-3.16,14.22,14.22,0,0,1,1.94-1.8,18.88,18.88,0,0,1,2.58-1.6,14,14,0,0,1,6.73-1.61,39,39,0,0,1,6.9.59c1,.18,2,.36,3,.56s1.78.39,2.56.59c1.56.37,2.81.73,3.68,1l1,.3C128.11,255.27,128.23,255.31,128.23,255.33Z" style="fill:#263238"></path><path d="M85.07,261.16a2.17,2.17,0,0,1,.69,0,13.38,13.38,0,0,1,1.85.29,20.74,20.74,0,0,1,10.63,6,14.81,14.81,0,0,1,1.21,1.42,2.61,2.61,0,0,1,.38.58s-.66-.72-1.78-1.81A23.52,23.52,0,0,0,93.19,264a24.33,24.33,0,0,0-5.64-2.26C86,261.34,85.07,261.22,85.07,261.16Z" style="fill:#263238"></path><path d="M54.45,235.87l.46,0,1.34.12,2.11.21c.83.08,1.75.28,2.78.45a60.59,60.59,0,0,1,15.45,5,67.47,67.47,0,0,1,7.77,4.48,73,73,0,0,1,5.83,4.42c1.59,1.34,2.83,2.49,3.68,3.28l1,.91a2.61,2.61,0,0,1,.33.33,1.86,1.86,0,0,1-.38-.27c-.24-.2-.59-.48-1-.86-.88-.76-2.14-1.87-3.75-3.19s-3.58-2.8-5.86-4.33A70.06,70.06,0,0,0,76.43,242a63.86,63.86,0,0,0-15.34-5.08c-1-.19-1.94-.4-2.76-.51l-2.1-.27L54.91,236A1.4,1.4,0,0,1,54.45,235.87Z" style="fill:#263238"></path><path d="M105.4,229.07a4.2,4.2,0,0,1-.84.1l-1,.07c-.38,0-.8.14-1.28.21a13.27,13.27,0,0,0-6.64,3.2,13,13,0,0,0-2.57,3.19,15.39,15.39,0,0,0-1.39,3.06,20.48,20.48,0,0,0-.7,3,3.09,3.09,0,0,1,0-.85,11.86,11.86,0,0,1,.45-2.27,14.17,14.17,0,0,1,1.34-3.15,12.79,12.79,0,0,1,9.47-6.48c.48-.06.92-.15,1.31-.16h1A3.28,3.28,0,0,1,105.4,229.07Z" style="fill:#263238"></path><path d="M107.38,194.65a1.83,1.83,0,0,1-.32.34c-.25.24-.57.54-1,.91-.84.79-2.06,1.95-3.53,3.41s-3.14,3.28-4.9,5.38a50.75,50.75,0,0,0-5.15,7.23,17,17,0,0,0-1.79,4.19c-.33,1.45-.65,2.85-.92,4.2a71,71,0,0,0-1.16,7.17,43,43,0,0,0-.2,4.9c0,1.15.09,1.79,0,1.8a3.58,3.58,0,0,1-.07-.47c0-.3-.09-.75-.12-1.33a33.7,33.7,0,0,1,.08-4.92,62,62,0,0,1,1.08-7.22c.27-1.35.58-2.76.9-4.22a18,18,0,0,1,1.82-4.29,50.3,50.3,0,0,1,5.22-7.27c1.78-2.1,3.5-3.88,5-5.33s2.74-2.58,3.62-3.34c.42-.35.76-.63,1-.86A3.66,3.66,0,0,1,107.38,194.65Z" style="fill:#263238"></path><path d="M86.84,232.91a4.93,4.93,0,0,1-.42-.8l-1.06-2.24a67.1,67.1,0,0,0-3.91-7.14,69,69,0,0,0-4.81-6.57c-.63-.77-1.15-1.41-1.56-1.93a3.69,3.69,0,0,1-.54-.73,4,4,0,0,1,.65.64c.4.43,1,1.05,1.65,1.85a54.47,54.47,0,0,1,4.93,6.54,54.8,54.8,0,0,1,3.83,7.23c.42,1,.75,1.74,1,2.29A3.66,3.66,0,0,1,86.84,232.91Z" style="fill:#263238"></path><path d="M80.08,209.93a28.45,28.45,0,0,0-6.17-10.13,37.51,37.51,0,0,0-29.37-12l31.6,28,4.52,5.3C81.81,217.35,81.34,213.71,80.08,209.93Z" style="fill:#455a64"></path><rect x="77.53" y="275.07" width="54.72" height="9.7" transform="translate(-67.05 35.39) rotate(-14.57)" style="fill:#FF725E"></rect><polygon points="83.1 288.6 95.18 316.55 130.34 307.41 128.14 276.89 83.1 288.6" style="fill:#FF725E"></polygon><path d="M132.56,277.74c0,.11-11.9,3.3-26.63,7.12s-26.7,6.86-26.73,6.75,11.89-3.29,26.63-7.12S132.53,277.64,132.56,277.74Z" style="fill:#263238"></path></g><g id="freepik--Lamp--inject-234"><rect x="602.59" y="213.71" width="3.23" height="77" transform="translate(-44.02 160.13) rotate(-14.57)" style="fill:#263238"></rect><path d="M570.21,193.71,565,236.28c27.12,5.2,48.88-1,68.45-19.6L606,184.41C592.8,183.25,580.81,186.16,570.21,193.71Z" style="fill:#e0e0e0"></path><path d="M570.21,193.71l.54-.4c.37-.25.91-.65,1.64-1.13a50,50,0,0,1,6.65-3.67,49,49,0,0,1,11.36-3.59A57.85,57.85,0,0,1,606,184.2h.08l0,.06,27.49,32.25.16.18-.18.17A88.77,88.77,0,0,1,619,228.19a67.59,67.59,0,0,1-28,9.6l-1.75.2c-.58.07-1.16.07-1.74.11-1.15.05-2.3.14-3.43.16-2.28,0-4.51,0-6.68-.18A99.5,99.5,0,0,1,565,236.49l-.19,0,0-.2c1.61-12.86,3-23.51,3.88-31,.48-3.69.85-6.59,1.11-8.58l.3-2.25c.07-.5.12-.76.12-.76s0,.28-.06.79-.14,1.3-.25,2.28c-.23,2-.57,4.92-1,8.62-.89,7.44-2.15,18.07-3.68,30.91l-.17-.24a100.85,100.85,0,0,0,12.35,1.54c2.16.19,4.38.15,6.64.17,1.13,0,2.26-.12,3.41-.17.57,0,1.15-.05,1.73-.11l1.73-.2a67.49,67.49,0,0,0,27.79-9.55,88.6,88.6,0,0,0,14.58-11.25l0,.35-27.41-32.31.14.07a57.78,57.78,0,0,0-15.54.63,50,50,0,0,0-11.33,3.48,55.81,55.81,0,0,0-6.68,3.56l-1.65,1.07C570.42,193.6,570.21,193.71,570.21,193.71Z" style="fill:#263238"></path><path d="M633.58,284.36c.65,2.52-7.63,6.85-18.51,9.68s-20.22,3.08-20.87.56,7.63-6.85,18.5-9.68S632.93,281.84,633.58,284.36Z" style="fill:#263238"></path><path d="M606,184.41a10,10,0,0,1-1.08,1.07,13.71,13.71,0,0,1-1.35,1.17c-.55.43-1.15.95-1.88,1.43s-1.52,1-2.42,1.55-1.87,1-2.91,1.55a41.63,41.63,0,0,1-7.11,2.55,42.18,42.18,0,0,1-13.62,1.09c-.87,0-1.66-.18-2.35-.26s-1.28-.2-1.76-.3a8,8,0,0,1-1.48-.35,9.27,9.27,0,0,1,1.52.15c.48.07,1.07.15,1.76.21s1.47.16,2.34.18a45.09,45.09,0,0,0,13.47-1.23,44.09,44.09,0,0,0,7-2.47c1-.51,2-1,2.89-1.49s1.7-1,2.43-1.48C604.39,185.84,605.94,184.32,606,184.41Z" style="fill:#263238"></path><g style="opacity:0.30000000000000004"><path d="M606,184.53c-13.22-1.16-25.21,1.75-35.81,9.31l0,.22C583,196.52,596.43,193.46,606,184.53Z"></path></g><path d="M611.15,285.34l1,4-17.55,3.81s1-1.76,6.25-4.14A72.43,72.43,0,0,1,611.15,285.34Z" style="opacity:0.30000000000000004"></path><path d="M614.27,284.53l.06.21,1,3.42,4-4.68" style="opacity:0.30000000000000004"></path><path d="M586.21,226.64c-.05-.07,1.23-1,3.11-2.76a44.08,44.08,0,0,0,11.14-16.37c.93-2.39,1.34-3.93,1.43-3.91a4.5,4.5,0,0,1-.2,1.11c-.16.7-.46,1.7-.88,2.92a39.43,39.43,0,0,1-11.25,16.53,29.72,29.72,0,0,1-2.4,1.89A4.41,4.41,0,0,1,586.21,226.64Z" style="fill:#263238"></path><path d="M723.15,277.15s-.13.11-.4.3-.67.5-1.21.86a18.19,18.19,0,0,1-5.26,2.17,20.59,20.59,0,0,1-9,0,26.93,26.93,0,0,1-5.36-1.78,22.37,22.37,0,0,1-5.36-3.35,22.86,22.86,0,0,1-7.5-12.2,17.16,17.16,0,0,1-.14-8.07,9.88,9.88,0,0,1,5.21-6.66,7.55,7.55,0,0,1,4.48-.56,9.38,9.38,0,0,1,4.18,1.94,11,11,0,0,1,3.75,8.47,17.56,17.56,0,0,1-2.79,9.29,34.83,34.83,0,0,1-6.42,7.69,37.92,37.92,0,0,1-17.43,8.94,37.23,37.23,0,0,1-18.23-.81,36.31,36.31,0,0,1-7.88-3.36,51,51,0,0,1-6.6-4.64,48.05,48.05,0,0,0-6.1-4.32,18.61,18.61,0,0,0-6.44-2.26,17.09,17.09,0,0,0-11.37,2.1,15.34,15.34,0,0,0-5.83,6.59,14.06,14.06,0,0,0-1.34,5.45c0,1.3.08,2,0,2s0-.17-.07-.5a10.63,10.63,0,0,1-.08-1.48,13.88,13.88,0,0,1,1.27-5.54,15.38,15.38,0,0,1,5.86-6.74,17.29,17.29,0,0,1,11.58-2.22,18.9,18.9,0,0,1,6.58,2.27,49.38,49.38,0,0,1,6.17,4.33,49.87,49.87,0,0,0,6.55,4.58,35.85,35.85,0,0,0,7.79,3.3,36.92,36.92,0,0,0,18,.77A37.58,37.58,0,0,0,697,274.86a35,35,0,0,0,6.32-7.57,17,17,0,0,0,2.73-9,10.47,10.47,0,0,0-3.56-8.09,8.77,8.77,0,0,0-4-1.85,7.06,7.06,0,0,0-4.19.52,9.39,9.39,0,0,0-5,6.33,16.68,16.68,0,0,0,.11,7.86,22.55,22.55,0,0,0,7.32,12,22,22,0,0,0,5.26,3.33,26.34,26.34,0,0,0,5.28,1.79,20.6,20.6,0,0,0,8.87.1,18.49,18.49,0,0,0,5.24-2.06l1.24-.81C723,277.23,723.15,277.15,723.15,277.15Z" style="fill:#263238"></path><path d="M721,273.34h5.19a0,0,0,0,1,0,0v7.87a0,0,0,0,1,0,0H721a2.68,2.68,0,0,1-2.68-2.68V276A2.68,2.68,0,0,1,721,273.34Z" transform="translate(-51.09 298.96) rotate(-22.61)" style="fill:#263238"></path><rect x="723" y="273.18" width="5.43" height="1.21" rx="0.41" transform="translate(-49.48 300.01) rotate(-22.61)" style="fill:#263238"></rect><rect x="724.42" y="276.63" width="5.43" height="1.21" rx="0.41" transform="translate(-50.7 300.82) rotate(-22.61)" style="fill:#263238"></rect></g><g id="freepik--Table--inject-234"><path d="M641.57,364l14.24,77.21c2.24,1.44,4.25,1.77,5.53-1.44l-10.12-78.27Z" style="fill:#455a64"></path><path d="M614.36,353.1l13.58,78.32c2.53,1.34,4.48,1.17,5.48-1.45L624,350.7Z" style="fill:#455a64"></path><path d="M692.51,351.17l29.62,72.7c2.48,1,4.51.88,5.12-2.53l-25.8-74.58Z" style="fill:#455a64"></path><path d="M668.62,342.12l27.08,74.74c2.72.88,4.61.37,5.14-2.38l-23.11-76.41Z" style="fill:#455a64"></path><polygon points="635.27 347.27 641.57 369.61 705.83 346.15 700.2 324.79 635.27 347.27" style="fill:#455a64"></polygon><polygon points="607.75 341.53 612.31 361.66 641.57 369.61 636.36 346.89 607.75 341.53" style="fill:#455a64"></polygon><polygon points="607.75 341.53 612.31 361.66 641.57 369.61 636.36 346.89 607.75 341.53" style="opacity:0.30000000000000004"></polygon><polygon points="607.75 341.53 636.36 346.89 700.2 324.79 671.26 318.95 607.75 341.53" style="fill:#455a64"></polygon><path d="M705.83,346.15a.7.7,0,0,1-.23.11l-.69.28-2.69,1-9.91,3.7-32.76,12-17.9,6.51-.07,0-.07,0L620.45,364l-6-1.7-1.59-.48a3.65,3.65,0,0,1-.54-.18,2.22,2.22,0,0,1,.56.11l1.61.4,6,1.57,21.1,5.63h-.14l17.88-6.55,32.82-11.9,10-3.54,2.72-.95.71-.23A.8.8,0,0,1,705.83,346.15Z" style="fill:#263238"></path><path d="M642.61,350.34s.07,0,.25-.11l.77-.29,3-1.1L658,344.78l38.61-13.69.25-.09.08.25,3.54,11.27.07.24-.23.09-.72.26-53.68,19.67-.15.05,0-.16c-1-3.89-1.77-7-2.32-9.12-.25-1-.45-1.83-.59-2.4l-.15-.61c0-.14,0-.2,0-.2s0,.08.07.22.11.37.18.62c.16.58.39,1.38.67,2.41l2.46,9-.2-.1,53.6-19.88.72-.26-.16.32c-1.21-3.86-2.39-7.65-3.53-11.27l.33.16L658.22,345l-11.42,3.94L643.71,350l-.81.27Z" style="fill:#263238"></path><circle cx="671.33" cy="346.46" r="2.06" style="fill:#fff"></circle><polygon points="607.75 341.53 636.36 346.89 700.2 324.79 671.26 318.95 607.75 341.53" style="fill:#fff;opacity:0.2"></polygon><polygon points="651.85 366.16 652.15 368.67 643.65 375.27 642.61 369.61 651.85 366.16" style="opacity:0.30000000000000004"></polygon><polygon points="676.43 363.68 684.16 359.33 682.73 354.58 674.26 357.68 676.43 363.68" style="opacity:0.30000000000000004"></polygon><polyline points="692.51 351.17 693.39 353.32 702.06 348.52 701.76 347.64 692.15 351.14" style="opacity:0.30000000000000004"></polyline><polyline points="619.03 380.01 626.8 373.98 625.77 365.31 616.02 362.64 618.62 379.63" style="opacity:0.30000000000000004"></polyline><path d="M641.57,369.6c-.14,0-1.42-5-2.86-11.29s-2.49-11.38-2.35-11.41,1.42,5,2.86,11.29S641.71,369.57,641.57,369.6Z" style="fill:#263238"></path></g><g id="freepik--Cushions--inject-234"><path d="M242.42,440.7c7.38-3.47,23.39-11.31,31.15-17.6a7.33,7.33,0,0,0,2.47-7.33c-2-8.67-7.21-29.08-14.21-38.08A6.77,6.77,0,0,0,254,375.6c-7.51,3-23.77,10-31.21,17.75a8.42,8.42,0,0,0-2.18,7.5c1.68,8.26,6.23,28.49,12.29,37.36A7.6,7.6,0,0,0,242.42,440.7Z" style="fill:#455a64"></path><path d="M269.72,395.27a4.92,4.92,0,0,1-.63-.18l-1.8-.59-6.59-2.27-21.81-7.73.32-.14-.54,1.26c-3.76,8.59-7.15,16.36-9.64,22.05-1.24,2.77-2.25,5-3,6.66-.35.75-.62,1.34-.84,1.8a3,3,0,0,1-.32.62,3,3,0,0,1,.23-.66l.74-1.84c.69-1.64,1.65-3.92,2.82-6.72l9.5-22.12.54-1.25.1-.23.23.08,21.77,7.88,6.53,2.42,1.76.69A2.71,2.71,0,0,1,269.72,395.27Z" style="fill:#fff"></path><path d="M275.53,413a4.73,4.73,0,0,1-.64-.18l-1.79-.59L266.51,410l-21.82-7.73.33-.14c-.17.4-.36.83-.55,1.26l-9.63,22.06-3,6.66-.83,1.8a5.41,5.41,0,0,1-.32.61,3.24,3.24,0,0,1,.22-.66l.75-1.84c.69-1.64,1.65-3.92,2.82-6.72l9.5-22.12c.18-.43.37-.86.54-1.25l.1-.23.23.08,21.76,7.88,6.54,2.43,1.76.68A2.71,2.71,0,0,1,275.53,413Z" style="fill:#fff"></path><path d="M267.61,425.86a6.68,6.68,0,0,1-1.21-.33l-3.29-1.1c-2.79-.95-6.66-2.3-11-3.85l.32-.14c-.33.76-.67,1.56-1,2.38-2.09,4.81-4,9.16-5.42,12.3l-1.69,3.7a7.55,7.55,0,0,1-.69,1.33,9,9,0,0,1,.5-1.41c.4-1,.92-2.25,1.55-3.77,1.32-3.17,3.18-7.54,5.27-12.36l1-2.38.1-.22.22.08c4.37,1.57,8.22,3,11,4l3.24,1.24A5.8,5.8,0,0,1,267.61,425.86Z" style="fill:#fff"></path><path d="M259.16,377.59a12,12,0,0,1,1,1.45c.63.94,1.49,2.35,2.49,4.12a89.53,89.53,0,0,1,6.49,14.48A90.62,90.62,0,0,1,273,413.05c.31,2,.5,3.64.58,4.78a12.11,12.11,0,0,1,.1,1.76,11.16,11.16,0,0,1-.3-1.74c-.14-1.12-.39-2.75-.74-4.74a99.59,99.59,0,0,0-10.29-29.78c-.95-1.78-1.75-3.21-2.33-4.19A12.46,12.46,0,0,1,259.16,377.59Z" style="fill:#263238"></path><path d="M443.72,145c9,3.27,28.71,10.07,40.34,11.31a8.58,8.58,0,0,0,8.12-4c5.55-8.81,18.17-30,19.85-43.24a7.91,7.91,0,0,0-4.73-8.22c-8.66-3.79-27.9-11.5-40.51-11.24a9.86,9.86,0,0,0-8,4.39c-5.47,8.21-18.49,28.69-20.85,41.05A8.89,8.89,0,0,0,443.72,145Z" style="fill:#455a64"></path><path d="M504,130.12a3.84,3.84,0,0,1-.37-.67l-1-2-3.54-7.35-11.6-24.49.33.13-1.49.59-26.25,10.23-8,3-2.18.8a5.68,5.68,0,0,1-.77.25,4.13,4.13,0,0,1,.73-.35l2.15-.89,7.91-3.2,26.2-10.38,1.49-.58.23-.09.1.22L499.4,120l3.39,7.41c.38.85.67,1.52.9,2A4.3,4.3,0,0,1,504,130.12Z" style="fill:#fff"></path><path d="M494.05,149.59a3.41,3.41,0,0,1-.38-.67c-.24-.5-.57-1.16-1-2l-3.54-7.35c-3-6.28-7.06-14.9-11.6-24.49l.33.13-1.5.59-26.25,10.23-8,3-2.18.8a6.28,6.28,0,0,1-.77.25,3.7,3.7,0,0,1,.73-.35l2.14-.89,7.92-3.2,26.19-10.38,1.5-.58.23-.09.1.22c4.48,9.62,8.52,18.26,11.45,24.56l3.4,7.41c.37.85.67,1.52.9,2A5.9,5.9,0,0,1,494.05,149.59Z" style="fill:#fff"></path><path d="M476.84,153.64a8,8,0,0,1-.71-1.29l-1.79-3.64c-1.51-3.1-3.58-7.43-5.9-12.34l.33.13-2.83,1.11c-5.72,2.25-10.9,4.26-14.67,5.68L446.81,145a12.45,12.45,0,0,1-1.67.55,10.44,10.44,0,0,1,1.59-.74l4.41-1.82c3.73-1.51,8.89-3.57,14.61-5.82l2.83-1.11.23-.09.1.22c2.3,4.92,4.31,9.28,5.74,12.41.67,1.52,1.23,2.76,1.65,3.71A8.4,8.4,0,0,1,476.84,153.64Z" style="fill:#fff"></path><path d="M509.91,106.76a2.15,2.15,0,0,1-.07.54l-.3,1.5c-.27,1.3-.73,3.17-1.38,5.46s-1.52,5-2.62,7.94-2.46,6.13-4.05,9.4-3.3,6.28-4.94,9-3.25,5-4.66,6.93-2.6,3.43-3.47,4.44l-1,1.16a2.33,2.33,0,0,1-.37.38s.08-.16.29-.45.55-.73.92-1.22c.82-1,2-2.59,3.33-4.52s2.92-4.3,4.55-7,3.29-5.71,4.89-8.95S504,125,505.1,122s2-5.61,2.7-7.88,1.21-4.12,1.54-5.4l.4-1.48A2.64,2.64,0,0,1,509.91,106.76Z" style="fill:#263238"></path></g><g id="freepik--Cat--inject-234"><path d="M386,131.74a59.66,59.66,0,0,0-8.28.53,57.43,57.43,0,0,0-8,2.23,8.5,8.5,0,0,1,2.19-1.12,27.45,27.45,0,0,1,11.66-2A9,9,0,0,1,386,131.74Z" style="fill:#455a64"></path><path d="M378.91,135.79a28.18,28.18,0,0,1-4.78.1,28.93,28.93,0,0,1-4.77-.18,17.81,17.81,0,0,1,4.78-.34A18.05,18.05,0,0,1,378.91,135.79Z" style="fill:#455a64"></path><path d="M365.19,117.35a10.68,10.68,0,0,1,6.12-3.86c.71-.16,1.6-.18,2,.42a2.07,2.07,0,0,1,.1,1.59c-.44,2.14-1.67,5.33-2.12,7.47" style="fill:#263238"></path><path d="M359,113.61c-.27-.43-8.34-11.49-33.75-9-25.05,2.45-27.4,24.53-28.45,31.61s-.56,13.51,10.21,17.19a6.78,6.78,0,0,1,.55,4.77s14.64,13.55,18.12,13.66,4.72-3.76,2-6.77-3.17-.94-5.68-5.75-.11-5.45-.11-5.45,6.71-4.81,7.59-10.92c0,0-.25-1,4.24-6.28s20.54-3.51,20.54-3.51Z" style="fill:#263238"></path><path d="M338.79,120.35c-.51.76-6.27,5.89-4.53,8.94s11.38,13.1,11.87,16,.64,6.19,2.09,7.5c1,.9,4.66,2.27,5.75-1.85s.72-7.34.26-8.49c-.19-.48-5.57-6.88-6.26-9.58a4.4,4.4,0,0,1,1.38-4.38" style="fill:#263238"></path><path d="M369.31,142.3c-.36-3.68-2-5-2-5l-16.54-6a8.31,8.31,0,0,0,2.76,4.36c2.44,2.23,8,4.24,9,6.87s.74,6.63,3.65,6.24S369.68,146,369.31,142.3Z" style="fill:#263238"></path><path d="M327.05,147.06c2-.55,3.26-2.6,5.21-3.25a4.08,4.08,0,0,1,5.05,5.47q-9,2.49-17.84,5.64" style="fill:#263238"></path><path d="M296.7,138.65a25.29,25.29,0,0,1-5.34-36.55c2.72-3.39,6.43-6.34,7.32-10.6.58-2.78-.18-5.65-1-8.36s-1.8-5.47-1.62-8.31,1.85-5.79,4.59-6.52c3-.79,6,1.28,8,3.68a20.51,20.51,0,0,1-.37,26.31,46.48,46.48,0,0,1-7.19,6.22,31.25,31.25,0,0,0-6.87,6.56,11.75,11.75,0,0,0-2.23,9c.66,3.11,3.37,5.86,6.55,5.94" style="fill:#263238"></path><path d="M355.92,116.57s-.14-7.64,1.86-7.31,5.39,6.12,5.39,6.12,6.7,3.47,8.13,7.23c1.53,4,.06,13,0,14.34-.13,1.75-5.94,2.86-8.06,2.26s-3.64-3.48-7.32-4.45c-7.2-1.88-3.13-7.69-3.13-7.69" style="fill:#263238"></path><path d="M352.76,127.07a9.39,9.39,0,0,0-.95,2.52,3.82,3.82,0,0,0,.59,3,6.13,6.13,0,0,0,3.51,2,11.17,11.17,0,0,1,4.53,2.52,13.14,13.14,0,0,0,2.26,1.66,5.41,5.41,0,0,0,2.86.34,14.62,14.62,0,0,0,3.08-.57,8.94,8.94,0,0,0,1.47-.61c.44-.26.89-.61.91-1,.26-2.27.55-4.57.66-7a29.15,29.15,0,0,0-.11-5,10.05,10.05,0,0,0-.52-2.29,8,8,0,0,0-1.19-1.93,25,25,0,0,0-6.8-5.16l-.05,0,0-.05a24.87,24.87,0,0,0-4-5.3,3.13,3.13,0,0,0-1.14-.72c-.39-.19-.7.11-.9.46a6.74,6.74,0,0,0-.66,2.2,30.93,30.93,0,0,0-.33,3.27c0,.76-.05,1.17-.07,1.17s0-.1,0-.3,0-.49,0-.87a23.93,23.93,0,0,1,.2-3.31,7.42,7.42,0,0,1,.65-2.32,1.53,1.53,0,0,1,.48-.54.84.84,0,0,1,.78-.09,3.44,3.44,0,0,1,1.29.79,24.77,24.77,0,0,1,4.1,5.34l-.09-.08a25,25,0,0,1,7,5.23,7.85,7.85,0,0,1,1.28,2.06,10,10,0,0,1,.56,2.42,29.16,29.16,0,0,1,.12,5c-.11,2.41-.41,4.76-.67,7a2.21,2.21,0,0,1-.15.5,2.09,2.09,0,0,1-.3.4,4.1,4.1,0,0,1-.72.54,8.44,8.44,0,0,1-1.58.64,14.88,14.88,0,0,1-3.19.58,5.82,5.82,0,0,1-3.09-.41,12.94,12.94,0,0,1-2.34-1.74,10.94,10.94,0,0,0-4.35-2.5,6.38,6.38,0,0,1-3.65-2.21,4,4,0,0,1-.55-3.17,6.85,6.85,0,0,1,.74-1.9A2.27,2.27,0,0,1,352.76,127.07Z" style="fill:#455a64"></path><path d="M368.75,135.91c-.29.47-.32,2.43.59,2.55,2,.25,2-1.91,2-1.91S369,135.44,368.75,135.91Z" style="fill:#455a64"></path><path d="M366.22,130.8a1.29,1.29,0,1,1-1.29-1.28A1.28,1.28,0,0,1,366.22,130.8Z" style="fill:#455a64"></path><path d="M345.58,129.05a7.87,7.87,0,0,1,2.3,0,30.69,30.69,0,0,1,5.44,1A31.46,31.46,0,0,1,358.5,132a8,8,0,0,1,2,1.16c-.08.15-3.18-1.47-7.3-2.6S345.57,129.21,345.58,129.05Z" style="fill:#455a64"></path><path d="M347.89,135.74a22.19,22.19,0,0,1,12.35-1c0,.16-2.79-.15-6.2.14S347.94,135.9,347.89,135.74Z" style="fill:#455a64"></path><path d="M367,126c-.3.32-1,.11-1.86,0s-1.57-.24-1.74-.65c-.07-.2.08-.47.45-.68a2.46,2.46,0,0,1,1.58-.21,2.42,2.42,0,0,1,1.4.77C367.09,125.57,367.13,125.88,367,126Z" style="fill:#455a64"></path><path d="M297.84,147.37a4.88,4.88,0,0,1-.54-1.11,18.67,18.67,0,0,1-.95-3.23,28,28,0,0,1,.16-11,56.14,56.14,0,0,1,3.4-10.52c.55-1.3,1-2.34,1.35-3.06a4.82,4.82,0,0,1,.57-1.09,6.51,6.51,0,0,1-.38,1.17l-1.2,3.12A66.68,66.68,0,0,0,297,132.1a30.06,30.06,0,0,0-.31,10.87C297.19,145.73,297.94,147.33,297.84,147.37Z" style="fill:#455a64"></path><path d="M324,162.29a6.86,6.86,0,0,1-1.11-1.52c-.32-.52-.7-1.16-1.09-1.93a9.67,9.67,0,0,1-1-2.78,4.85,4.85,0,0,1,1.43-3.31,12.57,12.57,0,0,1,1.46-1.36c.5-.45,1-.94,1.49-1.45l1.53-1.57a9.8,9.8,0,0,0,1.47-1.69,10.51,10.51,0,0,0,1.5-4.42,11.63,11.63,0,0,0-.2-4.68,18.28,18.28,0,0,0-1.71-4.06,9.29,9.29,0,0,0-5.57-4.63,10.28,10.28,0,0,0-5-.12,11.7,11.7,0,0,0-1.76.62s.13-.11.4-.28a6,6,0,0,1,1.31-.54,10.13,10.13,0,0,1,5.14,0,9.56,9.56,0,0,1,5.89,4.73,17.92,17.92,0,0,1,1.79,4.18,12.1,12.1,0,0,1,.23,4.88,10.84,10.84,0,0,1-1.6,4.63,10.51,10.51,0,0,1-1.53,1.76l-1.55,1.56c-.51.51-1,1-1.53,1.45a14.23,14.23,0,0,0-1.44,1.31,4.59,4.59,0,0,0-1.39,3,10,10,0,0,0,.94,2.69c.36.78.72,1.43,1,1.95l.69,1.21A2.18,2.18,0,0,1,324,162.29Z" style="fill:#455a64"></path><path d="M373.34,114.26c.07.14-1.13.87-2.22,2.16s-1.66,2.57-1.81,2.52a4.88,4.88,0,0,1,1.41-2.86A5,5,0,0,1,373.34,114.26Z" style="fill:#455a64"></path><path d="M357.9,111.91s.52.15,1.15.73a5.9,5.9,0,0,1,1.67,2.84,2.57,2.57,0,0,1,.11,1,.86.86,0,0,1-.31.52,2.13,2.13,0,0,1-.44.21l-1.37.47c-.79.25-1.29.38-1.31.31s.42-.31,1.17-.65l1.33-.58c.28-.11.4-.18.43-.37a2.82,2.82,0,0,0-.11-.8,6.94,6.94,0,0,0-1.44-2.72C358.26,112.29,357.85,112,357.9,111.91Z" style="fill:#455a64"></path><path d="M349.49,153.64c-.14-.06.07-.83.06-1.78s-.21-1.71-.07-1.77.59.7.59,1.77S349.61,153.7,349.49,153.64Z" style="fill:#455a64"></path><path d="M352.76,153c-.14-.06.15-.9,0-1.93s-.71-1.74-.6-1.84.92.54,1.12,1.75S352.87,153.06,352.76,153Z" style="fill:#455a64"></path><path d="M365.65,148.53c-.15,0-.06-.89-.15-1.92s-.32-1.86-.18-1.91.6.74.7,1.87A2.63,2.63,0,0,1,365.65,148.53Z" style="fill:#455a64"></path><path d="M368,147.59c-.14-.05,0-.82,0-1.75s-.26-1.69-.12-1.75.6.68.64,1.73S368.12,147.65,368,147.59Z" style="fill:#455a64"></path><path d="M336.72,149.37c-.07,0-.15-.35-.39-.87a4.34,4.34,0,0,0-1.35-1.67,4.27,4.27,0,0,0-2-.76c-.56-.07-.93,0-.95-.1s.34-.24,1-.27a3.76,3.76,0,0,1,3.71,2.68C336.85,149,336.79,149.37,336.72,149.37Z" style="fill:#455a64"></path><path d="M327.11,171.14c-.13.08-.76-.81-1.75-1.68s-1.95-1.39-1.89-1.53a3.66,3.66,0,0,1,2.23,1.14C326.77,170,327.24,171.08,327.11,171.14Z" style="fill:#455a64"></path><path d="M329.44,168.87a10.07,10.07,0,0,0-2.19-2.31,10.89,10.89,0,0,0-3-1.05c0-.06.37-.17,1-.14a4.71,4.71,0,0,1,2.29.76,4.79,4.79,0,0,1,1.64,1.78C329.45,168.46,329.5,168.85,329.44,168.87Z" style="fill:#455a64"></path></g><g id="freepik--Character--inject-234"><path d="M449.33,255.1l11.91-1.38c4.7,0,15-2.9,15-2.9l2.85-23.1-28.61,6.22c-4.47-2.23-29.23-25.28-29.23-25.28l-6.59,7.07s17.61,25.12,25.62,35.55A10,10,0,0,0,449.33,255.1Z" style="fill:#ffbf9d"></path><path d="M387.9,199.55l11.23-6.11,10,2.69,15.42,16-6.44,8.2-2.52-3s-7.18-1.93-8.76-4.2a46.75,46.75,0,0,0-3.86-4.64l-2.75-1.59s-6.84,2.93-8.94,1.63l-.95-.75,7.09-3.74L397.2,202s-5.36,3.85-8.73,3l-1.05-1.43,5.82-3s-3.54,1.08-4.34.36A3.48,3.48,0,0,1,387.9,199.55Z" style="fill:#ffbf9d"></path><path d="M407.14,201.38a8.35,8.35,0,0,1-2.15-.79,34.31,34.31,0,0,1-4.79-2.72l-.41-.28.27,0c-1.82.9-3.46,1.68-4.65,2.22a9.22,9.22,0,0,1-2,.78,8.82,8.82,0,0,1,1.81-1.1c1.15-.63,2.77-1.47,4.59-2.38l.14-.07.13.09.4.27C404,199.83,407.2,201.23,407.14,201.38Z" style="fill:#ff9a6c"></path><path d="M391.76,195.86a2.55,2.55,0,0,1,3.13-.71,4.4,4.4,0,0,1,2.29,3.2,9.82,9.82,0,0,1-2.16,7.82,10.13,10.13,0,0,1-3.46,2.77,1,1,0,0,0,.89,1.75,12.46,12.46,0,0,0,6.35-7.54c1-3.53.51-8.22-3.27-9.86a4.53,4.53,0,0,0-5.41,1.48c-.72,1,.92,2.13,1.64,1.09Z" style="fill:#455a64"></path><path d="M371.4,193.4c-.42.24,3.37,15,8.38,24.82l13.83-2.81a82.6,82.6,0,0,0-.38-15.73,88.41,88.41,0,0,0-2.1-10.29S380.71,187.94,371.4,193.4Z" style="fill:#455a64"></path><g style="opacity:0.30000000000000004"><path d="M389.76,190.23A29.07,29.07,0,0,0,373,193.55a45.79,45.79,0,0,0,8-.39A34.07,34.07,0,0,0,389.76,190.23Z"></path></g><path d="M388.48,191a6.49,6.49,0,0,0-4.91-3.82c-1.58-.17-3.29.28-4.69-.46s-2-2.55-2.21-4.17a6.45,6.45,0,0,0-.62-2.59,3.23,3.23,0,0,0-3.93-1.07,4.9,4.9,0,0,0-2.64,3.38,7.93,7.93,0,0,0,0,4.4c1.24,3.71,2.11,3.32,3.08,5.16.68,1.29.18,1.34,1.59,1.73,0,0,6.76-.08,9.62-1S388.48,191,388.48,191Z" style="fill:#ae7461"></path><path d="M382.46,172a3.26,3.26,0,1,1-3.09-3.43A3.28,3.28,0,0,1,382.46,172Z" style="fill:#ae7461"></path><path d="M404.21,207.2s-7.44-5.82-8.13-7,.62-2.26,1.79-2,9.33,4.05,9.33,4.05" style="fill:#ffbf9d"></path><path d="M408.36,201.1s.07.08.06.27a.91.91,0,0,1-.42.68,1.39,1.39,0,0,1-1.25.15,11.54,11.54,0,0,1-1.48-.65c-1.07-.5-2.35-1.07-3.8-1.63-.72-.27-1.49-.55-2.29-.81a3.71,3.71,0,0,0-2.38-.28,1.31,1.31,0,0,0-.77.74,1,1,0,0,0,.25,1,17.08,17.08,0,0,0,1.82,1.55l3.22,2.61c.91.75,1.65,1.36,2.14,1.79a4.35,4.35,0,0,1,.75.72,3.5,3.5,0,0,1-.87-.55c-.54-.39-1.31-1-2.25-1.66l-3.3-2.52-1-.74a6.4,6.4,0,0,1-1-.87,1.55,1.55,0,0,1-.34-1.45,1.81,1.81,0,0,1,1.07-1.08,4.12,4.12,0,0,1,2.74.28c.81.27,1.58.56,2.31.86a38.73,38.73,0,0,1,3.78,1.74,15.49,15.49,0,0,0,1.4.71,1.24,1.24,0,0,0,1.06,0A.93.93,0,0,0,408.36,201.1Z" style="fill:#ff9a6c"></path><path d="M391.27,188.86s-.17.25-.57.59a10.5,10.5,0,0,1-1.86,1.25,23.18,23.18,0,0,1-7,2.14,37.22,37.22,0,0,1-7.33.38,15.54,15.54,0,0,1-3-.25,21.11,21.11,0,0,1,3-.12,48.17,48.17,0,0,0,7.24-.53,26.29,26.29,0,0,0,6.94-1.95C390.35,189.58,391.21,188.79,391.27,188.86Z" style="fill:#263238"></path><path d="M393.69,213.93c-.09,0,.12-1.27.21-3.3a52,52,0,0,0-.29-7.94c-.33-3.09-.82-5.87-1.22-7.87a29.71,29.71,0,0,1-.61-3.25,2.85,2.85,0,0,1,.33.83c.17.55.4,1.35.64,2.34a60.33,60.33,0,0,1,1.38,7.9,41.52,41.52,0,0,1,.14,8,20.31,20.31,0,0,1-.34,2.41A3.81,3.81,0,0,1,393.69,213.93Z" style="fill:#263238"></path><path d="M360.29,388.45s9.61,3.08,10.54,3.29,8.08-48.27,8.08-48.27l12.34-3.42s32.35,7.83,47.61,9.85c.54.07,1.09.13,1.64.18,17.38,1.55,33.43-9.48,39-26l2.14-6.34-90.39-6.46-31,4.14v73" style="opacity:0.30000000000000004"></path><path d="M515.71,183.56a4.62,4.62,0,0,1,2.73-8.78,4.8,4.8,0,0,1,7.64-5A5.75,5.75,0,0,1,536,170a6.46,6.46,0,0,1,7,3.79,4.6,4.6,0,0,1-.31,8.8" style="fill:#263238"></path><path d="M522.85,239.87l2.54-4.53,19.33-31c6.2-9.05,6.09-20.2-3.13-26.15l-.88-.5a19.61,19.61,0,0,0-25.9,6.09c-5.33,7.88-11.12,16.65-13.56,21.1-5.07,9.23,3.29,15.84,3.29,15.84l-3.78,6.63,4.92,10.75Z" style="fill:#ffbf9d"></path><path d="M504.48,220.68a25.5,25.5,0,0,0,14,3.27s-6.55,5-15.23-1Z" style="fill:#ff9a6c"></path><path d="M512.6,193.15a1.49,1.49,0,0,0,.52,2,1.43,1.43,0,0,0,2-.41,1.5,1.5,0,0,0-.51-2A1.44,1.44,0,0,0,512.6,193.15Z" style="fill:#263238"></path><path d="M514.24,189.4c.07.26,1.47.09,2.88.88s2,2.09,2.29,2,.13-.44-.13-1a4.11,4.11,0,0,0-1.72-1.81,3.91,3.91,0,0,0-2.41-.5C514.53,189.05,514.21,189.27,514.24,189.4Z" style="fill:#263238"></path><path d="M524.61,200.61a1.49,1.49,0,0,0,.51,2,1.45,1.45,0,0,0,2-.42,1.51,1.51,0,0,0-.51-2A1.44,1.44,0,0,0,524.61,200.61Z" style="fill:#263238"></path><path d="M527.94,197.48c.07.26,1.47.09,2.88.89s2,2.09,2.29,2,.13-.43-.14-1a4.13,4.13,0,0,0-1.71-1.81,4,4,0,0,0-2.41-.49C528.23,197.14,527.9,197.36,527.94,197.48Z" style="fill:#263238"></path><path d="M516.93,205a10.62,10.62,0,0,0-2.06-1.7c-.34-.24-.64-.51-.56-.79s.43-.61.84-.93l2.62-2.14c3.68-3.06,6.56-5.66,6.43-5.81s-3.21,2.22-6.89,5.28l-2.57,2.18a2.36,2.36,0,0,0-1,1.31,1,1,0,0,0,.3.86,2.8,2.8,0,0,0,.56.43A10.32,10.32,0,0,0,516.93,205Z" style="fill:#263238"></path><path d="M531,193c-.15.44,1.14,1.13,2.38,2.33s2,2.43,2.45,2.25c.19-.09.24-.56.05-1.24a5.24,5.24,0,0,0-1.4-2.23,5,5,0,0,0-2.28-1.26C531.48,192.68,531,192.77,531,193Z" style="fill:#263238"></path><path d="M516.56,185.54c.12.47,1.39.66,2.72,1.28s2.33,1.41,2.75,1.19c.2-.12.18-.53-.16-1.08a4.68,4.68,0,0,0-4.4-2C516.84,185.06,516.52,185.32,516.56,185.54Z" style="fill:#263238"></path><path d="M518.06,180.09s5.66-4.37,9.19-4.15c4.27.27,3.63,4.77,7.33,5.68s7.78,1.16,9.64,5.47c2,4.72-.69,5.67-2.77,9.87-8.42,17-8.05,23.36-2.8,16.07.57-.79,3.32-.14,5.7-3.53,3.09-4.41,6.46-10,7.29-13.87.7-3.28.2-6.11-1.45-9.84-2.61-5.9-8.75-9.46-13.19-11.41S521.74,172.69,518.06,180.09Z" style="fill:#263238"></path><path d="M538.2,212.45a2.87,2.87,0,0,1,4-.88c1.61,1.13,3,3.18.86,6.65-3.74,6.15-9.15,1.13-9.05.94S536.62,215,538.2,212.45Z" style="fill:#ffbf9d"></path><path d="M536.8,217.66s.07.14.2.33a1.23,1.23,0,0,0,.79.51,3.08,3.08,0,0,0,2.67-1.64,4.06,4.06,0,0,0,.63-1.71,1.45,1.45,0,0,0-.3-1.32.65.65,0,0,0-.81-.09c-.19.13-.23.27-.26.26s-.07-.18.13-.4a.78.78,0,0,1,.48-.24.94.94,0,0,1,.68.2,1.75,1.75,0,0,1,.54,1.64,4.26,4.26,0,0,1-.67,1.94c-.79,1.21-2.13,2-3.18,1.7a1.35,1.35,0,0,1-.88-.76C536.72,217.82,536.78,217.66,536.8,217.66Z" style="fill:#ff9a6c"></path><path d="M544.94,200.24a6.72,6.72,0,0,1-3.34-.27,2.36,2.36,0,0,1-1.46-2.72c.17-.48.56-.92.47-1.42s-.82-.83-1.38-1.07a4.6,4.6,0,0,1-2.53-5.22,1.91,1.91,0,0,1-2.37-1.06,10.38,10.38,0,0,1-.68-2.78,2.94,2.94,0,0,0-1.54-2.3,6.48,6.48,0,0,1-1.53-.47c-.78-.53-.64-1.73-.3-2.61s.78-1.9.33-2.74-1.39-1-2.21-1.32-1.69-1-1.47-1.9a1.73,1.73,0,0,1,.92-1,4.67,4.67,0,0,1,5.66,1.17,6.32,6.32,0,0,1,10.71,4.65,6.42,6.42,0,0,1,7.78,7.07,4.65,4.65,0,0,1,1.23,8.47,4.39,4.39,0,0,1,.39,4.25c-.71,1.31-2.7,1.89-3.76.84a2.57,2.57,0,0,1-5.14,0" style="fill:#263238"></path><path d="M532,176.13l-.06.12c0,.08-.09.19-.15.36a4.76,4.76,0,0,0-.23,1.46,5.16,5.16,0,0,0,.56,2.27,4.8,4.8,0,0,0,2.15,2.18l0-.2a2.67,2.67,0,0,0-.85,1.8,7.5,7.5,0,0,0,.2,2.15,5.58,5.58,0,0,0,.3,1.11,2.42,2.42,0,0,0,.78.93,2.62,2.62,0,0,0,2.43.42l-.2-.2a5.41,5.41,0,0,0,.16,4.38,3.93,3.93,0,0,0,1.67,1.84,7.23,7.23,0,0,0,2.28.7l-.12-.17a5.71,5.71,0,0,0,.39,2.77,3,3,0,0,0,1.85,1.83,4,4,0,0,0,4.18-1.2h-.18a3.77,3.77,0,0,0,2,1.53,4.11,4.11,0,0,0,1.88.18,3.79,3.79,0,0,0,1.13-.37,1.38,1.38,0,0,0,.34-.24,4.34,4.34,0,0,1-1.49.49,3.92,3.92,0,0,1-1.81-.23,3.54,3.54,0,0,1-1.84-1.48l-.08-.13-.1.12a3.74,3.74,0,0,1-3.93,1.08,2.74,2.74,0,0,1-1.66-1.68,5.37,5.37,0,0,1-.36-2.62l0-.15-.14,0a6.9,6.9,0,0,1-2.18-.67,3.69,3.69,0,0,1-1.55-1.71,5.09,5.09,0,0,1-.15-4.13l.12-.31-.32.11a2.31,2.31,0,0,1-2.14-.36,2.2,2.2,0,0,1-.7-.82,4.9,4.9,0,0,1-.28-1,7.49,7.49,0,0,1-.22-2.07,2.38,2.38,0,0,1,.75-1.64l.14-.12-.17-.08a4.59,4.59,0,0,1-2.08-2.05,5.11,5.11,0,0,1-.59-2.18A5.79,5.79,0,0,1,532,176.13Z" style="fill:#455a64"></path><path d="M519.07,208.62a24.9,24.9,0,0,0-5.86-1.26l0,0c-.47,1.28-.85,2.76-.2,3.95a2.87,2.87,0,0,0,2.52,1.42,3.21,3.21,0,0,0,2.53-1.22A6.71,6.71,0,0,0,519.07,208.62Z" style="fill:#ff9a6c"></path><path d="M513.89,212.14a3.07,3.07,0,0,0,1.84.46,2.89,2.89,0,0,0,1.8-.88,4.81,4.81,0,0,0,1.14-2.25,4.61,4.61,0,0,0,.1-.62c0-.06,0,0,0,0l-.31-.07-1.26-.29-2.13-.53a8.26,8.26,0,0,1-1.94-.62,8.27,8.27,0,0,1,2,.26l2.15.42,1.27.27.36.08a.53.53,0,0,1,.37.48,3.48,3.48,0,0,1-.11.77,4.86,4.86,0,0,1-1.31,2.46,3.12,3.12,0,0,1-2.1.91,2.5,2.5,0,0,1-1.49-.41C514,212.34,513.87,212.16,513.89,212.14Z" style="fill:#263238"></path><path d="M334.26,363.59,336,389.26s-25.49,10.41-25.63,15.19l49.89-1.64-1.12-40.11Z" style="fill:#455a64"></path><path d="M351.38,386.59a2,2,0,0,1,1.49,2.27,2,2,0,0,1-2.25,1.5,2.17,2.17,0,0,1-1.56-2.43,2,2,0,0,1,2.51-1.29" style="fill:#e0e0e0"></path><g style="opacity:0.6000000000000001"><path d="M360.29,402.81l-.27-4-47.73,3.08s-2.19,1-1.89,2.6Z" style="fill:#fff"></path></g><path d="M335.21,389c0,.24,1.24.31,2.46,1.06s1.9,1.74,2.12,1.64-.19-1.5-1.68-2.38S335.15,388.81,335.21,389Z" style="fill:#263238"></path><path d="M330.05,391.36c-.05.24,1,.62,1.88,1.62s1.14,2.09,1.38,2.07.35-1.4-.74-2.63S330.05,391.13,330.05,391.36Z" style="fill:#263238"></path><path d="M327.29,397.72c.22,0,.52-1.18-.15-2.49s-1.83-1.81-1.92-1.6.63.89,1.16,2S327,397.71,327.29,397.72Z" style="fill:#263238"></path><path d="M335.46,383.13c.11.22,1.21-.15,2.59-.1s2.47.45,2.59.23-.94-1.05-2.57-1.08S335.33,383,335.46,383.13Z" style="fill:#263238"></path><path d="M293.31,326.15l-18.4,19.15s-25.65-12.28-29.4-9.07l35.85,37,29.9-28.66Z" style="fill:#455a64"></path><path d="M287.59,355.19a2.1,2.1,0,0,1-.71,2.72,2,2,0,0,1-2.7-.69,2.22,2.22,0,0,1,.77-2.87,2.1,2.1,0,0,1,2.73,1" style="fill:#e0e0e0"></path><g style="opacity:0.6000000000000001"><path d="M281.36,373.25l2.9-3-35.45-34.37s-2.32-.95-3.3.36Z" style="fill:#fff"></path></g><path d="M274.51,344.52c-.17.18.62,1.16.9,2.61s0,2.66.21,2.76,1-1.18.65-2.94S274.64,344.32,274.51,344.52Z" style="fill:#263238"></path><path d="M269.15,342.19c-.22.13.23,1.21.06,2.56s-.8,2.31-.62,2.49,1.31-.71,1.49-2.39S269.32,342,269.15,342.19Z" style="fill:#263238"></path><path d="M262.36,344.48c.12.2,1.27-.42,1.81-1.84s.12-2.65-.11-2.58-.24,1.1-.71,2.26S262.21,344.28,262.36,344.48Z" style="fill:#263238"></path><path d="M279.19,340.62c-.09.23,1,.82,1.88,1.91s1.37,2.2,1.62,2.14.15-1.45-.95-2.71S279.25,340.39,279.19,340.62Z" style="fill:#263238"></path><path d="M277.72,335.44S328.17,281,334.1,274.32s11.73-12.13,24.45-7.26c6.22,2.39,69.53,25,69.53,25h0l10.78-.73,37.52,35.08s-10.65,10.8-24.61,14.55c-8.07,2.16-23,1.44-32.84-3.21-27.11-12.81-63.81-33.32-63.81-33.32S336,322.56,328.66,330.66c-7.64,8.48-25.82,26.68-25.82,26.68Z" style="fill:#263238"></path><path d="M431.66,280.68c-.71.19-18.68,1.67-38.78,3.29-26.11,2.1-59.21,5.67-59.21,5.67l-2.27,89.48,28.41,3.28,4.49-61.5L400,323.24l38.89-31.91Z" style="fill:#263238"></path><path d="M396.05,326.38s-.08,0-.22-.09l-.62-.32-2.37-1.28-8.8-4.81L354.12,303.3l.31-.05L345.19,313l-29.87,31.42c-3.82,4-6.92,7.22-9.1,9.48l-2.49,2.56-.66.66-.23.21s.06-.09.2-.25.36-.41.62-.69c.57-.63,1.38-1.51,2.42-2.63l9-9.59,29.76-31.53,9.25-9.75.13-.14.17.09,29.84,16.74,8.72,5,2.34,1.35.59.36Z" style="fill:#455a64"></path><path d="M353.12,291.94a31.79,31.79,0,0,1,1.32,11.73c-.15,0-.26-2.64-.63-5.87S353,292,353.12,291.94Z" style="fill:#455a64"></path><path d="M438.25,296.76c-.05.14-7.65-2.63-17-6.18s-16.85-6.53-16.8-6.66,7.65,2.64,17,6.18S438.3,296.63,438.25,296.76Z" style="fill:#455a64"></path><polygon points="417.43 281.27 433.62 287.64 432.88 273.66 428.79 271.06 422.37 269.5 418.43 272.16 416.87 276.05 417.43 281.27" style="fill:#455a64"></polygon><g style="opacity:0.30000000000000004"><polygon points="417.44 281.41 433.62 287.64 432.88 273.66 428.79 271.06 422.37 269.5 418.43 272.16 416.92 275.93 417.44 281.41"></polygon></g><path d="M454.78,255.71V229.5l29-8.68a6.87,6.87,0,0,1,3.84-.07l7,2.87c1.82,1.95-12.72,23.78-12.72,23.78Z" style="fill:#455a64"></path><path d="M427,267.88l10.52,1.94,10.36-8.59s13.89-11.81,19.41-17.42c7.58-7.7,27.26-20.19,27.26-20.19l6.74,2.7c-1.29,6.58,7.27,11.2,24.32,8.52l10.47,7.71L524.33,278,497.5,307.52l-24.41,26.7s-48.52-25-46.94-54c.3-5.54,1-7.53-2-9.51a2.83,2.83,0,0,0-3.42.36c-2.11,1.53-3.73,3.49-3.4,9.44a9.13,9.13,0,0,1-.5-5.28,12.74,12.74,0,0,1,2.44-4.31A8.58,8.58,0,0,1,427,267.88Z" style="fill:#455a64"></path><path d="M536.07,242.55s7.56,6.3,3.52,21.88c-2.25,8.71-9.06,23.79-9.06,23.79l-29.25-12,11.07-21.31S529.41,240.59,536.07,242.55Z" style="fill:#455a64"></path><path d="M481.64,232.85a2.76,2.76,0,0,1-.43.39l-1.3,1c-1.13.9-2.77,2.2-4.75,3.86-4,3.28-9.39,8-15.34,13.13s-11.4,9.81-15.46,13c-2,1.61-3.69,2.88-4.86,3.73l-1.36,1a2.13,2.13,0,0,1-.49.3,3.57,3.57,0,0,1,.43-.39l1.3-1c1.13-.89,2.77-2.2,4.75-3.85,4-3.29,9.39-8,15.35-13.14s11.39-9.8,15.45-13c2-1.62,3.69-2.88,4.86-3.73l1.36-1A2.53,2.53,0,0,1,481.64,232.85Z" style="fill:#263238"></path><path d="M507,278.57l-7.37,15.31-4-4.61-12.81,3.47,6.58,21.05s4.6,9,11,9.11,9.28-3.55,11.69-8.15S526,286.35,526,286.35Z" style="fill:#ffbf9d"></path><path d="M510.59,307.83s-.26-.2-.65-.63-.93-1.06-1.57-1.86c-1.3-1.61-2.95-3.92-4.93-6.34s-3.73-4.68-5-6.31a20.49,20.49,0,0,1-1.94-2.72,23.17,23.17,0,0,1,2.21,2.49c1.33,1.57,3.11,3.78,5.1,6.22s3.6,4.79,4.82,6.44S510.64,307.78,510.59,307.83Z" style="fill:#ff9a6c"></path><path d="M474.3,274.91s11.78-2.17,13.05-2.07c1.67.12,9.16,2.64,9.16,2.64s1.94,2.73.76,4.92c0,0,1.25,4.09.22,6.27l-1,2.18a4.47,4.47,0,0,1-.44,3.42c-1.62,2.57-1.48,3.27-2.67,3.56s-7.43-1.62-7.43-1.62-8.41-2.13-8.81-3a1.16,1.16,0,0,1,0-.62,2.33,2.33,0,0,1,2.73-1.73l5.19.91-.84-1.1L480,288s-5.32.26-6.12-1.7c-.19-.46-.35-.93,0-1.29l1.15-1.19a3.4,3.4,0,0,1-2.4-2.35,1.28,1.28,0,0,1,.91-1.64l2.23-.51S472,276.74,474.3,274.91Z" style="fill:#ffbf9d"></path><path d="M492.06,279.33a31.9,31.9,0,0,0-15.81-.25,7.86,7.86,0,0,1,2.24-.76,23.35,23.35,0,0,1,11.35.18A8.56,8.56,0,0,1,492.06,279.33Z" style="fill:#ff9a6c"></path><path d="M492.26,285.61a18.61,18.61,0,0,1-2.49-.7,36.42,36.42,0,0,0-6.1-1.15,35.83,35.83,0,0,0-6.2,0,21.64,21.64,0,0,1-2.59.21,9.51,9.51,0,0,1,2.55-.56,27,27,0,0,1,6.29-.11,28,28,0,0,1,6.15,1.31A10,10,0,0,1,492.26,285.61Z" style="fill:#ff9a6c"></path><path d="M491.91,291.84a16,16,0,0,1-3.83-.84,15.46,15.46,0,0,1-3.69-1.33,15,15,0,0,1,3.83.84A15.17,15.17,0,0,1,491.91,291.84Z" style="fill:#ff9a6c"></path><path d="M496.16,288.26a2,2,0,0,1,.49,1.28,3.73,3.73,0,0,1-1.31,3.27l.08-.27a2.18,2.18,0,0,1-1.18,2.77,4,4,0,0,1-1.64.26,13.73,13.73,0,0,1-1.47-.08,22,22,0,0,1-2.47-.36,6.82,6.82,0,0,1-2.18-.69,18.87,18.87,0,0,1,2.25.34c.69.1,1.51.2,2.43.25a7.38,7.38,0,0,0,2.88-.18,1.72,1.72,0,0,0,.94-2.14l-.06-.16.13-.11a3.56,3.56,0,0,0,1.32-2.88A9.8,9.8,0,0,0,496.16,288.26Z" style="fill:#ff9a6c"></path><path d="M530.53,288.22a2,2,0,0,1-.54-.17l-1.52-.58-5.53-2.23-18.19-7.52-3.57-1.5-.26-.1.13-.25c3-6.09,5.87-11.35,7.86-15.15,1-1.85,1.77-3.36,2.36-4.48l.64-1.2c.16-.27.24-.41.26-.4a2.78,2.78,0,0,1-.17.44c-.15.33-.34.74-.56,1.24-.5,1.08-1.26,2.63-2.22,4.55-1.92,3.85-4.73,9.14-7.71,15.23l-.13-.35,3.57,1.49,18.13,7.66,5.47,2.38L530,288A2.16,2.16,0,0,1,530.53,288.22Z" style="fill:#263238"></path></g></svg>