<svg xmlns="http://www.w3.org/2000/svg" viewBox="0 0 500 500"><g id="freepik--Floor--inject-5"><path d="M97.75,379.46c84.08,43.93,220.42,43.93,304.5,0s84.09-115.15,0-159.08-220.42-43.93-304.51,0S13.66,335.53,97.75,379.46Z" style="fill:#f5f5f5"></path></g><g id="freepik--Plants--inject-5"><path d="M76,232.34s-.5-11.28-6.68-17.84S56.15,209.59,53.7,211s-3.93,5.15.52,7.54,13.91,7.15,15.68,11.74Z" style="fill:#37474f"></path><path d="M56.41,212.12c3.81.91,14.9,6.36,16.72,17.63" style="fill:none;stroke:#fff;stroke-linecap:round;stroke-miterlimit:10;stroke-width:0.996699px"></path><path d="M73.13,229.75c-.53-2.83-3.37-4.65-8.07-3.61s-4,.88-9.92-.3-9.82,1.43-10.12,3.69c-.34,2.46,4.47,3.28,8.1,4.68s6.18,3.29,5.5,6.53c-.58,2.77,0,5.06,4.27,5.84,3.79.69,7.68-1.69,9.41,1.82a5.56,5.56,0,0,0,7.74,2C88,241.28,73.13,229.75,73.13,229.75Z" style="fill:#455a64"></path><path d="M62.89,240.92a16.72,16.72,0,0,1,8.6-4.21" style="fill:none;stroke:#fff;stroke-linecap:round;stroke-miterlimit:10;stroke-width:0.996699px"></path><path d="M49.24,228.07c6.12.12,24.32,6.47,29.38,16.18" style="fill:none;stroke:#fff;stroke-linecap:round;stroke-miterlimit:10;stroke-width:0.996699px"></path></g><g id="freepik--Watch--inject-5"><path d="M85.25,291.77a23.07,23.07,0,0,1-6.66-2.87c-1.73-1-20.12-11.59-29-16.76A10.32,10.32,0,0,0,40.2,272a3.8,3.8,0,0,0-1.46,1.4h-.33v1.14h0a3.51,3.51,0,0,0,2.09,2.85l29.12,16.82c1.53.87,4.2,2.49,4.85,3.81l-.45.26v1.15l13.67-7.89v-1.15Z" style="fill:#37474f"></path><path d="M40.2,270.82c-2.5,1.44-2.36,3.85.3,5.39L69.62,293c2.16,1.24,6.6,4,4.4,5.22l13.67-7.89c-2.17,1.27-6.79-1.27-9.1-2.61-1.73-1-20.12-11.59-29-16.77A10.35,10.35,0,0,0,40.2,270.82Z" style="fill:#455a64"></path><path d="M88.63,288.59l-13.26,7.66a4.53,4.53,0,0,0,0,8l17.78,10.27a5.32,5.32,0,0,0,4.82,0l13.26-7.66a4.52,4.52,0,0,0,0-8L93.45,288.59A5.32,5.32,0,0,0,88.63,288.59Z" style="fill:#37474f"></path><path d="M75.37,296.25l13.26-7.66a5.32,5.32,0,0,1,4.82,0l17.78,10.26c1.33.77,1.33,2,0,2.79L98,309.29a5.32,5.32,0,0,1-4.82,0L75.37,299C74,298.26,74,297,75.37,296.25Z" style="fill:#5E83D4"></path><path d="M152,332h-.32a4.34,4.34,0,0,0-1.76-1.72l-35.85-20.7c-1.55-.89-3-1.78-2-4.05v-1.14l-13.8,8v1.14a8,8,0,0,1,6.78,1.31c1.38.87,24.92,14.42,35.85,20.7a10.33,10.33,0,0,0,9.34.17,3,3,0,0,0,1.78-2.53h0Z" style="fill:#37474f"></path><path d="M105.07,313.66c1.38.86,24.92,14.42,35.85,20.7a10.36,10.36,0,0,0,9.34.17c2.49-1.44,2.36-3.86-.3-5.39l-35.85-20.7c-1.55-.89-3-1.79-2-4.05l-13.8,8A8,8,0,0,1,105.07,313.66Z" style="fill:#455a64"></path><path d="M140.25,328.73a.59.59,0,0,0,0,1.12,2.14,2.14,0,0,0,1.94,0,.59.59,0,0,0,0-1.12A2.14,2.14,0,0,0,140.25,328.73Z" style="fill:#37474f"></path><path d="M133.47,324.82a.6.6,0,0,0,0,1.13,2.14,2.14,0,0,0,1.94,0,.6.6,0,0,0,0-1.13A2.14,2.14,0,0,0,133.47,324.82Z" style="fill:#37474f"></path><path d="M126.69,320.92a.59.59,0,0,0,0,1.12,2.16,2.16,0,0,0,1.95,0,.59.59,0,0,0,0-1.12A2.16,2.16,0,0,0,126.69,320.92Z" style="fill:#37474f"></path><path d="M119.92,317a.59.59,0,0,0,0,1.12,2.14,2.14,0,0,0,1.94,0,.59.59,0,0,0,0-1.12A2.14,2.14,0,0,0,119.92,317Z" style="fill:#37474f"></path><path d="M113.14,313.12a.59.59,0,0,0,0,1.12,2.14,2.14,0,0,0,1.94,0,.59.59,0,0,0,0-1.12A2.14,2.14,0,0,0,113.14,313.12Z" style="fill:#37474f"></path><path d="M95.56,309.31a4.38,4.38,0,0,1-2.13-.5L75.65,298.54c-.45-.26-.72-.59-.72-.9s.27-.65.72-.91l13.26-7.66a4.79,4.79,0,0,1,4.26,0L111,299.34c.46.26.72.59.72.9s-.26.65-.72.91l-13.26,7.66A4.38,4.38,0,0,1,95.56,309.31Z" style="fill:#f0f0f0"></path><path d="M91,289.13a3.83,3.83,0,0,1,1.85.42l17.78,10.27c.36.21.44.39.44.43s-.08.21-.44.42l-13.26,7.66a4.28,4.28,0,0,1-3.7,0L75.93,298.06c-.36-.21-.44-.39-.44-.42s.08-.22.44-.43l13.26-7.66a3.83,3.83,0,0,1,1.85-.42M91,288a5,5,0,0,0-2.41.58l-13.26,7.66c-1.33.76-1.33,2,0,2.78l17.78,10.26a5.3,5.3,0,0,0,4.82,0l13.26-7.65c1.33-.77,1.33-2,0-2.79L93.45,288.59A5,5,0,0,0,91,288Z" style="fill:#fff"></path><path d="M78.48,289.23l13.26-7.65a5.32,5.32,0,0,1,4.82,0l17.77,10.26c1.33.77,1.33,2,0,2.78l-13.25,7.66a5.32,5.32,0,0,1-4.82,0L78.48,292C77.15,291.25,77.15,290,78.48,289.23Z" style="fill:#37474f"></path><text transform="matrix(1, -0.58, 0.87, 0.5, 91.09, 297.49)" style="font-size:6.879159927368164px;fill:#fff;font-family:AsapCondensed-Medium, AsapCondensed Medium;font-weight:500">12:00</text></g><g id="freepik--Mobile--inject-5"><path d="M201.6,286l-31.33,18.09a4.52,4.52,0,0,0,0,8l58.44,33.75a5.38,5.38,0,0,0,4.82,0l31.33-18.09a4.52,4.52,0,0,0,0-8L206.42,286A5.32,5.32,0,0,0,201.6,286Z" style="fill:#5E83D4"></path><path d="M201.6,286l-31.33,18.09a4.52,4.52,0,0,0,0,8l58.44,33.75a5.38,5.38,0,0,0,4.82,0l31.33-18.09a4.52,4.52,0,0,0,0-8L206.42,286A5.32,5.32,0,0,0,201.6,286Z" style="fill:#5E83D4"></path><path d="M201.6,286l-31.33,18.09a4.52,4.52,0,0,0,0,8l58.44,33.75a5.38,5.38,0,0,0,4.82,0l31.33-18.09a4.52,4.52,0,0,0,0-8L206.42,286A5.32,5.32,0,0,0,201.6,286Z" style="fill:#5E83D4"></path><path d="M201.6,286l-31.33,18.09a4.52,4.52,0,0,0,0,8l58.44,33.75a5.38,5.38,0,0,0,4.82,0l31.33-18.09a4.52,4.52,0,0,0,0-8L206.42,286A5.32,5.32,0,0,0,201.6,286Z" style="opacity:0.1"></path><path d="M231.12,300.25,206.42,286a5.32,5.32,0,0,0-4.82,0l-31.33,18.09a4.52,4.52,0,0,0,0,8l58.44,33.75a5,5,0,0,0,2.41.57Z" style="fill:#5E83D4"></path><path d="M228.72,340.6l-58.45-33.75c-1.33-.76-1.33-2,0-2.78L201.6,286a5.32,5.32,0,0,1,4.82,0l58.44,33.75c1.33.76,1.33,2,0,2.78L233.53,340.6A5.3,5.3,0,0,1,228.72,340.6Z" style="fill:#5E83D4"></path><path d="M228.72,340.6l-58.45-33.75c-1.33-.76-1.33-2,0-2.78L201.6,286a5.32,5.32,0,0,1,4.82,0l58.44,33.75c1.33.76,1.33,2,0,2.78L233.53,340.6A5.3,5.3,0,0,1,228.72,340.6Z" style="fill:#5E83D4"></path><path d="M228.72,340.6l-58.45-33.75c-1.33-.76-1.33-2,0-2.78L201.6,286a5.32,5.32,0,0,1,4.82,0l58.44,33.75c1.33.76,1.33,2,0,2.78L233.53,340.6A5.3,5.3,0,0,1,228.72,340.6Z" style="fill:#5E83D4"></path><path d="M228.72,340.6l-58.45-33.75c-1.33-.76-1.33-2,0-2.78L201.6,286a5.32,5.32,0,0,1,4.82,0l58.44,33.75c1.33.76,1.33,2,0,2.78L233.53,340.6A5.3,5.3,0,0,1,228.72,340.6Z" style="fill:#fff;opacity:0.2"></path><path d="M177.86,307.52l29.71-17.15a2.1,2.1,0,0,1,1.92,0L257.27,318a.59.59,0,0,1,0,1.11l-29.7,17.15a2.12,2.12,0,0,1-1.93,0l-47.78-27.58A.59.59,0,0,1,177.86,307.52Z" style="fill:#fff"></path><path d="M247.26,330.41a3.39,3.39,0,0,1-3.1,0c-.86-.49-.86-1.29,0-1.79a3.45,3.45,0,0,1,3.1,0C248.12,329.12,248.12,329.92,247.26,330.41Z" style="fill:#5E83D4"></path><path d="M247.26,330.41a3.39,3.39,0,0,1-3.1,0c-.86-.49-.86-1.29,0-1.79a3.45,3.45,0,0,1,3.1,0C248.12,329.12,248.12,329.92,247.26,330.41Z" style="opacity:0.1"></path><path d="M188.38,296.42a.83.83,0,0,1-.78,0,.24.24,0,0,1,0-.45.83.83,0,0,1,.78,0A.24.24,0,0,1,188.38,296.42Z" style="fill:#5E83D4"></path><path d="M187.13,300a1.76,1.76,0,0,1-1.58,0,.48.48,0,0,1,0-.91,1.76,1.76,0,0,1,1.58,0A.48.48,0,0,1,187.13,300Z" style="fill:#5E83D4"></path><path d="M188.24,298.41c-.29-.17-.28-.45,0-.63l5.18-3a1.24,1.24,0,0,1,1.08,0c.29.17.27.45,0,.63l-5.17,3A1.21,1.21,0,0,1,188.24,298.41Z" style="fill:#5E83D4"></path><path d="M188.38,296a.24.24,0,0,1,0,.45.83.83,0,0,1-.78,0" style="fill:#5E83D4"></path><path d="M187.13,300a1.76,1.76,0,0,1-1.58,0,.48.48,0,0,1,0-.91,1.76,1.76,0,0,1,1.58,0A.48.48,0,0,1,187.13,300Z" style="fill:#5E83D4"></path><path d="M188.24,298.41c-.29-.17-.28-.45,0-.63l5.18-3a1.24,1.24,0,0,1,1.08,0c.29.17.27.45,0,.63l-5.17,3A1.21,1.21,0,0,1,188.24,298.41Z" style="fill:#5E83D4"></path><path d="M188.38,296a.24.24,0,0,1,0,.45.83.83,0,0,1-.78,0" style="fill:#5E83D4"></path><path d="M187.13,300a1.76,1.76,0,0,1-1.58,0,.48.48,0,0,1,0-.91,1.76,1.76,0,0,1,1.58,0A.48.48,0,0,1,187.13,300Z" style="fill:#5E83D4"></path><path d="M188.24,298.41c-.29-.17-.28-.45,0-.63l5.18-3a1.24,1.24,0,0,1,1.08,0c.29.17.27.45,0,.63l-5.17,3A1.21,1.21,0,0,1,188.24,298.41Z" style="fill:#5E83D4"></path><path d="M188.38,296.42a.83.83,0,0,1-.78,0,.24.24,0,0,1,0-.45.83.83,0,0,1,.78,0A.24.24,0,0,1,188.38,296.42Z" style="opacity:0.1"></path><path d="M188.38,296a.24.24,0,0,1,0,.45.83.83,0,0,1-.78,0" style="opacity:0.1"></path><path d="M187.13,300a1.76,1.76,0,0,1-1.58,0,.48.48,0,0,1,0-.91,1.76,1.76,0,0,1,1.58,0A.48.48,0,0,1,187.13,300Z" style="opacity:0.1"></path><path d="M188.24,298.41c-.29-.17-.28-.45,0-.63l5.18-3a1.24,1.24,0,0,1,1.08,0c.29.17.27.45,0,.63l-5.17,3A1.21,1.21,0,0,1,188.24,298.41Z" style="opacity:0.1"></path></g><g id="freepik--Tablet--inject-5"><path d="M409.77,278.15l49.41,28.52a4.52,4.52,0,0,1,0,8l-76.53,44.19a5.32,5.32,0,0,1-4.82,0l-49.4-28.53a4.52,4.52,0,0,1,0-8L405,278.15A5.3,5.3,0,0,1,409.77,278.15Z" style="fill:#5E83D4"></path><path d="M409.77,278.15l49.41,28.52a4.52,4.52,0,0,1,0,8l-76.53,44.19a5.32,5.32,0,0,1-4.82,0l-49.4-28.53a4.52,4.52,0,0,1,0-8L405,278.15A5.3,5.3,0,0,1,409.77,278.15Z" style="fill:#5E83D4"></path><path d="M409.77,278.15l49.41,28.52a4.52,4.52,0,0,1,0,8l-76.53,44.19a5.32,5.32,0,0,1-4.82,0l-49.4-28.53a4.52,4.52,0,0,1,0-8L405,278.15A5.3,5.3,0,0,1,409.77,278.15Z" style="opacity:0.2"></path><path d="M362.17,302.85,405,278.15a5.3,5.3,0,0,1,4.81,0l49.41,28.52a4.52,4.52,0,0,1,0,8l-76.53,44.19a5,5,0,0,1-2.41.57v-9.62Z" style="fill:#5E83D4"></path><path d="M382.65,353.64l76.53-44.19c1.33-.76,1.33-2,0-2.78l-49.41-28.52a5.3,5.3,0,0,0-4.81,0l-76.53,44.19c-1.33.76-1.33,2,0,2.78l49.4,28.52A5.32,5.32,0,0,0,382.65,353.64Z" style="fill:#5E83D4"></path><path d="M382.65,353.64l76.53-44.19c1.33-.76,1.33-2,0-2.78l-49.41-28.52a5.3,5.3,0,0,0-4.81,0l-76.53,44.19c-1.33.76-1.33,2,0,2.78l49.4,28.52A5.32,5.32,0,0,0,382.65,353.64Z" style="opacity:0.1"></path><path d="M451.59,310.12l-47.78-27.59a2.18,2.18,0,0,0-1.93,0l-65.86,38a.59.59,0,0,0,0,1.11l47.78,27.59a2.18,2.18,0,0,0,1.93,0l65.86-38A.59.59,0,0,0,451.59,310.12Z" style="fill:#fafafa"></path><path d="M355.22,338.2a3.39,3.39,0,0,0,3.1,0,.94.94,0,0,0,0-1.79,3.39,3.39,0,0,0-3.1,0A.94.94,0,0,0,355.22,338.2Z" style="fill:#5E83D4"></path><g style="opacity:0.30000000000000004"><path d="M355.22,338.2a3.39,3.39,0,0,0,3.1,0,.94.94,0,0,0,0-1.79,3.39,3.39,0,0,0-3.1,0A.94.94,0,0,0,355.22,338.2Z"></path></g><path d="M431.78,294a.85.85,0,0,0,.79,0,.24.24,0,0,0,0-.45.85.85,0,0,0-.79,0A.24.24,0,0,0,431.78,294Z" style="fill:#5E83D4"></path><path d="M433,297.6a1.74,1.74,0,0,0,1.57,0,.48.48,0,0,0,0-.91,1.74,1.74,0,0,0-1.57,0A.48.48,0,0,0,433,297.6Z" style="fill:#5E83D4"></path><path d="M431.93,296c.29-.17.27-.45,0-.63l-5.18-3a1.18,1.18,0,0,0-1.08,0c-.29.16-.28.44,0,.62l5.18,3A1.18,1.18,0,0,0,431.93,296Z" style="fill:#5E83D4"></path><g style="opacity:0.30000000000000004"><path d="M431.78,294a.85.85,0,0,0,.79,0,.24.24,0,0,0,0-.45.85.85,0,0,0-.79,0A.24.24,0,0,0,431.78,294Z"></path><path d="M433,297.6a1.74,1.74,0,0,0,1.57,0,.48.48,0,0,0,0-.91,1.74,1.74,0,0,0-1.57,0A.48.48,0,0,0,433,297.6Z"></path><path d="M431.93,296c.29-.17.27-.45,0-.63l-5.18-3a1.18,1.18,0,0,0-1.08,0c-.29.16-.28.44,0,.62l5.18,3A1.18,1.18,0,0,0,431.93,296Z"></path></g></g><g id="freepik--Laptop--inject-5"><path d="M160.93,199.89l-81,46.79a4.52,4.52,0,0,0,0,8l58.45,33.74a5.32,5.32,0,0,0,4.82,0l81-46.79a4.53,4.53,0,0,0,0-8l-58.45-33.74A5.32,5.32,0,0,0,160.93,199.89Z" style="fill:#5E83D4"></path><path d="M160.93,199.89l-81,46.79a4.52,4.52,0,0,0,0,8l58.45,33.74a5.32,5.32,0,0,0,4.82,0l81-46.79a4.53,4.53,0,0,0,0-8l-58.45-33.74A5.32,5.32,0,0,0,160.93,199.89Z" style="opacity:0.2"></path><path d="M140.75,211.54,79.89,246.68a4.52,4.52,0,0,0,0,8l58.45,33.74a5,5,0,0,0,2.41.58Z" style="fill:#5E83D4"></path><path d="M140.75,211.54,79.89,246.68a4.52,4.52,0,0,0,0,8l58.45,33.74a5,5,0,0,0,2.41.58Z" style="opacity:0.1"></path><path d="M79.89,246.68l81-46.79a5.32,5.32,0,0,1,4.82,0l58.45,33.74c1.33.77,1.33,2,0,2.78l-81,46.79a5.32,5.32,0,0,1-4.82,0L79.89,249.46C78.56,248.69,78.56,247.44,79.89,246.68Z" style="fill:#5E83D4"></path><path d="M118.15,198.5l-49-28.27a4.62,4.62,0,0,0-.58,2.35l4.19,70.1a5.57,5.57,0,0,0,2.43,4.08,5.17,5.17,0,0,0,4.66-.08L119,224.11Z" style="fill:#5E83D4"></path><path d="M118.15,198.5l-49-28.27a4.62,4.62,0,0,0-.58,2.35l4.19,70.1a5.57,5.57,0,0,0,2.43,4.08,5.17,5.17,0,0,0,4.66-.08L119,224.11Z" style="opacity:0.2"></path><path d="M88.93,246.68l72-41.57a5.32,5.32,0,0,1,4.82,0l2,1.13c1.33.77,1.33,2,0,2.78l-72,41.57a5.32,5.32,0,0,1-4.82,0l-2-1.13C87.6,248.69,87.6,247.44,88.93,246.68Z" style="fill:#5E83D4"></path><path d="M88.93,246.68l72-41.57a5.32,5.32,0,0,1,4.82,0l2,1.13c1.33.77,1.33,2,0,2.78l-72,41.57a5.32,5.32,0,0,1-4.82,0l-2-1.13C87.6,248.69,87.6,247.44,88.93,246.68Z" style="opacity:0.1"></path><path d="M98,251.89l72-41.57a5.38,5.38,0,0,1,4.82,0l22.29,12.88c1.33.76,1.33,2,0,2.78l-72,41.57a5.32,5.32,0,0,1-4.82,0L98,254.67C96.64,253.91,96.64,252.66,98,251.89Z" style="fill:#5E83D4"></path><path d="M98,251.89l72-41.57a5.38,5.38,0,0,1,4.82,0l22.29,12.88c1.33.76,1.33,2,0,2.78l-72,41.57a5.32,5.32,0,0,1-4.82,0L98,254.67C96.64,253.91,96.64,252.66,98,251.89Z" style="opacity:0.1"></path><path d="M156.71,254.5,179,241.63a5.32,5.32,0,0,1,4.82,0l8.73,5.05c1.33.76,1.33,2,0,2.78l-22.29,12.87a5.32,5.32,0,0,1-4.82,0l-8.74-5.05C155.38,256.52,155.38,255.27,156.71,254.5Z" style="fill:#5E83D4"></path><path d="M156.71,254.5,179,241.63a5.32,5.32,0,0,1,4.82,0l8.73,5.05c1.33.76,1.33,2,0,2.78l-22.29,12.87a5.32,5.32,0,0,1-4.82,0l-8.74-5.05C155.38,256.52,155.38,255.27,156.71,254.5Z" style="opacity:0.1"></path><path d="M163.61,229.39l2.24-1.3c.1-.06.09-.15,0-.21L163,226.26a.42.42,0,0,0-.38,0l-2.24,1.29c-.1.06-.08.16,0,.22l2.79,1.61A.44.44,0,0,0,163.61,229.39ZM158.68,224l-2.25,1.29c-.09.06-.08.15,0,.22l2.79,1.61a.4.4,0,0,0,.37,0l2.25-1.29c.09-.06.08-.15,0-.22L159.05,224A.4.4,0,0,0,158.68,224Zm-7.25,4.18-3.8,2.2c-.1,0-.09.15,0,.21l2.79,1.61a.43.43,0,0,0,.38,0l3.8-2.2c.09-.05.08-.15,0-.21l-2.79-1.61A.41.41,0,0,0,151.43,228.13Zm4-2.29-2.25,1.3c-.09.05-.08.15,0,.21L156,229a.41.41,0,0,0,.37,0l2.25-1.3c.09-.05.08-.15,0-.21l-2.79-1.61A.41.41,0,0,0,155.4,225.84Zm-8.81,5.08-2.24,1.3c-.1.05-.09.15,0,.21l2.79,1.62a.42.42,0,0,0,.38,0l2.24-1.29c.1-.06.08-.16,0-.22L147,230.94A.44.44,0,0,0,146.59,230.92Zm-3.28,1.9-2.24,1.29c-.1.06-.09.16,0,.22l2.79,1.61a.46.46,0,0,0,.38,0l2.24-1.3c.1-.06.08-.15,0-.22l-2.79-1.61A.4.4,0,0,0,143.31,232.82Zm11,6.54,2.25-1.29c.09-.06.08-.15,0-.22l-2.79-1.61a.4.4,0,0,0-.37,0l-2.25,1.29c-.09.06-.08.15,0,.22l2.79,1.61A.4.4,0,0,0,154.3,239.36Zm-3.28,1.9,2.25-1.3c.09-.05.08-.15,0-.21l-2.79-1.61a.38.38,0,0,0-.37,0l-2.25,1.3c-.09.05-.08.15,0,.21l2.79,1.61A.41.41,0,0,0,151,241.26Zm-3.28,1.89,2.25-1.29c.09-.06.08-.16,0-.22L147.17,240a.44.44,0,0,0-.37,0l-2.25,1.3c-.09.05-.08.15,0,.21l2.79,1.62A.4.4,0,0,0,147.74,243.15Zm-3.28,1.9,2.25-1.3c.09-.06.08-.15,0-.22l-2.79-1.61a.4.4,0,0,0-.37,0l-2.25,1.29c-.09.06-.08.15,0,.22l2.79,1.61A.44.44,0,0,0,144.46,245.05Zm15.87-13.77,2.24-1.3c.1,0,.09-.15,0-.21l-2.79-1.61a.43.43,0,0,0-.38,0l-2.24,1.3c-.1.05-.08.15,0,.21l2.79,1.61A.41.41,0,0,0,160.33,231.28Zm-2.75,6.19,5-2.89c.1-.06.08-.15,0-.22l-6.78-3.91a.4.4,0,0,0-.37,0l-2.59,1.49c-.09.06-.08.15,0,.22l3.59,2.07c.11.06.12.16,0,.21l-2.07,1.2c-.09.05-.08.15,0,.21l2.79,1.61A.41.41,0,0,0,157.58,237.47ZM140,234.71l-2.24,1.3c-.1.05-.09.15,0,.21l2.79,1.61a.43.43,0,0,0,.38,0l2.24-1.3c.1-.05.08-.15,0-.21l-2.79-1.61A.41.41,0,0,0,140,234.71Zm-3.28,1.9-2.24,1.29c-.1.06-.09.15,0,.22l2.79,1.61a.42.42,0,0,0,.38,0l2.24-1.29c.1-.06.08-.15,0-.22l-2.79-1.61A.4.4,0,0,0,136.75,236.61Zm-15.62,21.68a.4.4,0,0,0,.37,0l2.24-1.29c.1-.06.09-.15,0-.22l-2.79-1.61a.42.42,0,0,0-.38,0l-2.24,1.29c-.1.06-.08.15,0,.22Zm-10.62-6.53-2.25,1.29c-.09.06-.08.15,0,.22l2.79,1.61a.4.4,0,0,0,.37,0l2.25-1.29c.09-.06.08-.15,0-.22l-2.79-1.61A.4.4,0,0,0,110.51,251.76Zm5.77,4.72a.41.41,0,0,0,.37,0l2.24-1.3c.1,0,.09-.15,0-.21l-2.8-1.61a.41.41,0,0,0-.37,0l-2.24,1.3c-.1.05-.09.15,0,.21Zm10.93,3.13,2.25-1.3c.09-.05.08-.15,0-.21l-2.79-1.61a.41.41,0,0,0-.37,0l-2.25,1.3c-.09.05-.08.15,0,.21l2.79,1.61A.41.41,0,0,0,127.21,259.61Zm-3.65,1.88a.4.4,0,0,0,.37,0l2.25-1.29c.09-.06.08-.16,0-.22l-2.79-1.61a.44.44,0,0,0-.37,0l-2.25,1.3c-.09.06-.08.15,0,.21Zm-9.77-11.63-2.25,1.3c-.09.05-.08.15,0,.21l2.79,1.62a.4.4,0,0,0,.37,0l2.25-1.3c.09,0,.08-.15,0-.21l-2.79-1.61A.44.44,0,0,0,113.79,249.86Zm16.4-9.47-2.25,1.3c-.09.05-.08.15,0,.21l2.79,1.62a.4.4,0,0,0,.37,0l2.25-1.29c.09-.06.08-.16,0-.22l-2.79-1.61A.44.44,0,0,0,130.19,240.39ZM117.07,248l-2.25,1.3c-.09,0-.08.15,0,.21l2.79,1.61a.41.41,0,0,0,.37,0l2.25-1.3c.09-.05.08-.15,0-.21L117.44,248A.4.4,0,0,0,117.07,248Zm16.4-9.47-2.24,1.3c-.1,0-.09.15,0,.21l2.79,1.61a.41.41,0,0,0,.37,0l2.25-1.3c.09-.05.08-.15,0-.21l-2.79-1.61A.38.38,0,0,0,133.47,238.5Zm-6.56,3.79-2.25,1.29c-.09.06-.08.15,0,.22l2.79,1.61a.44.44,0,0,0,.37,0l2.25-1.3c.09-.06.08-.15,0-.22l-2.79-1.61A.4.4,0,0,0,126.91,242.29Zm-3.28,1.89-2.25,1.3c-.09.05-.08.15,0,.21l2.79,1.61a.41.41,0,0,0,.37,0l2.25-1.3c.09-.05.08-.15,0-.21L124,244.2A.41.41,0,0,0,123.63,244.18Zm-3.28,1.9-2.25,1.29c-.09.06-.08.15,0,.22l2.79,1.61a.4.4,0,0,0,.37,0l2.25-1.29c.09-.06.08-.15,0-.22l-2.79-1.61A.4.4,0,0,0,120.35,246.08Zm17.55,2.75,2.24-1.29c.1-.06.09-.15,0-.22l-2.79-1.61a.4.4,0,0,0-.37,0L134.71,247c-.09.06-.08.15,0,.22l2.79,1.61A.4.4,0,0,0,137.9,248.83Zm28-29.07-2.25,1.3c-.09.05-.08.15,0,.21l2.79,1.61a.41.41,0,0,0,.37,0l2.25-1.3c.09,0,.08-.15,0-.21l-2.79-1.61A.38.38,0,0,0,165.93,219.76Zm-4,2.29-2.25,1.3c-.09.05-.08.15,0,.21l2.79,1.61a.41.41,0,0,0,.37,0l2.25-1.3c.09,0,.08-.15,0-.21l-2.79-1.61A.41.41,0,0,0,162,222.05Zm7.25-4.18L167,219.16c-.09.06-.08.15,0,.22l2.79,1.61a.4.4,0,0,0,.37,0l2.25-1.29c.09-.06.08-.15,0-.22l-2.79-1.61A.4.4,0,0,0,169.21,217.87Zm-16.48,17.8,2.25-1.3c.09-.06.08-.15,0-.22l-2.79-1.61a.4.4,0,0,0-.37,0l-2.25,1.29c-.09.06-.08.16,0,.22l2.79,1.61A.44.44,0,0,0,152.73,235.67ZM172.86,216a.41.41,0,0,0-.37,0l-2.25,1.3c-.09,0-.08.15,0,.21l2.79,1.61a.41.41,0,0,0,.37,0l2.25-1.3c.09-.05.08-.15,0-.21Zm-31.68,30.95,2.25-1.3c.09,0,.08-.15,0-.21l-2.79-1.61a.41.41,0,0,0-.37,0L138,245.1c-.09.05-.08.15,0,.21l2.79,1.61A.41.41,0,0,0,141.18,246.94Zm40.23-23.23,2.24-1.29c.1-.06.09-.15,0-.22l-2.79-1.61a.42.42,0,0,0-.38,0l-2.24,1.29c-.1.06-.08.15,0,.22L181,223.7A.4.4,0,0,0,181.41,223.71Zm-7.27-.4,2.25-1.3c.09-.06.08-.15,0-.22l-2.79-1.61a.4.4,0,0,0-.37,0L171,221.46c-.09.06-.08.15,0,.22l2.79,1.61A.44.44,0,0,0,174.14,223.31Zm2.71-5a.44.44,0,0,0-.37,0l-2.25,1.3c-.09.05-.08.15,0,.21l2.79,1.62a.4.4,0,0,0,.37,0l2.25-1.29c.09-.06.08-.16,0-.22Zm.69-.4,6.78,3.91a.41.41,0,0,0,.37,0l2.24-1.3c.1-.05.09-.15,0-.21l-6.78-3.91a.38.38,0,0,0-.37,0l-2.25,1.3C177.42,217.73,177.43,217.83,177.54,217.89Zm-7.62,4.17-2.25,1.3c-.09,0-.08.15,0,.21l2.79,1.61a.41.41,0,0,0,.37,0l2.25-1.3c.09-.05.08-.15,0-.21l-2.79-1.61A.41.41,0,0,0,169.92,222.06Zm-24.69,14.26L143,237.61c-.09.06-.08.15,0,.22l2.79,1.61a.4.4,0,0,0,.37,0l2.25-1.29c.09-.06.08-.15,0-.22l-2.79-1.61A.4.4,0,0,0,145.23,236.32Zm32.53-10.73a.41.41,0,0,0,.37,0l2.24-1.3c.1-.05.09-.15,0-.21l-2.79-1.61a.4.4,0,0,0-.38,0l-2.24,1.3c-.1,0-.08.15,0,.21Zm-29.25,8.83-2.25,1.3c-.09.05-.08.15,0,.21l2.79,1.61a.41.41,0,0,0,.37,0l2.25-1.3c.09,0,.08-.15,0-.21l-2.79-1.61A.41.41,0,0,0,148.51,234.42Zm-24.1,22a.41.41,0,0,0,.37,0l2.24-1.3c.1-.05.09-.15,0-.21l-2.79-1.61a.43.43,0,0,0-.38,0l-2.24,1.3c-.1.05-.08.15,0,.21ZM119,251.47l-2.24,1.29c-.1.06-.08.15,0,.22l2.79,1.61a.4.4,0,0,0,.37,0l2.24-1.29c.1-.06.09-.15,0-.22l-2.79-1.61A.42.42,0,0,0,119,251.47Zm9.08,3,2.24-1.29c.1-.06.09-.15,0-.22l-2.79-1.61a.42.42,0,0,0-.38,0l-2.24,1.29c-.1.06-.08.15,0,.22l2.79,1.61A.4.4,0,0,0,128.06,254.51Zm3.28-1.89,2.24-1.29c.1-.06.09-.16,0-.22l-2.79-1.61a.46.46,0,0,0-.38,0l-2.24,1.3c-.1.05-.08.15,0,.21l2.79,1.62A.4.4,0,0,0,131.34,252.62Zm3.28-1.89,2.24-1.3c.1-.05.09-.15,0-.21l-2.79-1.62a.42.42,0,0,0-.38,0l-2.24,1.3c-.1.05-.08.15,0,.21l2.79,1.61A.44.44,0,0,0,134.62,250.73Zm-12.36-1.16-2.24,1.3c-.1,0-.08.15,0,.21l2.79,1.62a.4.4,0,0,0,.37,0l2.24-1.29c.1-.06.09-.16,0-.22l-2.79-1.61A.46.46,0,0,0,122.26,249.57Zm3.28-1.89L123.3,249c-.1.05-.08.15,0,.21l2.79,1.61a.41.41,0,0,0,.37,0l2.24-1.3c.1-.05.09-.15,0-.21l-2.79-1.61A.4.4,0,0,0,125.54,247.68Zm13.13-7.58-2.25,1.3c-.09,0-.08.15,0,.21l2.79,1.62a.4.4,0,0,0,.37,0l2.25-1.29c.09-.06.08-.16,0-.22L139,240.12A.44.44,0,0,0,138.67,240.1Zm-3.28,1.9-2.25,1.29c-.09.06-.08.16,0,.22l2.79,1.61a.44.44,0,0,0,.37,0l2.24-1.3c.1-.06.09-.15,0-.22L135.76,242A.4.4,0,0,0,135.39,242Zm6.56-3.79-2.25,1.3c-.09.05-.08.15,0,.21l2.79,1.61a.41.41,0,0,0,.37,0l2.25-1.3c.09-.05.08-.15,0-.21l-2.79-1.61A.41.41,0,0,0,142,238.21Zm-13.13,7.58-2.24,1.29c-.1.06-.08.15,0,.22l2.79,1.61a.4.4,0,0,0,.37,0l2.24-1.29c.1-.06.09-.15,0-.22l-2.79-1.61A.42.42,0,0,0,128.82,245.79Zm3.28-1.9-2.24,1.3c-.1.05-.08.15,0,.21l2.79,1.61a.41.41,0,0,0,.37,0l2.24-1.3c.1,0,.09-.15,0-.21l-2.79-1.61A.43.43,0,0,0,132.1,243.89Zm-1.61,13.82,2.25-1.29c.09-.06.08-.15,0-.22l-2.79-1.61a.4.4,0,0,0-.37,0l-2.25,1.29c-.09.06-.08.15,0,.22l2.79,1.61A.4.4,0,0,0,130.49,257.71Zm-20.1-2.43-2.79-1.61a.41.41,0,0,0-.37,0L105,255c-.09.05-.08.15,0,.21l2.79,1.61a.41.41,0,0,0,.37,0l2.25-1.3C110.51,255.44,110.5,255.34,110.39,255.28Zm5.2,1.6-2.8-1.61a.4.4,0,0,0-.37,0l-3.45,2c-.1.05-.08.15,0,.21l2.79,1.62a.4.4,0,0,0,.37,0l3.45-2C115.71,257,115.7,257,115.59,256.88Zm-9.52-4.7-2.79-1.61a.4.4,0,0,0-.37,0l-2.77,1.59c-.09.06-.08.15,0,.22L103,254a.4.4,0,0,0,.37,0l2.77-1.59C106.19,252.34,106.18,252.25,106.07,252.18Zm2.12-1.22a.41.41,0,0,0,.37,0l2.24-1.3c.1-.05.09-.15,0-.21l-2.8-1.61a.41.41,0,0,0-.37,0l-2.24,1.3c-.1.05-.09.15,0,.21Zm12.25,7.73-2.8-1.62a.4.4,0,0,0-.37,0L113,259.55c-.1.06-.09.15,0,.22l2.79,1.61a.42.42,0,0,0,.38,0l4.31-2.49C120.56,258.85,120.55,258.75,120.44,258.69Zm2.43,3.2-2.79-1.62a.4.4,0,0,0-.37,0l-2.77,1.59c-.09.06-.08.15,0,.22l2.79,1.61a.4.4,0,0,0,.37,0l2.77-1.59C123,262,123,262,122.87,261.89Zm9.71-25a.44.44,0,0,0,.37,0l2.24-1.3c.1,0,.09-.15,0-.21l-2.79-1.62a.42.42,0,0,0-.38,0l-2.24,1.29c-.1.06-.08.16,0,.22ZM126,240.67a.4.4,0,0,0,.37,0l2.24-1.29c.1-.06.09-.15,0-.22l-2.8-1.61a.4.4,0,0,0-.37,0l-2.24,1.29c-.1.06-.09.15,0,.22Zm-14.55,8.4a.4.4,0,0,0,.37,0l2.24-1.29c.1-.06.09-.15,0-.22L111.27,246a.42.42,0,0,0-.38,0l-2.24,1.29c-.1.06-.08.15,0,.22Zm17.83-10.3a.38.38,0,0,0,.37,0l2.24-1.3c.1-.05.09-.15,0-.21l-2.8-1.61a.41.41,0,0,0-.37,0l-2.24,1.3c-.1.05-.09.15,0,.21Zm-6.57,3.79a.43.43,0,0,0,.38,0l2.24-1.3c.1-.05.08-.15,0-.21l-2.79-1.61a.41.41,0,0,0-.37,0l-2.24,1.3c-.1,0-.09.15,0,.21Zm2,19.62a.43.43,0,0,0-.38,0l-3.45,2c-.09,0-.08.15,0,.21l2.79,1.61a.44.44,0,0,0,.37,0l3.45-2c.1-.05.09-.15,0-.21ZM118,245.28a.44.44,0,0,0,.37,0l2.24-1.3c.1-.06.09-.15,0-.21l-2.79-1.62a.42.42,0,0,0-.38,0l-2.24,1.29c-.1.06-.08.16,0,.22Zm-3.28,1.89a.41.41,0,0,0,.37,0l2.24-1.3c.1,0,.09-.15,0-.21l-2.79-1.61a.43.43,0,0,0-.38,0l-2.24,1.3c-.1.05-.08.15,0,.21Zm70.78-20.08a.44.44,0,0,0-.37,0l-5.53,3.19c-.09.06-.08.15,0,.22l2.79,1.61a.44.44,0,0,0,.37,0l5.53-3.19c.09-.06.08-.16,0-.22Zm-7.25,4.19a.41.41,0,0,0-.37,0l-2.25,1.3c-.09.05-.08.15,0,.21l2.79,1.61a.41.41,0,0,0,.37,0l2.25-1.3c.09,0,.08-.15,0-.21Zm-44.51,24.54,2.25-1.3c.09-.05.08-.15,0-.21l-2.79-1.61a.41.41,0,0,0-.37,0l-2.25,1.3c-.09.05-.08.15,0,.21l2.79,1.61A.38.38,0,0,0,133.77,255.82Zm37.95-20.76a.4.4,0,0,0-.37,0l-2.25,1.29c-.09.06-.08.16,0,.22l2.79,1.61a.44.44,0,0,0,.37,0l2.25-1.3c.09,0,.08-.15,0-.21Zm17.09-9.86a.38.38,0,0,0-.37,0l-2.25,1.3c-.09.05-.08.15,0,.21L189,228.3a.41.41,0,0,0,.37,0l2.25-1.3c.09-.05.08-.15,0-.21Zm6.07-.29L188.1,221a.44.44,0,0,0-.37,0l-2.24,1.3c-.1.05-.09.15,0,.21l6.78,3.92a.4.4,0,0,0,.37,0l2.25-1.29C195,225.07,195,225,194.88,224.91Zm-35.42,17.23a.4.4,0,0,0-.37,0l-2.77,1.59c-.09.06-.08.15,0,.22l2.79,1.61a.4.4,0,0,0,.37,0l2.77-1.59c.09-.06.08-.15,0-.22Zm8.29-4.78a.43.43,0,0,0-.38,0l-3.45,2c-.09.06-.08.16,0,.22l2.79,1.61a.44.44,0,0,0,.37,0l3.45-2c.1-.05.09-.15,0-.21Zm-15.89,9.17a.41.41,0,0,0-.37,0L133,257.18c-.1.05-.09.15,0,.21l2.79,1.61a.43.43,0,0,0,.38,0l18.47-10.67c.1,0,.08-.15,0-.21Zm-19.51,11.26a.4.4,0,0,0-.37,0l-2.76,1.59c-.1.06-.09.15,0,.22l2.8,1.61a.4.4,0,0,0,.37,0l2.76-1.59c.1-.06.08-.15,0-.22Zm23.31-13.46a.4.4,0,0,0-.37,0l-2.76,1.59c-.1.06-.09.15,0,.22l2.79,1.61a.46.46,0,0,0,.38,0l2.76-1.6c.09,0,.08-.15,0-.21ZM128.55,260a.4.4,0,0,0-.37,0l-2.76,1.59c-.1.06-.08.15,0,.22l2.79,1.61a.44.44,0,0,0,.37,0l2.76-1.6c.1-.05.09-.15,0-.21Zm34.71-20a.41.41,0,0,0-.37,0l-2.77,1.6c-.09.05-.08.15,0,.21l2.79,1.61a.41.41,0,0,0,.37,0l2.77-1.6c.09-.05.08-.15,0-.21ZM175,233.17a.44.44,0,0,0-.37,0l-2.25,1.3c-.09.06-.08.15,0,.21l2.79,1.62a.4.4,0,0,0,.37,0l2.25-1.29c.09-.06.08-.16,0-.22Zm7.12-5.26,2.24-1.3c.1-.05.08-.15,0-.21l-2.79-1.61a.41.41,0,0,0-.37,0l-2.24,1.3c-.1.05-.09.15,0,.21l2.79,1.61A.43.43,0,0,0,182.12,227.91Zm-15.23-.42,2.24-1.29c.1-.06.09-.16,0-.22l-2.79-1.61a.46.46,0,0,0-.38,0l-2.24,1.3c-.1.06-.08.15,0,.21l2.79,1.62A.4.4,0,0,0,166.89,227.49ZM160,240.67l6.56-3.79c.09,0,.08-.15,0-.21l-2.79-1.62a.4.4,0,0,0-.37,0l-6.56,3.79c-.1,0-.09.15,0,.21l2.79,1.61A.43.43,0,0,0,160,240.67Zm18.44-10.88a.42.42,0,0,0,.38,0l2.24-1.29c.1-.06.08-.15,0-.22l-2.79-1.61a.4.4,0,0,0-.37,0L175.65,228c-.1.06-.09.15,0,.22Zm-3.61-2.29,2.24-1.29c.1-.06.09-.16,0-.22l-2.8-1.61a.44.44,0,0,0-.37,0l-2.24,1.3c-.1.05-.09.15,0,.21l2.79,1.62A.4.4,0,0,0,174.85,227.5Zm-18.11,15.06,2.24-1.29c.1-.06.08-.15,0-.22l-2.79-1.61a.44.44,0,0,0-.37,0l-2.24,1.3c-.1.06-.09.15,0,.22l2.79,1.61A.42.42,0,0,0,156.74,242.56ZM171.21,234a.38.38,0,0,0,.37,0l2.25-1.3c.09-.05.08-.15,0-.21L171,230.87a.41.41,0,0,0-.37,0l-2.25,1.3c-.09,0-.08.15,0,.21ZM140.33,252l2.25-1.29c.09-.06.08-.15,0-.22l-2.79-1.61a.44.44,0,0,0-.37,0l-2.25,1.3c-.09.06-.08.15,0,.22L140,252A.4.4,0,0,0,140.33,252Zm3.28-1.89,2.25-1.3c.09-.05.08-.15,0-.21L143,247a.41.41,0,0,0-.37,0l-2.25,1.3c-.09,0-.08.15,0,.21l2.79,1.61A.41.41,0,0,0,143.61,250.14Zm-6.56,3.79,2.25-1.3c.09,0,.08-.15,0-.21l-2.79-1.62a.4.4,0,0,0-.37,0l-2.25,1.29c-.09.06-.08.16,0,.22l2.79,1.61A.44.44,0,0,0,137.05,253.93Zm13.13-7.58,2.24-1.3c.09-.05.08-.15,0-.21l-2.79-1.61a.41.41,0,0,0-.37,0l-2.24,1.3c-.1.05-.09.15,0,.21l2.79,1.61A.4.4,0,0,0,150.18,246.35Zm-3.29,1.89,2.25-1.29c.09-.06.08-.15,0-.22l-2.79-1.61a.4.4,0,0,0-.37,0l-2.25,1.29c-.09.06-.08.15,0,.22l2.79,1.61A.4.4,0,0,0,146.89,248.24Zm6.57-3.78,2.24-1.3c.1,0,.08-.15,0-.21l-2.79-1.62a.4.4,0,0,0-.37,0l-2.24,1.29c-.1.06-.09.16,0,.22l2.79,1.61A.46.46,0,0,0,153.46,244.46Zm13.74-28.75a.4.4,0,0,0,.37,0l2.25-1.29c.09-.06.08-.15,0-.22l-.74-.43a.42.42,0,0,0-.38,0l-2.24,1.3c-.1.05-.08.15,0,.21Zm-16.07,10.46a.4.4,0,0,0,.37,0l2.25-1.29c.09-.06.08-.15,0-.22l-2.79-1.61a.4.4,0,0,0-.37,0l-2.25,1.29c-.09.06-.08.15,0,.22Zm6.56-3.79a.44.44,0,0,0,.37,0l2.25-1.3c.09,0,.08-.15,0-.21l-2.79-1.62a.4.4,0,0,0-.37,0l-2.25,1.29c-.09.06-.08.16,0,.22Zm-10.56,6.1a.44.44,0,0,0,.37,0l2.24-1.3c.1,0,.08-.15,0-.21l-2.79-1.62a.4.4,0,0,0-.37,0l-2.24,1.29c-.1.06-.09.16,0,.22Zm7.28-4.21a.38.38,0,0,0,.37,0L157,223c.09-.05.08-.15,0-.21l-2.79-1.61a.41.41,0,0,0-.37,0l-2.25,1.3c-.09.05-.08.15,0,.21Zm-13.85,8a.42.42,0,0,0,.38,0l2.24-1.29c.1-.06.08-.15,0-.22l-2.79-1.61a.4.4,0,0,0-.37,0l-2.24,1.29c-.1.06-.09.15,0,.22Zm3.28-1.89a.42.42,0,0,0,.38,0l2.24-1.3c.1-.05.08-.15,0-.21l-2.79-1.61a.41.41,0,0,0-.37,0l-2.24,1.3c-.1,0-.09.15,0,.21Zm16.8-10.88a.4.4,0,0,0,.37,0l2.24-1.29c.1-.06.09-.16,0-.22l-.74-.43a.42.42,0,0,0-.38,0l-2.24,1.29c-.1.06-.08.15,0,.22Zm9.84-5.69a.38.38,0,0,0,.37,0l2.25-1.3c.09-.05.08-.15,0-.21l-.74-.43a.42.42,0,0,0-.38,0l-2.24,1.29c-.1.06-.08.15,0,.22Zm5.86,3.39a.44.44,0,0,0,.37,0l2.25-1.3c.09-.06.08-.15,0-.22l-2.79-1.61a.4.4,0,0,0-.37,0l-2.25,1.29c-.09.06-.08.15,0,.22ZM185.4,226l2.24-1.3c.1-.06.08-.15,0-.22l-2.79-1.61a.4.4,0,0,0-.37,0l-2.24,1.29c-.1.06-.09.15,0,.22L185,226A.46.46,0,0,0,185.4,226Zm-21.48-8.42a.41.41,0,0,0,.37,0l2.25-1.3c.09,0,.08-.15,0-.21l-.74-.43a.43.43,0,0,0-.38,0l-2.24,1.3c-.1,0-.08.15,0,.21Zm-26.64,16.56a.43.43,0,0,0,.38,0l2.24-1.3c.1,0,.08-.15,0-.21l-2.79-1.61a.41.41,0,0,0-.37,0l-2.24,1.3c-.1,0-.09.15,0,.21Z" style="fill:#5E83D4"></path><path d="M75.23,246.76a5.57,5.57,0,0,1-2.43-4.08l-4.19-70.1A5,5,0,0,1,71,168.3l81-46.79a5.11,5.11,0,0,1,4.48,0,5.61,5.61,0,0,1,2.43,4.09l4.19,70.1a5,5,0,0,1-2.25,4.17l-81,46.79A5.17,5.17,0,0,1,75.23,246.76Z" style="fill:#5E83D4"></path><path d="M75.23,246.76a5.57,5.57,0,0,1-2.43-4.08l-4.19-70.1A5,5,0,0,1,71,168.3l81-46.79a5.11,5.11,0,0,1,4.48,0,5.61,5.61,0,0,1,2.43,4.09l4.19,70.1a5,5,0,0,1-2.25,4.17l-81,46.79A5.17,5.17,0,0,1,75.23,246.76Z" style="fill:#fff;opacity:0.4"></path><path d="M75.37,171l81-46.79a1.58,1.58,0,0,1,2.58,1.39l4.19,70.1a5,5,0,0,1-2.25,4.17l-81,46.79a1.58,1.58,0,0,1-2.57-1.39l-4.19-70.11A4.92,4.92,0,0,1,75.37,171Z" style="fill:#5E83D4"></path><path d="M77.29,172.69l77.79-44.91a1.26,1.26,0,0,1,2.06,1.11L160.79,190a4,4,0,0,1-1.79,3.33L81.81,237.91a1.28,1.28,0,0,1-2.08-1.11L75.52,176A3.9,3.9,0,0,1,77.29,172.69Z" style="fill:#fff"></path></g><g id="freepik--Computer--inject-5"><path d="M294.4,242.85l10.37-6a5.57,5.57,0,0,0,2.49-5.47l-3.82-19.86,4.52-2.61,22.58,18.27c.3,1.59,7.39,15.43,5.22,23.1-1.92,6.76-13,7.49-14.26,8.2l-27.1-10.43Z" style="fill:#5E83D4"></path><path d="M321.5,258.5l10.36-6a5.56,5.56,0,0,0,2.5-5.47l-3.82-19.85,4.51-2.61,4.37,22.71a8.39,8.39,0,0,1-3.77,8.25l-14.15,8.17Z" style="fill:#5E83D4"></path><path d="M321.5,258.5l10.36-6a5.56,5.56,0,0,0,2.5-5.47l-3.82-19.85,4.51-2.61,4.37,22.71a8.39,8.39,0,0,1-3.77,8.25l-14.15,8.17Z" style="opacity:0.30000000000000004"></path><polygon points="294.4 242.85 321.5 258.5 321.5 263.72 294.4 248.07 294.4 242.85" style="fill:#5E83D4"></polygon><polygon points="294.4 242.85 321.5 258.5 321.5 263.72 294.4 248.07 294.4 242.85" style="fill:#fff;opacity:0.4"></polygon><path d="M269.53,111.1a5.16,5.16,0,0,0-2.26,4.09v83.14a5.34,5.34,0,0,0,2.41,4.17l103.63,59.83a4.52,4.52,0,0,0,6.93-4V175.19a5.32,5.32,0,0,0-2.41-4.17L274.2,111.19A5.16,5.16,0,0,0,269.53,111.1Z" style="fill:#5E83D4"></path><path d="M373.31,262.33a4.52,4.52,0,0,0,6.93-4V175.19a4.94,4.94,0,0,0-.7-2.37L298.9,219.37Z" style="fill:#5E83D4"></path><path d="M373.55,262.15a4.52,4.52,0,0,0,6.9-4L380,175a5,5,0,0,0-.72-2.37l-80.39,47Z" style="opacity:0.2"></path><path d="M267.27,198.33V115.19c0-1.54,1.08-2.16,2.41-1.4l103.63,59.84a5.32,5.32,0,0,1,2.41,4.17v83.14c0,1.54-1.08,2.16-2.41,1.39L269.68,202.5A5.34,5.34,0,0,1,267.27,198.33Z" style="fill:#5E83D4"></path><path d="M267.27,198.33V115.19c0-1.54,1.08-2.16,2.41-1.4l103.63,59.84a5.32,5.32,0,0,1,2.41,4.17v83.14c0,1.54-1.08,2.16-2.41,1.39L269.68,202.5A5.34,5.34,0,0,1,267.27,198.33Z" style="fill:#fff;opacity:0.4"></path><path d="M271.46,117.43l100.08,57.78a4.26,4.26,0,0,1,1.92,3.34v73.81c0,1.23-.86,1.73-1.92,1.12L271.46,195.7a4.26,4.26,0,0,1-1.93-3.34V118.54C269.53,117.31,270.39,116.81,271.46,117.43Z" style="fill:#fff"></path><path d="M255.83,239l-22.3,12.87a4.52,4.52,0,0,0,0,8l72,41.57a5.32,5.32,0,0,0,4.82,0l22.3-12.87a4.53,4.53,0,0,0,0-8l-72-41.57A5.3,5.3,0,0,0,255.83,239Z" style="fill:#37474f"></path><path d="M307.94,302a4.86,4.86,0,0,0,2.41-.58l22.3-12.87a4.53,4.53,0,0,0,0-8l-2.32-1.34H307.94Z" style="fill:#263238"></path><path d="M332.66,280.59l-72-41.57a5.32,5.32,0,0,0-4.82,0l-22.3,12.88c-1.33.76-1.33,2,0,2.78l72,41.57a5.36,5.36,0,0,0,4.81,0l22.3-12.88C334,282.61,334,281.36,332.66,280.59Z" style="fill:#455a64"></path><path d="M322.39,278.53a.44.44,0,0,1-.37,0l-2.21-1.28c-.09,0-.08-.15,0-.21l.73-.42a.41.41,0,0,1,.37,0l2.21,1.28c.09.05.08.15,0,.21Z" style="fill:#37474f"></path><path d="M319.16,276.67a.44.44,0,0,1-.37,0l-2.21-1.28c-.09,0-.08-.15,0-.21l.73-.42a.42.42,0,0,1,.36,0l2.22,1.28c.09.05.08.15,0,.21Z" style="fill:#37474f"></path><path d="M325.62,280.4a.38.38,0,0,1-.36,0l-2.21-1.27c-.1-.06-.09-.15,0-.22l.73-.42a.4.4,0,0,1,.37,0l2.21,1.27c.1.06.09.15,0,.22Z" style="fill:#37474f"></path><path d="M328.86,282.27a.44.44,0,0,1-.37,0L326.28,281c-.1-.05-.08-.15,0-.21l.73-.42a.42.42,0,0,1,.36,0l2.22,1.28c.09.06.08.15,0,.21Z" style="fill:#37474f"></path><path d="M297.12,267.54l-2.76,1.58c-.1.07-.12.16,0,.22l3.74,2.16a.44.44,0,0,0,.37,0l2.75-1.59c.11-.06.12-.15,0-.21l-3.75-2.16A.39.39,0,0,0,297.12,267.54Z" style="fill:#37474f"></path><path d="M255.08,243.27l-2.75,1.59c-.11.06-.12.16,0,.21l2.21,1.28a.41.41,0,0,0,.37,0l2.75-1.59c.11-.06.12-.15,0-.21l-2.21-1.27A.4.4,0,0,0,255.08,243.27Z" style="fill:#37474f"></path><path d="M258.32,245.14l-2.75,1.59c-.11.06-.12.15,0,.21l2.21,1.28a.44.44,0,0,0,.37,0l2.75-1.59c.11-.06.12-.16,0-.21l-2.22-1.28A.42.42,0,0,0,258.32,245.14Z" style="fill:#37474f"></path><path d="M252.39,254l2.75-1.59c.11-.07.12-.16,0-.21L253,250.88a.38.38,0,0,0-.36,0l-2.75,1.59c-.11.06-.12.16,0,.21L252,254A.4.4,0,0,0,252.39,254Z" style="fill:#37474f"></path><path d="M255.62,255.82l2.75-1.59c.11-.06.12-.15,0-.21l-2.21-1.27a.4.4,0,0,0-.37,0l-2.75,1.59c-.11.06-.12.16,0,.21l2.22,1.28A.39.39,0,0,0,255.62,255.82Z" style="fill:#37474f"></path><path d="M258.86,257.69l2.75-1.59c.1-.06.12-.16,0-.21l-2.21-1.28a.41.41,0,0,0-.37,0l-2.75,1.59c-.11.06-.12.15,0,.21l2.21,1.27A.4.4,0,0,0,258.86,257.69Z" style="fill:#37474f"></path><path d="M262.09,259.56l2.75-1.59c.11-.07.12-.16,0-.21l-2.22-1.28a.38.38,0,0,0-.36,0l-2.75,1.59c-.11.06-.12.16,0,.21l2.21,1.28A.4.4,0,0,0,262.09,259.56Z" style="fill:#37474f"></path><path d="M261.55,247l-2.75,1.59c-.11.07-.12.16,0,.21l2.22,1.28a.38.38,0,0,0,.36,0l2.75-1.59c.11-.06.12-.16,0-.21L261.92,247A.44.44,0,0,0,261.55,247Z" style="fill:#37474f"></path><path d="M264.78,248.87,262,250.46c-.11.06-.12.16,0,.21l2.21,1.28a.41.41,0,0,0,.37,0l2.75-1.59c.1-.06.12-.15,0-.21l-2.21-1.27A.4.4,0,0,0,264.78,248.87Z" style="fill:#37474f"></path><path d="M287.47,271c.11-.06.12-.15,0-.21l-2.21-1.27a.4.4,0,0,0-.37,0l-2.75,1.59c-.11.06-.12.16,0,.21l2.21,1.28a.41.41,0,0,0,.37,0Z" style="fill:#37474f"></path><path d="M290.65,263.8l-2.75,1.59c-.11.07-.12.16,0,.21l2.21,1.28a.4.4,0,0,0,.37,0l2.75-1.59c.11-.06.12-.16,0-.21L291,263.79A.4.4,0,0,0,290.65,263.8Z" style="fill:#37474f"></path><path d="M275.9,272.07l2.75-1.59c.11-.06.12-.16,0-.21L276.47,269a.41.41,0,0,0-.37,0l-2.75,1.58c-.11.07-.12.16,0,.22l2.22,1.27A.38.38,0,0,0,275.9,272.07Z" style="fill:#37474f"></path><path d="M281.89,272.35c.1-.07.12-.16,0-.22l-2.21-1.27a.4.4,0,0,0-.37,0l-2.75,1.59c-.11.06-.12.16,0,.21l2.21,1.28a.41.41,0,0,0,.37,0Z" style="fill:#37474f"></path><path d="M287.42,261.94l-2.75,1.59c-.11.06-.13.15,0,.21l2.21,1.27a.4.4,0,0,0,.37,0l2.75-1.59c.11-.06.12-.16,0-.21l-2.21-1.28A.42.42,0,0,0,287.42,261.94Z" style="fill:#37474f"></path><path d="M271.25,252.6l-2.75,1.59c-.11.07-.12.16,0,.21l2.22,1.28a.38.38,0,0,0,.36,0l2.75-1.59c.11-.06.12-.16,0-.21l-2.21-1.28A.44.44,0,0,0,271.25,252.6Z" style="fill:#37474f"></path><path d="M284.18,260.07l-2.75,1.59c-.11.06-.12.16,0,.21l2.21,1.28a.39.39,0,0,0,.36,0l2.76-1.58c.1-.07.12-.16,0-.22l-2.21-1.27A.4.4,0,0,0,284.18,260.07Z" style="fill:#37474f"></path><path d="M268,250.74l-2.75,1.59c-.11.06-.12.15,0,.21l2.21,1.27a.4.4,0,0,0,.37,0l2.75-1.59c.11-.06.12-.16,0-.21l-2.22-1.28A.42.42,0,0,0,268,250.74Z" style="fill:#37474f"></path><path d="M274.48,254.47l-2.75,1.59c-.11.06-.12.16,0,.21l2.21,1.28a.39.39,0,0,0,.36,0l2.76-1.59c.1-.06.12-.15,0-.21l-2.21-1.27A.4.4,0,0,0,274.48,254.47Z" style="fill:#37474f"></path><path d="M277.72,256.34,275,257.93c-.11.06-.12.15,0,.21l2.21,1.27a.4.4,0,0,0,.37,0l2.75-1.59c.11-.06.12-.16,0-.21l-2.22-1.28A.42.42,0,0,0,277.72,256.34Z" style="fill:#37474f"></path><path d="M281,258.2l-2.75,1.59c-.11.07-.12.16,0,.21l2.21,1.28a.4.4,0,0,0,.37,0l2.75-1.59c.11-.06.12-.16,0-.21l-2.21-1.28A.44.44,0,0,0,281,258.2Z" style="fill:#37474f"></path><path d="M268.56,263.29l2.75-1.59c.1-.06.12-.16,0-.21l-2.21-1.28a.41.41,0,0,0-.37,0L266,261.82c-.11.06-.12.15,0,.21l2.21,1.27A.4.4,0,0,0,268.56,263.29Z" style="fill:#37474f"></path><path d="M265.32,261.42l2.75-1.59c.11-.06.12-.15,0-.21l-2.21-1.27a.4.4,0,0,0-.37,0L262.77,260c-.11.06-.12.16,0,.21l2.22,1.28A.39.39,0,0,0,265.32,261.42Z" style="fill:#37474f"></path><path d="M259.05,250.11l-2.75,1.58c-.11.07-.12.16,0,.22l2.21,1.27a.4.4,0,0,0,.37,0l2.75-1.59c.1-.06.12-.16,0-.21l-2.21-1.28A.41.41,0,0,0,259.05,250.11Z" style="fill:#37474f"></path><path d="M255.82,248.24l-2.75,1.59c-.11.06-.12.15,0,.21l2.22,1.28a.42.42,0,0,0,.36,0l2.75-1.59c.11-.06.12-.16,0-.21l-2.21-1.28A.44.44,0,0,0,255.82,248.24Z" style="fill:#37474f"></path><path d="M284.24,269.17c.11-.06.12-.16,0-.21l-2.21-1.28a.38.38,0,0,0-.36,0l-2.75,1.59c-.11.06-.13.16,0,.21l2.21,1.28a.4.4,0,0,0,.37,0Z" style="fill:#37474f"></path><path d="M278.25,268.89,281,267.3c.1-.06.12-.16,0-.21l-2.21-1.28a.41.41,0,0,0-.37,0l-2.75,1.59c-.11.06-.12.15,0,.21l2.21,1.27A.38.38,0,0,0,278.25,268.89Z" style="fill:#37474f"></path><path d="M275,267l2.75-1.59c.11-.06.12-.15,0-.21L275.59,264a.4.4,0,0,0-.37,0l-2.75,1.59c-.11.06-.12.16,0,.21l2.21,1.28A.41.41,0,0,0,275,267Z" style="fill:#37474f"></path><path d="M271.79,265.16l2.75-1.59c.11-.07.12-.16,0-.21l-2.22-1.28a.38.38,0,0,0-.36,0l-2.75,1.59c-.11.07-.12.16,0,.21l2.21,1.28A.4.4,0,0,0,271.79,265.16Z" style="fill:#37474f"></path><path d="M278.45,261.31l-2.75,1.58c-.11.07-.12.16,0,.22l2.21,1.27a.38.38,0,0,0,.36,0l2.76-1.59c.1-.06.12-.16,0-.21l-2.21-1.28A.41.41,0,0,0,278.45,261.31Z" style="fill:#37474f"></path><path d="M265.52,253.84l-2.75,1.59c-.11.06-.12.15,0,.21l2.22,1.28a.42.42,0,0,0,.36,0l2.75-1.59c.11-.06.12-.16,0-.21l-2.21-1.28A.44.44,0,0,0,265.52,253.84Z" style="fill:#37474f"></path><path d="M268.75,255.71,266,257.29c-.11.07-.12.16,0,.22l2.21,1.27a.4.4,0,0,0,.37,0l2.75-1.59c.1-.06.12-.16,0-.21l-2.21-1.28A.41.41,0,0,0,268.75,255.71Z" style="fill:#37474f"></path><path d="M262.29,252l-2.75,1.59c-.11.06-.12.16,0,.21l2.21,1.28a.41.41,0,0,0,.37,0l2.75-1.58c.11-.07.12-.16,0-.22L262.65,252A.38.38,0,0,0,262.29,252Z" style="fill:#37474f"></path><path d="M275.22,259.44,272.47,261c-.11.06-.12.15,0,.21l2.21,1.28a.44.44,0,0,0,.37,0l2.75-1.59c.11-.06.12-.16,0-.21l-2.21-1.28A.44.44,0,0,0,275.22,259.44Z" style="fill:#37474f"></path><path d="M272,257.57l-2.75,1.59c-.11.06-.12.16,0,.21l2.21,1.28a.41.41,0,0,0,.37,0l2.75-1.58c.11-.07.12-.16,0-.22l-2.22-1.27A.38.38,0,0,0,272,257.57Z" style="fill:#37474f"></path><path d="M291.39,268.72l-2.76,1.59c-.1.06-.12.16,0,.21l2.21,1.28a.41.41,0,0,0,.37,0l2.75-1.58c.11-.07.12-.16,0-.22l-2.21-1.27A.38.38,0,0,0,291.39,268.72Z" style="fill:#37474f"></path><path d="M294.79,270.6l-4.48,2.59c-.11.06-.12.16,0,.21l2.21,1.28a.44.44,0,0,0,.37,0l4.48-2.59c.11-.06.13-.15,0-.21l-2.21-1.28A.44.44,0,0,0,294.79,270.6Z" style="fill:#37474f"></path><path d="M288.15,271.42,285.4,273c-.11.06-.12.16,0,.21l4.81,2.79a.44.44,0,0,0,.37,0l2.75-1.59c.11-.06.12-.16,0-.21l-4.82-2.78A.4.4,0,0,0,288.15,271.42Z" style="fill:#37474f"></path><path d="M281.69,263.12l-2.75,1.59c-.11.06-.13.16,0,.21l2.21,1.28a.41.41,0,0,0,.37,0l2.75-1.58c.11-.07.12-.16,0-.22l-2.21-1.27A.38.38,0,0,0,281.69,263.12Z" style="fill:#37474f"></path><path d="M288.15,266.86l-2.75,1.58c-.11.07-.12.16,0,.21l2.21,1.28a.38.38,0,0,0,.36,0l2.75-1.59c.11-.06.13-.16,0-.21l-2.21-1.28A.41.41,0,0,0,288.15,266.86Z" style="fill:#37474f"></path><path d="M284.92,265l-2.75,1.59c-.11.06-.12.15,0,.21l2.21,1.28a.44.44,0,0,0,.37,0l2.75-1.59c.11-.06.12-.16,0-.21L285.29,265A.44.44,0,0,0,284.92,265Z" style="fill:#37474f"></path><path d="M272.67,270.2l2.75-1.59c.11-.06.12-.16,0-.21l-2.22-1.28a.42.42,0,0,0-.36,0l-2.75,1.59c-.11.06-.12.15,0,.21l2.21,1.28A.44.44,0,0,0,272.67,270.2Z" style="fill:#37474f"></path><path d="M291.11,267.47l2.21,1.28a.39.39,0,0,0,.36,0l2.75-1.59c.11-.06.13-.15,0-.21l-2.21-1.27a.4.4,0,0,0-.37,0l-2.75,1.59C291,267.32,291,267.42,291.11,267.47Z" style="fill:#37474f"></path><path d="M248.64,247.4l3.4,2a.4.4,0,0,0,.37,0l2.75-1.59c.1-.06.12-.16,0-.21l-3.4-2a.44.44,0,0,0-.37,0l-2.75,1.59C248.55,247.25,248.54,247.34,248.64,247.4Z" style="fill:#37474f"></path><path d="M257.11,242.33l2.72,1.57a.41.41,0,0,0,.37,0L263,242.3c.11-.07.12-.16,0-.22l-2.73-1.57a.42.42,0,0,0-.36,0l-2.75,1.59C257,242.18,257,242.27,257.11,242.33Z" style="fill:#37474f"></path><path d="M244.45,249.59l4.25,2.46a.44.44,0,0,0,.37,0l2.75-1.59c.11-.07.12-.16,0-.21l-4.26-2.46a.44.44,0,0,0-.37,0l-2.75,1.59C244.37,249.45,244.35,249.54,244.45,249.59Z" style="fill:#37474f"></path><path d="M283.57,276.72l2.72,1.58a.44.44,0,0,0,.37,0l2.75-1.59c.11-.06.12-.15,0-.21l-2.73-1.57a.41.41,0,0,0-.36,0l-2.75,1.59C283.49,276.58,283.48,276.67,283.57,276.72Z" style="fill:#37474f"></path><path d="M240.52,251.87l2.72,1.57a.44.44,0,0,0,.37,0l2.75-1.59c.11-.07.12-.16,0-.21l-2.72-1.58a.44.44,0,0,0-.37,0l-2.75,1.59C240.44,251.72,240.42,251.81,240.52,251.87Z" style="fill:#37474f"></path><path d="M281.63,253.08c.11-.06.12-.16,0-.21l-2.22-1.28a.39.39,0,0,0-.36,0l-2.75,1.58c-.11.07-.12.16,0,.22l2.21,1.27a.4.4,0,0,0,.37,0Z" style="fill:#37474f"></path><path d="M288.1,256.81c.1-.06.12-.15,0-.21l-2.21-1.28a.44.44,0,0,0-.37,0l-2.75,1.59c-.11.06-.12.16,0,.21l2.21,1.28a.44.44,0,0,0,.37,0Z" style="fill:#37474f"></path><path d="M284.86,255c.11-.07.12-.16,0-.21l-2.21-1.28a.4.4,0,0,0-.37,0l-2.75,1.59c-.11.06-.12.16,0,.21l2.22,1.28a.41.41,0,0,0,.36,0Z" style="fill:#37474f"></path><path d="M291.33,258.68c.11-.06.12-.16,0-.21l-2.22-1.28a.39.39,0,0,0-.36,0L286,258.8c-.11.06-.12.15,0,.21l2.21,1.27a.4.4,0,0,0,.37,0Z" style="fill:#37474f"></path><path d="M279,278.39c-.11.06-.12.16,0,.21l3.4,2a.44.44,0,0,0,.37,0l2.75-1.59c.11-.06.12-.16,0-.21l-3.41-2a.38.38,0,0,0-.36,0Z" style="fill:#37474f"></path><path d="M277,250.44c.1-.06.12-.15,0-.21L274.85,249a.44.44,0,0,0-.37,0l-2.75,1.59c-.11.06-.12.15,0,.21l2.21,1.28a.42.42,0,0,0,.36,0Z" style="fill:#37474f"></path><path d="M273.8,248.58c.11-.07.12-.16,0-.22l-2.21-1.27a.4.4,0,0,0-.37,0l-2.75,1.59c-.11.06-.12.16,0,.21l2.22,1.28a.39.39,0,0,0,.36,0Z" style="fill:#37474f"></path><path d="M267.34,244.84c.1-.06.12-.15,0-.21l-2.21-1.28a.44.44,0,0,0-.37,0L262,245c-.11.06-.12.15,0,.21l2.21,1.28a.44.44,0,0,0,.37,0Z" style="fill:#37474f"></path><path d="M270.57,246.71c.11-.06.12-.16,0-.21l-2.22-1.28a.39.39,0,0,0-.36,0l-2.75,1.58c-.11.07-.12.16,0,.22l2.21,1.27a.4.4,0,0,0,.37,0Z" style="fill:#37474f"></path><path d="M269.44,268.33l2.75-1.58c.11-.07.12-.16,0-.22L270,265.26a.4.4,0,0,0-.37,0l-2.75,1.59c-.11.06-.12.16,0,.21l2.21,1.28A.41.41,0,0,0,269.44,268.33Z" style="fill:#37474f"></path><path d="M244.78,258.64c-.11.06-.12.16,0,.21l2.72,1.58a.44.44,0,0,0,.37,0l2.75-1.59c.1-.06.12-.16,0-.21L247.9,257a.4.4,0,0,0-.37,0Z" style="fill:#37474f"></path><path d="M236.61,253.93c-.1.06-.12.15,0,.21l3.4,2a.4.4,0,0,0,.37,0l2.75-1.59c.11-.06.12-.16,0-.21l-3.4-2a.41.41,0,0,0-.37,0Z" style="fill:#37474f"></path><path d="M248.53,260.8c-.11.07-.12.16,0,.21l18.21,10.52a.42.42,0,0,0,.36,0l2.75-1.59c.11-.06.13-.15,0-.21L251.64,259.2a.41.41,0,0,0-.36,0Z" style="fill:#37474f"></path><path d="M271.5,274.07c-.11.06-.12.15,0,.21l2.72,1.57a.41.41,0,0,0,.37,0l2.75-1.58c.11-.07.12-.16,0-.22l-2.72-1.57a.44.44,0,0,0-.37,0Z" style="fill:#37474f"></path><path d="M267.75,271.9c-.1.07-.12.16,0,.22l2.72,1.57a.41.41,0,0,0,.37,0l2.75-1.59c.11-.06.12-.15,0-.21l-2.72-1.57a.39.39,0,0,0-.36,0Z" style="fill:#37474f"></path><path d="M275.24,276.23c-.11.06-.12.15,0,.21l2.72,1.57a.38.38,0,0,0,.36,0l2.76-1.59c.1-.07.12-.16,0-.21l-2.72-1.58a.44.44,0,0,0-.37,0Z" style="fill:#37474f"></path><path d="M241,256.48c-.11.06-.12.16,0,.21l2.72,1.57a.4.4,0,0,0,.37,0l2.75-1.59c.11-.06.12-.16,0-.21l-2.72-1.57a.4.4,0,0,0-.37,0Z" style="fill:#37474f"></path><path d="M286.68,278.29l2.75-1.59c.11-.06.12-.15,0-.21L283,272.76a.4.4,0,0,0-.37,0l-2.75,1.59c-.11.07-.12.16,0,.21l6.47,3.74A.44.44,0,0,0,286.68,278.29Z" style="fill:#37474f"></path><path d="M246.8,255.27l2.75-1.59c.11-.06.12-.16,0-.21l-2.21-1.28a.41.41,0,0,0-.37,0l-2.75,1.58c-.11.07-.12.16,0,.22l2.22,1.27A.38.38,0,0,0,246.8,255.27Z" style="fill:#37474f"></path><path d="M263,264.6l2.75-1.59c.11-.06.12-.15,0-.21l-2.22-1.28a.42.42,0,0,0-.36,0l-2.75,1.59c-.11.06-.12.15,0,.21l2.21,1.28A.44.44,0,0,0,263,264.6Z" style="fill:#37474f"></path><path d="M259.74,262.73l2.75-1.58c.11-.07.12-.16,0-.22l-2.21-1.27a.4.4,0,0,0-.37,0l-2.75,1.59c-.1.06-.12.16,0,.21l2.21,1.28A.41.41,0,0,0,259.74,262.73Z" style="fill:#37474f"></path><path d="M266.2,266.47l2.75-1.59c.11-.06.12-.16,0-.21l-2.21-1.28a.41.41,0,0,0-.37,0L263.65,265c-.11.07-.12.16,0,.22l2.22,1.27A.38.38,0,0,0,266.2,266.47Z" style="fill:#37474f"></path><path d="M253.27,259l2.75-1.59c.11-.06.12-.15,0-.21l-2.22-1.28a.42.42,0,0,0-.36,0l-2.75,1.59c-.11.06-.12.15,0,.21L252.9,259A.44.44,0,0,0,253.27,259Z" style="fill:#37474f"></path><path d="M256.5,260.87l2.75-1.59c.11-.06.12-.16,0-.21l-2.21-1.28a.41.41,0,0,0-.37,0L254,259.39c-.11.07-.12.16,0,.22l2.22,1.27A.38.38,0,0,0,256.5,260.87Z" style="fill:#37474f"></path><path d="M250,257.13l2.75-1.58c.11-.07.12-.16,0-.22l-2.21-1.27a.4.4,0,0,0-.37,0l-2.75,1.59c-.1.06-.12.16,0,.21l2.21,1.28A.41.41,0,0,0,250,257.13Z" style="fill:#37474f"></path><path d="M301.6,277.83l2.75-1.59c.11-.06.12-.16,0-.21l-2.22-1.28a.42.42,0,0,0-.36,0l-2.75,1.59c-.11.06-.12.15,0,.21l2.21,1.28A.44.44,0,0,0,301.6,277.83Z" style="fill:#37474f"></path><path d="M305.73,272.5,303,274.09c-.11.06-.12.16,0,.21l2.21,1.28a.44.44,0,0,0,.37,0l2.75-1.59c.11-.06.12-.15,0-.21l-2.22-1.28A.42.42,0,0,0,305.73,272.5Z" style="fill:#37474f"></path><path d="M309,274.37,306.21,276c-.11.07-.12.16,0,.22l2.22,1.27a.38.38,0,0,0,.36,0l2.75-1.59c.11-.06.12-.16,0-.21l-2.21-1.28A.41.41,0,0,0,309,274.37Z" style="fill:#37474f"></path><path d="M304.83,279.7l2.75-1.59c.11-.06.12-.16,0-.21l-2.21-1.28a.41.41,0,0,0-.37,0l-2.75,1.58c-.11.07-.12.16,0,.22l2.22,1.27A.38.38,0,0,0,304.83,279.7Z" style="fill:#37474f"></path><path d="M302.49,270.63l-2.75,1.59c-.11.06-.12.16,0,.21l2.21,1.28a.44.44,0,0,0,.37,0l2.75-1.59c.11-.07.12-.16,0-.21l-2.21-1.28A.4.4,0,0,0,302.49,270.63Z" style="fill:#37474f"></path><path d="M284,281.3c-.1.06-.12.15,0,.21l2.21,1.28a.44.44,0,0,0,.37,0l2.75-1.59c.11-.06.12-.15,0-.21l-2.21-1.28a.44.44,0,0,0-.37,0Z" style="fill:#37474f"></path><path d="M290.49,285c-.11.06-.12.16,0,.21l2.22,1.28a.39.39,0,0,0,.36,0l2.75-1.58c.11-.07.12-.16,0-.22l-2.21-1.27a.4.4,0,0,0-.37,0Z" style="fill:#37474f"></path><path d="M287.26,283.16c-.11.07-.12.16,0,.22l2.21,1.27a.4.4,0,0,0,.37,0l2.75-1.59c.11-.06.12-.16,0-.21l-2.22-1.28a.39.39,0,0,0-.36,0Z" style="fill:#37474f"></path><path d="M298.37,276l2.75-1.58c.11-.07.12-.16,0-.22l-2.21-1.27a.4.4,0,0,0-.37,0l-2.75,1.59c-.11.06-.12.16,0,.21L298,276A.41.41,0,0,0,298.37,276Z" style="fill:#37474f"></path><path d="M296.49,280.78c.11-.06.12-.16,0-.21l-2.22-1.28a.39.39,0,0,0-.36,0l-2.75,1.58c-.11.07-.12.16,0,.22l2.21,1.27a.4.4,0,0,0,.37,0Z" style="fill:#37474f"></path><path d="M316.28,273.09c.11-.07.12-.16,0-.22l-2.21-1.27a.4.4,0,0,0-.37,0L311,273.2c-.11.06-.12.16,0,.21l2.21,1.28a.41.41,0,0,0,.37,0Z" style="fill:#37474f"></path><path d="M309.82,269.35c.1-.06.12-.15,0-.21l-2.21-1.28a.44.44,0,0,0-.37,0l-2.75,1.59c-.11.06-.12.16,0,.21L306.7,271a.44.44,0,0,0,.37,0Z" style="fill:#37474f"></path><path d="M313.05,271.22c.11-.06.12-.16,0-.21l-2.22-1.28a.39.39,0,0,0-.36,0l-2.75,1.58c-.11.07-.12.16,0,.22l2.21,1.27a.4.4,0,0,0,.37,0Z" style="fill:#37474f"></path><path d="M319.15,280.23l-2.75,1.58c-.11.07-.12.16,0,.22l2.21,1.27a.4.4,0,0,0,.37,0l2.75-1.59c.11-.06.12-.16,0-.21l-2.21-1.28A.41.41,0,0,0,319.15,280.23Z" style="fill:#37474f"></path><path d="M313.17,280c-.11.06-.12.15,0,.21l2.21,1.28a.44.44,0,0,0,.37,0l2.75-1.59c.11-.06.12-.15,0-.21l-2.22-1.28a.42.42,0,0,0-.36,0Z" style="fill:#37474f"></path><path d="M307.86,286l2.75-1.59c.11-.06.12-.16,0-.21l-2.22-1.28a.39.39,0,0,0-.36,0l-2.75,1.59c-.11.06-.12.15,0,.21l2.21,1.27A.4.4,0,0,0,307.86,286Z" style="fill:#37474f"></path><path d="M315,285.56l2.75-1.59c.11-.06.12-.16,0-.21l-2.21-1.28a.44.44,0,0,0-.37,0l-2.75,1.59c-.11.07-.12.16,0,.21l2.21,1.28A.4.4,0,0,0,315,285.56Z" style="fill:#37474f"></path><path d="M309.24,282.22c-.11.06-.12.15,0,.21l2.21,1.28a.44.44,0,0,0,.37,0l2.75-1.59c.11-.06.12-.16,0-.21l-2.22-1.28a.42.42,0,0,0-.36,0Z" style="fill:#37474f"></path><path d="M313.84,286.24c.11-.07.12-.16,0-.21l-2.21-1.28a.4.4,0,0,0-.37,0l-2.75,1.59c-.11.06-.12.16,0,.21l2.21,1.28a.44.44,0,0,0,.37,0Z" style="fill:#37474f"></path><path d="M294.21,287.16c-.11.06-.12.15,0,.21l5.44,3.14a.4.4,0,0,0,.37,0l2.75-1.59c.11-.06.12-.16,0-.21l-5.45-3.15a.44.44,0,0,0-.37,0Z" style="fill:#37474f"></path><path d="M300.68,290.89c-.11.06-.12.16,0,.21l2.22,1.28a.39.39,0,0,0,.36,0l2.75-1.58c.11-.07.12-.16,0-.22l-2.21-1.27a.4.4,0,0,0-.37,0Z" style="fill:#37474f"></path><path d="M307.16,290.09l2.75-1.58c.11-.07.12-.16,0-.22L307.73,287a.4.4,0,0,0-.37,0l-2.75,1.59c-.11.06-.12.16,0,.21l2.22,1.28A.39.39,0,0,0,307.16,290.09Z" style="fill:#37474f"></path><path d="M312.68,276.49l-2.75,1.59c-.11.06-.12.16,0,.21l2.21,1.28a.39.39,0,0,0,.36,0l2.76-1.58c.1-.07.12-.16,0-.22l-2.21-1.27A.4.4,0,0,0,312.68,276.49Z" style="fill:#37474f"></path><path d="M308.75,278.76,306,280.35c-.11.06-.12.16,0,.21l2.21,1.28a.41.41,0,0,0,.37,0l2.75-1.58c.1-.07.12-.16,0-.22l-2.21-1.27A.4.4,0,0,0,308.75,278.76Z" style="fill:#37474f"></path><path d="M303.45,284.77c.1-.06.12-.15,0-.21l-2.21-1.28a.44.44,0,0,0-.37,0l-2.75,1.59c-.11.06-.12.15,0,.21l2.21,1.28a.44.44,0,0,0,.37,0Z" style="fill:#37474f"></path><path d="M304.63,284.09l2.75-1.59c.1-.06.12-.15,0-.21L305.19,281a.44.44,0,0,0-.37,0l-2.75,1.59c-.11.06-.12.16,0,.21l2.21,1.28A.41.41,0,0,0,304.63,284.09Z" style="fill:#37474f"></path><path d="M321,285.62l-2.21-1.27a.4.4,0,0,0-.37,0l-6.68,3.86c-.11.06-.12.16,0,.21l2.21,1.28a.44.44,0,0,0,.37,0l6.68-3.86C321.11,285.77,321.13,285.68,321,285.62Z" style="fill:#37474f"></path><path d="M303.89,293l2.21,1.28a.44.44,0,0,0,.37,0l6.68-3.86c.11-.06.12-.15,0-.21L311,288.88a.44.44,0,0,0-.37,0l-6.68,3.86C303.8,292.82,303.79,292.91,303.89,293Z" style="fill:#37474f"></path><path d="M324.94,283.57c.1-.07.12-.16,0-.22l-2.21-1.27a.4.4,0,0,0-.37,0l-2.75,1.59c-.11.06-.12.16,0,.21l2.21,1.28a.41.41,0,0,0,.37,0Z" style="fill:#37474f"></path><path d="M303.93,288.23l2.75-1.59c.11-.06.12-.16,0-.21l-2.22-1.28a.39.39,0,0,0-.36,0l-2.75,1.58c-.11.07-.12.16,0,.22l2.21,1.27A.4.4,0,0,0,303.93,288.23Z" style="fill:#37474f"></path><path d="M296.27,261.53c.11-.06.12-.15,0-.21L294.08,260a.42.42,0,0,0-.36,0L291,261.65c-.11.06-.12.15,0,.21l2.21,1.28a.44.44,0,0,0,.37,0Z" style="fill:#37474f"></path><path d="M302.74,265.27c.1-.07.12-.16,0-.22l-2.21-1.27a.4.4,0,0,0-.37,0l-2.75,1.59c-.11.06-.12.16,0,.21l2.21,1.28a.41.41,0,0,0,.37,0Z" style="fill:#37474f"></path><path d="M299.5,263.4c.11-.06.12-.16,0-.21l-2.21-1.28a.41.41,0,0,0-.37,0l-2.75,1.58c-.11.07-.12.16,0,.22l2.22,1.27a.38.38,0,0,0,.36,0Z" style="fill:#37474f"></path><path d="M306,267.13c.11-.06.12-.15,0-.21l-2.22-1.28a.42.42,0,0,0-.36,0l-2.75,1.59c-.11.06-.12.15,0,.21l2.21,1.28a.44.44,0,0,0,.37,0Z" style="fill:#37474f"></path></g></svg>