<svg xmlns="http://www.w3.org/2000/svg" viewBox="0 0 500 500"><g id="freepik--Shadow--inject-36"><ellipse cx="250" cy="455.49" rx="178.16" ry="20.12" style="fill:#ebebeb"></ellipse></g><g id="freepik--Closet--inject-36"><rect x="180.81" y="54.12" width="276.59" height="353.37" style="fill:#dbdbdb"></rect><rect x="189.09" y="62.41" width="260.02" height="336.8" style="fill:#c7c7c7"></rect><rect x="189.09" y="140.9" width="260.02" height="8.29" style="fill:#dbdbdb"></rect><rect x="361.94" y="207.28" width="87.17" height="8.29" style="fill:#dbdbdb"></rect><rect x="361.94" y="272.41" width="87.17" height="8.29" style="fill:#dbdbdb"></rect><rect x="361.94" y="335.47" width="87.17" height="8.29" style="fill:#dbdbdb"></rect><rect x="232.79" y="270.05" width="250.02" height="8.29" transform="translate(631.99 -83.6) rotate(90)" style="fill:#dbdbdb"></rect><rect x="189.09" y="174.2" width="164.56" height="5.33" style="fill:#ebebeb"></rect><rect x="362.8" y="150.08" width="85.46" height="18.07" style="fill:#dbdbdb"></rect><rect x="362.8" y="169.23" width="85.46" height="18.07" style="fill:#dbdbdb"></rect><rect x="362.8" y="188.38" width="85.46" height="18.07" style="fill:#dbdbdb"></rect><rect x="396.64" y="157.04" width="17.76" height="4.16" style="fill:#a6a6a6"></rect><rect x="396.64" y="176.19" width="17.76" height="4.16" style="fill:#a6a6a6"></rect><rect x="396.64" y="195.33" width="17.76" height="4.16" style="fill:#a6a6a6"></rect><path d="M437.75,335.47H372a5.13,5.13,0,0,1-5.13-5.13h0A5.14,5.14,0,0,1,372,325.2h65.78a5.14,5.14,0,0,1,5.14,5.14h0A5.13,5.13,0,0,1,437.75,335.47Z" style="fill:#263238"></path><rect x="376.05" y="290.57" width="65.84" height="14.12" rx="6.61" style="fill:#263238"></rect><path d="M438.51,325.2H371.22a4.38,4.38,0,0,1-4.38-4.38h0a4.38,4.38,0,0,1,4.38-4.38h67.29a4.38,4.38,0,0,1,4.38,4.38h0A4.38,4.38,0,0,1,438.51,325.2Z" style="fill:#ebebeb"></path><path d="M434.18,290.57H379.35a4.38,4.38,0,0,1-4.38-4.38h0a4.38,4.38,0,0,1,4.38-4.38h54.83a4.38,4.38,0,0,1,4.38,4.38h0A4.38,4.38,0,0,1,434.18,290.57Z" style="fill:#fff"></path><path d="M436.53,316.44H373.2a2.93,2.93,0,0,1-2.94-2.94h0a2.94,2.94,0,0,1,2.94-2.94h63.33a2.94,2.94,0,0,1,2.94,2.94h0A2.94,2.94,0,0,1,436.53,316.44Z" style="fill:#FFC100"></path><path d="M436.53,310.56H373.2a2.93,2.93,0,0,1-2.94-2.94h0a2.94,2.94,0,0,1,2.94-2.94h63.33a2.94,2.94,0,0,1,2.94,2.94h0A2.94,2.94,0,0,1,436.53,310.56Z" style="fill:#37474f"></path><rect x="371.89" y="258.68" width="75.91" height="13.72" rx="5.85" style="fill:#263238"></rect><path d="M442,258.68H377.74a5.85,5.85,0,0,1-5.85-5.85h0a5.85,5.85,0,0,1,5.85-5.85H442a5.85,5.85,0,0,1,5.85,5.85h0A5.85,5.85,0,0,1,442,258.68Z" style="fill:#FFC100"></path><path d="M437,231.27H388a5.85,5.85,0,0,1-5.85-5.85h0a5.85,5.85,0,0,1,5.85-5.86h49a5.86,5.86,0,0,1,5.86,5.86h0A5.85,5.85,0,0,1,437,231.27Z" style="fill:#37474f"></path><path d="M440.46,247H379.23a3.93,3.93,0,0,1-3.93-3.93h0a3.93,3.93,0,0,1,3.93-3.93h61.23a3.92,3.92,0,0,1,3.92,3.93h0A3.92,3.92,0,0,1,440.46,247Z" style="fill:#455a64"></path><path d="M440.46,239.12H379.23a3.92,3.92,0,0,1-3.93-3.92h0a3.93,3.93,0,0,1,3.93-3.93h61.23a3.92,3.92,0,0,1,3.92,3.93h0A3.91,3.91,0,0,1,440.46,239.12Z" style="fill:#ebebeb"></path><path d="M385.72,140.32l47.73.57c12.9.16,11-10.18,8-21s-7.35-27.34-18.88-27.48l-12.39-.15-12.4-.15c-11.53-.14-16.31,16.22-19.53,27S372.82,140.16,385.72,140.32Z" style="fill:#FFC100"></path><path d="M424.41,92.41a.48.48,0,0,1,.48.5.49.49,0,1,1-.48-.5Zm-8.64.39a.5.5,0,0,0,.49.5.5.5,0,1,0,0-1A.5.5,0,0,0,415.77,92.8Zm-8.14-.1a.5.5,0,0,0,.49.5.49.49,0,0,0,.5-.49.48.48,0,0,0-.49-.49A.49.49,0,0,0,407.63,92.7Zm-8.13-.1a.5.5,0,0,0,1,0,.49.49,0,0,0-.49-.5A.48.48,0,0,0,399.5,92.6Zm32.42,10.85a.49.49,0,1,0,.5-.48A.48.48,0,0,0,431.92,103.45Zm-8.14-.09a.5.5,0,0,0,1,0,.5.5,0,0,0-.49-.5A.49.49,0,0,0,423.78,103.36Zm-8.14-.1a.51.51,0,0,0,.49.5.5.5,0,0,0,.5-.49.49.49,0,0,0-.49-.5A.51.51,0,0,0,415.64,103.26Zm-8.13-.1a.49.49,0,1,0,.5-.49A.5.5,0,0,0,407.51,103.16Zm-8.14-.1a.5.5,0,0,0,.49.5.49.49,0,0,0,.5-.49.5.5,0,0,0-1,0Zm-8.13-.1a.49.49,0,1,0,.5-.48A.48.48,0,0,0,391.24,103ZM427.91,98a.49.49,0,0,0,.49.5.48.48,0,0,0,.5-.48.5.5,0,0,0-1,0Zm-8.13-.1a.49.49,0,1,0,.5-.48A.48.48,0,0,0,419.78,97.94Zm-8.14-.09a.5.5,0,0,0,1,0,.5.5,0,0,0-.49-.5A.49.49,0,0,0,411.64,97.85Zm-8.13-.1a.49.49,0,0,0,.48.5.5.5,0,0,0,.5-.49.49.49,0,1,0-1,0Zm-8.14-.1a.49.49,0,0,0,.49.5.5.5,0,0,0,0-1A.5.5,0,0,0,395.37,97.65Zm-8.07.15a.48.48,0,0,0,.42.25.49.49,0,0,0,.5-.48.5.5,0,0,0-.34-.48C387.68,97.32,387.49,97.55,387.3,97.8Zm44.49,16.11a.49.49,0,0,0,.49.5.5.5,0,0,0,.5-.49.49.49,0,0,0-.49-.49A.48.48,0,0,0,431.79,113.91Zm-8.14-.1a.49.49,0,0,0,.49.5.49.49,0,1,0,0-1A.49.49,0,0,0,423.65,113.81Zm-8.13-.09a.49.49,0,1,0,1,0,.48.48,0,0,0-.48-.5A.49.49,0,0,0,415.52,113.72Zm-8.14-.1a.51.51,0,0,0,.49.5.5.5,0,0,0,0-1A.51.51,0,0,0,407.38,113.62Zm-8.13-.1a.48.48,0,0,0,.48.5.5.5,0,1,0-.48-.5Zm-8.14-.1a.5.5,0,0,0,1,0,.51.51,0,0,0-.49-.5A.5.5,0,0,0,391.11,113.42Zm-8.14-.1a.49.49,0,0,0,.49.5.49.49,0,1,0-.49-.5Zm52.95-4.72a.5.5,0,0,0,1,0,.5.5,0,1,0-1,0Zm-8.13-.1a.49.49,0,1,0,1,0,.49.49,0,1,0-1,0Zm-8.14-.1a.5.5,0,1,0,.5-.48A.48.48,0,0,0,419.65,108.4Zm-8.13-.1a.48.48,0,0,0,.48.5.49.49,0,1,0,0-1A.48.48,0,0,0,411.52,108.3Zm-8.14-.09a.5.5,0,0,0,.49.5.51.51,0,0,0,.5-.49.5.5,0,0,0-.49-.5A.49.49,0,0,0,403.38,108.21Zm-8.14-.1a.51.51,0,0,0,.49.5.5.5,0,1,0,0-1A.51.51,0,0,0,395.24,108.11Zm-8.13-.1a.48.48,0,0,0,.48.5.5.5,0,1,0-.48-.5Zm52.69,16.46a.5.5,0,0,0,1,0,.5.5,0,1,0-1,0Zm-8.14-.1a.5.5,0,1,0,.5-.49A.51.51,0,0,0,431.66,124.37Zm-8.13-.1a.49.49,0,1,0,.5-.49A.49.49,0,0,0,423.53,124.27Zm-8.14-.1a.5.5,0,1,0,.5-.48A.49.49,0,0,0,415.39,124.17Zm-8.13-.09a.49.49,0,0,0,1,0,.49.49,0,1,0-1,0Zm-8.14-.1a.5.5,0,0,0,.49.5.51.51,0,0,0,.5-.49.5.5,0,0,0-.49-.5A.49.49,0,0,0,399.12,124Zm-8.14-.1a.51.51,0,0,0,.49.5.5.5,0,1,0,0-1A.51.51,0,0,0,391,123.88Zm-8.13-.1a.48.48,0,0,0,.48.5.5.5,0,1,0-.48-.5Zm52.95-4.72a.49.49,0,1,0,1,0,.49.49,0,1,0-1,0Zm-8.14-.1a.5.5,0,0,0,1,0,.5.5,0,1,0-1,0Zm-8.14-.1a.5.5,0,1,0,.5-.49A.51.51,0,0,0,419.52,118.86Zm-8.13-.1a.49.49,0,0,0,.49.5.48.48,0,0,0,.49-.49.48.48,0,0,0-.48-.49A.48.48,0,0,0,411.39,118.76Zm-8.14-.1a.49.49,0,0,0,.49.5.48.48,0,0,0,.5-.48.5.5,0,0,0-1,0Zm-8.13-.09a.49.49,0,0,0,1,0,.49.49,0,1,0-1,0Zm-8.14-.1a.5.5,0,0,0,1,0,.5.5,0,1,0-1,0Zm-8.14-.1a.51.51,0,0,0,.49.5.5.5,0,0,0,0-1A.51.51,0,0,0,378.84,118.37Zm60.83,16.56a.51.51,0,0,0,.49.5.5.5,0,0,0,.5-.49.49.49,0,0,0-.49-.5A.5.5,0,0,0,439.67,134.93Zm-8.13-.1a.49.49,0,1,0,1,0,.48.48,0,0,0-.48-.5A.49.49,0,0,0,431.54,134.83Zm-8.14-.1a.5.5,0,0,0,.49.5.5.5,0,1,0-.49-.5Zm-8.13-.1a.49.49,0,1,0,1,0,.49.49,0,1,0-1,0Zm-8.14-.1a.5.5,0,0,0,1,0,.49.49,0,0,0-.49-.5A.48.48,0,0,0,407.13,134.53Zm-8.14-.09a.49.49,0,0,0,.49.49.48.48,0,0,0,.5-.48.5.5,0,0,0-1,0Zm-8.13-.1a.49.49,0,1,0,1,0,.49.49,0,1,0-1,0Zm-8.14-.1a.5.5,0,1,0,1,0,.5.5,0,0,0-1,0Zm52.95-4.73a.5.5,0,1,0,.5-.48A.48.48,0,0,0,435.67,129.51Zm-8.14-.09a.51.51,0,0,0,.49.5.5.5,0,0,0,.5-.49.49.49,0,0,0-.49-.5A.5.5,0,0,0,427.53,129.42Zm-8.13-.1a.5.5,0,0,0,.49.5.49.49,0,0,0,.49-.49.48.48,0,0,0-.48-.5A.5.5,0,0,0,419.4,129.32Zm-8.14-.1a.5.5,0,1,0,1,0,.5.5,0,0,0-1,0Zm-8.13-.1a.49.49,0,1,0,1,0,.49.49,0,1,0-1,0ZM395,129a.5.5,0,1,0,.5-.48A.48.48,0,0,0,395,129Zm-8.14-.09a.49.49,0,0,0,.49.49.49.49,0,1,0,0-1A.49.49,0,0,0,386.85,128.93Zm-8.13-.1a.49.49,0,1,0,1,0,.49.49,0,1,0-1,0ZM435.54,140a.5.5,0,0,0,.49.5.49.49,0,0,0,.5-.49.48.48,0,0,0-.49-.49A.49.49,0,0,0,435.54,140Zm-8.13-.1a.49.49,0,0,0,.49.5.49.49,0,0,0,0-1A.48.48,0,0,0,427.41,139.87Zm-8.14-.09a.5.5,0,1,0,1,0,.5.5,0,0,0-1,0Zm-8.13-.1a.49.49,0,1,0,1,0,.48.48,0,0,0-.48-.5A.49.49,0,0,0,411.14,139.68Zm-8.14-.1a.49.49,0,0,0,.49.5.5.5,0,0,0,0-1A.5.5,0,0,0,403,139.58Zm-8.14-.1a.5.5,0,0,0,.49.5.49.49,0,0,0,.5-.49.5.5,0,0,0-.49-.5A.51.51,0,0,0,394.86,139.48Zm-8.13-.1a.49.49,0,1,0,.5-.48A.48.48,0,0,0,386.73,139.38Zm-7.54-.57a1.35,1.35,0,0,0,.26.15A.45.45,0,0,0,379.19,138.81Z" style="fill:#fff"></path><path d="M419.34,98a4,4,0,1,0,4-3.91A3.95,3.95,0,0,0,419.34,98Z" style="opacity:0.1"></path><path d="M393,97.7a4,4,0,1,0,4-3.91A4,4,0,0,0,393,97.7Z" style="opacity:0.1"></path><path d="M420.61,98a2.68,2.68,0,1,0,2.71-2.65A2.68,2.68,0,0,0,420.61,98Z" style="fill:#263238"></path><path d="M394.23,97.72a2.68,2.68,0,1,0,2.71-2.65A2.68,2.68,0,0,0,394.23,97.72Z" style="fill:#263238"></path><path d="M396.9,98.33a1.51,1.51,0,0,0,1.53-1.49,75.29,75.29,0,0,1,2.43-14.19c1.58-5.64,4.47-12.35,9.21-12.29,8.77.1,11.78,22.24,11.72,26.76a1.51,1.51,0,0,0,3,0c0-.3-1.47-29.66-14.7-29.82-12.82-.16-14.69,29.17-14.7,29.46A1.51,1.51,0,0,0,396.9,98.33Z" style="fill:#FFC100"></path><path d="M246.59,186h-1v-5.89c0-.33.22-.46.71-.72,1.1-.61,4-2.21,4-5.11,0-4.55-3.24-4.91-4.23-4.91-2.49,0-5,1.5-5,4.85h-1c0-4,3.12-5.85,6-5.85,2.42,0,5.23,1.55,5.23,5.91,0,3.49-3.3,5.3-4.54,6l-.19.11Z" style="fill:#263238"></path><path d="M278.41,203.27h-2.17a3.57,3.57,0,0,0-1.46-2.8c-1.67-1.27-11.63-3.61-14.13-4.52s-10.06-4.33-11.42-4.93a9.76,9.76,0,0,0-6.46,0c-1.36.6-8.92,4-11.42,4.93s-12.46,3.25-14.12,4.52a3.54,3.54,0,0,0-1.46,2.8h-2.18c-1.3-1.42-1.33-3.2,1.06-5.08s11-4.6,14-5.83,12.79-7.89,14.27-8.3a14.82,14.82,0,0,1,6.22,0c1.48.41,11.27,7.08,14.27,8.3s11.59,4,14,5.83S279.71,201.85,278.41,203.27Z" style="fill:#FFC100"></path><path d="M278.41,203.27h-2.17a3.57,3.57,0,0,0-1.46-2.8c-1.67-1.27-11.63-3.61-14.13-4.52s-10.06-4.33-11.42-4.93a9.76,9.76,0,0,0-6.46,0c-1.36.6-8.92,4-11.42,4.93s-12.46,3.25-14.12,4.52a3.54,3.54,0,0,0-1.46,2.8h-2.18c-1.3-1.42-1.33-3.2,1.06-5.08s11-4.6,14-5.83,12.79-7.89,14.27-8.3a14.82,14.82,0,0,1,6.22,0c1.48.41,11.27,7.08,14.27,8.3s11.59,4,14,5.83S279.71,201.85,278.41,203.27Z" style="opacity:0.2"></path><path d="M261.13,191.2s14.6,4.23,17.86,8.26c3.85,4.76,27.53,79.18,26.83,81.91a15,15,0,0,1-2.7,5.1l-13.4,2.91s-7.43-.52-8.65-3.23S261.13,191.2,261.13,191.2Z" style="fill:#37474f"></path><path d="M230.88,191.2s-14.61,4.23-17.87,8.26c-3.84,4.76-27.53,79.18-26.83,81.91a15.18,15.18,0,0,0,2.7,5.1l13.4,2.91s7.43-.52,8.65-3.23S230.88,191.2,230.88,191.2Z" style="fill:#37474f"></path><path d="M284.4,272.87a6,6,0,0,1-2.67,3.11v2.68H210.27V276a5.9,5.9,0,0,1-2.67-3.11c-.89-2.27,11.75-65,14.59-70.16a71.74,71.74,0,0,1,8.68-11.51s4.24,12.08,15.13,12.08,15.12-12.08,15.12-12.08,5.7,6.1,8.69,11.51C272.64,207.83,285.29,270.6,284.4,272.87Z" style="fill:#37474f"></path><path d="M216.17,228.63c.45-2.33.86-4.67,1.27-7s.87-4.76,1.2-7.14a.06.06,0,0,0-.12,0c-.56,2.12-1,4.28-1.49,6.42-.38,1.62-.73,3.24-1.08,4.86,0-.29,0-.58,0-.87,0-1.51.09-3,.23-4.51,0-.19-.31-.22-.34,0a29.82,29.82,0,0,0-.33,6.33c0,.26,0,.52.07.79l-2.67,12.82c-1.79,8.62-3.49,17.26-5.21,25.9-.44,2.19-1.11,4.66-.41,6.86a4.69,4.69,0,0,0,3.34,3.32.08.08,0,0,0,0-.15c-1.75-.64-2.55-2.51-2.66-4.25a24.05,24.05,0,0,1,.86-6.13l2.49-12.46c1.59-7.94,3.12-15.88,4.65-23.83.15,0,.29-.11.15-.28a.08.08,0,0,0-.08,0h0C216.1,229,216.13,228.82,216.17,228.63Z" style="fill:#455a64"></path><path d="M275.68,228.63c-.45-2.33-.86-4.67-1.27-7s-.87-4.76-1.2-7.14a.06.06,0,0,1,.12,0c.56,2.12,1,4.28,1.49,6.42.38,1.62.73,3.24,1.08,4.86,0-.29,0-.58,0-.87,0-1.51-.09-3-.23-4.51a.17.17,0,0,1,.33,0,29.82,29.82,0,0,1,.34,6.33c0,.26-.05.52-.07.79L279,240.26c1.79,8.62,3.49,17.26,5.21,25.9.44,2.19,1.11,4.66.41,6.86a4.69,4.69,0,0,1-3.34,3.32.08.08,0,0,1,0-.15c1.75-.64,2.55-2.51,2.66-4.25a24.05,24.05,0,0,0-.86-6.13l-2.49-12.46c-1.59-7.94-3.12-15.88-4.65-23.83-.15,0-.3-.11-.15-.28a.08.08,0,0,1,.08,0h0C275.75,229,275.71,228.82,275.68,228.63Z" style="fill:#455a64"></path><path d="M291.08,186h-1v-5.89c0-.33.22-.46.7-.72,1.11-.61,4-2.21,4-5.11,0-4.55-3.24-4.91-4.23-4.91-2.5,0-5,1.5-5,4.85h-1c0-4,3.11-5.85,6-5.85,2.41,0,5.23,1.55,5.23,5.91,0,3.49-3.3,5.3-4.55,6l-.18.11Z" style="fill:#263238"></path><path d="M322.9,203.27h-2.18a3.54,3.54,0,0,0-1.46-2.8c-1.66-1.27-11.62-3.61-14.12-4.52s-10.06-4.33-11.42-4.93a9.76,9.76,0,0,0-6.46,0c-1.37.6-8.92,4-11.42,4.93s-12.46,3.25-14.13,4.52a3.57,3.57,0,0,0-1.46,2.8h-2.18c-1.29-1.42-1.33-3.2,1.07-5.08s11-4.6,14-5.83,12.78-7.89,14.27-8.3a14.82,14.82,0,0,1,6.22,0c1.48.41,11.27,7.08,14.26,8.3s11.6,4,14,5.83S324.2,201.85,322.9,203.27Z" style="fill:#FFC100"></path><path d="M322.9,203.27h-2.18a3.54,3.54,0,0,0-1.46-2.8c-1.66-1.27-11.62-3.61-14.12-4.52s-10.06-4.33-11.42-4.93a9.76,9.76,0,0,0-6.46,0c-1.37.6-8.92,4-11.42,4.93s-12.46,3.25-14.13,4.52a3.57,3.57,0,0,0-1.46,2.8h-2.18c-1.29-1.42-1.33-3.2,1.07-5.08s11-4.6,14-5.83,12.78-7.89,14.27-8.3a14.82,14.82,0,0,1,6.22,0c1.48.41,11.27,7.08,14.26,8.3s11.6,4,14,5.83S324.2,201.85,322.9,203.27Z" style="opacity:0.2"></path><path d="M328.88,323.05a6,6,0,0,1-2.67,3.11v2.68l-36,4.14-35.44-4.14v-2.68a5.9,5.9,0,0,1-2.67-3.11c-.89-2.27,11.75-115.22,14.59-120.34a71.74,71.74,0,0,1,8.68-11.51s4.24,4.46,15.13,4.46,15.12-4.46,15.12-4.46,5.7,6.1,8.69,11.51C317.12,207.83,329.77,320.78,328.88,323.05Z" style="fill:#a6a6a6"></path><path d="M305.61,191.2s14.61,4.23,17.87,8.26c3.84,4.76,27.53,79.18,26.82,81.91a15.06,15.06,0,0,1-2.69,5.1l-13.4,2.91s-7.43-.52-8.66-3.23S305.61,191.2,305.61,191.2Z" style="fill:#dbdbdb"></path><path d="M275.36,191.2s-14.61,4.23-17.86,8.26c-3.85,4.76-27.53,79.18-26.83,81.91a15,15,0,0,0,2.7,5.1l13.4,2.91s7.43-.52,8.65-3.23S275.36,191.2,275.36,191.2Z" style="fill:#dbdbdb"></path><path d="M286.28,202.63v136l-31.53-10V326a5.9,5.9,0,0,1-2.67-3.11c-.89-2.27,11.75-115,14.59-120.16a71.74,71.74,0,0,1,8.68-11.51S278.48,200.13,286.28,202.63Z" style="fill:#dbdbdb"></path><path d="M328.88,322.87a6,6,0,0,1-2.67,3.11v2.68l-30.91,10V202.41c7.34-2.76,10.3-11.21,10.3-11.21s5.7,6.1,8.69,11.51C317.12,207.83,329.77,320.6,328.88,322.87Z" style="fill:#dbdbdb"></path><path d="M263.89,217.74c-1.07,4.4-1.71,8.93-2.39,13.41l-.09.58.07-1.52c.06-1.64.09-3.27.12-4.9,0-.26-.39-.25-.4,0-.09,2.14-.14,4.29-.18,6.43,0,.51,0,1,0,1.54a11.1,11.1,0,0,0,0,1.29q-.72,5-1.39,9.95c-1.2,8.94-2.35,17.9-3.2,26.88-.48,5.09-.86,10.19-1.17,15.3,0,.11.19.14.2,0q1.76-13.46,3.35-26.91t3.46-27q.54-3.81,1-7.64c.3-2.48.67-5,.84-7.46C264.12,217.63,263.92,217.62,263.89,217.74Z" style="fill:#a6a6a6"></path><path d="M316.78,217.74c1.07,4.4,1.71,8.93,2.39,13.41,0,.19.05.39.08.58l-.06-1.52c-.06-1.64-.09-3.27-.12-4.9,0-.26.39-.25.4,0,.08,2.14.14,4.29.18,6.43,0,.51,0,1,0,1.54a11.1,11.1,0,0,1,0,1.29q.72,5,1.39,9.95c1.2,8.94,2.35,17.9,3.2,26.88.47,5.09.85,10.19,1.17,15.3,0,.11-.19.14-.21,0q-1.74-13.46-3.34-26.91c-1.08-9-2.21-18-3.47-27q-.53-3.81-1-7.64c-.3-2.48-.67-5-.84-7.46C316.55,217.63,316.75,217.62,316.78,217.74Z" style="fill:#a6a6a6"></path><rect x="197.64" y="89.45" width="71.94" height="51.45" style="fill:#FFC100"></rect><rect x="197.64" y="89.45" width="71.94" height="13.58" style="opacity:0.1"></rect><rect x="193.98" y="85.88" width="79.26" height="10.36" style="fill:#FFC100"></rect><rect x="224.65" y="101.53" width="17.93" height="4.99" style="fill:#263238"></rect><rect x="278.98" y="89.45" width="71.94" height="51.45" style="fill:#FFC100"></rect><rect x="278.98" y="89.45" width="71.94" height="13.58" style="opacity:0.1"></rect><rect x="275.32" y="85.88" width="79.26" height="10.36" style="fill:#FFC100"></rect><rect x="305.98" y="101.53" width="17.93" height="4.99" style="fill:#263238"></rect><path d="M447.5,398.32c-2.28.79-67.94,1.42-70.46-.14-1-.59-2.25-10.15-2.7-21.73l43-.51s25.24,11,27.82,13S449.79,397.53,447.5,398.32Z" style="fill:#FFC100"></path><path d="M446.54,395.71c-11-.17-55.43.2-66.33.88-.09,0-.09.06,0,.06,10.91.41,55.33-.32,66.33-.76C446.77,395.88,446.77,395.71,446.54,395.71Z" style="fill:#263238"></path><path d="M440.89,386.63a8.83,8.83,0,0,0-6.56,2.75,8.55,8.55,0,0,0-2.41,5.9c0,.06.13.07.14,0a10.19,10.19,0,0,1,8.83-8.51A.07.07,0,0,0,440.89,386.63Z" style="fill:#263238"></path><path d="M421.59,377c-4.41,0-9.5,1.59-12.21,5.22-.1.14.1.28.23.22a60.52,60.52,0,0,1,12.06-4.9A.28.28,0,0,0,421.59,377Z" style="fill:#263238"></path><path d="M425,378.29c-4.41,0-9.5,1.58-12.2,5.21-.11.14.09.29.22.22a61,61,0,0,1,12.06-4.89A.28.28,0,0,0,425,378.29Z" style="fill:#263238"></path><path d="M428.41,379.58c-4.4,0-9.5,1.58-12.2,5.21-.1.14.1.29.23.22a61.25,61.25,0,0,1,12.05-4.89A.28.28,0,0,0,428.41,379.58Z" style="fill:#263238"></path><path d="M431.83,380.87c-4.41,0-9.5,1.59-12.21,5.22-.1.14.1.28.23.22a60.73,60.73,0,0,1,12.06-4.89A.28.28,0,0,0,431.83,380.87Z" style="fill:#263238"></path><path d="M382.92,386.1c-4.95.07-4.86,7.75.09,7.69S387.87,386,382.92,386.1Z" style="fill:#fff"></path><path d="M426.23,365.19c-2.24-1.83-5,0-6.39,1.94a23.12,23.12,0,0,0-3.9,11.31.12.12,0,0,0,.14.12.54.54,0,0,0,.8.35c3.11-2.2,6.72-4.17,9.06-7.26C427.32,369.85,428.36,366.92,426.23,365.19Zm-5.31,9.42c-1.51,1.12-3.06,2.15-4.52,3.33a66.8,66.8,0,0,1,2.42-6.55,23.69,23.69,0,0,1,1.58-3c.94-1.46,5.23-5.19,5.71-.4C426.38,370.64,422.71,373.27,420.92,374.61Z" style="fill:#263238"></path><path d="M405,380.17c3.84.56,7.79-.57,11.55-1.19a.55.55,0,0,0,.33-.81.12.12,0,0,0,0-.19,23.06,23.06,0,0,0-10.71-5.31c-2.33-.43-5.6.23-5.92,3.1S402.77,379.85,405,380.17Zm-2.68-2.48c-3-3.75,2.65-4.11,4.35-3.73a25.63,25.63,0,0,1,3.22,1c2.2.82,4.23,1.94,6.33,3-1.87.19-3.71.54-5.56.8C408.45,379.06,404,379.76,402.33,377.69Z" style="fill:#263238"></path><path d="M447.5,398.32c-2.28.79-67.95,1.42-70.47-.14-.95-.59-2.24-10.15-2.69-21.73L413.6,376l34.87,20C448.53,397.17,448.25,398.06,447.5,398.32Z" style="opacity:0.2"></path><path d="M435.6,398.32c-2.29.79-68,1.42-70.47-.14-1-.59-2.24-10.15-2.7-21.73l43-.51s25.24,11,27.82,13S437.88,397.53,435.6,398.32Z" style="fill:#FFC100"></path><path d="M434.63,395.71c-11-.17-55.43.2-66.33.88-.08,0-.08.06,0,.06,10.91.41,55.33-.32,66.33-.76C434.86,395.88,434.86,395.71,434.63,395.71Z" style="fill:#263238"></path><path d="M429,386.63a8.85,8.85,0,0,0-6.56,2.75,8.58,8.58,0,0,0-2.4,5.9c0,.06.12.07.13,0a10.2,10.2,0,0,1,8.83-8.51A.07.07,0,0,0,429,386.63Z" style="fill:#263238"></path><path d="M409.68,377c-4.41,0-9.5,1.59-12.2,5.22-.11.14.09.28.22.22a61,61,0,0,1,12.06-4.9A.28.28,0,0,0,409.68,377Z" style="fill:#263238"></path><path d="M413.09,378.29c-4.41,0-9.5,1.58-12.2,5.21-.11.14.1.29.23.22a60.64,60.64,0,0,1,12.05-4.89A.28.28,0,0,0,413.09,378.29Z" style="fill:#263238"></path><path d="M416.5,379.58c-4.4,0-9.49,1.58-12.2,5.21-.1.14.1.29.23.22a61.09,61.09,0,0,1,12.06-4.89A.28.28,0,0,0,416.5,379.58Z" style="fill:#263238"></path><path d="M419.92,380.87c-4.41,0-9.5,1.59-12.2,5.22-.11.14.09.28.22.22A61,61,0,0,1,420,381.42.28.28,0,0,0,419.92,380.87Z" style="fill:#263238"></path><path d="M371,386.1c-4.94.07-4.86,7.75.09,7.69S376,386,371,386.1Z" style="fill:#fff"></path><path d="M414.33,365.19c-2.25-1.83-5,0-6.4,1.94a23.12,23.12,0,0,0-3.9,11.31.12.12,0,0,0,.14.12.55.55,0,0,0,.8.35c3.11-2.2,6.72-4.17,9.07-7.26C415.41,369.85,416.45,366.92,414.33,365.19ZM409,374.61c-1.51,1.12-3.06,2.15-4.52,3.33a66.8,66.8,0,0,1,2.42-6.55,23.69,23.69,0,0,1,1.58-3c.94-1.46,5.23-5.19,5.72-.4C414.47,370.64,410.81,373.27,409,374.61Z" style="fill:#263238"></path><path d="M393.1,380.17c3.85.56,7.79-.57,11.56-1.19a.54.54,0,0,0,.32-.81.12.12,0,0,0,0-.19,23.06,23.06,0,0,0-10.71-5.31c-2.32-.43-5.6.23-5.92,3.1S390.86,379.85,393.1,380.17Zm-2.68-2.48c-3-3.75,2.65-4.11,4.35-3.73a25.63,25.63,0,0,1,3.22,1,68.85,68.85,0,0,1,6.33,3c-1.87.19-3.7.54-5.56.8C396.54,379.06,392.08,379.76,390.42,377.69Z" style="fill:#263238"></path></g><g id="freepik--Floor--inject-36"><polygon points="27.88 407.49 83.41 407.25 138.94 407.16 250 406.99 361.06 407.16 416.59 407.25 472.12 407.49 416.59 407.74 361.06 407.82 250 407.99 138.94 407.82 83.41 407.74 27.88 407.49" style="fill:#263238"></polygon></g><g id="freepik--Plant--inject-36"><path d="M75.72,248.13S98.1,245,92.87,218C92.87,218,67.86,223.59,75.72,248.13Z" style="fill:#FFC100"></path><path d="M75.72,248.13S98.1,245,92.87,218C92.87,218,67.86,223.59,75.72,248.13Z" style="opacity:0.1"></path><path d="M76.85,242.49c.44-1.37,1-2.71,1.52-4,0-.17,0-.34.06-.51l.09-1.11c.07-.81.12-1.62.16-2.42.1-1.62.2-3.23.23-4.85a.07.07,0,1,1,.13,0c0,1.62,0,3.24,0,4.85,0,.81-.08,1.62-.13,2.43,0,.17,0,.35,0,.53a48.23,48.23,0,0,1,4.49-7.67c.77-1.08,1.58-2.11,2.45-3.11s1.83-2,2.73-3c.06-.07.16,0,.1.1a40.18,40.18,0,0,0-4.32,5.73c-.68,1-1.32,2.09-1.93,3.16l.21-.08.8-.32c.6-.23,1.21-.47,1.82-.69l3.6-1.34c.08,0,.13.1,0,.12-1.19.48-2.36,1-3.54,1.49l-1.73.74-.88.37a3.16,3.16,0,0,1-.59.2c-.45.82-.9,1.63-1.31,2.46A58,58,0,0,0,78.06,242c0,.15-.1.31-.16.46a12.38,12.38,0,0,1,1.84-.88l2.31-1.06c1.57-.72,3.13-1.45,4.64-2.3.07,0,.14.08.06.12-1.54.84-3,1.73-4.58,2.57-.77.42-1.55.82-2.34,1.21a7.22,7.22,0,0,1-2.1.84,26.52,26.52,0,0,0-1.47,6.35c-.25,3-.22,6.13-.29,9.2,0,.05-.08.05-.08,0-.22-2.77-.35-5.58-.36-8.37A24.23,24.23,0,0,1,76.85,242.49Z" style="fill:#263238"></path><path d="M80.29,226.6a26.15,26.15,0,0,1,.23,4.76,0,0,0,1,1-.07,0c-.09-1.58-.1-3.15-.29-4.73C80.15,226.55,80.29,226.51,80.29,226.6Z" style="fill:#263238"></path><path d="M86.7,228a17,17,0,0,0,2.87-1.41.07.07,0,1,1,.07.12,11.13,11.13,0,0,1-2.91,1.39A.05.05,0,0,1,86.7,228Z" style="fill:#263238"></path><path d="M75,291c0-2.47.07-4.94.1-7.42,0-8.21.11-16.43.26-24.64q.17-9.78.45-19.56a.11.11,0,0,1,.06-.09l0-5.34s0-.07.1-.07.11,0,.11.07c0,1.79,0,3.57,0,5.35,0,0,0,0,0,.08.33,11.61.62,23.22.69,34.83,0,2.36,0,4.72,0,7.08Q77,292.67,77,304c0,1.21,0,2.41,0,3.62,0,6.92-.07,13.85-.07,20.77,0,.38-.41.56-.85.58s-1-.18-1-.61c0-7.63,0-15.27,0-22.91Q75,298.26,75,291Z" style="fill:#263238"></path><path d="M84.35,283.52s10.77-8,21-2.59,11.82,26.17,11.82,26.17-15,2.15-24.46-6.85C83.6,291.58,84.35,283.52,84.35,283.52Z" style="fill:#FFC100"></path><path d="M81.42,284a12.79,12.79,0,0,1,6.23-.81,8.43,8.43,0,0,1,1.32-.13l1.52-.12,3.14-.22c2.12-.16,4.25-.29,6.37-.5.08,0,.1.13,0,.14-2.1.26-4.19.56-6.29.77-1.08.11-2.17.23-3.25.3l-.79.08,1,.24a25.35,25.35,0,0,1,4.88,2c.84.15,1.69.39,2.52.58,1.33.32,2.66.66,4,1,2.62.68,5.2,1.45,7.8,2.21.08,0,0,.15,0,.13-2.59-.64-5.2-1.22-7.8-1.84-1.26-.3-2.53-.59-3.79-.9l-1-.23a31.51,31.51,0,0,1,7.66,6.65,41.75,41.75,0,0,1,5.32,8.39c0,.08-.07.15-.12.07a40.71,40.71,0,0,0-6.43-8.44c0,.14.09.28.14.43.2.63.39,1.26.59,1.9.4,1.27.81,2.53,1.18,3.81,0,.08-.1.11-.13,0-.45-1.23-.88-2.47-1.32-3.7l-.63-1.82c-.12-.31-.22-.63-.33-.95l-.1-.28a38,38,0,0,0-3.82-3.26,29.75,29.75,0,0,0-5.72-3.28c0,.19.08.38.11.56.11.49.22,1,.32,1.47.21,1,.41,2,.61,3.06.4,2.09.65,4.2,1,6.28a.07.07,0,0,1-.14,0c-.48-2.09-1.1-4.15-1.57-6.26-.23-1.05-.47-2.1-.69-3.15l-.3-1.48c0-.27-.12-.54-.15-.82l-.58-.24a16.94,16.94,0,0,0-9-1.23,8.81,8.81,0,0,0-6.48,5.19c-.1.24-.47.09-.42-.15A8.36,8.36,0,0,1,81.42,284Z" style="fill:#263238"></path><path d="M97.9,292.88c.3,1.37.61,2.73.91,4.1a30,30,0,0,1,.75,4c0,.05-.07.05-.09,0a30.6,30.6,0,0,1-.91-4c-.27-1.35-.53-2.7-.79-4C97.75,292.83,97.88,292.8,97.9,292.88Z" style="fill:#263238"></path><path d="M108.31,296.35c1.37.7,2.7,1.49,4.13,2.06a.07.07,0,1,1,0,.12,42.05,42.05,0,0,1-4.11-2.13S108.28,296.33,108.31,296.35Z" style="fill:#263238"></path><path d="M81.93,268.87s13.16.84,19.28-7.84S106,240,106,240s-13.82,1.68-19.31,7.91S81.93,268.87,81.93,268.87Z" style="fill:#FFC100"></path><path d="M75.75,281.85c.46-1.41,1-2.8,1.56-4.18s1-2.64,1.63-3.94a83,83,0,0,1,4-7.75c.93-1.6,1.92-3.16,3-4.69,0-.23.06-.46.1-.7l.18-1.22c.13-.83.28-1.66.42-2.49.3-1.82.68-3.63,1-5.45,0-.08.15-.08.14,0-.26,1.79-.45,3.6-.7,5.4-.12.88-.24,1.76-.37,2.64l-.15,1A92.92,92.92,0,0,1,92.93,252c.31-.37.64-.72,1-1.08,0-.1.08-.2.12-.3.1-.25.2-.5.29-.75l.57-1.57c.37-1,.7-2.07,1-3.13,0-.09.15,0,.13,0-.27,1.08-.55,2.16-.86,3.22q-.23.78-.51,1.53l-.09.26c1.68-1.84,3.44-3.6,5.21-5.35.06-.06.16,0,.09.1a95.54,95.54,0,0,0-9.32,11.42c.32-.1.65-.18,1-.25,1-.19,2-.34,3.06-.47,2.15-.27,4.28-.54,6.42-.88a.07.07,0,0,1,0,.14c-2,.4-4.06.86-6.08,1.32-1,.22-1.92.41-2.88.6a18.45,18.45,0,0,0-2.31.66c-.21.3-.43.6-.64.91-1,1.4-1.89,2.84-2.8,4.28l1.34-.26c1-.2,2-.38,3.06-.55,2-.33,4-.68,6-1.13a.07.07,0,0,1,0,.13c-2,.47-4,1-6,1.56-1,.25-1.94.49-2.91.7l-1.46.32a3.41,3.41,0,0,1-.6.1q-2.88,4.68-5.39,9.57c-.74,1.43-1.44,2.87-2.13,4.33s-1.3,3-1.95,4.54C76.13,282.31,75.65,282.18,75.75,281.85Z" style="fill:#263238"></path><path d="M89.22,251.61c.25-1.26.52-2.51.8-3.76,0-.08.14,0,.13,0-.25,1.23-.49,2.47-.71,3.71a35.28,35.28,0,0,1-.75,3.68s0,0,0,0A26.67,26.67,0,0,1,89.22,251.61Z" style="fill:#263238"></path><path d="M96.9,251.24c.61-.3,1.25-.55,1.89-.79l1-.39.51-.21a2.09,2.09,0,0,0,.55-.24c.1-.08.17.1.07.11a2.83,2.83,0,0,0-.57.23l-.49.23-1,.43a17,17,0,0,1-1.94.76C96.87,251.4,96.83,251.28,96.9,251.24Z" style="fill:#263238"></path><path d="M68.46,258.52s-8-14.88-20.08-17.18S28.85,251.5,28.85,251.5s8.83,11.29,19.95,13.26S68.46,258.52,68.46,258.52Z" style="fill:#FFC100"></path><path d="M40.26,248a32.88,32.88,0,0,1,9.5.11l-.54-.29-2.69-1.38c-1.86-1-3.74-2-5.69-2.78a.07.07,0,1,1,.06-.13c1.89.89,3.86,1.63,5.76,2.5,1,.44,1.89.89,2.81,1.38.6.32,1.26.62,1.85,1A33.49,33.49,0,0,1,59,251l-1.51-1.65A50.28,50.28,0,0,0,54,245.67c-.06-.06,0-.16.1-.1,1.27,1.16,2.61,2.22,3.84,3.42.6.58,1.17,1.18,1.72,1.8.28.31.56.63.82,1a31.95,31.95,0,0,1,16.25,21.93c0,.09-.11.13-.13.05a36.63,36.63,0,0,0-8.91-15.07,35,35,0,0,0-16.23-9.4,35.52,35.52,0,0,0-11.2-1A.12.12,0,0,1,40.26,248Z" style="fill:#263238"></path><path d="M28.84,251.5s8.84,11.29,20,13.26c8.48,1.5,15.45-2.92,18.29-5.1l.61-1S62,253.82,51.12,251,28.84,251.5,28.84,251.5Z" style="opacity:0.1"></path><path d="M47.3,242.7A29.79,29.79,0,0,1,50,244.48a17.5,17.5,0,0,1,2.33,2.14c.07.07,0,.16-.1.1-.8-.7-1.61-1.4-2.45-2.06a24.26,24.26,0,0,0-2.55-1.84C47.15,242.77,47.22,242.66,47.3,242.7Z" style="fill:#263238"></path><path d="M40.65,245.22l1.35.54,1.35.56c.1,0,0,.19-.05.15L42,245.93l-1.34-.58C40.53,245.32,40.57,245.19,40.65,245.22Z" style="fill:#263238"></path><path d="M70.05,277.24S67.92,292,56.82,297.16s-24.62,0-24.62,0S37.52,265.23,70.05,277.24Z" style="fill:#FFC100"></path><path d="M39.84,287.56c1-.11,2-.29,3.06-.47l1.49-.28.78-.16c.3-.28.59-.56.9-.83a45.42,45.42,0,0,1,6.78-4.92,38.12,38.12,0,0,1,4.07-2.09h-.21l-3.65.16c-2.44.11-4.87.16-7.3.32-.09,0-.09-.13,0-.14,2.44-.16,4.87-.43,7.31-.64l3.55-.32,1.83-.16.47-.05c.63-.23,1.27-.46,1.91-.66a17.29,17.29,0,0,1,9.4-.51c2.79.71,5.58,2.54,6.3,5.48,0,.11-.13.18-.17.07-1-2.46-3.77-3.69-6.24-4.21a14.85,14.85,0,0,0-5-.09,12.77,12.77,0,0,1-.56,2.23c-.31,1-.61,2.08-.93,3.11-.63,2.07-1.32,4.13-1.93,6.2a.07.07,0,0,1-.14,0c.52-2.07,1-4.16,1.45-6.23.25-1,.51-2,.76-3a16.76,16.76,0,0,1,.56-2.1,25.13,25.13,0,0,0-2.88.68,41.5,41.5,0,0,0-5,1.84c-.16,1.05-.4,2.09-.64,3.13-.3,1.3-.64,2.59-1,3.87a.07.07,0,0,1-.13,0c0-.08,0-.16.05-.24h0c.25-1.21.52-2.41.77-3.62.21-1,.4-1.95.61-2.92-1.38.62-2.74,1.3-4,2.05,0,.3-.1.61-.14.88-.08.51-.17,1-.27,1.52-.2,1.14-.43,2.27-.7,3.39a54.46,54.46,0,0,1-1.91,6.42.1.1,0,0,1,0,.09l-.07.07c0,.06-.12,0-.11-.07.51-2.18,1.1-4.35,1.58-6.55.24-1.09.48-2.19.7-3.29.11-.55.21-1.1.32-1.65,0-.16,0-.33.07-.5a48.49,48.49,0,0,0-4.32,2.89,47.22,47.22,0,0,0-6.61,6c-.08.09-.24,0-.16-.13A38.59,38.59,0,0,1,43,288.82c.56-.6,1.14-1.18,1.73-1.75l-.19,0-1.56.23c-1,.14-2.05.24-3.08.36C39.79,287.71,39.76,287.57,39.84,287.56Z" style="fill:#263238"></path><path d="M47.64,292.57h0c0-.13,0-.26.07-.39s.11-.32.13-.48h0c.23-1,.43-2,.6-3,0-.07.13-.05.12,0a11.86,11.86,0,0,1-.84,3.85s-.08,0-.08,0Z" style="fill:#263238"></path><path d="M56.93,292.33a.07.07,0,0,1,.07-.06c.31-1.31.61-2.62.88-3.93l.42-2.08c.07-.37.14-.75.2-1.12a3.47,3.47,0,0,1,.24-1,.07.07,0,0,1,.13,0,6.72,6.72,0,0,1-.28,2c-.14.72-.28,1.44-.44,2.16-.32,1.45-.68,2.9-1.09,4.34a.08.08,0,0,1-.15,0C56.92,292.54,56.92,292.44,56.93,292.33Z" style="fill:#263238"></path><path d="M40.86,283.31c2-.27,4-.57,6.08-.81.08,0,.12.12,0,.13-2,.3-4,.55-6.08.82C40.8,283.46,40.77,283.32,40.86,283.31Z" style="fill:#263238"></path><path d="M75.73,242.63s6.79-29.79-25.21-41.84C50.52,200.79,41.65,240,75.73,242.63Z" style="fill:#FFC100"></path><path d="M68.82,225.74l-.34-.21c-.6-.33-1.2-.68-1.81-1L63,222.44c-2.44-1.37-4.85-2.79-7.31-4.12a.07.07,0,0,1,.07-.12c2.46,1.34,5,2.59,7.45,3.9L66.84,224l1.5.8c-1.07-2-2.21-4-3.47-5.93-1.67-2.55-3.5-5-5.41-7.36a.11.11,0,0,1,.16-.15,51,51,0,0,1,7.4,9.08c0-.11,0-.22,0-.32,0-.74-.06-1.48-.07-2.22,0-1.45,0-2.91,0-4.36,0-.09.13-.09.13,0,.06,1.43.24,2.86.32,4.29,0,.71.07,1.43.09,2.14,0,.39.05.83,0,1.25.66,1.05,1.3,2.11,1.89,3.19a56,56,0,0,1,2.87,6q0-1.11.12-2.22c.09-1.63.29-3.26.36-4.89,0-.09.14-.08.14,0,0,1.64,0,3.27,0,4.9,0,.82,0,1.63-.11,2.44,0,.3,0,.61,0,.91a53.56,53.56,0,0,1,2.41,8.19,87.61,87.61,0,0,1,1.2,9s0,0,0,0a48,48,0,0,0-1.7-8c-.39-1.4-.81-2.8-1.26-4.19-1.33-.63-2.61-1.41-3.89-2.12l-4-2.2c-2.67-1.46-5.34-3-8.09-4.25-.08,0,0-.15.07-.11,2.79,1.26,5.6,2.46,8.34,3.84,1.37.68,2.71,1.42,4,2.17,1.11.62,2.25,1.25,3.31,2-.31-.93-.63-1.85-1-2.76A78.28,78.28,0,0,0,68.82,225.74Z" style="fill:#263238"></path><path d="M71.52,218.93c0-.09.15-.09.14,0-.12,1.7-.17,3.4-.35,5.09,0,.1-.16.1-.15,0C71.22,222.32,71.4,220.63,71.52,218.93Z" style="fill:#263238"></path><path d="M56.18,224.62c2,.8,4,1.57,6,2.4.06,0,0,.12,0,.09-2-.75-4-1.58-6-2.36C56.06,224.71,56.1,224.58,56.18,224.62Z" style="fill:#263238"></path><path d="M53.14,210.88a52.77,52.77,0,0,1,5.69,3.05.08.08,0,0,1-.09.14C56.88,213,55,212,53.06,211,53,211,53.06,210.84,53.14,210.88Z" style="fill:#263238"></path><rect x="53.62" y="307.05" width="46.16" height="48.66" transform="translate(153.4 662.76) rotate(180)" style="fill:#37474f"></rect><rect x="100.59" y="324.27" width="2.36" height="83.34" style="fill:#263238"></rect><rect x="50.69" y="324.27" width="2.36" height="83.34" style="fill:#263238"></rect><rect x="74.39" y="324.27" width="2.36" height="83.34" style="fill:#263238"></rect><rect x="51.87" y="352.59" width="49.9" height="6.74" transform="translate(153.65 711.92) rotate(180)" style="fill:#263238"></rect></g><g id="freepik--Shoes--inject-36"><path d="M407.92,452.05c-2.34.65-68.1-2.75-70.52-4.46-1.12-.79-1-14.81-.52-29.58l42.78,2.08-.6,7.71s24.6,12.56,27.06,14.72S410.25,451.4,407.92,452.05Z" style="fill:#FFC100"></path><path d="M407.11,449.37c-11-.84-55.49-3.19-66.44-3.18-.08,0-.09.06,0,.07,10.89,1.07,55.39,3.05,66.43,3.29C407.33,449.55,407.34,449.39,407.11,449.37Z" style="fill:#263238"></path><path d="M380.74,425.43c-4.29-1-9.63-.65-13.11,2.27-.13.12,0,.31.18.27a60.92,60.92,0,0,1,12.89-2A.27.27,0,0,0,380.74,425.43Z" style="fill:#263238"></path><path d="M383.78,427.48c-4.3-1-9.64-.65-13.11,2.27-.14.12,0,.31.17.27a61,61,0,0,1,12.89-2A.27.27,0,0,0,383.78,427.48Z" style="fill:#263238"></path><path d="M386.81,429.52c-4.3-1-9.63-.64-13.11,2.28-.13.11,0,.3.17.27a61,61,0,0,1,12.89-2A.28.28,0,0,0,386.81,429.52Z" style="fill:#263238"></path><path d="M389.84,431.57c-4.29-1-9.63-.64-13.11,2.28-.13.11,0,.3.18.27a60.92,60.92,0,0,1,12.89-2A.28.28,0,0,0,389.84,431.57Z" style="fill:#263238"></path><path d="M389.27,415.81c-1.58-2.44-4.81-1.54-6.7-.12a23.24,23.24,0,0,0-7.19,9.59.12.12,0,0,0,.09.17.54.54,0,0,0,.66.57c3.64-1.14,7.69-1.91,10.88-4.13C388.87,420.59,390.77,418.11,389.27,415.81Zm-8,7.35c-1.79.61-3.59,1.12-5.35,1.79a69.44,69.44,0,0,1,4.33-5.51,24.62,24.62,0,0,1,2.43-2.36c1.35-1.11,6.58-3.35,5.57,1.37C387.74,421.06,383.43,422.44,381.31,423.16Z" style="fill:#263238"></path><path d="M364.41,423.58c3.5,1.71,7.61,1.85,11.4,2.41a.53.53,0,0,0,.55-.67c.07,0,.12-.09.07-.17a23.15,23.15,0,0,0-8.59-8.37c-2.08-1.12-5.41-1.5-6.6,1.15C360.12,420.43,362.37,422.59,364.41,423.58Zm-1.8-3.19c-1.72-4.51,3.8-3.11,5.3-2.22a25.63,25.63,0,0,1,2.77,2c1.84,1.46,3.44,3.15,5.12,4.78-1.84-.4-3.7-.63-5.55-1C368,423.58,363.57,422.87,362.61,420.39Z" style="fill:#263238"></path><path d="M256.35,462.32c2.33.65,68.09-2.75,70.51-4.46,1.13-.79,1-14.81.53-29.59l-42.78,2.09.59,7.71s-24.59,12.56-27.05,14.72S254,461.67,256.35,462.32Z" style="fill:#FFC100"></path><path d="M257.15,459.64c11-.84,55.49-3.19,66.44-3.18.09,0,.09.06,0,.07-10.89,1.07-55.39,3.05-66.43,3.29C256.93,459.82,256.92,459.66,257.15,459.64Z" style="fill:#263238"></path><path d="M283.52,435.7c4.29-1,9.63-.65,13.11,2.27.13.12,0,.31-.17.27a61,61,0,0,0-12.9-2A.27.27,0,0,1,283.52,435.7Z" style="fill:#263238"></path><path d="M280.49,437.74c4.29-1,9.63-.64,13.1,2.28.14.12,0,.3-.17.27a61,61,0,0,0-12.89-2A.28.28,0,0,1,280.49,437.74Z" style="fill:#263238"></path><path d="M277.45,439.79c4.3-1,9.64-.64,13.11,2.28.14.11,0,.3-.17.27a61,61,0,0,0-12.89-2A.28.28,0,0,1,277.45,439.79Z" style="fill:#263238"></path><path d="M274.42,441.84c4.29-1,9.63-.64,13.11,2.28.13.11,0,.3-.17.26a61.65,61.65,0,0,0-12.9-2A.28.28,0,0,1,274.42,441.84Z" style="fill:#263238"></path><path d="M277.25,432.16c3.19,2.22,7.24,3,10.89,4.13.38.12.65-.24.65-.57a.12.12,0,0,0,.09-.17,23.15,23.15,0,0,0-7.19-9.59c-1.89-1.42-5.12-2.32-6.7.12S275.39,430.86,277.25,432.16ZM276,428.72c-1-4.72,4.23-2.48,5.58-1.37a24.51,24.51,0,0,1,2.42,2.36,69.44,69.44,0,0,1,4.33,5.51c-1.76-.67-3.56-1.18-5.34-1.79C280.83,432.71,276.53,431.33,276,428.72Z" style="fill:#263238"></path><path d="M303,428.2c-1.19-2.65-4.51-2.27-6.6-1.15a23.22,23.22,0,0,0-8.59,8.37.12.12,0,0,0,.07.17c0,.33.17.73.56.67,3.78-.56,7.89-.7,11.39-2.41C301.89,432.86,304.15,430.7,303,428.2Zm-9,6c-1.86.32-3.71.55-5.56.95a68.25,68.25,0,0,1,5.13-4.78,24.19,24.19,0,0,1,2.76-2c1.5-.89,7-2.29,5.3,2.22C300.7,433.14,296.23,433.85,294,434.23Z" style="fill:#263238"></path></g><g id="freepik--Character--inject-36"><path d="M223.58,460.65c-2.31.75-68.29-.11-70.78-1.74-1-.6-1.51-64.86-1.51-64.86l44.14.44-1.67,43s25.11,11.62,27.66,13.7S225.9,459.91,223.58,460.65Z" style="fill:#d3766a"></path><path d="M203.76,442c-.17-.05-.27-.1-.28-.15Z" style="fill:#FFC100"></path><path d="M223.58,460.65c-2.31.75-68.29-.11-70.78-1.74-.39-.24-.71-11-1-23.69h42l-.09,2.26s25.11,11.62,27.66,13.7S225.9,459.91,223.58,460.65Z" style="fill:#FFC100"></path><path d="M153.08,435.68a3.82,3.82,0,0,1,0,2.72,3.82,3.82,0,0,1,0-2.72Z" style="fill:#263238"></path><path d="M155.16,435.68a3.82,3.82,0,0,1,0,2.72,3.82,3.82,0,0,1,0-2.72Z" style="fill:#263238"></path><path d="M157.25,435.68a3.82,3.82,0,0,1,0,2.72A3.48,3.48,0,0,1,157,437,3.63,3.63,0,0,1,157.25,435.68Z" style="fill:#263238"></path><path d="M159.34,435.68a3.82,3.82,0,0,1,0,2.72,3.82,3.82,0,0,1,0-2.72Z" style="fill:#263238"></path><path d="M161.43,435.68a3.62,3.62,0,0,1,.24,1.36,3.46,3.46,0,0,1-.24,1.36,3.3,3.3,0,0,1-.25-1.36A3.44,3.44,0,0,1,161.43,435.68Z" style="fill:#263238"></path><path d="M163.51,435.68a3.82,3.82,0,0,1,0,2.72,3.82,3.82,0,0,1,0-2.72Z" style="fill:#263238"></path><path d="M165.6,435.68a3.63,3.63,0,0,1,.25,1.36,3.48,3.48,0,0,1-.25,1.36,3.82,3.82,0,0,1,0-2.72Z" style="fill:#263238"></path><path d="M167.69,435.68a3.82,3.82,0,0,1,0,2.72,3.82,3.82,0,0,1,0-2.72Z" style="fill:#263238"></path><path d="M169.77,435.68a3.82,3.82,0,0,1,0,2.72,3.82,3.82,0,0,1,0-2.72Z" style="fill:#263238"></path><path d="M171.86,435.68a3.82,3.82,0,0,1,0,2.72,3.48,3.48,0,0,1-.25-1.36A3.63,3.63,0,0,1,171.86,435.68Z" style="fill:#263238"></path><path d="M174,435.68a3.82,3.82,0,0,1,0,2.72,3.82,3.82,0,0,1,0-2.72Z" style="fill:#263238"></path><path d="M176,435.68a3.44,3.44,0,0,1,.25,1.36,3.3,3.3,0,0,1-.25,1.36,3.46,3.46,0,0,1-.24-1.36A3.62,3.62,0,0,1,176,435.68Z" style="fill:#263238"></path><path d="M178.12,435.68a3.82,3.82,0,0,1,0,2.72,3.82,3.82,0,0,1,0-2.72Z" style="fill:#263238"></path><path d="M180.21,435.68a3.63,3.63,0,0,1,.25,1.36,3.48,3.48,0,0,1-.25,1.36,3.82,3.82,0,0,1,0-2.72Z" style="fill:#263238"></path><path d="M182.3,435.68a3.82,3.82,0,0,1,0,2.72,3.82,3.82,0,0,1,0-2.72Z" style="fill:#263238"></path><path d="M184.38,435.68a3.82,3.82,0,0,1,0,2.72,3.82,3.82,0,0,1,0-2.72Z" style="fill:#263238"></path><path d="M186.47,435.68a3.82,3.82,0,0,1,0,2.72,3.48,3.48,0,0,1-.25-1.36A3.63,3.63,0,0,1,186.47,435.68Z" style="fill:#263238"></path><path d="M188.56,435.68a3.82,3.82,0,0,1,0,2.72,3.82,3.82,0,0,1,0-2.72Z" style="fill:#263238"></path><path d="M190.64,435.68a3.44,3.44,0,0,1,.25,1.36,3.3,3.3,0,0,1-.25,1.36,3.46,3.46,0,0,1-.24-1.36A3.62,3.62,0,0,1,190.64,435.68Z" style="fill:#263238"></path><path d="M192.73,435.68a3.82,3.82,0,0,1,0,2.72,3.82,3.82,0,0,1,0-2.72Z" style="fill:#263238"></path><path d="M184.44,460.59c-15.74-.34-30.49-.93-31.64-1.68-.36-.22-.66-9.31-.9-20.63Z" style="opacity:0.1"></path><path d="M215.52,448.22a16.32,16.32,0,0,0-9.87,4.08,11.93,11.93,0,0,0-2.88,4.08,10.18,10.18,0,0,0-.65,2.23c-.07.46-.34,1.41.17,1.72.06,0,.14,0,.12-.09a2.2,2.2,0,0,1,.18-1.2c.12-.37.26-.74.41-1.1a12.56,12.56,0,0,1,1-1.88,13.65,13.65,0,0,1,3-3.36,26.47,26.47,0,0,1,8.57-4.3A.09.09,0,0,0,215.52,448.22Z" style="fill:#263238"></path><path d="M163.11,449.46a14.06,14.06,0,0,0-5-2.83,13.82,13.82,0,0,0-2.71-.61,9.72,9.72,0,0,0-2.9,0,.08.08,0,0,0,0,.16c.88.16,1.76.2,2.64.42a17.77,17.77,0,0,1,2.65.85,16.22,16.22,0,0,1,4.49,2.85,15.69,15.69,0,0,1,5.08,9.07c0,.23.4.24.38,0A14.54,14.54,0,0,0,163.11,449.46Z" style="fill:#263238"></path><path d="M137.75,204s9.91,111.49,11.52,120c.37,1.94.61,12.48.76,26,.34,29.56.14,82.86.14,82.86h46.51s-1.38-92.35-3.44-109.35S178,204,178,204Z" style="fill:#455a64"></path><path d="M194.58,424.76c-7.26-.15-5.18-.21-12.44-.28-3.55,0-26.89-.24-30.21.31-.07,0-.07.14,0,.15,3.32.55,26.66.35,30.21.31,7.26-.07,5.18-.13,12.44-.28A.11.11,0,0,0,194.58,424.76Z" style="fill:#263238"></path><path d="M159,372l-.15-20.24c0-6.53,0-13.07-.35-19.6-.63-13.21-3.31-26.21-5.21-39.28s-3.5-26.19-4.94-39.33c-1.62-14.73-3-29.49-4.56-44.24,0-.09-.17-.09-.16,0,2.19,26.33,4.64,52.65,8.28,78.82q1.36,9.76,3,19.49c1.08,6.57,2.16,13.14,2.68,19.77s.59,13,.65,19.53q.1,10.13.2,20.23c.15,15,.29,38,.44,53a.23.23,0,0,0,.45,0C159.21,406.75,159.11,385.32,159,372Z" style="fill:#263238"></path><path d="M127.94,204s19.72,111.49,21.33,120c.37,1.94.61,12.48.76,26v0L172.2,204Z" style="fill:#263238"></path><path d="M167.9,468.06c-2.38.53-68-6.5-70.31-8.35-.9-.69,4.57-64.73,4.57-64.73l43.9,4.57-5.69,42.65s23.91,13.92,26.26,16.23S170.27,467.54,167.9,468.06Z" style="fill:#d3766a"></path><path d="M149.91,447.63c-.17-.07-.26-.12-.26-.18Z" style="fill:#FFC100"></path><path d="M167.9,468.06c-2.37.53-68-6.5-70.31-8.35-.37-.28.32-11,1.26-23.68L140.67,440l-.3,2.24s23.92,13.92,26.26,16.23S170.27,467.54,167.9,468.06Z" style="fill:#FFC100"></path><path d="M100,436.6a3.63,3.63,0,0,1,.12,1.38,3.42,3.42,0,0,1-.38,1.33,3.62,3.62,0,0,1-.12-1.38A3.47,3.47,0,0,1,100,436.6Z" style="fill:#263238"></path><path d="M102.12,436.8a3.62,3.62,0,0,1,.12,1.38,3.38,3.38,0,0,1-.38,1.32,3.57,3.57,0,0,1-.12-1.37A3.42,3.42,0,0,1,102.12,436.8Z" style="fill:#263238"></path><path d="M104.19,437a3.86,3.86,0,0,1-.25,2.7,3.43,3.43,0,0,1-.12-1.38A3.54,3.54,0,0,1,104.19,437Z" style="fill:#263238"></path><path d="M106.27,437.19a3.43,3.43,0,0,1,.12,1.38,3.54,3.54,0,0,1-.37,1.32,3.21,3.21,0,0,1-.12-1.37A3.41,3.41,0,0,1,106.27,437.19Z" style="fill:#263238"></path><path d="M108.35,437.39a3.86,3.86,0,0,1-.25,2.7,3.44,3.44,0,0,1-.13-1.38A3.56,3.56,0,0,1,108.35,437.39Z" style="fill:#263238"></path><path d="M110.43,437.58a3.63,3.63,0,0,1,.12,1.38,3.47,3.47,0,0,1-.38,1.33,3.63,3.63,0,0,1-.12-1.38A3.42,3.42,0,0,1,110.43,437.58Z" style="fill:#263238"></path><path d="M112.51,437.78a3.58,3.58,0,0,1,.12,1.37,3.42,3.42,0,0,1-.38,1.33,3.58,3.58,0,0,1-.12-1.37A3.42,3.42,0,0,1,112.51,437.78Z" style="fill:#263238"></path><path d="M114.58,438a3.88,3.88,0,0,1-.25,2.71,3.44,3.44,0,0,1-.12-1.38A3.59,3.59,0,0,1,114.58,438Z" style="fill:#263238"></path><path d="M116.66,438.17a3.86,3.86,0,0,1-.25,2.7,3.23,3.23,0,0,1-.12-1.37A3.41,3.41,0,0,1,116.66,438.17Z" style="fill:#263238"></path><path d="M118.74,438.36a3.63,3.63,0,0,1,.12,1.38,3.47,3.47,0,0,1-.38,1.33,3.81,3.81,0,0,1,.26-2.71Z" style="fill:#263238"></path><path d="M120.82,438.56a3.58,3.58,0,0,1,.12,1.37,3.42,3.42,0,0,1-.38,1.33,3.58,3.58,0,0,1-.12-1.37A3.42,3.42,0,0,1,120.82,438.56Z" style="fill:#263238"></path><path d="M122.89,438.75a3.74,3.74,0,0,1-.25,2.71,3.88,3.88,0,0,1,.25-2.71Z" style="fill:#263238"></path><path d="M125,439a3.86,3.86,0,0,1-.25,2.7,3.4,3.4,0,0,1-.12-1.37A3.59,3.59,0,0,1,125,439Z" style="fill:#263238"></path><path d="M127.05,439.14a3.63,3.63,0,0,1,.12,1.38,3.59,3.59,0,0,1-.37,1.33,3.27,3.27,0,0,1-.12-1.38A3.45,3.45,0,0,1,127.05,439.14Z" style="fill:#263238"></path><path d="M129.13,439.34a3.58,3.58,0,0,1,.12,1.37,3.42,3.42,0,0,1-.38,1.33,3.79,3.79,0,0,1,.26-2.7Z" style="fill:#263238"></path><path d="M131.21,439.53a3.63,3.63,0,0,1,.12,1.38,3.42,3.42,0,0,1-.38,1.33,3.63,3.63,0,0,1-.12-1.38A3.47,3.47,0,0,1,131.21,439.53Z" style="fill:#263238"></path><path d="M133.28,439.73a3.72,3.72,0,0,1-.25,2.7,3.86,3.86,0,0,1,.25-2.7Z" style="fill:#263238"></path><path d="M135.36,439.92a3.44,3.44,0,0,1,.12,1.38,3.41,3.41,0,0,1-.37,1.33,3.44,3.44,0,0,1-.12-1.38A3.64,3.64,0,0,1,135.36,439.92Z" style="fill:#263238"></path><path d="M137.44,440.12a3.85,3.85,0,0,1-.25,2.7,3.4,3.4,0,0,1-.13-1.37A3.6,3.6,0,0,1,137.44,440.12Z" style="fill:#263238"></path><path d="M139.52,440.32a3.57,3.57,0,0,1,.12,1.37,3.42,3.42,0,0,1-.38,1.33,3.62,3.62,0,0,1-.12-1.38A3.56,3.56,0,0,1,139.52,440.32Z" style="fill:#263238"></path><path d="M161,454.93a16.34,16.34,0,0,0-10.21,3.14,12.08,12.08,0,0,0-3.25,3.79,10.54,10.54,0,0,0-.85,2.16c-.11.45-.47,1.38,0,1.73a.08.08,0,0,0,.12-.08,2.25,2.25,0,0,1,.3-1.17c.15-.36.33-.72.51-1.06a13,13,0,0,1,1.17-1.78,13.87,13.87,0,0,1,3.28-3.07,26.38,26.38,0,0,1,8.94-3.47A.1.1,0,0,0,161,454.93Z" style="fill:#263238"></path><path d="M108.74,451.26a14.16,14.16,0,0,0-4.68-3.28,13.84,13.84,0,0,0-2.64-.87,9.72,9.72,0,0,0-2.89-.27.08.08,0,0,0,0,.16c.86.24,1.73.36,2.58.66a17,17,0,0,1,2.56,1.1,16.12,16.12,0,0,1,4.21,3.26,15.72,15.72,0,0,1,4.21,9.5c0,.23.37.27.37,0A14.62,14.62,0,0,0,108.74,451.26Z" style="fill:#263238"></path><path d="M143.44,435.38l-46.47-2s12.68-102,12.92-108.24c.35-9.32,4.82-47.77,8.57-78.91,0,0-7.12-16.85,6.2-42.32h53.4s-3.58,24.23-9.71,39.6A71.75,71.75,0,0,0,156.48,249S151.16,318.38,151,327C150.57,344.15,143.44,435.38,143.44,435.38Z" style="fill:#455a64"></path><path d="M142.2,426.86c-7.24-.46-5.16-.43-12.41-.81-3.54-.18-26.86-1.37-30.19-1-.08,0-.08.14,0,.15,3.29.69,26.62,1.48,30.17,1.59,7.26.24,5.18.09,12.43.25A.11.11,0,0,0,142.2,426.86Z" style="fill:#263238"></path><path d="M170.38,242.49a87.28,87.28,0,0,0-13.9,6.47c-.17.1-.06.37.13.28,4.68-2,9.46-3.93,14-6.2A.3.3,0,0,0,170.38,242.49Z" style="fill:#263238"></path><path d="M171.87,210.36c0-.16-.3-.2-.3,0a155.28,155.28,0,0,1-.78,15.65c-.22,2.41-2.16,15.74-6.34,14.77-.7-.17-1.06-.86-1.17-1.91a16.84,16.84,0,0,1,.55-4.09c.47-2.79.84-5.59,1.08-8.41a76.16,76.16,0,0,0-.17-15.76.14.14,0,0,0-.27,0,144,144,0,0,1-1.27,21.77c-.53,3.46-2.27,8.68,1.35,9.22s6.09-8.2,6.54-10.59A80.53,80.53,0,0,0,171.87,210.36Z" style="fill:#263238"></path><path d="M164.56,241.11a21.87,21.87,0,0,0-.94,2.76,6.13,6.13,0,0,0-.39,2.27c0,.15.21.16.29.06a8.12,8.12,0,0,0,1-2.21c.32-.85.65-1.7.95-2.56A.47.47,0,0,0,164.56,241.11Z" style="fill:#263238"></path><path d="M155.29,103.76c-8.27,4-13.48,13.55-13.48,13.55s-9.4,8.17-9.63,14.25a10.66,10.66,0,0,0,4.09,9l.45-3.26s.65,4.61,6.74,8.46,15.56,4.79,20.92,4a18.44,18.44,0,0,0,8.71-3.61l-3.22,3.86a13.9,13.9,0,0,0,12.67-3.58c6.16-5.54-1.47-19.13-1.68-21.57s3.88-18.29-13.28-21.17C167.58,103.73,161,101,155.29,103.76Z" style="fill:#263238"></path><path d="M134.05,139.36a10.94,10.94,0,0,1-2.76-6,10,10,0,0,1,1.05-6.44,22.45,22.45,0,0,1,5.39-5.82c2.09-1.77,4.31-3.4,6.36-5.2.11-.1,0-.27-.16-.2a60.45,60.45,0,0,0-5.85,3.94,29.32,29.32,0,0,0-5.06,4.37,10.76,10.76,0,0,0-2.68,5.44,10.39,10.39,0,0,0,.57,5,23,23,0,0,0,3,5A.09.09,0,1,0,134.05,139.36Z" style="fill:#263238"></path><path d="M186.31,139.89c0-6.35-3.89-11.7-5.31-17.73-.77-3.26-1.06-6.67-2.46-9.75,0-.09-.18,0-.14.06,1.08,2.71,1.26,5.59,1.74,8.44a43.84,43.84,0,0,0,2.55,8.36c1.9,5,4.2,10.84,1.62,16-1.19,2.38-3.61,4.64-6.43,4.55-.11,0-.11.18,0,.17a8.5,8.5,0,0,0,6-3A10.73,10.73,0,0,0,186.31,139.89Z" style="fill:#263238"></path><path d="M186,141.51a11.11,11.11,0,0,0,.68-6.66,15.74,15.74,0,0,0-3.17-5.92c-1.57-2.05-3.28-4.06-3.84-6.64,0-.11-.18-.06-.16,0,.84,4.23,4.18,7.21,5.8,11.08,1.85,4.43.16,9.38-3.23,12.57a18.22,18.22,0,0,1-7.45,4,0,0,0,0,0,0,.08C179.39,148.9,184.09,146.18,186,141.51Z" style="fill:#263238"></path><path d="M159,154.35c6.39,8.45,23.71,32.79,36.18,32,10.67-.72,32.3-8.07,36.69-10.16,8.14-3.88-4.57-27.08-9.56-25.29-7.95,2.85-18.93,10.62-27.33,11.78-3.43.48-11-6.84-30.09-15C157.46,144.49,154.49,148.42,159,154.35Z" style="fill:#d3766a"></path><path d="M219.32,151.92c6.41-2.94,20.71-7,28.65-7.81,10.44-1,24.27,13.48,20.11,16.91-2.48,2-7.69-5.3-9.09-5.67-7-1.86-10.88,2.45-13.18,5.68a53.21,53.21,0,0,1-22,18S212.71,155,219.32,151.92Z" style="fill:#d3766a"></path><path d="M214,153.54l10.12,28.39s-22.75,7.25-32.9,5.2S165.61,164,158.83,154.87s-.59-11.42,10.92-5.76S193.62,162,194.68,162,214,153.54,214,153.54Z" style="fill:#FFC100"></path><path d="M209,156.61a29.22,29.22,0,0,0,.91,3.42c.32,1.13.62,2.27,1,3.41.65,2.17,1.36,4.33,2.09,6.48a134.06,134.06,0,0,0,4.92,12.77c0,.09.18,0,.16-.06-1.41-4.41-3-8.75-4.52-13.13-.74-2.15-1.46-4.31-2.2-6.46-.37-1.08-.76-2.15-1.12-3.22s-.64-2.22-1.1-3.25C209.08,156.51,209,156.55,209,156.61Z" style="fill:#263238"></path><path d="M257.52,171.9h-1V166c0-.34.22-.46.7-.73,1.11-.6,4-2.21,4-5.11,0-4.55-3.24-4.9-4.23-4.9-2.49,0-5,1.5-5,4.85h-1c0-4,3.11-5.85,6-5.85,2.41,0,5.23,1.55,5.23,5.9,0,3.49-3.3,5.31-4.54,6l-.19.1Z" style="fill:#263238"></path><path d="M289.34,189.13h-2.18a3.54,3.54,0,0,0-1.46-2.8c-1.66-1.28-11.62-3.62-14.12-4.52s-10.06-4.33-11.42-4.94a9.93,9.93,0,0,0-6.46,0c-1.36.61-8.92,4-11.42,4.94s-12.46,3.24-14.13,4.52a3.57,3.57,0,0,0-1.46,2.8h-2.17c-1.3-1.43-1.33-3.21,1.06-5.09s11-4.59,14-5.82,12.79-7.89,14.27-8.3a14.82,14.82,0,0,1,6.22,0c1.48.41,11.27,7.07,14.27,8.3s11.59,4,14,5.82S290.64,187.7,289.34,189.13Z" style="fill:#FFC100"></path><path d="M289.34,189.13h-2.18a3.54,3.54,0,0,0-1.46-2.8c-1.66-1.28-11.62-3.62-14.12-4.52s-10.06-4.33-11.42-4.94a9.93,9.93,0,0,0-6.46,0c-1.36.61-8.92,4-11.42,4.94s-12.46,3.24-14.13,4.52a3.57,3.57,0,0,0-1.46,2.8h-2.17c-1.3-1.43-1.33-3.21,1.06-5.09s11-4.59,14-5.82,12.79-7.89,14.27-8.3a14.82,14.82,0,0,1,6.22,0c1.48.41,11.27,7.07,14.27,8.3s11.59,4,14,5.82S290.64,187.7,289.34,189.13Z" style="opacity:0.2"></path><path d="M303.15,324.93c-.11.82-7.24,9-14.07,9-13.68,0-20.37,6.21-32.15,6.21s-18.47-6.24-32.16-6.21c-6.82,0-14-8.17-14.06-9s20.16-86.43,20.16-86.43a5.69,5.69,0,0,1-1.75-3.93c-.21-2.69,4.59-27.4,4.7-30.5s-2.63-21.71-2.33-23.16,8-3.38,8.17-2.66,1.86,20,2.79,21.78,9.52,3.11,14.48,3.11,13.54-1.35,14.48-3.11S274,179,274.19,178.25s7.86,1.21,8.17,2.66S279.93,201,280,204.07s4.92,27.81,4.71,30.5A5.73,5.73,0,0,1,283,238.5S303.25,324.1,303.15,324.93Z" style="fill:#FFC100"></path><path d="M241.6,217.05a1.28,1.28,0,0,1,0-2.56,1.28,1.28,0,0,1,0,2.56Zm0-2.31a1,1,0,1,0,1,1A1,1,0,0,0,241.6,214.74Z" style="fill:#fff"></path><path d="M240.06,237.26a1.28,1.28,0,1,1,1.28-1.28A1.28,1.28,0,0,1,240.06,237.26Zm0-2.3a1,1,0,1,0,1,1A1,1,0,0,0,240.06,235Z" style="fill:#fff"></path><path d="M230.55,235.36a1.28,1.28,0,1,1,1.28-1.27A1.27,1.27,0,0,1,230.55,235.36Zm0-2.3a1,1,0,1,0,1,1A1,1,0,0,0,230.55,233.06Z" style="fill:#fff"></path><path d="M241.21,247.57a1.28,1.28,0,1,1,1.28-1.28A1.27,1.27,0,0,1,241.21,247.57Zm0-2.31a1,1,0,1,0,1,1A1,1,0,0,0,241.21,245.26Z" style="fill:#fff"></path><path d="M230,249.15a1.28,1.28,0,1,1,1.28-1.28A1.28,1.28,0,0,1,230,249.15Zm0-2.31a1,1,0,1,0,1,1A1,1,0,0,0,230,246.84Z" style="fill:#fff"></path><path d="M242.75,226.55a1.28,1.28,0,1,1,1.28-1.28A1.28,1.28,0,0,1,242.75,226.55Zm0-2.31a1,1,0,1,0,1,1A1,1,0,0,0,242.75,224.24Z" style="fill:#fff"></path><path d="M247.11,241.92a1.28,1.28,0,1,1,0-2.56,1.28,1.28,0,0,1,0,2.56Zm0-2.31a1,1,0,1,0,1,1A1,1,0,0,0,247.11,239.61Z" style="fill:#fff"></path><path d="M256.08,256.3a1.28,1.28,0,1,1,1.28-1.28A1.28,1.28,0,0,1,256.08,256.3Zm0-2.31a1,1,0,1,0,1,1A1,1,0,0,0,256.08,254Z" style="fill:#fff"></path><path d="M275.06,261.57a1.28,1.28,0,1,1,1.28-1.28A1.28,1.28,0,0,1,275.06,261.57Zm0-2.31a1,1,0,1,0,1,1A1,1,0,0,0,275.06,259.26Z" style="fill:#fff"></path><path d="M251.1,263.07a1.28,1.28,0,1,1,1.28-1.28A1.28,1.28,0,0,1,251.1,263.07Zm0-2.31a1,1,0,0,0,0,2.06,1,1,0,0,0,0-2.06Z" style="fill:#fff"></path><path d="M237.24,273.78a1.28,1.28,0,1,1,1.28-1.28A1.28,1.28,0,0,1,237.24,273.78Zm0-2.31a1,1,0,1,0,1,1A1,1,0,0,0,237.24,271.47Z" style="fill:#fff"></path><path d="M225.36,284.42a1.28,1.28,0,1,1,1.28-1.28A1.28,1.28,0,0,1,225.36,284.42Zm0-2.31a1,1,0,1,0,1,1A1,1,0,0,0,225.36,282.11Z" style="fill:#fff"></path><path d="M244.46,289.11a1.28,1.28,0,1,1,0-2.56,1.28,1.28,0,1,1,0,2.56Zm0-2.31a1,1,0,1,0,1,1A1,1,0,0,0,244.46,286.8Z" style="fill:#fff"></path><path d="M240.06,198.24a1.28,1.28,0,1,1,1.28-1.28A1.28,1.28,0,0,1,240.06,198.24Zm0-2.31a1,1,0,1,0,1,1A1,1,0,0,0,240.06,195.93Z" style="fill:#fff"></path><path d="M245.61,209.58a1.28,1.28,0,1,1,1.28-1.27A1.28,1.28,0,0,1,245.61,209.58Zm0-2.3a1,1,0,1,0,1,1A1,1,0,0,0,245.61,207.28Z" style="fill:#fff"></path><path d="M259.94,221.09a1.28,1.28,0,1,1,0-2.56,1.28,1.28,0,1,1,0,2.56Zm0-2.31a1,1,0,1,0,1,1A1,1,0,0,0,259.94,218.78Z" style="fill:#fff"></path><path d="M254.2,227.7a1.28,1.28,0,1,1,1.28-1.28A1.28,1.28,0,0,1,254.2,227.7Zm0-2.31a1,1,0,1,0,1,1A1,1,0,0,0,254.2,225.39Z" style="fill:#fff"></path><path d="M263.41,241.45a1.28,1.28,0,1,1,1.28-1.27A1.27,1.27,0,0,1,263.41,241.45Zm0-2.3a1,1,0,1,0,1,1A1,1,0,0,0,263.41,239.15Z" style="fill:#fff"></path><path d="M274.79,251a1.28,1.28,0,0,1,0-2.56,1.28,1.28,0,0,1,0,2.56Zm0-2.31a1,1,0,1,0,1,1A1,1,0,0,0,274.79,248.72Z" style="fill:#fff"></path><path d="M285.9,260.84a1.28,1.28,0,1,1,1.28-1.28A1.27,1.27,0,0,1,285.9,260.84Zm0-2.3a1,1,0,1,0,1,1A1,1,0,0,0,285.9,258.54Z" style="fill:#fff"></path><path d="M246.77,232.63a1.28,1.28,0,1,1,1.28-1.28A1.28,1.28,0,0,1,246.77,232.63Zm0-2.3a1,1,0,1,0,1,1A1,1,0,0,0,246.77,230.33Z" style="fill:#fff"></path><path d="M254.93,245.69a1.28,1.28,0,1,1,1.28-1.28A1.28,1.28,0,0,1,254.93,245.69Zm0-2.31a1,1,0,1,0,1,1A1,1,0,0,0,254.93,243.38Z" style="fill:#fff"></path><path d="M243.3,259.26a1.28,1.28,0,1,1,1.28-1.27A1.28,1.28,0,0,1,243.3,259.26Zm0-2.3a1,1,0,1,0,1,1A1,1,0,0,0,243.3,257Z" style="fill:#fff"></path><path d="M236.91,264.75a1.28,1.28,0,1,1,1.28-1.28A1.28,1.28,0,0,1,236.91,264.75Zm0-2.31a1,1,0,1,0,1,1A1,1,0,0,0,236.91,262.44Z" style="fill:#fff"></path><path d="M225.78,274.81a1.28,1.28,0,1,1,1.28-1.28A1.28,1.28,0,0,1,225.78,274.81Zm0-2.31a1,1,0,1,0,1,1A1,1,0,0,0,225.78,272.5Z" style="fill:#fff"></path><path d="M230.54,269.55a1.28,1.28,0,1,1,1.28-1.28A1.28,1.28,0,0,1,230.54,269.55Zm0-2.31a1,1,0,1,0,1,1A1,1,0,0,0,230.54,267.24Z" style="fill:#fff"></path><path d="M231.12,259a1.28,1.28,0,1,1,1.27-1.28A1.28,1.28,0,0,1,231.12,259Zm0-2.31a1,1,0,1,0,1,1A1,1,0,0,0,231.12,256.72Z" style="fill:#fff"></path><path d="M244.46,278.44a1.28,1.28,0,0,1,0-2.56,1.28,1.28,0,0,1,0,2.56Zm0-2.31a1,1,0,1,0,1,1A1,1,0,0,0,244.46,276.13Z" style="fill:#fff"></path><path d="M231.69,279.6a1.28,1.28,0,1,1,0-2.56,1.28,1.28,0,1,1,0,2.56Zm0-2.31a1,1,0,1,0,1,1A1,1,0,0,0,231.69,277.29Z" style="fill:#fff"></path><path d="M220.76,289.46a1.28,1.28,0,1,1,1.28-1.28A1.28,1.28,0,0,1,220.76,289.46Zm0-2.31a1,1,0,1,0,1,1A1,1,0,0,0,220.76,287.15Z" style="fill:#fff"></path><path d="M231.12,289.46a1.28,1.28,0,1,1,1.27-1.28A1.28,1.28,0,0,1,231.12,289.46Zm0-2.31a1,1,0,1,0,1,1A1,1,0,0,0,231.12,287.15Z" style="fill:#fff"></path><path d="M219.12,299.69a1.28,1.28,0,0,1,0-2.56,1.28,1.28,0,0,1,0,2.56Zm0-2.31a1,1,0,1,0,1,1A1,1,0,0,0,219.12,297.38Z" style="fill:#fff"></path><path d="M231.12,299.69a1.28,1.28,0,1,1,1.27-1.28A1.28,1.28,0,0,1,231.12,299.69Zm0-2.31a1,1,0,1,0,1,1A1,1,0,0,0,231.12,297.38Z" style="fill:#fff"></path><path d="M218.45,309.92a1.28,1.28,0,1,1,1.28-1.28A1.28,1.28,0,0,1,218.45,309.92Zm0-2.3a1,1,0,1,0,1,1A1,1,0,0,0,218.45,307.62Z" style="fill:#fff"></path><path d="M226.5,264.23a1.28,1.28,0,1,1,1.28-1.28A1.28,1.28,0,0,1,226.5,264.23Zm0-2.31a1,1,0,1,0,1,1A1,1,0,0,0,226.5,261.92Z" style="fill:#fff"></path><path d="M236.57,254.22a1.28,1.28,0,1,1,1.28-1.28A1.28,1.28,0,0,1,236.57,254.22Zm0-2.31a1,1,0,1,0,1,1A1,1,0,0,0,236.57,251.91Z" style="fill:#fff"></path><path d="M233.9,242.2a1.28,1.28,0,1,1,1.28-1.28A1.28,1.28,0,0,1,233.9,242.2Zm0-2.31a1,1,0,1,0,1,1A1,1,0,0,0,233.9,239.89Z" style="fill:#fff"></path><path d="M235.83,223.4a1.28,1.28,0,1,1,1.28-1.28A1.28,1.28,0,0,1,235.83,223.4Zm0-2.31a1,1,0,1,0,1,1A1,1,0,0,0,235.83,221.09Z" style="fill:#fff"></path><path d="M262.25,210.74a1.28,1.28,0,1,1,0-2.56,1.28,1.28,0,0,1,0,2.56Zm0-2.31a1,1,0,1,0,1,1A1,1,0,0,0,262.25,208.43Z" style="fill:#fff"></path><path d="M275.06,212.43a1.28,1.28,0,0,1,0-2.56,1.28,1.28,0,0,1,0,2.56Zm0-2.31a1,1,0,1,0,1,1A1,1,0,0,0,275.06,210.12Z" style="fill:#fff"></path><path d="M269.85,235.75a1.28,1.28,0,0,1,0-2.56,1.28,1.28,0,0,1,0,2.56Zm0-2.31a1,1,0,1,0,1,1A1,1,0,0,0,269.85,233.44Z" style="fill:#fff"></path><path d="M262.25,251a1.28,1.28,0,1,1,1.28-1.28A1.28,1.28,0,0,1,262.25,251Zm0-2.31a1,1,0,1,0,1,1A1,1,0,0,0,262.25,248.72Z" style="fill:#fff"></path><path d="M243.91,268.05a1.28,1.28,0,1,1,0-2.56,1.28,1.28,0,1,1,0,2.56Zm0-2.31a1,1,0,1,0,1,1A1,1,0,0,0,243.91,265.74Z" style="fill:#fff"></path><path d="M250.44,273.07a1.28,1.28,0,0,1,0-2.56,1.28,1.28,0,0,1,0,2.56Zm0-2.31a1,1,0,1,0,1,1A1,1,0,0,0,250.44,270.76Z" style="fill:#fff"></path><path d="M275.6,272.76a1.28,1.28,0,1,1,1.28-1.28A1.28,1.28,0,0,1,275.6,272.76Zm0-2.31a1,1,0,1,0,1,1A1,1,0,0,0,275.6,270.45Z" style="fill:#fff"></path><path d="M289.07,280.52a1.28,1.28,0,1,1,1.28-1.28A1.28,1.28,0,0,1,289.07,280.52Zm0-2.31a1,1,0,1,0,1,1A1,1,0,0,0,289.07,278.21Z" style="fill:#fff"></path><path d="M285.42,296.2a1.28,1.28,0,0,1,0-2.56,1.28,1.28,0,0,1,0,2.56Zm0-2.31a1,1,0,1,0,1,1A1,1,0,0,0,285.42,293.89Z" style="fill:#fff"></path><path d="M287.72,305.53a1.28,1.28,0,1,1,1.28-1.28A1.28,1.28,0,0,1,287.72,305.53Zm0-2.31a1,1,0,1,0,1,1A1,1,0,0,0,287.72,303.22Z" style="fill:#fff"></path><path d="M297.41,320.28a1.28,1.28,0,0,1,0-2.56,1.28,1.28,0,1,1,0,2.56Zm0-2.31a1,1,0,1,0,1,1A1,1,0,0,0,297.41,318Z" style="fill:#fff"></path><path d="M289.61,316.4a1.28,1.28,0,1,1,1.28-1.28A1.28,1.28,0,0,1,289.61,316.4Zm0-2.31a1,1,0,1,0,1,1A1,1,0,0,0,289.61,314.09Z" style="fill:#fff"></path><path d="M293.1,299a1.28,1.28,0,0,1,0-2.56,1.28,1.28,0,0,1,0,2.56Zm0-2.31a1,1,0,1,0,1,1A1,1,0,0,0,293.1,296.69Z" style="fill:#fff"></path><path d="M267.32,314.09a1.28,1.28,0,1,1,1.28-1.28A1.28,1.28,0,0,1,267.32,314.09Zm0-2.31a1,1,0,1,0,1,1A1,1,0,0,0,267.32,311.78Z" style="fill:#fff"></path><path d="M252.92,324.25A1.28,1.28,0,1,1,254.2,323,1.28,1.28,0,0,1,252.92,324.25Zm0-2.31a1,1,0,1,0,1,1A1,1,0,0,0,252.92,321.94Z" style="fill:#fff"></path><path d="M260.45,329.23a1.28,1.28,0,1,1,1.28-1.28A1.28,1.28,0,0,1,260.45,329.23Zm0-2.31a1,1,0,1,0,1,1A1,1,0,0,0,260.45,326.92Z" style="fill:#fff"></path><path d="M260.64,339.69a1.28,1.28,0,1,1,1.28-1.28A1.28,1.28,0,0,1,260.64,339.69Zm0-2.31a1,1,0,1,0,1,1A1,1,0,0,0,260.64,337.38Z" style="fill:#fff"></path><path d="M252.92,314.61a1.28,1.28,0,1,1,1.28-1.28A1.28,1.28,0,0,1,252.92,314.61Zm0-2.3a1,1,0,1,0,1,1A1,1,0,0,0,252.92,312.31Z" style="fill:#fff"></path><path d="M263,273.07a1.28,1.28,0,1,1,1.28-1.28A1.28,1.28,0,0,1,263,273.07Zm0-2.31a1,1,0,0,0,0,2.06,1,1,0,1,0,0-2.06Z" style="fill:#fff"></path><path d="M264.11,283.94a1.28,1.28,0,0,1,0-2.56,1.28,1.28,0,0,1,0,2.56Zm0-2.31a1,1,0,1,0,1,1A1,1,0,0,0,264.11,281.63Z" style="fill:#fff"></path><path d="M264.56,293.89a1.28,1.28,0,1,1,1.28-1.28A1.28,1.28,0,0,1,264.56,293.89Zm0-2.31a1,1,0,1,0,1,1A1,1,0,0,0,264.56,291.58Z" style="fill:#fff"></path><path d="M262.25,261.92a1.28,1.28,0,1,1,1.28-1.28A1.28,1.28,0,0,1,262.25,261.92Zm0-2.31a1,1,0,1,0,1,1A1,1,0,0,0,262.25,259.61Z" style="fill:#fff"></path><path d="M257.24,267.6a1.28,1.28,0,1,1,0-2.56,1.28,1.28,0,0,1,0,2.56Zm0-2.31a1,1,0,1,0,1,1A1,1,0,0,0,257.24,265.29Z" style="fill:#fff"></path><path d="M256.93,278.88a1.28,1.28,0,1,1,1.28-1.28A1.28,1.28,0,0,1,256.93,278.88Zm0-2.31a1,1,0,0,0,0,2.06,1,1,0,0,0,0-2.06Z" style="fill:#fff"></path><path d="M238.06,284.42a1.28,1.28,0,1,1,1.28-1.28A1.28,1.28,0,0,1,238.06,284.42Zm0-2.31a1,1,0,1,0,1,1A1,1,0,0,0,238.06,282.11Z" style="fill:#fff"></path><path d="M245.06,299.69a1.28,1.28,0,1,1,1.28-1.28A1.28,1.28,0,0,1,245.06,299.69Zm0-2.31a1,1,0,0,0,0,2.06,1,1,0,0,0,0-2.06Z" style="fill:#fff"></path><path d="M230.54,309.59a1.28,1.28,0,1,1,1.28-1.28A1.28,1.28,0,0,1,230.54,309.59Zm0-2.31a1,1,0,1,0,1,1A1,1,0,0,0,230.54,307.28Z" style="fill:#fff"></path><path d="M251.77,305.23A1.28,1.28,0,1,1,253,304,1.28,1.28,0,0,1,251.77,305.23Zm0-2.31a1,1,0,1,0,1,1A1,1,0,0,0,251.77,302.92Z" style="fill:#fff"></path><path d="M258.92,309.92a1.28,1.28,0,1,1,1.27-1.28A1.28,1.28,0,0,1,258.92,309.92Zm0-2.3a1,1,0,1,0,1,1A1,1,0,0,0,258.92,307.62Z" style="fill:#fff"></path><path d="M244.46,319.12a1.28,1.28,0,1,1,1.28-1.28A1.28,1.28,0,0,1,244.46,319.12Zm0-2.3a1,1,0,1,0,1,1A1,1,0,0,0,244.46,316.82Z" style="fill:#fff"></path><path d="M244.46,329.23a1.28,1.28,0,1,1,1.28-1.28A1.28,1.28,0,0,1,244.46,329.23Zm0-2.31a1,1,0,1,0,1,1A1,1,0,0,0,244.46,326.92Z" style="fill:#fff"></path><path d="M252.92,335a1.28,1.28,0,1,1,1.28-1.28A1.28,1.28,0,0,1,252.92,335Zm0-2.31a1,1,0,1,0,1,1A1,1,0,0,0,252.92,332.71Z" style="fill:#fff"></path><path d="M225.36,295.05a1.28,1.28,0,1,1,1.28-1.28A1.28,1.28,0,0,1,225.36,295.05Zm0-2.31a1,1,0,1,0,1,1A1,1,0,0,0,225.36,292.74Z" style="fill:#fff"></path><path d="M224.63,304.51a1.28,1.28,0,0,1,0-2.56,1.28,1.28,0,0,1,0,2.56Zm0-2.31a1,1,0,1,0,1,1A1,1,0,0,0,224.63,302.2Z" style="fill:#fff"></path><path d="M257.76,289.11a1.28,1.28,0,1,1,1.28-1.28A1.28,1.28,0,0,1,257.76,289.11Zm0-2.31a1,1,0,1,0,1,1A1,1,0,0,0,257.76,286.8Z" style="fill:#fff"></path><path d="M252.26,294.48a1.28,1.28,0,1,1,0-2.56,1.28,1.28,0,1,1,0,2.56Zm0-2.31a1,1,0,1,0,1,1A1,1,0,0,0,252.26,292.17Z" style="fill:#fff"></path><path d="M244.87,309.92a1.28,1.28,0,1,1,1.28-1.28A1.28,1.28,0,0,1,244.87,309.92Zm0-2.3a1,1,0,1,0,1,1A1,1,0,0,0,244.87,307.62Z" style="fill:#fff"></path><path d="M231.41,319.12a1.28,1.28,0,1,1,1.28-1.28A1.28,1.28,0,0,1,231.41,319.12Zm0-2.3a1,1,0,1,0,1,1A1,1,0,0,0,231.41,316.82Z" style="fill:#fff"></path><path d="M231.12,330a1.28,1.28,0,1,1,1.27-1.28A1.28,1.28,0,0,1,231.12,330Zm0-2.31a1,1,0,1,0,1,1A1,1,0,0,0,231.12,327.73Z" style="fill:#fff"></path><path d="M237.49,323.74a1.28,1.28,0,1,1,1.28-1.28A1.28,1.28,0,0,1,237.49,323.74Zm0-2.31a1,1,0,1,0,1,1A1,1,0,0,0,237.49,321.43Z" style="fill:#fff"></path><path d="M238.88,335.57a1.28,1.28,0,0,1,0-2.56,1.28,1.28,0,0,1,0,2.56Zm0-2.31a1,1,0,1,0,1,1A1,1,0,0,0,238.88,333.26Z" style="fill:#fff"></path><path d="M214.59,314.61a1.28,1.28,0,1,1,1.28-1.28A1.28,1.28,0,0,1,214.59,314.61Zm0-2.3a1,1,0,1,0,1,1A1,1,0,0,0,214.59,312.31Z" style="fill:#fff"></path><path d="M266.16,304.93a1.28,1.28,0,0,1,0-2.56,1.28,1.28,0,1,1,0,2.56Zm0-2.31a1,1,0,0,0-1,1,1,1,0,0,0,2.05,0A1,1,0,0,0,266.16,302.62Z" style="fill:#fff"></path><path d="M273.91,308.44a1.28,1.28,0,1,1,1.28-1.28A1.28,1.28,0,0,1,273.91,308.44Zm0-2.31a1,1,0,1,0,1,1A1,1,0,0,0,273.91,306.13Z" style="fill:#fff"></path><path d="M261.8,319.47a1.28,1.28,0,1,1,1.28-1.28A1.28,1.28,0,0,1,261.8,319.47Zm0-2.31a1,1,0,1,0,1,1A1,1,0,0,0,261.8,317.16Z" style="fill:#fff"></path><path d="M277.1,328.33a1.28,1.28,0,1,1,1.28-1.28A1.28,1.28,0,0,1,277.1,328.33Zm0-2.31a1,1,0,1,0,1,1A1,1,0,0,0,277.1,326Z" style="fill:#fff"></path><path d="M275.94,318.31a1.28,1.28,0,1,1,1.28-1.28A1.28,1.28,0,0,1,275.94,318.31Zm0-2.31a1,1,0,1,0,0,2.06,1,1,0,1,0,0-2.06Z" style="fill:#fff"></path><path d="M275.06,188.74a1.28,1.28,0,0,1,0-2.56,1.28,1.28,0,0,1,0,2.56Zm0-2.31a1,1,0,1,0,1,1A1,1,0,0,0,275.06,186.43Z" style="fill:#fff"></path><path d="M253.32,205.66a1.28,1.28,0,1,1,1.28-1.28A1.28,1.28,0,0,1,253.32,205.66Zm0-2.3a1,1,0,1,0,1,1A1,1,0,0,0,253.32,203.36Z" style="fill:#fff"></path><path d="M268.7,225.39a1.28,1.28,0,1,1,1.28-1.28A1.28,1.28,0,0,1,268.7,225.39Zm0-2.3a1,1,0,1,0,1,1A1,1,0,0,0,268.7,223.09Z" style="fill:#fff"></path><path d="M254.93,237.26a1.28,1.28,0,1,1,1.28-1.28A1.28,1.28,0,0,1,254.93,237.26Zm0-2.3a1,1,0,1,0,1,1A1,1,0,0,0,254.93,235Z" style="fill:#fff"></path><path d="M275.42,229.15a1.28,1.28,0,0,1,0-2.56,1.28,1.28,0,0,1,0,2.56Zm0-2.31a1,1,0,1,0,1,1A1,1,0,0,0,275.42,226.84Z" style="fill:#fff"></path><path d="M277.1,241.45a1.28,1.28,0,1,1,1.28-1.27A1.27,1.27,0,0,1,277.1,241.45Zm0-2.3a1,1,0,1,0,1,1A1,1,0,0,0,277.1,239.15Z" style="fill:#fff"></path><path d="M248.79,252.19a1.28,1.28,0,1,1,1.28-1.28A1.28,1.28,0,0,1,248.79,252.19Zm0-2.31a1,1,0,1,0,1,1A1,1,0,0,0,248.79,249.88Z" style="fill:#fff"></path><path d="M282.29,248a1.28,1.28,0,1,1,1.28-1.28A1.28,1.28,0,0,1,282.29,248Zm0-2.31a1,1,0,1,0,1,1A1,1,0,0,0,282.29,245.69Z" style="fill:#fff"></path><path d="M248.79,221.09a1.28,1.28,0,1,1,1.28-1.28A1.28,1.28,0,0,1,248.79,221.09Zm0-2.31a1,1,0,1,0,1,1A1,1,0,0,0,248.79,218.78Z" style="fill:#fff"></path><path d="M235.83,231.48a1.28,1.28,0,1,1,1.28-1.28A1.28,1.28,0,0,1,235.83,231.48Zm0-2.31a1,1,0,1,0,1,1A1,1,0,0,0,235.83,229.17Z" style="fill:#fff"></path><path d="M276.22,199.4a1.28,1.28,0,1,1,1.27-1.28A1.28,1.28,0,0,1,276.22,199.4Zm0-2.31a1,1,0,1,0,1,1A1,1,0,0,0,276.22,197.09Z" style="fill:#fff"></path><path d="M268.33,217.05a1.28,1.28,0,1,1,1.28-1.28A1.28,1.28,0,0,1,268.33,217.05Zm0-2.31a1,1,0,1,0,0,2.06,1,1,0,1,0,0-2.06Z" style="fill:#fff"></path><path d="M234.54,190.69a1.28,1.28,0,0,1,0-2.56,1.28,1.28,0,0,1,0,2.56Zm0-2.31a1,1,0,1,0,1,1A1,1,0,0,0,234.54,188.38Z" style="fill:#fff"></path><path d="M253.77,215.23a1.28,1.28,0,1,1,1.28-1.28A1.28,1.28,0,0,1,253.77,215.23Zm0-2.31a1,1,0,1,0,1,1A1,1,0,0,0,253.77,212.92Z" style="fill:#fff"></path><path d="M261.1,231.09a1.28,1.28,0,1,1,1.28-1.28A1.28,1.28,0,0,1,261.1,231.09Zm0-2.31a1,1,0,1,0,1,1A1,1,0,0,0,261.1,228.78Z" style="fill:#fff"></path><path d="M268.7,246.42a1.28,1.28,0,1,1,1.28-1.28A1.28,1.28,0,0,1,268.7,246.42Zm0-2.31a1,1,0,1,0,1,1A1,1,0,0,0,268.7,244.11Z" style="fill:#fff"></path><path d="M280.74,255.8a1.28,1.28,0,1,1,1.28-1.28A1.28,1.28,0,0,1,280.74,255.8Zm0-2.31a1,1,0,1,0,1,1A1,1,0,0,0,280.74,253.49Z" style="fill:#fff"></path><path d="M288.45,271.92a1.28,1.28,0,1,1,1.28-1.28A1.28,1.28,0,0,1,288.45,271.92Zm0-2.31a1,1,0,1,0,1,1A1,1,0,0,0,288.45,269.61Z" style="fill:#fff"></path><path d="M268.33,257a1.28,1.28,0,1,1,1.28-1.28A1.28,1.28,0,0,1,268.33,257Zm0-2.31a1,1,0,0,0,0,2.06,1,1,0,1,0,0-2.06Z" style="fill:#fff"></path><path d="M269.48,267.6a1.28,1.28,0,1,1,1.28-1.28A1.28,1.28,0,0,1,269.48,267.6Zm0-2.31a1,1,0,1,0,1,1A1,1,0,0,0,269.48,265.29Z" style="fill:#fff"></path><path d="M281.13,266.9a1.28,1.28,0,0,1,0-2.56,1.28,1.28,0,0,1,0,2.56Zm0-2.31a1,1,0,1,0,1,1A1,1,0,0,0,281.13,264.59Z" style="fill:#fff"></path><path d="M269.85,277.72a1.28,1.28,0,1,1,1.28-1.28A1.28,1.28,0,0,1,269.85,277.72Zm0-2.31a1,1,0,1,0,1,1A1,1,0,0,0,269.85,275.41Z" style="fill:#fff"></path><path d="M250.44,284.42a1.28,1.28,0,1,1,1.28-1.28A1.28,1.28,0,0,1,250.44,284.42Zm0-2.31a1,1,0,1,0,0,2.06,1,1,0,1,0,0-2.06Z" style="fill:#fff"></path><path d="M237.73,295.05a1.28,1.28,0,1,1,1.28-1.28A1.28,1.28,0,0,1,237.73,295.05Zm0-2.31a1,1,0,1,0,1,1A1,1,0,0,0,237.73,292.74Z" style="fill:#fff"></path><path d="M237.73,305.08A1.28,1.28,0,1,1,239,303.8,1.28,1.28,0,0,1,237.73,305.08Zm0-2.31a1,1,0,0,0,0,2.06,1,1,0,0,0,0-2.06Z" style="fill:#fff"></path><path d="M237.24,314.09a1.28,1.28,0,1,1,1.28-1.28A1.28,1.28,0,0,1,237.24,314.09Zm0-2.31a1,1,0,1,0,1,1A1,1,0,0,0,237.24,311.78Z" style="fill:#fff"></path><path d="M218.78,319.83a1.28,1.28,0,1,1,1.28-1.28A1.28,1.28,0,0,1,218.78,319.83Zm0-2.31a1,1,0,1,0,1,1A1,1,0,0,0,218.78,317.52Z" style="fill:#fff"></path><path d="M219.61,330a1.28,1.28,0,1,1,1.28-1.28A1.28,1.28,0,0,1,219.61,330Zm0-2.31a1,1,0,1,0,1,1A1,1,0,0,0,219.61,327.73Z" style="fill:#fff"></path><path d="M224.21,314.09a1.28,1.28,0,1,1,1.28-1.28A1.28,1.28,0,0,1,224.21,314.09Zm0-2.31a1,1,0,1,0,1,1A1,1,0,0,0,224.21,311.78Z" style="fill:#fff"></path><path d="M213.74,325.85a1.28,1.28,0,1,1,0-2.56,1.28,1.28,0,1,1,0,2.56Zm0-2.31a1,1,0,1,0,1,1A1,1,0,0,0,213.74,323.54Z" style="fill:#fff"></path><path d="M225.54,324a1.28,1.28,0,1,1,1.28-1.28A1.28,1.28,0,0,1,225.54,324Zm0-2.31a1,1,0,1,0,1,1A1,1,0,0,0,225.54,321.71Z" style="fill:#fff"></path><path d="M277.1,282.11a1.28,1.28,0,1,1,1.28-1.28A1.28,1.28,0,0,1,277.1,282.11Zm0-2.31a1,1,0,1,0,1,1A1,1,0,0,0,277.1,279.8Z" style="fill:#fff"></path><path d="M291.38,289.89a1.28,1.28,0,1,1,1.28-1.28A1.28,1.28,0,0,1,291.38,289.89Zm0-2.31a1,1,0,1,0,1,1A1,1,0,0,0,291.38,287.58Z" style="fill:#fff"></path><path d="M278.25,292.74a1.28,1.28,0,1,1,0-2.56,1.28,1.28,0,0,1,0,2.56Zm0-2.31a1,1,0,1,0,1,1A1,1,0,0,0,278.25,290.43Z" style="fill:#fff"></path><path d="M271.79,288.74a1.28,1.28,0,1,1,1.28-1.28A1.28,1.28,0,0,1,271.79,288.74Zm0-2.31a1,1,0,1,0,1,1A1,1,0,0,0,271.79,286.43Z" style="fill:#fff"></path><path d="M258.92,299.69a1.28,1.28,0,1,1,1.27-1.28A1.28,1.28,0,0,1,258.92,299.69Zm0-2.31a1,1,0,1,0,1,1A1,1,0,0,0,258.92,297.38Z" style="fill:#fff"></path><path d="M282.82,277.06a1.28,1.28,0,1,1,0-2.56,1.28,1.28,0,1,1,0,2.56Zm0-2.31a1,1,0,1,0,1,1A1,1,0,0,0,282.82,274.75Z" style="fill:#fff"></path><path d="M284.26,286.8a1.28,1.28,0,1,1,1.28-1.28A1.28,1.28,0,0,1,284.26,286.8Zm0-2.31a1,1,0,1,0,1,1A1,1,0,0,0,284.26,284.49Z" style="fill:#fff"></path><path d="M271.79,298.54a1.28,1.28,0,1,1,1.28-1.28A1.28,1.28,0,0,1,271.79,298.54Zm0-2.31a1,1,0,1,0,1,1A1,1,0,0,0,271.79,296.23Z" style="fill:#fff"></path><path d="M281.66,311.9a1.28,1.28,0,1,1,1.28-1.28A1.28,1.28,0,0,1,281.66,311.9Zm0-2.31a1,1,0,1,0,1,1A1,1,0,0,0,281.66,309.59Z" style="fill:#fff"></path><path d="M268.7,324.72a1.28,1.28,0,1,1,1.28-1.28A1.28,1.28,0,0,1,268.7,324.72Zm0-2.31a1,1,0,1,0,1,1A1,1,0,0,0,268.7,322.41Z" style="fill:#fff"></path><path d="M285.42,332.71a1.28,1.28,0,1,1,1.28-1.28A1.28,1.28,0,0,1,285.42,332.71Zm0-2.31a1,1,0,1,0,1,1A1,1,0,0,0,285.42,330.4Z" style="fill:#fff"></path><path d="M268.47,334.62a1.28,1.28,0,1,1,1.28-1.28A1.28,1.28,0,0,1,268.47,334.62Zm0-2.31a1,1,0,1,0,1,1A1,1,0,0,0,268.47,332.31Z" style="fill:#fff"></path><path d="M279.7,302.18A1.28,1.28,0,1,1,281,300.9,1.28,1.28,0,0,1,279.7,302.18Zm0-2.31a1,1,0,1,0,0,2.06,1,1,0,1,0,0-2.06Z" style="fill:#fff"></path><path d="M295.41,309.59a1.28,1.28,0,1,1,1.28-1.28A1.28,1.28,0,0,1,295.41,309.59Zm0-2.31a1,1,0,1,0,1,1A1,1,0,0,0,295.41,307.28Z" style="fill:#fff"></path><path d="M284,322.59a1.28,1.28,0,0,1,0-2.56,1.28,1.28,0,0,1,0,2.56Zm0-2.31a1,1,0,1,0,1,1A1,1,0,0,0,284,320.28Z" style="fill:#fff"></path><path d="M292,327a1.28,1.28,0,1,1,1.28-1.28A1.28,1.28,0,0,1,292,327Zm0-2.31a1,1,0,1,0,1,1A1,1,0,0,0,292,324.72Z" style="fill:#fff"></path><path d="M282.29,233.79a1.28,1.28,0,1,1,1.28-1.28A1.28,1.28,0,0,1,282.29,233.79Zm0-2.31a1,1,0,1,0,1,1A1,1,0,0,0,282.29,231.48Z" style="fill:#fff"></path><path d="M268.33,205.21a1.28,1.28,0,1,1,0-2.56,1.28,1.28,0,1,1,0,2.56Zm0-2.31a1,1,0,1,0,1,1A1,1,0,0,0,268.33,202.9Z" style="fill:#fff"></path><path d="M277.73,221.69a1.28,1.28,0,1,1,1.28-1.28A1.28,1.28,0,0,1,277.73,221.69Zm0-2.31a1,1,0,1,0,1,1A1,1,0,0,0,277.73,219.38Z" style="fill:#fff"></path><path d="M280,183.32a1.28,1.28,0,1,1,1.28-1.28A1.28,1.28,0,0,1,280,183.32Zm0-2.3a1,1,0,1,0,1,1A1,1,0,0,0,280,181Z" style="fill:#fff"></path><path d="M237.24,206.82a1.28,1.28,0,1,1,1.28-1.28A1.28,1.28,0,0,1,237.24,206.82Zm0-2.31a1,1,0,1,0,1,1A1,1,0,0,0,237.24,204.51Z" style="fill:#fff"></path><path d="M233.9,214.74a1.28,1.28,0,1,1,1.28-1.28A1.28,1.28,0,0,1,233.9,214.74Zm0-2.31a1,1,0,1,0,1,1A1,1,0,0,0,233.9,212.43Z" style="fill:#fff"></path><path d="M238.14,182.79a1.28,1.28,0,1,1,1.28-1.27A1.27,1.27,0,0,1,238.14,182.79Zm0-2.3a1,1,0,1,0,1,1A1,1,0,0,0,238.14,180.49Z" style="fill:#fff"></path><g style="opacity:0.2"><path d="M262.68,239.65c-5.32-.18-10.58.55-15.86,1.06-4.8.46-10.18.51-14.58-1.74-.09-.05-.18.11-.08.15a25.18,25.18,0,0,0,7,2.23,35.66,35.66,0,0,0,7.23.31c5.48-.26,10.82-1.72,16.31-1.86C262.77,239.79,262.77,239.65,262.68,239.65Z"></path><path d="M281.4,238.5c-4.49,2-9.62,2.18-14.47,2.33-2.62.08-5.25.06-7.86.23a73.86,73.86,0,0,0-7.71,1c-.11,0-.06.19,0,.16a34.19,34.19,0,0,1,8.33-.53c2.64,0,5.28.19,7.93.15a28.9,28.9,0,0,0,13.78-3.25C281.5,238.55,281.45,238.48,281.4,238.5Z"></path><path d="M237.16,289.15c-1,5.85-2.41,11.64-3.47,17.48s-2.13,11.76-3,17.68c-.48,3.34-1,6.68-1.46,10,0,.09.12.12.14,0,2.56-11.62,4.72-23.35,6.45-35.11.49-3.36.9-6.73,1.5-10.07C237.35,289.08,237.18,289,237.16,289.15Z"></path><path d="M238.53,305.31c-.18,2.62-.54,5.22-.8,7.83s-.51,5-.73,7.55-.42,5-.57,7.49-.09,5.12,0,7.69c0,.11.16.1.17,0,.17-2.57.52-5.13.73-7.7s.41-5,.57-7.49.29-5,.42-7.55.18-5.21.4-7.81C238.71,305.2,238.54,305.2,238.53,305.31Z"></path><path d="M282.66,326.83c-.38-2.35-.87-4.69-1.34-7-.93-4.65-2-9.29-3.07-13.91q-.9-3.88-1.66-7.8c0-.1-.18-.05-.16,0,1.87,9.22,3.08,18.57,5.1,27.76.29,1.31.61,2.61.94,3.92s.58,2.62,1,3.9c0,.13.27.11.25,0C283.48,331.4,283,329.1,282.66,326.83Z"></path></g><path d="M248.61,157.48c-2.38,3.34,8.44-1.82,12.39.67s.16,5.39-4,6.84c-14.59,5-16,11.93-26.75,12.15S248.61,157.48,248.61,157.48Z" style="fill:#d3766a"></path><path d="M179.92,211.77s-21.11,5-61.1,1.55c0,0,15.64-49.92,28.23-63.37,5.73-6.13,11.33-5.19,16.08-1.25,1.18,1,15.87,19.62,17.11,26.11,1.1,5.74-3.56,12.12-3.56,12.12Z" style="fill:#FFC100"></path><path d="M177,167c-.88-1.33-1.78-2.66-2.72-3.94-.15-.46-.34-.9-.51-1.35a16.76,16.76,0,0,0-1-1.89,15.71,15.71,0,0,0,.71,2l.24.54q-1.41-1.9-2.91-3.74c1.84,2.94,3.84,5.77,5.69,8.69a38.82,38.82,0,0,1,2.58,4.46,12.63,12.63,0,0,1,.63,1.53,12.48,12.48,0,0,1-.37,8.1,27.66,27.66,0,0,1-1.56,4.06.09.09,0,0,0,.15.08,40.93,40.93,0,0,0,1.87-4.1,14,14,0,0,0,.88-4.29C181,173,178.88,170.18,177,167Z" style="fill:#263238"></path><path d="M151.53,147.32c.24,1.08,5.3,8.12,10.22,8,1.6-.06,1.67-8.83,1.67-8.83l.15-.65,2.13-9-10.57-6.95-1.53-.93s-.42,2.52-.91,5.65c0,.15-.05.29-.07.45a4.54,4.54,0,0,0-.09.51c-.08.46-.16.94-.23,1.42s-.11.72-.15,1.1-.09.75-.15,1.14A58.3,58.3,0,0,0,151.53,147.32Z" style="fill:#d3766a"></path><path d="M152.69,134.52a18.59,18.59,0,0,0,10.88,11.27l2.13-9-10.57-6.95-1.53-.93S153.18,131.39,152.69,134.52Z" style="fill:#263238"></path><path d="M180.23,125.82c-1.29,16.26-11.17,17.33-14.67,17.05-3.19-.26-14-1.53-14.39-17.83s7.56-20.85,14.87-20.65S181.51,109.57,180.23,125.82Z" style="fill:#d3766a"></path><path d="M178.16,122.84c-.38-.09-.71-.23-1.08-.35a1.83,1.83,0,0,1-1-.55.6.6,0,0,1,.08-.71,1.45,1.45,0,0,1,1.44-.19,2.15,2.15,0,0,1,1.25.88A.62.62,0,0,1,178.16,122.84Z" style="fill:#263238"></path><path d="M167,123.33c.39,0,.74-.08,1.12-.12a1.83,1.83,0,0,0,1.12-.34.57.57,0,0,0,.07-.71,1.43,1.43,0,0,0-1.37-.48,2.19,2.19,0,0,0-1.4.61A.62.62,0,0,0,167,123.33Z" style="fill:#263238"></path><path d="M169.2,125.92s-.09,0-.09.09c-.05,1.11-.3,2.37-1.33,2.66,0,0,0,.07,0,.06C169,128.66,169.33,127,169.2,125.92Z" style="fill:#263238"></path><path d="M168.3,124.68c-1.77-.27-2.18,3.29-.54,3.54S169.79,124.91,168.3,124.68Z" style="fill:#263238"></path><path d="M167.58,124.79c-.33.17-.68.49-1.06.48s-.72-.42-1-.81c0,0-.06,0-.07,0-.09.68.09,1.41.81,1.6s1.21-.38,1.46-1C167.8,124.92,167.72,124.72,167.58,124.79Z" style="fill:#263238"></path><path d="M175.36,126.4s.08.07.07.11c-.17,1.1-.18,2.38.77,2.87,0,0,0,.07,0,.06C175,129.12,175,127.41,175.36,126.4Z" style="fill:#263238"></path><path d="M176.49,125.37c1.79.09,1.48,3.66-.18,3.58S175,125.3,176.49,125.37Z" style="fill:#263238"></path><path d="M177.21,125.67c.27.22.52.58.85.64s.71-.31,1-.66c0,0,.06,0,.06,0,0,.68-.33,1.37-1,1.45s-1-.56-1.1-1.25C177,125.77,177.1,125.59,177.21,125.67Z" style="fill:#263238"></path><path d="M168,135c.23.3.43.7.82.8a3.14,3.14,0,0,0,1.22-.08s.07,0,0,.06a1.51,1.51,0,0,1-1.49.37,1.19,1.19,0,0,1-.7-1.11C167.89,134.92,168,134.91,168,135Z" style="fill:#263238"></path><path d="M172.48,133.6a4.56,4.56,0,0,1-1.87,1.33,2,2,0,0,1-1.24,0c-.89-.27-.87-1.09-.68-1.79a4.8,4.8,0,0,1,.45-1A5.87,5.87,0,0,0,172.48,133.6Z" style="fill:#263238"></path><path d="M170.61,134.93a2,2,0,0,1-1.24,0c-.89-.27-.87-1.09-.68-1.79A2.12,2.12,0,0,1,170.61,134.93Z" style="fill:#ff9bbc"></path><path d="M173.05,131.45a23.47,23.47,0,0,1,0,2.45c0,.07-.2.09-.46.08h0a3.72,3.72,0,0,1-3.45-1.76.08.08,0,0,1,.13-.09,5.6,5.6,0,0,0,3.27,1.32c.08-.21-.19-2.86-.06-2.86a6.76,6.76,0,0,1,1.72.59c0-3.49-.58-6.95-.54-10.42a.11.11,0,0,1,.21,0,56.5,56.5,0,0,1,1.06,11.2C174.89,132.37,173.35,131.61,173.05,131.45Z" style="fill:#263238"></path><path d="M152.81,125.36c3.91.52,7.08-11.21,7.45-12.66-.18.92-1.16,5.81-.82,6.07a3.53,3.53,0,0,0,1.26,0h0a10.72,10.72,0,0,1,.44-1.73c.08-.27,0,.61,0,1.69l.75-.07a14.15,14.15,0,0,1,1-3.67c.19-.45,0,1.66.09,3.56a47.8,47.8,0,0,1,10.47,0c1,.13,1.81.29,2.54.45a25.72,25.72,0,0,1,.4-2.67,14.49,14.49,0,0,1,.15,2.79l1.09.28c.45-2,0-5.47.27-4.91A14.56,14.56,0,0,1,179,119.8c1.35.51,1.69.85,1.79.49a17.36,17.36,0,0,0-3.38-11.48c-4.07-5.4-13.55-8.2-20.22-2.1,0,0-5,2.16-6.51,6.77S150.56,125.05,152.81,125.36Z" style="fill:#263238"></path><path d="M150.67,131a3.57,3.57,0,0,0,.71.31,2.38,2.38,0,0,0,.75.15,2.33,2.33,0,0,0,1-.14,3.22,3.22,0,0,0,.69-.37,3.14,3.14,0,0,0,.76-.8l-.18-4.45s-2.67-5.61-5.15-4.73S148.16,129.59,150.67,131Z" style="fill:#d3766a"></path><path d="M149.68,123.2s-.06,0,0,.07c1.75,1.07,2.44,3,2.83,4.89a1.51,1.51,0,0,0-2.17-.78c-.06,0,0,.11,0,.1a1.69,1.69,0,0,1,1.74.9,7.89,7.89,0,0,1,.64,1.63c.06.18.38.14.34-.06v0C153.51,127.52,152.21,123.87,149.68,123.2Z" style="fill:#263238"></path><path d="M151,130.39a.76.76,0,1,0,1.51,0,.76.76,0,1,0-1.51,0Z" style="fill:#fff"></path><path d="M149.66,129a.54.54,0,1,0,.51-.55A.53.53,0,0,0,149.66,129Z" style="fill:#fff"></path><path d="M178.88,224.14h-1v-5.89c0-.33.22-.46.71-.72,1.1-.61,4-2.21,4-5.11,0-4.55-3.24-4.91-4.24-4.91-2.49,0-5,1.5-5,4.85h-1c0-4,3.12-5.85,6-5.85,2.42,0,5.24,1.55,5.24,5.91,0,3.49-3.31,5.3-4.55,6l-.19.1Z" style="fill:#263238"></path><path d="M210.71,241.38h-2.18a3.6,3.6,0,0,0-1.46-2.81c-1.66-1.27-11.63-3.61-14.13-4.51s-10.05-4.34-11.42-4.94a9.76,9.76,0,0,0-6.46,0c-1.36.6-8.92,4-11.42,4.94s-12.46,3.24-14.12,4.51a3.56,3.56,0,0,0-1.46,2.81h-2.18c-1.3-1.43-1.33-3.21,1.06-5.09s11-4.6,14-5.83,12.78-7.89,14.26-8.3a14.87,14.87,0,0,1,6.23,0c1.48.41,11.27,7.08,14.26,8.3s11.59,4,14,5.83S212,240,210.71,241.38Z" style="fill:#FFC100"></path><path d="M210.71,241.38h-2.18a3.6,3.6,0,0,0-1.46-2.81c-1.66-1.27-11.63-3.61-14.13-4.51s-10.05-4.34-11.42-4.94a9.76,9.76,0,0,0-6.46,0c-1.36.6-8.92,4-11.42,4.94s-12.46,3.24-14.12,4.51a3.56,3.56,0,0,0-1.46,2.81h-2.18c-1.3-1.43-1.33-3.21,1.06-5.09s11-4.6,14-5.83,12.78-7.89,14.26-8.3a14.87,14.87,0,0,1,6.23,0c1.48.41,11.27,7.08,14.26,8.3s11.59,4,14,5.83S212,240,210.71,241.38Z" style="opacity:0.2"></path><path d="M193.42,229.3s14.61,4.23,17.87,8.26c3.84,4.76,27.52,79.18,26.82,81.91a14.87,14.87,0,0,1-2.7,5.1L222,327.48s-7.42-.52-8.65-3.23S193.42,229.3,193.42,229.3Z" style="fill:#263238"></path><path d="M163.17,229.3s-14.61,4.23-17.87,8.26c-3.84,4.76-27.52,79.18-26.82,81.91a14.94,14.94,0,0,0,2.69,5.1l13.4,2.91s7.43-.52,8.66-3.23S163.17,229.3,163.17,229.3Z" style="fill:#263238"></path><path d="M216.69,311a6,6,0,0,1-2.67,3.11v2.68H142.56v-2.68a5.9,5.9,0,0,1-2.67-3.11c-.89-2.27,11.75-65,14.59-70.16a71.74,71.74,0,0,1,8.68-11.51s4.24,12.08,15.13,12.08,15.12-12.08,15.12-12.08,5.7,6.1,8.69,11.51C204.93,245.93,217.58,308.7,216.69,311Z" style="fill:#fff"></path><polygon points="145.43 314.09 153.64 313.91 161.86 313.8 178.29 313.71 194.73 313.8 202.95 313.91 211.16 314.09 202.95 314.27 194.73 314.38 178.29 314.46 161.86 314.38 153.64 314.27 145.43 314.09" style="fill:#263238"></polygon><path d="M139,156.58c-20.9,21.66-38.31,66.9-28.38,71.25,9.08,4,38,.62,49.86-2.12,3.5-.8-3.3-27.86-7-27-4.52,1-16,2.59-16.52,2.55-1-.07,9.9-30.19,13.38-41.76C155.12,143.38,146.82,148.45,139,156.58Z" style="fill:#d3766a"></path><path d="M189.38,192.8a4.25,4.25,0,0,1-.4,4.85,6.34,6.34,0,0,1,3,3.09c1,2.42-2.41,5-2.41,5a7.83,7.83,0,0,1,2.66,3.75c.69,2.42-2.35,5.5-2.35,5.5a6.85,6.85,0,0,1,.25,4.78c-1.48,4.14-8,5.57-12.2,6.53s-16.87-.24-19.31-.22l-6.35-26.67s17.45-9.58,22.5-10C179,189,187.6,190,189.38,192.8Z" style="fill:#d3766a"></path><path d="M188.7,197.27c-4.62-.7-9.19,0-13.8.43-.1,0-.09.18,0,.16,4.57-.49,9.19-.06,13.77-.37A.11.11,0,0,0,188.7,197.27Z" style="fill:#263238"></path><path d="M189.41,205.41a12.05,12.05,0,0,0-3.17.24c-1.12.16-2.23.35-3.34.55q-3.35.6-6.64,1.36c-.1,0-.09.18,0,.16,2.22-.39,4.44-.75,6.68-1.06,1.11-.15,2.23-.29,3.35-.42a15,15,0,0,0,3.14-.52A.16.16,0,0,0,189.41,205.41Z" style="fill:#263238"></path><path d="M189.79,215a8.38,8.38,0,0,0-2.84.37l-3,.59c-2,.38-4,.77-6.08,1.08-.1,0-.09.18,0,.16,2.07-.31,4.15-.59,6.21-.91l3-.5a8.14,8.14,0,0,0,2.72-.69A.06.06,0,0,0,189.79,215Z" style="fill:#263238"></path><path d="M138,200.39c-1.42-1.22,10.13-29.56,13.33-42.49S148.52,145.64,139,156c-10.25,11.09-27.35,35.65-31.41,61.08-1.27,7.94-2.93,13.6,15.46,13.43A209.85,209.85,0,0,0,154.93,228l-3.76-29.11S138.38,200.75,138,200.39Z" style="fill:#FFC100"></path><path d="M148.44,227.69c-2.25-11.52-2.87-24-3.14-26.13a.08.08,0,0,1,.16,0c.15,2.13,2.41,16.29,3.16,26.13C148.63,227.8,148.47,227.8,148.44,227.69Z" style="fill:#263238"></path><path d="M124,202.54a23.91,23.91,0,0,1,3.47-.68l3.24-.57,1.41-.23H132l-1.88-.29c-.62-.1-1.25-.24-1.87-.3-.11,0-.1-.17,0-.16.62.09,1.25.09,1.88.14s1.3.1,2,.15,1.14.13,1.71.2c1.05-.17,2.09-.32,3.14-.47.48-2,1.22-4.09,1.87-6.1s1.37-4.19,2.11-6.28,1.49-4.07,2.3-6.09c.4-1,2.57-7.2,3.28-8.81,0-.1.17,0,.14.06-.42,1.64-2.63,8-3,9-.23.75-.48,1.5-.72,2.25l.09-.11,1.28-1.67c.85-1.13,1.7-2.28,2.44-3.49.06-.1.22,0,.16.1-.7,1.26-1.38,2.54-2.13,3.77-.37.61-.76,1.22-1.17,1.81a10.16,10.16,0,0,1-1.31,1.67h0l-.6,1.85c-.66,2.06-1.34,4.12-2,6.18-.61,1.89-1.13,3.83-1.82,5.7,2.14-.28,4.29-.51,6.44-.75l3.29-.36c1.18-.13,2.41-.11,3.57-.31.1,0,.14.15,0,.16-1.16.12-2.33.46-3.48.66l-3.25.54c-2.3.37-4.59.75-6.88,1.09s-4.55.57-6.83.81l-3.42.35a23.23,23.23,0,0,1-3.33.26C123.92,202.65,123.92,202.56,124,202.54Z" style="fill:#263238"></path><path d="M118.67,230.48c9.92-.27,27.77-1.46,36-2.5.11,0,.13.14,0,.16a142.65,142.65,0,0,1-36.06,2.72A.19.19,0,0,1,118.67,230.48Z" style="fill:#263238"></path></g></svg>