<svg xmlns="http://www.w3.org/2000/svg" viewBox="0 0 500 500"><g id="freepik--background-complete--inject-7"><rect x="52.76" y="64.65" width="105.82" height="110.31" style="fill:#e0e0e0"></rect><rect x="45.6" y="64.65" width="105.82" height="110.31" style="fill:#fafafa"></rect><path d="M151.45,175H45.56V64.62H151.45Zm-105.82-.07H151.39V64.68H45.63Z" style="fill:#e0e0e0"></path><rect x="59.82" y="79.48" width="77.37" height="80.65" style="fill:#fafafa"></rect><path d="M59.82,160.67a12.41,12.41,0,0,1-1.91,2.22c-1.23,1.3-3,3.07-4.91,5s-3.74,3.62-5.06,4.84a12.58,12.58,0,0,1-2.24,1.86,12.76,12.76,0,0,1,1.9-2.21c1.24-1.31,3-3.08,4.93-5s3.75-3.63,5.07-4.85A12.42,12.42,0,0,1,59.82,160.67Z" style="fill:#e0e0e0"></path><path d="M137.2,160.47a13.43,13.43,0,0,1,2.22,1.91c1.3,1.24,3.06,3,5,4.92s3.63,3.74,4.84,5.06a11.83,11.83,0,0,1,1.86,2.23,12.51,12.51,0,0,1-2.21-1.9c-1.3-1.23-3.07-3-5-4.93s-3.64-3.74-4.85-5.06A11.71,11.71,0,0,1,137.2,160.47Z" style="fill:#e0e0e0"></path><path d="M137,79.7a12.53,12.53,0,0,1,1.91-2.22c1.24-1.31,3-3.07,4.92-5s3.74-3.63,5.06-4.84a12.62,12.62,0,0,1,2.23-1.86A11.72,11.72,0,0,1,149.2,68c-1.23,1.3-3,3.07-4.93,5s-3.74,3.63-5.06,4.84A12.08,12.08,0,0,1,137,79.7Z" style="fill:#e0e0e0"></path><path d="M59.61,79.89A12.83,12.83,0,0,1,57.39,78c-1.3-1.23-3.07-3-5-4.91S48.78,69.33,47.57,68a13,13,0,0,1-1.87-2.23,12.07,12.07,0,0,1,2.22,1.89c1.3,1.24,3.07,3,5,4.93s3.64,3.75,4.85,5.07A12.42,12.42,0,0,1,59.61,79.89Z" style="fill:#e0e0e0"></path><path d="M137,160.13s0-.13,0-.39,0-.64,0-1.12c0-1,0-2.47,0-4.36,0-3.82,0-9.38-.08-16.43,0-14.13-.09-34.25-.15-58.35l.29.3-77.15,0h0l.35-.34c0,29.6,0,57.3-.05,80.65l-.3-.29,55.87.15,15.7.08,4.15,0,1.07,0H137a1.17,1.17,0,0,1-.34,0l-1,0-4.09,0-15.63.08-56.06.15h-.29v-.3c0-23.35,0-51-.05-80.65v-.34h.35l77.15,0h.3v.3c-.06,24.17-.11,44.36-.15,58.54,0,7-.06,12.56-.08,16.37,0,1.86,0,3.3,0,4.29,0,.47,0,.83,0,1.1A2.06,2.06,0,0,1,137,160.13Z" style="fill:#e0e0e0"></path><rect x="85.6" y="106.9" width="25.82" height="25.82" style="fill:#ebebeb"></rect><path d="M28.64,351.38s-6.77,1.47-1.78,16.18,8.83,22.18,8.83,22.18.78,3.36-2,3.46-8.5-1.69-10.16,1.41.26,6.77,4.85,10.31,14.36,11.66,15.24,12.4,1.61,2.34-.25,2.71-15.31-.18-15.19,6.22,14.53,14.15,16.09,15,1.85,1.63,1.58,2.52-4.77.28-8.6.28-8.27.67-7.89,4.35,8.3,12.47,29.87,17.8l10.15,1.82,6.81-7.81c13.56-17.6,14.29-29.41,12.29-32.53s-5.89-.88-8.89,1.51-6.14,5.67-6.9,5.14-1-1.3-.33-3,7.11-16.7,3.22-21.78-14.07,3.72-15.75,4.59-2.12-.85-1.89-2,2.82-13.56,4.2-19.19.74-9.66-2.62-11.09-6.62,3.6-8.83,5.23-3.7-1.48-3.7-1.48-1.64-8.25-6.9-22.86-11.61-11.44-11.61-11.44" style="fill:#ebebeb"></path><path d="M69.59,470.53c-3.82-10.75-10.28-30-15.91-46.43S42.93,392.74,39.17,382c-1.88-5.37-3.41-9.72-4.47-12.74l-1.21-3.47c-.13-.39-.23-.69-.31-.9l-.09-.31a2.85,2.85,0,0,1,.12.3c.08.21.2.51.34.89.3.8.72,2,1.27,3.44,1.1,3,2.66,7.34,4.56,12.71,3.82,10.75,9,25.64,14.6,42.1S66,459.69,69.8,470.45" style="fill:#e0e0e0"></path><path d="M31.5,397.45a3.47,3.47,0,0,1,.68.3c.44.21,1,.53,1.8.94,1.51.82,3.56,2,5.81,3.34l5.72,3.46,1.75,1a3,3,0,0,1,.62.41,3.47,3.47,0,0,1-.68-.3c-.43-.21-1.05-.54-1.8-.95-1.5-.83-3.54-2-5.78-3.38l-5.75-3.42-1.75-1A3.56,3.56,0,0,1,31.5,397.45Z" style="fill:#e0e0e0"></path><path d="M48.67,406.39c-.07-.05,2.17-4.39,5-9.7s5.23-9.58,5.31-9.54-2.17,4.38-5,9.69S48.75,406.43,48.67,406.39Z" style="fill:#e0e0e0"></path><path d="M56.18,432.06a3.74,3.74,0,0,1,.51-.57L58.14,430c1.22-1.25,2.9-3,4.69-5s3.34-3.82,4.46-5.16l1.32-1.6a3.91,3.91,0,0,1,.52-.56,3,3,0,0,1-.42.64c-.28.4-.71,1-1.24,1.66-1.08,1.38-2.61,3.25-4.41,5.24s-3.5,3.69-4.76,4.9c-.64.61-1.16,1.09-1.52,1.41A3.27,3.27,0,0,1,56.18,432.06Z" style="fill:#e0e0e0"></path><path d="M38.87,427.39a3,3,0,0,1,.7.12l1.86.42c1.58.37,3.74.91,6.13,1.52s4.55,1.18,6.11,1.61l1.84.53a3.06,3.06,0,0,1,.66.23,3.17,3.17,0,0,1-.69-.11l-1.87-.43c-1.57-.37-3.74-.91-6.13-1.52s-4.54-1.18-6.1-1.61l-1.84-.52A2.93,2.93,0,0,1,38.87,427.39Z" style="fill:#e0e0e0"></path><path d="M42.62,450.9a4.67,4.67,0,0,1,.89.15l2.39.54c2,.47,4.81,1.13,7.87,1.88s5.85,1.46,7.85,2l2.37.64a4.45,4.45,0,0,1,.86.27,4.8,4.8,0,0,1-.89-.15l-2.39-.54c-2-.46-4.8-1.13-7.87-1.88s-5.85-1.46-7.85-2l-2.37-.64A4.8,4.8,0,0,1,42.62,450.9Z" style="fill:#e0e0e0"></path><path d="M64.36,456.08a4.92,4.92,0,0,1,.62-.74l1.77-1.94c1.49-1.64,3.55-3.91,5.74-6.48S76.63,442,78,440.24l1.64-2.05a7.34,7.34,0,0,1,.63-.73,5.41,5.41,0,0,1-.53.81c-.36.5-.89,1.23-1.56,2.11-1.34,1.77-3.25,4.17-5.45,6.75s-4.29,4.83-5.82,6.43c-.78.8-1.41,1.44-1.85,1.87A5.71,5.71,0,0,1,64.36,456.08Z" style="fill:#e0e0e0"></path><path d="M264.9,404.85l-8.29,11.92s21.19,9.36,21.19,30-14.19,24.51-29.67,24.51-30.31-4.51-29.67-25.15,20-28.38,20-28.38l-9.68-12.9Z" style="fill:#f5f5f5"></path><path d="M227.54,415h100s-1,41.26-27.88,46.3l-.42,8.76h-45v-8.92S227.54,454.34,227.54,415Z" style="fill:#e0e0e0"></path><path d="M299.69,461.33c0,.14-10.21.26-22.81.26s-22.8-.12-22.8-.26,10.21-.26,22.8-.26S299.69,461.19,299.69,461.33Z" style="fill:#fff"></path><path d="M266.66,415a9.4,9.4,0,0,1-1.2,1.22l-3.41,3.16c-2.89,2.66-6.92,6.29-11.4,10.28s-8.57,7.55-11.56,10.1-4.91,4.06-5,3.93l4.75-4.21L250.3,429.3l11.51-10.16,3.52-3A12.29,12.29,0,0,1,266.66,415Z" style="fill:#fff"></path><path d="M287.52,415a2.44,2.44,0,0,1-.41.45l-1.27,1.19L281.11,421c-4,3.63-9.56,8.62-15.73,14.09s-11.8,10.4-15.9,13.92c-2,1.76-3.72,3.18-4.9,4.13a9.27,9.27,0,0,1-1.89,1.39L265,434.7l15.84-14,4.83-4.2L287,415.4A3.27,3.27,0,0,1,287.52,415Z" style="fill:#fff"></path><path d="M324,435.45a10.35,10.35,0,0,1-1.08,1.1l-3.07,2.87c-2.61,2.4-6.25,5.69-10.29,9.29s-7.74,6.83-10.44,9.12-4.45,3.65-4.54,3.53l4.29-3.81,10.34-9.23c4-3.55,7.66-6.77,10.39-9.18l3.18-2.74A7.69,7.69,0,0,1,324,435.45Z" style="fill:#fff"></path><path d="M247.76,415.27a6.51,6.51,0,0,1-.7.69l-2,1.78c-1.68,1.5-4,3.56-6.62,5.81s-5,4.26-6.71,5.69a18,18,0,0,1-2.92,2.2l2.76-2.38,6.65-5.76,6.68-5.73,2-1.71A4.31,4.31,0,0,1,247.76,415.27Z" style="fill:#fff"></path><path d="M306.57,415a3.28,3.28,0,0,1-.5.51l-1.48,1.39-5.53,5c-4.68,4.22-11.17,10-18.37,16.41s-13.75,12.13-18.53,16.25c-2.39,2.05-4.33,3.71-5.69,4.83a13.53,13.53,0,0,1-2.19,1.65L280.35,438l18.47-16.3,5.63-4.9,1.55-1.31A3.56,3.56,0,0,1,306.57,415Z" style="fill:#fff"></path><path d="M328.07,415.27a5,5,0,0,1-.5.51l-1.48,1.38-5.52,5c-4.68,4.22-11.17,10-18.37,16.41s-13.76,12.13-18.53,16.25c-2.39,2.06-4.34,3.71-5.7,4.83a13,13,0,0,1-2.19,1.65l26.07-23.12,18.47-16.3L326,417l1.54-1.31A2.88,2.88,0,0,1,328.07,415.27Z" style="fill:#fff"></path><path d="M466.43,348.31a4.26,4.26,0,1,1,4.26,4.26A4.25,4.25,0,0,1,466.43,348.31Z" style="fill:#e0e0e0"></path><path d="M479.3,325.65A2.65,2.65,0,1,1,482,328.3,2.65,2.65,0,0,1,479.3,325.65Z" style="fill:#e0e0e0"></path><path d="M468,306.89a2.43,2.43,0,1,1,3.08,1.53A2.43,2.43,0,0,1,468,306.89Z" style="fill:#e0e0e0"></path><path d="M457.26,391.6a4,4,0,1,1-4-4A4,4,0,0,1,457.26,391.6Z" style="fill:#e0e0e0"></path><path d="M457.09,422.52a2.84,2.84,0,1,1-2.84-2.84A2.84,2.84,0,0,1,457.09,422.52Z" style="fill:#e0e0e0"></path><path d="M453.15,455.11a2,2,0,1,1-2-2A2,2,0,0,1,453.15,455.11Z" style="fill:#e0e0e0"></path><path d="M469,391.6a4,4,0,1,1-3.95-4A4,4,0,0,1,469,391.6Z" style="fill:#e0e0e0"></path><circle cx="479.24" cy="419.68" r="2.84" style="fill:#e0e0e0"></circle><path d="M471,451.21a2,2,0,1,1-1.52-2.42A2,2,0,0,1,471,451.21Z" style="fill:#e0e0e0"></path><path d="M464.26,368.06a6.55,6.55,0,1,1-6.54-6.55A6.54,6.54,0,0,1,464.26,368.06Z" style="fill:#e0e0e0"></path><path d="M462,340.15a4.26,4.26,0,1,1-4.25-4.26A4.25,4.25,0,0,1,462,340.15Z" style="fill:#e0e0e0"></path><path d="M447.72,348.31a4.26,4.26,0,1,1-4.26-4.25A4.26,4.26,0,0,1,447.72,348.31Z" style="fill:#e0e0e0"></path><path d="M434.85,371a2.65,2.65,0,1,1-2.65-2.65A2.65,2.65,0,0,1,434.85,371Z" style="fill:#e0e0e0"></path><path d="M446.2,389.73a2.43,2.43,0,1,1-3.08-1.52A2.43,2.43,0,0,1,446.2,389.73Z" style="fill:#e0e0e0"></path><path d="M484.32,328.57s-6.79,15.29-9.54,18.56a15.33,15.33,0,0,1-5-3s8.12-15.52,9.51-18.15Z" style="fill:#f5f5f5"></path><path d="M483.78,322.45C483.68,322.13,473,306,473,306l-4.66,3.22L478.54,326Z" style="fill:#f5f5f5"></path><path d="M472.63,305s6.88-7.74,2.07-10.38-6.1,6.48-5.67,9.1l3.8,1.43" style="fill:#f5f5f5"></path><path d="M476.43,469.26H443a10.59,10.59,0,0,1,10.6-10.6h12.28a10.59,10.59,0,0,1,10.6,10.6Z" style="fill:#e0e0e0"></path><path d="M458.3,373c.1,0,.18,19.25.18,43s-.08,43-.18,43-.19-19.24-.19-43S458.19,373,458.3,373Z" style="fill:#e0e0e0"></path><path d="M450.73,370.29s-3.93,6.36-2.84,18.93h20.56s1.27-15-3.6-19.28Z" style="fill:#f5f5f5"></path><polygon points="448.72 394.91 458.15 394.91 457.26 421.51 450.8 421.51 448.72 394.91" style="fill:#f5f5f5"></polygon><polygon points="450.67 423.34 448.72 453.87 453.43 454.76 457.65 424.23 450.67 423.34" style="fill:#f5f5f5"></polygon><path d="M446.65,458.66a4,4,0,0,1,3.86-3.9c3.8-.14,4.22,3.9,4.22,3.9Z" style="fill:#f5f5f5"></path><polygon points="462.47 395.94 471.04 392.01 481.31 416.57 475.44 419.26 462.47 395.94" style="fill:#f5f5f5"></polygon><polygon points="475.6 419.68 466.9 449.01 471.3 450.93 482.21 422.11 475.6 419.68" style="fill:#f5f5f5"></polygon><path d="M464.83,453.53c.24.41,11.6,4.66,11.6,4.66s2.7-2.4-5.8-6.27l-1.82-.84a2.69,2.69,0,0,0-3.66,1.54Z" style="fill:#f5f5f5"></path><path d="M447.23,342.51c-.31.07.27,16.82,3.94,23,0,0,13.21-.43,13.53,0s4.6-14.58,4.21-22.64C468.91,342.91,459.63,339.58,447.23,342.51Z" style="fill:#f5f5f5"></path><path d="M456,316.5s-8.43.19-6.87,10.91,3.29,10.73,3.34,11,10.59-.73,10.59-.73S468.79,316,456,316.5Z" style="fill:#f5f5f5"></path><path d="M429.83,368.06s6.79-15.29,9.54-18.57a15.24,15.24,0,0,1,5,3s-8.12,15.52-9.51,18.14Z" style="fill:#f5f5f5"></path><path d="M430.37,374.18c.11.32,10.74,16.42,10.74,16.42l4.66-3.21-10.16-16.77Z" style="fill:#f5f5f5"></path><path d="M441.29,392.16s-6.88,7.74-2.06,10.39,6.1-6.48,5.66-9.1l-3.8-1.44" style="fill:#f5f5f5"></path><rect x="278.26" y="55.78" width="25.77" height="27.33" transform="translate(-0.37 1.56) rotate(-0.31)" style="fill:#ebebeb"></rect><rect x="303.9" y="55.64" width="25.77" height="27.33" transform="translate(-0.37 1.7) rotate(-0.31)" style="fill:#f5f5f5"></rect><path d="M278.23,63.4q25.68.21,51.41-.24a.28.28,0,0,0,0-.55c-17.12-.09-34.29,0-51.41.32a.24.24,0,0,0,0,.47Z" style="fill:#e0e0e0"></path><rect x="262.18" y="83.09" width="46.81" height="22.27" transform="translate(-0.5 1.53) rotate(-0.31)" style="fill:#ebebeb"></rect><rect x="308.77" y="82.84" width="46.81" height="22.27" transform="translate(-0.5 1.78) rotate(-0.31)" style="fill:#f5f5f5"></rect><path d="M262.15,89.41c31.1.35,62.31,0,93.41-.46a.28.28,0,0,0,0-.55c-31.1-.16-62.31-.15-93.4.54a.24.24,0,0,0,0,.47Z" style="fill:#e0e0e0"></path><rect x="244.65" y="105.11" width="181.36" height="7.98" style="fill:#ebebeb"></rect><rect x="274.34" y="108.95" width="7.36" height="27.23" style="fill:#ebebeb"></rect><rect x="384.25" y="108.95" width="7.36" height="27.23" style="fill:#ebebeb"></rect><path d="M339,52.52h95.54s-1,39.41-26.63,44.22l-.4,8.37h-43V96.59S339,90.07,339,52.52Z" style="fill:#e0e0e0"></path><path d="M407.9,96.74c0,.14-9.75.25-21.78.25s-21.78-.11-21.78-.25,9.75-.24,21.78-.24S407.9,96.61,407.9,96.74Z" style="fill:#fff"></path><path d="M430.84,72.83l-.62.07-1.8.16a24.2,24.2,0,0,1-6.93-.34,13.94,13.94,0,0,1-4.68-1.87,10.64,10.64,0,0,1-4-4.46,7.81,7.81,0,0,1-.67-3.29,5.85,5.85,0,0,1,1.21-3.37,4.14,4.14,0,0,1,1.49-1.19,3.6,3.6,0,0,1,1.95-.26,4.67,4.67,0,0,1,3.2,2.35,6.22,6.22,0,0,1,.55,4.15,11.72,11.72,0,0,1-1.64,4,14.44,14.44,0,0,1-7.12,5.74,13.74,13.74,0,0,1-9.76-.1,14.54,14.54,0,0,1-4.44-2.7,10,10,0,0,1-3-4.41,4.91,4.91,0,0,1,0-2.79,3.69,3.69,0,0,1,1.75-2.22,4.56,4.56,0,0,1,5.31,1.21,10,10,0,0,1,2.23,5.26,16.06,16.06,0,0,1-.17,5.82,17.05,17.05,0,0,1-6.18,10,15.63,15.63,0,0,1-5.49,2.69,17.57,17.57,0,0,1-6.18.41,16.32,16.32,0,0,1-10.73-5.56,11.56,11.56,0,0,1-2.63-5.42A7.85,7.85,0,0,1,373.76,71a5.93,5.93,0,0,1,5-2.78,5.55,5.55,0,0,1,4.7,3.12,4.15,4.15,0,0,1,.19,2.88,5.33,5.33,0,0,1-1.51,2.41,10.91,10.91,0,0,1-4.84,2.55,19.93,19.93,0,0,1-19-4.75,11,11,0,0,1-2.58-4,7.76,7.76,0,0,1-.26-4.54,6.44,6.44,0,0,1,2.35-3.68,5.56,5.56,0,0,1,4-1,5.43,5.43,0,0,1,3.49,1.92,5.81,5.81,0,0,1,1.29,3.56,5.59,5.59,0,0,1-1.12,3.39,8.54,8.54,0,0,1-2.51,2.23,19.73,19.73,0,0,1-5.61,2.1,35,35,0,0,1-11.91.79,23.77,23.77,0,0,1-2.4-.37l.62.07c.4.06,1,.13,1.79.2a36.35,36.35,0,0,0,6.92,0,36.74,36.74,0,0,0,4.93-.87,19.48,19.48,0,0,0,5.51-2.11A8.14,8.14,0,0,0,365.32,70a5.33,5.33,0,0,0,1.05-3.22,5.52,5.52,0,0,0-1.24-3.35,5.1,5.1,0,0,0-3.27-1.78,5.18,5.18,0,0,0-3.79.94,6.09,6.09,0,0,0-2.2,3.47,7.44,7.44,0,0,0,.27,4.32,10.37,10.37,0,0,0,2.49,3.8,19.54,19.54,0,0,0,18.59,4.6,10.56,10.56,0,0,0,4.64-2.44,5.08,5.08,0,0,0,1.38-2.21,3.62,3.62,0,0,0-.18-2.55,5.07,5.07,0,0,0-4.28-2.84,4.83,4.83,0,0,0-2.61.67,6.32,6.32,0,0,0-2,1.91A7.32,7.32,0,0,0,373,76.69a11.22,11.22,0,0,0,2.53,5.19A15.89,15.89,0,0,0,386,87.26a17,17,0,0,0,6-.4,15.08,15.08,0,0,0,5.32-2.6,16.62,16.62,0,0,0,6-9.72,15.76,15.76,0,0,0,.18-5.64,9.63,9.63,0,0,0-2.1-5,4.12,4.12,0,0,0-4.75-1.12,3.29,3.29,0,0,0-1.53,1.95,4.45,4.45,0,0,0,0,2.53,9.57,9.57,0,0,0,2.87,4.19,13.88,13.88,0,0,0,4.3,2.63,13.36,13.36,0,0,0,9.46.13,14,14,0,0,0,6.93-5.57,11.34,11.34,0,0,0,1.61-3.91,5.92,5.92,0,0,0-.49-3.91,4.35,4.35,0,0,0-3-2.19,3.2,3.2,0,0,0-1.76.23,3.68,3.68,0,0,0-1.38,1.09,5.49,5.49,0,0,0-1.16,3.18,7.61,7.61,0,0,0,.63,3.17,10.36,10.36,0,0,0,3.83,4.37,13.69,13.69,0,0,0,4.59,1.88,25,25,0,0,0,6.89.43l1.8-.11Z" style="fill:#fff"></path></g><g id="freepik--Sculpture--inject-7"><path d="M279.92,200.86l13.44,18.41L303.43,325s-9.94,21.55-9.17,37.92,1,50.87,1,50.87l-10.56,12.17-4.86,16.77L267.4,453l-.48,17.3,199.18,0V432.89l-10.35-8.42L454,400.16l-15.66-15.61-6.33-38-12.43-4.47s-6.4-18.74-13.09-22.77l1.87-18.14s28.37-6.25,31.84-10.25c1.94-2.23,3.29-17.06,4.1-29.71a90.43,90.43,0,0,0-7.63-43,29.17,29.17,0,0,0-4.33-7.4,47.1,47.1,0,0,0-12.73-9.1l-26.07-13s-4.19-11.67-10.72-14.21-29.84-5.12-34.54,5.09l-18.39,2.79s-9.47-1.5-11.91-9.34-16.09-17.56-20.48-10.23S279.92,200.86,279.92,200.86Z" style="fill:#37474F"></path><path d="M279.92,200.86l13.44,18.41L303.43,325s-9.94,21.55-9.17,37.92,1,50.87,1,50.87l-10.56,12.17-4.86,16.77L267.4,453l-.48,17.3,199.18,0V432.89l-10.35-8.42L454,400.16l-15.66-15.61-6.33-38-12.43-4.47s-6.4-18.74-13.09-22.77l1.87-18.14s28.37-6.25,31.84-10.25c1.94-2.23,3.29-17.06,4.1-29.71a90.43,90.43,0,0,0-7.63-43,29.17,29.17,0,0,0-4.33-7.4,47.1,47.1,0,0,0-12.73-9.1l-26.07-13s-4.19-11.67-10.72-14.21-29.84-5.12-34.54,5.09l-18.39,2.79s-9.47-1.5-11.91-9.34-16.09-17.56-20.48-10.23S279.92,200.86,279.92,200.86Z" style="fill:#fff;opacity:0.7000000000000001"></path><path d="M393.57,189.06a7.59,7.59,0,0,1-.45,2.41,12.15,12.15,0,0,1-3.89,5.4,17,17,0,0,1-9.13,3.72,35,35,0,0,1-12.07-1,37.62,37.62,0,0,1-11.32-4.37,18.43,18.43,0,0,1-6.83-7.13,13.24,13.24,0,0,1-1.6-6.46,7.9,7.9,0,0,1,.07-1.05,7.36,7.36,0,0,1,.13-.76,4.22,4.22,0,0,1,.16-.61c.06,0-.17.86-.16,2.42a13.41,13.41,0,0,0,1.73,6.29A18.22,18.22,0,0,0,357,194.8a37.54,37.54,0,0,0,11.17,4.27,35.46,35.46,0,0,0,11.91,1.05,17,17,0,0,0,8.95-3.53,12.45,12.45,0,0,0,3.93-5.19A23.15,23.15,0,0,0,393.57,189.06Z" style="fill:#263238"></path><path d="M400.19,258.44c-.06-.08,1.39-1.11,3.51-3A49.13,49.13,0,0,0,411,247a49.75,49.75,0,0,0,5.23-9.84c1.05-2.66,1.5-4.38,1.6-4.36a6.54,6.54,0,0,1-.25,1.23,31.79,31.79,0,0,1-1,3.26,43.73,43.73,0,0,1-12.68,18.37,30.82,30.82,0,0,1-2.69,2.09A5.6,5.6,0,0,1,400.19,258.44Z" style="fill:#263238"></path><path d="M408.4,301.16a2,2,0,0,1-.54-.08,8.53,8.53,0,0,1-1.47-.49,5.57,5.57,0,0,1-2-1.47,6.29,6.29,0,0,1-1.25-3,47.24,47.24,0,0,1-.42-8.4c0-3.15.09-6.62.28-10.26s.47-7.1.79-10.24.64-6,1.09-8.33a26.38,26.38,0,0,1,1.58-5.44c.27-.61.51-1.08.68-1.38a1.74,1.74,0,0,1,.29-.46s-.31.68-.78,1.92a29.13,29.13,0,0,0-1.41,5.43c-.4,2.34-.68,5.17-1,8.3s-.55,6.59-.74,10.23-.29,7.09-.32,10.24a50.08,50.08,0,0,0,.3,8.32,6,6,0,0,0,1.12,2.89,5.43,5.43,0,0,0,1.84,1.47C407.67,301,408.41,301.1,408.4,301.16Z" style="fill:#263238"></path><path d="M441.59,283.16a17.32,17.32,0,0,0-6.24-2.4c-4.1-.74-10,0-16,2.12a27.42,27.42,0,0,0-7.82,4.25,19.58,19.58,0,0,0-4.75,5.47,18.25,18.25,0,0,0-2.17,6.34,3,3,0,0,1,0-.48,12.35,12.35,0,0,1,.15-1.35,15.65,15.65,0,0,1,1.7-4.69,19.26,19.26,0,0,1,4.77-5.66,27.25,27.25,0,0,1,7.94-4.37c6.05-2.16,12-2.85,16.2-2a14.72,14.72,0,0,1,4.69,1.7,8.37,8.37,0,0,1,1.13.75A1.71,1.71,0,0,1,441.59,283.16Z" style="fill:#263238"></path><path d="M398.42,286.63a1.21,1.21,0,0,1-.18.32c-.14.2-.33.5-.62.85a17.39,17.39,0,0,1-2.74,2.75,23,23,0,0,1-11.73,4.81,31.37,31.37,0,0,1-12.65-1.31,32.29,32.29,0,0,1-3.63-1.33,6.63,6.63,0,0,1-1.28-.63,9.74,9.74,0,0,1,1.35.44c.85.31,2.1.73,3.66,1.17a33,33,0,0,0,12.49,1.14,23.73,23.73,0,0,0,11.56-4.58A29.65,29.65,0,0,0,398.42,286.63Z" style="fill:#263238"></path><path d="M393.11,272.8c0-.05.7.05,1.42.83a3.48,3.48,0,0,1,.82,1.64,3.68,3.68,0,0,1-1.86,3.86,1.91,1.91,0,0,1-1.87,0,1.77,1.77,0,0,1-.75-1c-.09-.28-.06-.45,0-.45s.08.14.22.37a1.81,1.81,0,0,0,.74.75c.79.46,2.19-.28,2.77-1.56a3.3,3.3,0,0,0,.31-1.92,3.41,3.41,0,0,0-.64-1.48C393.67,273.11,393.07,272.88,393.11,272.8Z" style="fill:#263238"></path><path d="M307.51,162.06a1.71,1.71,0,0,1,.21.5,9.61,9.61,0,0,1,.39,1.51,15.93,15.93,0,0,1-.15,5.74,48.56,48.56,0,0,1-2.51,8.12,78,78,0,0,1-4.44,9.42,74.62,74.62,0,0,1-11.19,15.19,12.22,12.22,0,0,1-4.69,3.29,6.14,6.14,0,0,1-1.54.3,1.85,1.85,0,0,1-.54,0,9.37,9.37,0,0,0,2-.46,12.76,12.76,0,0,0,4.48-3.36,80,80,0,0,0,11-15.19,82.73,82.73,0,0,0,4.44-9.33,51.82,51.82,0,0,0,2.6-8,17.08,17.08,0,0,0,.31-5.63C307.73,162.78,307.46,162.07,307.51,162.06Z" style="fill:#263238"></path><path d="M336.05,403.75a3.33,3.33,0,0,1,.57-.13l1.68-.29,6.33-1L367,398.82l-.18.15c2.64-6.47,5.64-13.78,8.8-21.5l6.61-16.07,0-.09.08,0L406.05,349l6.86-3.49,1.84-.92a5.23,5.23,0,0,1,.65-.29,3.37,3.37,0,0,1-.61.37l-1.8,1-6.8,3.62-23.64,12.42.12-.13-6.59,16.09-8.85,21.47-.05.13-.13,0-22.37,3.29-6.36.9-1.69.22A3.15,3.15,0,0,1,336.05,403.75Z" style="fill:#263238"></path><path d="M366.54,292.41c2.91,3.9,8.1,7.56,12.87,8.52a14.3,14.3,0,0,0,16.87-11.33c-1.72,1-3.28,2.33-5.06,3.24a21.34,21.34,0,0,1-8.45,2.56c-2.61.27-11.94.19-16.23-3" style="fill:#37474F"></path><g style="opacity:0.5"><path d="M366.54,292.41c2.91,3.9,8.1,7.56,12.87,8.52a14.3,14.3,0,0,0,16.87-11.33c-1.72,1-3.28,2.33-5.06,3.24a21.34,21.34,0,0,1-8.45,2.56c-2.61.27-11.94.19-16.23-3" style="fill:#fff"></path></g><path d="M313.89,271.25a5.47,5.47,0,0,0,3.3,8.38,3.07,3.07,0,0,0,2.23-.21,1.64,1.64,0,0,0,.76-2c-.32-.74-1.22-1-2-1.27a8.28,8.28,0,0,1-4.57-4.25" style="fill:#37474F"></path><path d="M306.46,282.52A15.83,15.83,0,0,0,309,292.58a23.45,23.45,0,0,0,7.57,7.26c2.85,1.78,6.18,3.12,9.52,2.7s6.55-3.08,6.68-6.44a1.92,1.92,0,0,0-.48-1.53c-.67-.61-1.67-.06-2.57.05-3.71.46-8.74-.75-13.06-2.57a26.2,26.2,0,0,1-5.49-3.29c-1.85-1.35-4.1-4-4.68-6.24" style="fill:#37474F"></path><path d="M349.94,362.77a4.94,4.94,0,0,1,2.84-3.57,9.81,9.81,0,0,1,3.74-.57,2.82,2.82,0,0,1,2.08.52,2.09,2.09,0,0,1,.24,2.22,4.64,4.64,0,0,1-4.39,2.63c-1.82,0-3.18,0-4.51-1.23" style="fill:#37474F"></path><polygon points="382.53 362.88 367.84 398.19 390.38 418.34 382.53 362.88" style="fill:#37474F"></polygon><g style="opacity:0.5"><path d="M313.89,271.25a5.47,5.47,0,0,0,3.3,8.38,3.07,3.07,0,0,0,2.23-.21,1.64,1.64,0,0,0,.76-2c-.32-.74-1.22-1-2-1.27a8.28,8.28,0,0,1-4.57-4.25" style="fill:#fff"></path></g><g style="opacity:0.5"><path d="M306.46,282.52A15.83,15.83,0,0,0,309,292.58a23.45,23.45,0,0,0,7.57,7.26c2.85,1.78,6.18,3.12,9.52,2.7s6.55-3.08,6.68-6.44a1.92,1.92,0,0,0-.48-1.53c-.67-.61-1.67-.06-2.57.05-3.71.46-8.74-.75-13.06-2.57a26.2,26.2,0,0,1-5.49-3.29c-1.85-1.35-4.1-4-4.68-6.24" style="fill:#fff"></path></g><g style="opacity:0.5"><path d="M349.94,362.77a4.94,4.94,0,0,1,2.84-3.57,9.81,9.81,0,0,1,3.74-.57,2.82,2.82,0,0,1,2.08.52,2.09,2.09,0,0,1,.24,2.22,4.64,4.64,0,0,1-4.39,2.63c-1.82,0-3.18,0-4.51-1.23" style="fill:#fff"></path></g><polygon points="382.53 362.88 367.84 398.19 390.38 418.34 382.53 362.88" style="fill:#fff;opacity:0.5"></polygon><polygon points="284.73 425.91 279.87 442.68 267.4 453 266.92 470.3 347.81 470.3 312.42 454.48 309.89 434.62 292.2 425.91 284.73 425.91" style="fill:#37474F"></polygon><polygon points="284.73 425.91 279.87 442.68 267.4 453 266.92 470.3 347.81 470.3 312.42 454.48 309.89 434.62 292.2 425.91 284.73 425.91" style="fill:#fff;opacity:0.5"></polygon><path d="M319.25,276.53a3.7,3.7,0,0,1-2-.35,6.44,6.44,0,0,1-3.59-3.41,5.06,5.06,0,0,1-.38-2.78,4.32,4.32,0,0,1,.95-2.08,2.6,2.6,0,0,1,1.75-1.09,6.15,6.15,0,0,0-1.46,1.31,4.28,4.28,0,0,0-.77,1.93,4.87,4.87,0,0,0,.39,2.5,6.59,6.59,0,0,0,3.25,3.29C318.47,276.37,319.26,276.44,319.25,276.53Z" style="fill:#263238"></path><path d="M336.86,292.15a3.37,3.37,0,0,1-.49.42,10.76,10.76,0,0,1-1.59,1A15,15,0,0,1,328.1,295a27.15,27.15,0,0,1-10-2,23.94,23.94,0,0,1-10-7.32,24.9,24.9,0,0,1-5.08-11.31,25.47,25.47,0,0,1,.37-10.14,26.27,26.27,0,0,1,2.45-6.39c.4-.7.72-1.24,1-1.59a3,3,0,0,1,.38-.52s-.44.78-1.17,2.21a28.14,28.14,0,0,0-2.27,6.38,25.56,25.56,0,0,0-.25,10,24.62,24.62,0,0,0,5,11.06,23.8,23.8,0,0,0,9.76,7.21,27.67,27.67,0,0,0,9.77,2.07,15.52,15.52,0,0,0,6.59-1.24A21.69,21.69,0,0,0,336.86,292.15Z" style="fill:#263238"></path><path d="M322.57,179.42c1.34,4.75-.33,9.75-1.46,14.55s-1.54,10.41,1.69,14.14a4.83,4.83,0,0,0,4.13,1.9,5,5,0,0,0,3.35-2.94c2.22-4.51.85-9.87-.55-14.69s-3.06-10.06-7.14-13" style="fill:#37474F"></path><g style="opacity:0.5"><path d="M322.57,179.42c1.34,4.75-.33,9.75-1.46,14.55s-1.54,10.41,1.69,14.14a4.83,4.83,0,0,0,4.13,1.9,5,5,0,0,0,3.35-2.94c2.22-4.51.85-9.87-.55-14.69s-3.06-10.06-7.14-13" style="fill:#fff"></path></g><path d="M348.12,179.29a6,6,0,0,1-.38,2.44,16.21,16.21,0,0,1-2.81,5.26,31.39,31.39,0,0,1-4.12,4.29,10.58,10.58,0,0,1-1.93,1.51,13,13,0,0,1,1.68-1.78,44.73,44.73,0,0,0,4-4.34,19.14,19.14,0,0,0,2.87-5C347.9,180.21,348,179.28,348.12,179.29Z" style="fill:#263238"></path><path d="M360.22,358s-.42.87-1,2.34a9.39,9.39,0,0,1-1.44,2.43,4.66,4.66,0,0,1-1.33,1.09,3.54,3.54,0,0,1-1.82.42,18.57,18.57,0,0,1-6-1.71,8.55,8.55,0,0,1-2.21-1.32c0-.07.9.39,2.36,1a26.78,26.78,0,0,0,2.6.89,15.79,15.79,0,0,0,3.27.64,3.52,3.52,0,0,0,2.78-1.31,10.28,10.28,0,0,0,1.47-2.28A7.39,7.39,0,0,1,360.22,358Z" style="fill:#263238"></path><path d="M349,470.34a5,5,0,0,1-.75-.27l-2.12-.87-7.8-3.29-26-11.19-.14-.06,0-.15c-.14-1.14-.3-2.35-.45-3.58-.73-5.76-1.42-11.26-2.06-16.28l.14.19L291.08,426h.05l-4.74-.07-1.24,0a1.24,1.24,0,0,1-.42,0,2.24,2.24,0,0,1,.42,0l1.24,0,4.74-.06h.06L310,434.4l.12.06,0,.13c.65,5,1.35,10.51,2.09,16.28.16,1.22.31,2.44.46,3.58l-.16-.21,26,11.34,7.74,3.45,2.08,1A5.38,5.38,0,0,1,349,470.34Z" style="fill:#263238"></path><path d="M320.05,203.9a33.44,33.44,0,0,1,.81-3.34,63.41,63.41,0,0,0,1.91-16.38,34,34,0,0,1,0-3.44,3.74,3.74,0,0,1,.17.91c.09.59.17,1.45.22,2.52a49.24,49.24,0,0,1-.26,8.32,50.65,50.65,0,0,1-1.65,8.17c-.3,1-.58,1.84-.79,2.4A3.52,3.52,0,0,1,320.05,203.9Z" style="fill:#263238"></path></g><g id="freepik--Character--inject-7"><polygon points="261.95 284.28 285.78 271.75 279.91 278.63 308.08 345.68 308.08 349.2 304.39 347.69 269.85 282.38 261.95 284.28" style="fill:#455a64"></polygon><path d="M288.25,291.44s5-1.54,7.13,0,1.93,5.58,1.93,5.58,3.65,2.51,4.62,4.24,0,4.81,0,4.81a9,9,0,0,1,2.11,3.28,7.15,7.15,0,0,1,0,4.81,9,9,0,0,1,.43,5c-.62,2.5-4.12,4.55-4.12,4.55s-12.29,7.19-19.8,4.88l-6.74,1.93s-21.56,2.89-26.76-2.31-15.82-15.05-15.82-15.05l20.7-24.44,17.48,14.34,12-3.93Z" style="fill:#ffbe9d"></path><path d="M296.1,298.77a3.22,3.22,0,0,1-.53.73c-.38.45-.94,1.07-1.68,1.8a34.83,34.83,0,0,1-6.4,4.93,11.75,11.75,0,0,1-4.13,1.8,3.63,3.63,0,0,1-2-.32,4.36,4.36,0,0,1-1.39-1.07,7.39,7.39,0,0,1-1.3-2.1,2.63,2.63,0,0,1-.27-.86,3.72,3.72,0,0,1,.45.77,8.79,8.79,0,0,0,1.39,1.94,3.56,3.56,0,0,0,3.07,1.17,12,12,0,0,0,3.92-1.78,41.77,41.77,0,0,0,6.42-4.75C295.17,299.65,296,298.72,296.1,298.77Z" style="fill:#eb996e"></path><path d="M298,307.35c0,.08-1.23.64-3.12,1.78s-4.41,2.89-7.36,4.61a11.41,11.41,0,0,1-4.52,1.78,3.46,3.46,0,0,1-2.12-.54,2.6,2.6,0,0,1-1.1-1.57,5.09,5.09,0,0,1,.23-2.67,2.75,2.75,0,0,1,.38-.9,4.77,4.77,0,0,1-.19,1,5.4,5.4,0,0,0-.07,2.52,2.32,2.32,0,0,0,1,1.31,3.13,3.13,0,0,0,1.87.42,11.45,11.45,0,0,0,4.28-1.75c2.91-1.7,5.46-3.44,7.43-4.48,1-.53,1.81-.91,2.38-1.15A3.61,3.61,0,0,1,298,307.35Z" style="fill:#eb996e"></path><path d="M301.68,315.87a20.18,20.18,0,0,1-2.85,1.23c-1.79.7-4.26,1.64-7,2.64a12.18,12.18,0,0,1-4.07,1,3.9,3.9,0,0,1-3.14-1.38,2.6,2.6,0,0,1-.42-2.29c.18-.54.45-.73.46-.71s-.16.26-.27.76a2.53,2.53,0,0,0,.52,2,3.56,3.56,0,0,0,2.85,1.13,12.31,12.31,0,0,0,3.9-1c2.74-1,5.23-1.88,7.05-2.49A18,18,0,0,1,301.68,315.87Z" style="fill:#eb996e"></path><path d="M268.77,311.38V298.56l6.78-4.43s7.44,4,8.66,4.95c1.67,1.3.6,5.11-2,5.1a42.3,42.3,0,0,1-5.88-.42Z" style="fill:#ffbe9d"></path><path d="M281.83,297.66s.23.21.69.5c.24.15.54.31.88.51a3.6,3.6,0,0,1,1.11.88,3.07,3.07,0,0,1-.2,3.56,2.75,2.75,0,0,1-2,.88c-.72.06-1.47.12-2.24.16a12.34,12.34,0,0,1-4.23-.46l.28-.35a8.74,8.74,0,0,1,1.21,4.87,8.2,8.2,0,0,1-.21,1.43c-.09.32-.16.49-.19.48s.12-.71.1-1.91a9.06,9.06,0,0,0-1.32-4.62l-.34-.54.61.18a12.33,12.33,0,0,0,4.07.4c.75,0,1.5-.09,2.21-.15a2.29,2.29,0,0,0,1.71-.67,2.71,2.71,0,0,0,.27-3,9.08,9.08,0,0,0-1.8-1.44C282,298,281.8,297.67,281.83,297.66Z" style="fill:#eb996e"></path><path d="M277.3,324.51a9,9,0,0,1-2.41-.93,10.4,10.4,0,0,1-2.37-1.57,8.2,8.2,0,0,1-2-2.87,21.2,21.2,0,0,1-1.51-6.07,6.91,6.91,0,0,1,.09-2.59c.08,0,0,1,.28,2.55a25.14,25.14,0,0,0,1.62,5.9,8.12,8.12,0,0,0,1.85,2.73,11.4,11.4,0,0,0,2.21,1.59A20.16,20.16,0,0,1,277.3,324.51Z" style="fill:#eb996e"></path><path d="M263.12,299.88c0,.1-1.69.65-4.16,2.17a24,24,0,0,0-11.39,18.49c-.25,2.89,0,4.69-.06,4.69a5.06,5.06,0,0,1-.23-1.25,21.41,21.41,0,0,1-.07-3.46,23.17,23.17,0,0,1,11.56-18.79,21,21,0,0,1,3.14-1.49A4.94,4.94,0,0,1,263.12,299.88Z" style="fill:#eb996e"></path><path d="M123.55,101.41l3.33,85.92,43-1.4c.51-5,1.06-24.36,1.06-24.36s18-1.93,19-19.75c.52-8.66.13-26.61-.41-42.79a33,33,0,0,0-33.39-31.94h0A33,33,0,0,0,123.55,101.41Z" style="fill:#ffbe9d"></path><path d="M171,161.61a41.54,41.54,0,0,1-22.94-7.71s4.89,13.1,22.76,12.33Z" style="fill:#eb996e"></path><path d="M183.73,111.8a2.56,2.56,0,0,1-2.58,2.46,2.44,2.44,0,0,1-2.51-2.42,2.55,2.55,0,0,1,2.57-2.46A2.44,2.44,0,0,1,183.73,111.8Z" style="fill:#263238"></path><path d="M185.32,108.13c-.33.32-2.19-1.2-4.93-1.32s-4.82,1.15-5.1.8c-.14-.15.21-.74,1.12-1.33a7,7,0,0,1,4.1-1.06,6.71,6.71,0,0,1,3.9,1.47C185.22,107.38,185.48,108,185.32,108.13Z" style="fill:#263238"></path><path d="M157.77,111.72a2.56,2.56,0,0,1-2.58,2.45,2.43,2.43,0,0,1-2.51-2.42,2.53,2.53,0,0,1,2.57-2.45A2.43,2.43,0,0,1,157.77,111.72Z" style="fill:#263238"></path><path d="M158.36,107.37c-.33.32-2.19-1.2-4.93-1.32s-4.81,1.15-5.1.8c-.13-.16.21-.74,1.12-1.34a7,7,0,0,1,4.1-1.05,6.75,6.75,0,0,1,3.91,1.47C158.27,106.62,158.52,107.23,158.36,107.37Z" style="fill:#263238"></path><path d="M167.35,128.16c0-.16,1.71-.37,4.48-.59.71,0,1.38-.15,1.52-.62a3.65,3.65,0,0,0-.37-2.1c-.58-1.72-1.18-3.53-1.82-5.42-2.51-7.72-4.3-14.06-4-14.16s2.61,6.08,5.12,13.8c.6,1.91,1.18,3.72,1.73,5.46a4,4,0,0,1,.23,2.76,1.76,1.76,0,0,1-1.2,1,5.31,5.31,0,0,1-1.19.11C169.07,128.39,167.35,128.32,167.35,128.16Z" style="fill:#263238"></path><path d="M159.19,129.67c.45,0,.31,3,2.76,5.21s5.63,2.05,5.63,2.47c0,.18-.73.54-2.07.51A7.4,7.4,0,0,1,160.8,136a6.46,6.46,0,0,1-2.12-4.35C158.62,130.37,159,129.65,159.19,129.67Z" style="fill:#263238"></path><path d="M159.58,96.67c-.31.73-3,.25-6.26.48s-5.87,1-6.27.3c-.17-.33.31-1,1.39-1.68a10.59,10.59,0,0,1,4.71-1.4,10.45,10.45,0,0,1,4.84.8C159.15,95.71,159.71,96.32,159.58,96.67Z" style="fill:#263238"></path><path d="M184.69,100.16c-.51.6-2.37-.14-4.64-.28s-4.21.22-4.62-.45c-.18-.32.15-.93,1-1.48a6.74,6.74,0,0,1,7.46.58C184.68,99.21,184.91,99.86,184.69,100.16Z" style="fill:#263238"></path><path d="M143.81,83.07l-.1.07A14.09,14.09,0,0,0,138.07,92c0,.12,0,.24-.07.35-.94,5.06-1.05,10.23-2,15.28s-3,10.12-6.91,13.45c-1.62,1.36-4.39,2.22-5.58.48a4.44,4.44,0,0,1-.53-2.36c-.37-12.33-3.21-23.38-2.58-36.22a10.89,10.89,0,0,1,4.91-8.6c2.78-1.8,6.16-3.64,9.08-2.08s6.53,7.33,8.73,9.81" style="fill:#263238"></path><path d="M129.16,110.06c-.3-.15-12.08-4.21-12.27,8S129,127.94,129,127.59,129.16,110.06,129.16,110.06Z" style="fill:#ffbe9d"></path><path d="M125.37,122.91c-.05,0-.22.14-.58.3a2.09,2.09,0,0,1-1.59,0c-1.28-.49-2.34-2.56-2.36-4.76a6.88,6.88,0,0,1,.64-3,2.44,2.44,0,0,1,1.63-1.61,1.07,1.07,0,0,1,1.24.6c.16.34.08.59.14.61s.27-.2.18-.71a1.41,1.41,0,0,0-.47-.77,1.63,1.63,0,0,0-1.17-.33,3,3,0,0,0-2.25,1.86,7.16,7.16,0,0,0-.79,3.39c0,2.46,1.26,4.78,3,5.32a2.28,2.28,0,0,0,1.95-.29C125.34,123.2,125.41,122.93,125.37,122.91Z" style="fill:#eb996e"></path><path d="M132.51,76c-3.52-4.53,3.91-12.39,9.69-14.93s14-.49,20.16.84c3.89.84,7.83,2.17,11.77,1.57a27,27,0,0,0,7.48-2.8,19.68,19.68,0,0,1,7.59-2.38c2.67-.1,5.55,1,6.83,3.36s.2,5.87-2.39,6.52c3.15-2.21,8.27-.31,9.23,3.42s-2.61,7.86-6.44,7.45c1.58-1.5,4.46.37,4.48,2.55s-1.76,4-3.64,5c-4.82,2.77-10.8,2.7-16.22,1.51s-10.59-3.4-16-4.73-14.46-3.77-19.47-1.36c-3.69,1.77-5.85,6.68-8.13,5.9a7.49,7.49,0,0,1-4.44-5,21.75,21.75,0,0,1-.51-6.93" style="fill:#263238"></path><path d="M216,200.47s8.26,7.73,10.1,23.5S232,260.51,232,260.51l26,26.14L228.12,320l-22.58-21.53L200,264.79Z" style="fill:#263238"></path><polygon points="173.16 177.05 126.44 174.51 89.85 185.35 91.32 265.07 86.52 393.86 222.11 393.86 212.91 295.01 216.09 200.52 173.16 177.05" style="fill:#263238"></polygon><path d="M89.85,185.35s-20.15,5.57-26,23.66c-3.4,10.46-26.32,72.2-27.3,77.58s-7.33,37.66,25.92,43h18.1L93.76,289l-5.38-3.91,15.17-42.06Z" style="fill:#263238"></path><polyline points="123.58 176.76 123.58 167.14 172.76 170.14 172.76 180.3 160.4 192.38 123.58 178.91" style="fill:#263238"></polyline><path d="M103.9,234.09a1.85,1.85,0,0,1,0-.54c0-.41,0-.92,0-1.54,0-1.34.07-3.28.08-5.67a74.69,74.69,0,0,0-.41-8.38,41.15,41.15,0,0,0-2.26-10,27.52,27.52,0,0,0-5.3-8.66,22.19,22.19,0,0,0-6.58-5,17.29,17.29,0,0,0-5.34-1.68c-1.32-.18-2.07-.18-2.06-.24a3.06,3.06,0,0,1,.53,0,10,10,0,0,1,1.55.06A16.27,16.27,0,0,1,89.58,194a22.14,22.14,0,0,1,6.78,5,27.61,27.61,0,0,1,5.43,8.8,40.6,40.6,0,0,1,2.25,10.1,68.81,68.81,0,0,1,.29,8.43c0,2.4-.15,4.34-.24,5.68,0,.62-.08,1.13-.11,1.54A1.74,1.74,0,0,1,103.9,234.09Z" style="fill:#455a64"></path><path d="M101.29,241.92a10,10,0,0,1-.41,1.73c-.33,1.18-.77,2.75-1.3,4.66-1.13,3.92-2.71,9.33-4.49,15.29S91.66,275,90.45,278.85c-.6,1.88-1.09,3.43-1.46,4.6a10.55,10.55,0,0,1-.61,1.67,13.7,13.7,0,0,1,.41-1.72c.33-1.18.77-2.75,1.31-4.66,1.12-3.92,2.71-9.33,4.49-15.29S98,252.09,99.23,248.2c.59-1.89,1.09-3.44,1.46-4.61A13.94,13.94,0,0,1,101.29,241.92Z" style="fill:#455a64"></path><path d="M70.43,304.84a5.32,5.32,0,0,1,.25-1.1c.19-.7.49-1.71.9-2.94A32.52,32.52,0,0,1,76,291.66a18.19,18.19,0,0,1,8.2-5.94,11.72,11.72,0,0,1,3-.63,3.68,3.68,0,0,1,1.13,0,19.53,19.53,0,0,0-4,.95A18.77,18.77,0,0,0,76.43,292a36.83,36.83,0,0,0-4.51,8.94c-.41,1.13-.76,2.1-1,2.88A4.38,4.38,0,0,1,70.43,304.84Z" style="fill:#455a64"></path><path d="M80.56,329.63a3,3,0,0,1,.17-.69l.58-2c.55-1.74,1.31-4.17,2.24-7.15,2-6.07,4.63-14.36,7.58-23.53L93.52,289l.09.28-5.37-3.93h0A14.37,14.37,0,0,0,84.63,283a16.45,16.45,0,0,0-3.72-1.21,16.25,16.25,0,0,0-6.39-.09,13.09,13.09,0,0,0-5.19,2.22s.09-.1.28-.26a8.33,8.33,0,0,1,.91-.67,11.86,11.86,0,0,1,3.94-1.57,17.21,17.21,0,0,1,10.35,1.18A14.65,14.65,0,0,1,88.54,285l0,0,5.39,3.9.15.11,0,.17-2.39,7.35L83.9,320c-1,2.95-1.81,5.36-2.39,7.1-.29.79-.51,1.43-.68,1.92A3.52,3.52,0,0,1,80.56,329.63Z" style="fill:#455a64"></path><path d="M173.9,179.6a1.84,1.84,0,0,1-.45.25l-1.35.63a20.07,20.07,0,0,1-2.17.88c-.86.31-1.83.71-2.94,1l-1.74.5c-.6.18-1.25.3-1.91.45-1.31.33-2.75.53-4.26.78a52.7,52.7,0,0,1-19.7-1.06c-1.48-.4-2.88-.75-4.16-1.22-.64-.23-1.26-.42-1.85-.65l-1.67-.69c-1.08-.42-2-.92-2.82-1.31a20.27,20.27,0,0,1-2.06-1.12l-1.27-.76c-.29-.18-.44-.28-.43-.3a1.8,1.8,0,0,1,.48.21l1.31.67c.57.31,1.26.67,2.1,1s1.75.85,2.83,1.24l1.67.65c.58.22,1.21.4,1.85.62,1.27.45,2.67.78,4.13,1.16a58.07,58.07,0,0,0,9.72,1.41,59.82,59.82,0,0,0,9.81-.36c1.5-.23,2.92-.41,4.23-.72.66-.15,1.3-.25,1.9-.42l1.74-.47c1.11-.27,2.08-.64,2.94-.92s1.6-.56,2.19-.8l1.38-.53A2.42,2.42,0,0,1,173.9,179.6Z" style="fill:#455a64"></path><path d="M210.09,272.7a2.75,2.75,0,0,1,0-.54l.15-1.55c.15-1.42.35-3.34.59-5.68.5-4.8,1.1-11.44,1.54-18.78s.62-14,.71-18.83c0-2.35.06-4.29.08-5.71,0-.63,0-1.14,0-1.55a3,3,0,0,1,0-.55,2,2,0,0,1,.06.54c0,.42,0,.93.06,1.56.05,1.35.08,3.3.08,5.71,0,4.83-.12,11.5-.55,18.86s-1.1,14-1.69,18.79c-.29,2.4-.55,4.33-.76,5.67l-.25,1.53A2,2,0,0,1,210.09,272.7Z" style="fill:#455a64"></path><polygon points="86.06 366.79 67.3 470.21 82.02 470.21 86.06 366.79" style="fill:#455a64"></polygon><path d="M219.29,341.52l-11.15-81.29L190.9,186.75l-7-3.81,5.28,46.44H123.59l-12.45-50.47-5.74,1.76s1.35,14,7.61,48.71-23.45,83-23.45,83L79.41,470.53H228.12Z" style="fill:#37474F"></path><path d="M194.39,274.89a2.74,2.74,0,0,1-.62.07l-1.75.11-6.47.27-21.36.73-21.36.57-6.47.11H134.6a2.4,2.4,0,0,1-.61,0,2.7,2.7,0,0,1,.61-.07l1.76-.1,6.47-.28,21.35-.72,21.35-.57,6.48-.12h1.76A2.59,2.59,0,0,1,194.39,274.89Z" style="fill:#263238"></path><path d="M114.91,310.5a9.62,9.62,0,0,1,1.07-.85,28.35,28.35,0,0,0,2.78-2.44A26.33,26.33,0,0,0,122.2,303a53.21,53.21,0,0,0,3.19-5.92,118.44,118.44,0,0,0,5-11.18c.53-1.47.91-2.68,1.16-3.52a7.37,7.37,0,0,1,.41-1.3,5.34,5.34,0,0,1-.22,1.35,35.06,35.06,0,0,1-1,3.59,93.21,93.21,0,0,1-4.87,11.29,48.59,48.59,0,0,1-3.26,5.95,24.51,24.51,0,0,1-3.58,4.24,23.66,23.66,0,0,1-2.92,2.33A5.49,5.49,0,0,1,114.91,310.5Z" style="fill:#263238"></path><path d="M211.69,316.54a1.87,1.87,0,0,1,.05.4c0,.3,0,.69.09,1.19s.08,1.17.13,1.92l.08,1.23c0,.44,0,.91,0,1.4a47,47,0,0,1-2.47,16.54,33,33,0,0,1-5.64,10.11,33.55,33.55,0,0,1-10.41,8.25,49.72,49.72,0,0,1-14,4.48,82.21,82.21,0,0,1-15.75,1.05A132,132,0,0,1,148,361.72a61.3,61.3,0,0,1-14.24-3.65,32.28,32.28,0,0,1-11.2-7.14,22.16,22.16,0,0,1-5.71-10,42.7,42.7,0,0,1-1.18-9.49c-.09-2.82-.11-5.23-.2-7.21s-.22-3.5-.33-4.54q-.09-.74-.15-1.17a2,2,0,0,1,0-.4s0,.13.08.39.12.68.2,1.17c.15,1,.33,2.56.44,4.54s.16,4.4.28,7.21a43.18,43.18,0,0,0,1.25,9.4,21.77,21.77,0,0,0,5.66,9.82,31.93,31.93,0,0,0,11.06,7,61.42,61.42,0,0,0,14.14,3.58,131.35,131.35,0,0,0,15.67,1.38,82.75,82.75,0,0,0,15.65-1,49.67,49.67,0,0,0,13.86-4.41,33.33,33.33,0,0,0,10.3-8.1,32.48,32.48,0,0,0,5.62-9.95,47.94,47.94,0,0,0,2.62-16.42c0-.49,0-1,0-1.4s0-.84-.05-1.22c0-.76-.06-1.4-.08-1.93s0-.89,0-1.18S211.69,316.54,211.69,316.54Z" style="fill:#263238"></path><path d="M212,306.25a7,7,0,0,1-1.12-.64c-.35-.22-.78-.49-1.25-.85s-1-.73-1.59-1.22a34.93,34.93,0,0,1-3.8-3.6,39.6,39.6,0,0,1-3.9-5.08,42.09,42.09,0,0,1-3-5.68,36.74,36.74,0,0,1-1.65-5c-.21-.72-.32-1.39-.44-2s-.19-1.08-.24-1.49a5.66,5.66,0,0,1-.1-1.29c.1,0,.33,1.81,1.13,4.65a41.62,41.62,0,0,0,1.75,4.87,42.34,42.34,0,0,0,3,5.59,43.32,43.32,0,0,0,3.81,5,41.42,41.42,0,0,0,3.68,3.64C210.52,305.19,212.08,306.17,212,306.25Z" style="fill:#263238"></path><g style="opacity:0.30000000000000004"><path d="M115.94,333.14c.45,6-.35,12.64,1.35,18.46s4.78,11.4,9.59,15.09,11,5.18,16.89,6.5c6.25,1.38,12.58,2.67,19,2.6a65.33,65.33,0,0,0,12.83-1.65c9.4-2,18.81-5.4,26-11.82s11.59-19.8,9.49-29.18A38.61,38.61,0,0,1,200,353c-5.59,5.57-17.83,9.44-27.43,9.63-15,.3-30.91-.18-44.05-7.42a28,28,0,0,1-7.13-6c-4.05-4.62-4.25-10.09-5.43-16.12"></path></g><path d="M119.7,235.89c-.06,0,.52-.44,1.45-.1a1.66,1.66,0,0,1,1.13,1.26,1.22,1.22,0,0,1-.37,1,2.36,2.36,0,0,1-3,.23,1.49,1.49,0,0,1-.48-1.62,1.51,1.51,0,0,1,.69-.88c.23-.13.38-.13.39-.1s-.55.29-.73,1.07a1.15,1.15,0,0,0,.42,1.15,1.89,1.89,0,0,0,1.58.2c.58-.16,1-.59,1-1a1.32,1.32,0,0,0-.8-1A3.32,3.32,0,0,0,119.7,235.89Z" style="fill:#263238"></path><path d="M195.73,231.69c0-.05.75-.21,1.66.53a1.93,1.93,0,0,1,.63,1.87,2,2,0,0,1-.63,1.06,1.65,1.65,0,0,1-1.31.34,2.45,2.45,0,0,1-1.86-1.54,1.94,1.94,0,0,1,.28-1.95,1.76,1.76,0,0,1,1.14-.67c.31,0,.48,0,.47.07a2.12,2.12,0,0,0-1.32.82,1.61,1.61,0,0,0-.13,1.55,2.07,2.07,0,0,0,1.5,1.21,1.25,1.25,0,0,0,1.39-1,1.55,1.55,0,0,0-.42-1.49A4,4,0,0,0,195.73,231.69Z" style="fill:#263238"></path><path d="M200.74,228.67a4.22,4.22,0,0,1,.44,1.14,14.28,14.28,0,0,1,.53,3.28,12.56,12.56,0,0,1-.65,4.9,4.76,4.76,0,0,1-1.83,2.36,7.22,7.22,0,0,1-6.24.22,5.46,5.46,0,0,1-1.89-2.32,17.87,17.87,0,0,1-1.57-4.68c-.27-1.37-.4-2.5-.48-3.27a5,5,0,0,1-.07-1.21c.09,0,.31,1.7.91,4.4a18.87,18.87,0,0,0,1.63,4.54,5.26,5.26,0,0,0,1.72,2.1,5.76,5.76,0,0,0,2.88.52,5.62,5.62,0,0,0,2.83-.73,4.26,4.26,0,0,0,1.67-2.11,13.16,13.16,0,0,0,.72-4.71A25,25,0,0,0,200.74,228.67Z" style="fill:#263238"></path><path d="M122.58,226.79a5.92,5.92,0,0,1,.5,1.14c.29.75.7,1.83,1.13,3.2a28.25,28.25,0,0,1,1.11,4.94,7.25,7.25,0,0,1-.26,3,4.59,4.59,0,0,1-2.12,2.52,7.58,7.58,0,0,1-6.17.54,4.15,4.15,0,0,1-2.07-1.85,10.26,10.26,0,0,1-.86-2.23,14,14,0,0,1-.48-3.38,4.29,4.29,0,0,1,.1-1.25,21.35,21.35,0,0,0,.74,4.53,10,10,0,0,0,.87,2.11,3.68,3.68,0,0,0,1.88,1.62,7.12,7.12,0,0,0,5.73-.55,4,4,0,0,0,1.9-2.23,6.83,6.83,0,0,0,.26-2.83,30.26,30.26,0,0,0-1-4.87c-.39-1.38-.74-2.48-1-3.24A5.49,5.49,0,0,1,122.58,226.79Z" style="fill:#263238"></path><path d="M91.29,470.53a1.53,1.53,0,0,1,0-.37c0-.28,0-.64,0-1.1,0-1,0-2.41.09-4.21.09-3.69.23-9,.39-15.48.32-13.08.69-31.14.91-51.09s.21-38,.16-51.11c0-6.51,0-11.8-.06-15.49v-4.21c0-.46,0-.82,0-1.09a2,2,0,0,1,0-.38,3.79,3.79,0,0,1,0,.38c0,.27,0,.63,0,1.09,0,1,.05,2.41.1,4.21,0,3.69.13,9,.22,15.49.14,13.08.2,31.15,0,51.11s-.65,38-1.06,51.1c-.24,6.51-.42,11.79-.56,15.48-.08,1.8-.14,3.21-.18,4.2,0,.46,0,.82-.07,1.1S91.29,470.53,91.29,470.53Z" style="fill:#263238"></path><path d="M201.45,385.23s0,.06-.16.18l-.5.5-2,1.89-7.33,6.86c-6.2,5.8-14.87,13.69-24.25,22.6S149.68,434.6,144.08,441c-2.81,3.17-5,5.8-6.53,7.63l-1.73,2.11-.46.54-.18.18a1.21,1.21,0,0,1,.13-.21c.12-.15.25-.34.42-.57l1.66-2.18c1.47-1.86,3.63-4.53,6.41-7.74,5.54-6.44,13.67-14.92,23.07-23.84s18.1-16.76,24.36-22.49l7.45-6.74,2-1.82.54-.46C201.38,385.27,201.45,385.22,201.45,385.23Z" style="fill:#263238"></path><path d="M214.78,312.21l-17.54-17.55-1.14,7.45s10,10.41,13.15,11.47C212,314.48,214.78,313.17,214.78,312.21Z" style="fill:#ffbe9d"></path><polygon points="251.91 240.07 172.92 332.17 180.61 337.97 260.52 246.38 251.91 240.07" style="fill:#455a64"></polygon><path d="M214.81,298.41a18.37,18.37,0,0,1,.16-2.09,29.39,29.39,0,0,0-.2-5c-.23-2-.46-3.74-.53-5a7,7,0,0,1,0-2.12,11.1,11.1,0,0,1,.32,2.08c.16,1.28.45,3,.68,5a22,22,0,0,1,.05,5.11A5.63,5.63,0,0,1,214.81,298.41Z" style="fill:#263238"></path><path d="M235.44,266.88a4.79,4.79,0,0,1-.65.46c-.43.29-1.07.71-1.86,1.3a33.41,33.41,0,0,0-6,5.77c-.27.35-.55.7-.82,1.07a3.68,3.68,0,0,0-.66,1.17c-.14.41-.14.9.2,1.08s.81,0,1.27-.2a27.05,27.05,0,0,0,5.61-3.39,26.5,26.5,0,0,0,5.06-5.18q.57-.75,1.08-1.56a8,8,0,0,0,.89-1.68,4.68,4.68,0,0,0,.34-1.83,1.83,1.83,0,0,0-.78-1.5,2.18,2.18,0,0,0-1.74-.23,6.47,6.47,0,0,0-1.76.7l-1.67,1c-.53.35-1,.74-1.55,1.1a29.38,29.38,0,0,0-5.2,5.05,31,31,0,0,0-3.5,5.55,30.3,30.3,0,0,0-2,5.36,27.76,27.76,0,0,0-1,8.23,21.93,21.93,0,0,0,.13,2.27,3.93,3.93,0,0,1,0,.79,3.94,3.94,0,0,1-.14-.78,17.83,17.83,0,0,1-.22-2.27,26.46,26.46,0,0,1,.87-8.33,30.9,30.9,0,0,1,2-5.46,31.28,31.28,0,0,1,3.52-5.66,29.62,29.62,0,0,1,5.26-5.16c.52-.37,1-.76,1.58-1.12l1.7-1a6.75,6.75,0,0,1,1.9-.76,2.75,2.75,0,0,1,2.14.3,2.38,2.38,0,0,1,1,1.92,5.17,5.17,0,0,1-.37,2,8.7,8.7,0,0,1-.94,1.76c-.35.56-.72,1.09-1.11,1.6a27.12,27.12,0,0,1-5.17,5.25,26.79,26.79,0,0,1-5.74,3.4,1.79,1.79,0,0,1-1.65.17,1,1,0,0,1-.48-.76,2,2,0,0,1,.1-.81,4.16,4.16,0,0,1,.74-1.27c.28-.37.57-.73.85-1.07a31.23,31.23,0,0,1,6.14-5.7c.81-.57,1.47-1,1.92-1.23A5.16,5.16,0,0,1,235.44,266.88Z" style="fill:#263238"></path><path d="M248.29,260.51a10.91,10.91,0,0,1-.2-1.94,9.21,9.21,0,0,0-1.44-4.33,4.69,4.69,0,0,0-3.71-2.23,3.27,3.27,0,0,0-1.75.57s.06-.19.34-.42a2.51,2.51,0,0,1,1.4-.52,4.81,4.81,0,0,1,4.15,2.31,8.37,8.37,0,0,1,1.37,4.59A5.42,5.42,0,0,1,248.29,260.51Z" style="fill:#263238"></path><path d="M253.73,253.33a4.65,4.65,0,0,1-1.08-1.51,14.58,14.58,0,0,1-1.54-4.21,14.8,14.8,0,0,1-.2-4.49,4.79,4.79,0,0,1,.42-1.81,28,28,0,0,0,.29,6.19A29.63,29.63,0,0,0,253.73,253.33Z" style="fill:#263238"></path><path d="M185.32,332.19a1.71,1.71,0,0,1,.13-.49c.1-.31.26-.77.47-1.35.43-1.17,1.07-2.86,2-4.88a32.85,32.85,0,0,1,4.06-6.71,20.14,20.14,0,0,1,3.3-3.29,20.52,20.52,0,0,1,4.34-2.49,14.68,14.68,0,0,0,4.17-2.46,10.19,10.19,0,0,0,2.33-3.8,25.55,25.55,0,0,0,1.5-7.57,26.88,26.88,0,0,0-.29-5.22c-.19-1.22-.35-1.89-.3-1.9a2.27,2.27,0,0,1,.16.47c.1.32.21.79.34,1.4a23.61,23.61,0,0,1,.46,5.27,24.69,24.69,0,0,1-1.42,7.71,10.51,10.51,0,0,1-2.43,4,14.63,14.63,0,0,1-4.31,2.57,20.57,20.57,0,0,0-4.24,2.41,21.3,21.3,0,0,0-3.24,3.19,34.54,34.54,0,0,0-4.1,6.57c-1,2-1.66,3.65-2.15,4.79-.22.53-.41,1-.56,1.32A1.73,1.73,0,0,1,185.32,332.19Z" style="fill:#263238"></path><path d="M198.18,304.2a1.16,1.16,0,0,1,.11-.46,3.12,3.12,0,0,1,.77-1.15,3.39,3.39,0,0,1,2-.94,2,2,0,0,1,1.39.28,1.53,1.53,0,0,1,.57,1.51,3.67,3.67,0,0,1-.68,1.59,10.1,10.1,0,0,1-1.17,1.4,19.86,19.86,0,0,1-3.12,2.5c-1.16.79-2.4,1.55-3.61,2.45a21.83,21.83,0,0,0-3.35,3.19A57.07,57.07,0,0,0,186,322a52.49,52.49,0,0,1-4.19,6.13,20.39,20.39,0,0,1-3.64,3.46c-.49.34-.89.56-1.16.72a1.75,1.75,0,0,1-.42.21,16.52,16.52,0,0,1,1.46-1.09,22.33,22.33,0,0,0,3.47-3.53,57.54,57.54,0,0,0,4.07-6.15,54.43,54.43,0,0,1,5.09-7.55,21.15,21.15,0,0,1,3.45-3.26c1.23-.91,2.49-1.67,3.64-2.44a19.33,19.33,0,0,0,3.08-2.4,5.69,5.69,0,0,0,1.79-2.74,1.19,1.19,0,0,0-.39-1.19,1.82,1.82,0,0,0-1.18-.26,3.26,3.26,0,0,0-1.87.8A4.3,4.3,0,0,0,198.18,304.2Z" style="fill:#263238"></path><path d="M259.91,280.56,234.83,258.4a10.9,10.9,0,0,1-.89-15.45h0a10.91,10.91,0,0,1,14.94-1.22l25.93,22.18Z" style="fill:#263238"></path><path d="M273.48,264s0-.08-.16-.13a.78.78,0,0,0-.57.08c-.5.27-1.25.63-2.12,1.16a24.69,24.69,0,0,0-6,5.11,25,25,0,0,0-4.15,6.72c-.78,1.88-1.07,3.12-1.16,3.1a3.09,3.09,0,0,1,.13-.89,9,9,0,0,1,.26-1,13.29,13.29,0,0,1,.43-1.32,21.92,21.92,0,0,1,12.56-13.05.79.79,0,0,1,.7,0C273.53,263.87,273.49,264,273.48,264Z" style="fill:#455a64"></path><polygon points="93.9 289.03 81.06 328.53 165.8 318.42 169.03 294.85 93.9 289.03" style="fill:#ffbe9d"></polygon><path d="M210.54,311.49c-1-2.91-12.37-10.91-12.37-10.91l-.93-5.92-28.49.19-3.09,23.57,9,7s12.36,4.47,15.27,3.74,3.43-1.25,3.11-3.32c0,0,5.41,1.24,6.76-3,0,0,5.61-.1,5.61-5,0,0,3.53.52,4.46-1.66S211.57,314.4,210.54,311.49Z" style="fill:#ffbe9d"></path><path d="M193.2,325.75s-.12.1-.36.07a2.13,2.13,0,0,1-.88-.41,14.36,14.36,0,0,0-2.7-1.28,17.32,17.32,0,0,1-3.86-1.95,18.65,18.65,0,0,1,4.06,1.47,9.64,9.64,0,0,1,2.72,1.47A2.91,2.91,0,0,0,193.2,325.75Z" style="fill:#eb996e"></path><path d="M199.61,322.64a20.94,20.94,0,0,1-4.08-2.23c-1.09-.67-2.06-1.31-2.75-1.79-.34-.23-.63-.47-.79-.56a.28.28,0,0,0-.28,0s0,0,0-.11a.33.33,0,0,1,.32-.06,7.5,7.5,0,0,1,.92.45c.73.4,1.73,1,2.82,1.66A20.62,20.62,0,0,1,199.61,322.64Z" style="fill:#eb996e"></path><path d="M196.91,311.1c.07-.05.46.44,1.2,1.11a22.92,22.92,0,0,0,3.21,2.2,13.51,13.51,0,0,1,4.22,3.69c-.1.11-1.9-1.64-4.49-3.25a14.91,14.91,0,0,1-3.2-2.38A3.5,3.5,0,0,1,196.91,311.1Z" style="fill:#eb996e"></path><path d="M193.39,298.54s.1-.2.41-.15a7.75,7.75,0,0,1,1.07.34,18,18,0,0,1,3.25,1.67,19.05,19.05,0,0,1,4.06,3.18,39.29,39.29,0,0,1-4.33-2.74,36,36,0,0,0-3.13-1.77l-1-.48C193.53,298.5,193.41,298.57,193.39,298.54Z" style="fill:#eb996e"></path><polygon points="289.05 356.6 273.33 354.26 273.93 365.29 286.83 359.64 289.05 356.6" style="fill:#37474F"></polygon><path d="M284.5,345.82s-15-4.58-15.29-4.23-1.48,4.31-1.48,4.31L279,347.45Z" style="fill:#37474F"></path><polygon points="289.05 356.6 273.33 354.26 273.93 365.29 286.83 359.64 289.05 356.6" style="fill:#fff;opacity:0.7000000000000001"></polygon><path d="M284.5,345.82s-15-4.58-15.29-4.23-1.48,4.31-1.48,4.31L279,347.45Z" style="fill:#fff;opacity:0.7000000000000001"></path></g><g id="freepik--Table--inject-7"><path d="M482.36,470.21c0,.15-104,.26-232.35.26s-232.37-.11-232.37-.26S121.66,470,250,470,482.36,470.07,482.36,470.21Z" style="fill:#455a64"></path></g></svg>